<?xml version="1.0" encoding="UTF-8" standalone="no"?>
<!-- Created with Inkscape (http://www.inkscape.org/) -->

<svg
   width="210mm"
   height="297mm"
   viewBox="0 0 210 297"
   version="1.1"
   id="svg5"
   inkscape:version="1.2.2 (b0a8486541, 2022-12-01)"
   sodipodi:docname="elements2.svg"
   xmlns:inkscape="http://www.inkscape.org/namespaces/inkscape"
   xmlns:sodipodi="http://sodipodi.sourceforge.net/DTD/sodipodi-0.dtd"
   xmlns="http://www.w3.org/2000/svg"
   xmlns:svg="http://www.w3.org/2000/svg">
  <sodipodi:namedview
     id="namedview7"
     pagecolor="#ffffff"
     bordercolor="#000000"
     borderopacity="0.25"
     inkscape:showpageshadow="2"
     inkscape:pageopacity="0.0"
     inkscape:pagecheckerboard="0"
     inkscape:deskcolor="#d1d1d1"
     inkscape:document-units="mm"
     showgrid="false"
     inkscape:zoom="2.3394468"
     inkscape:cx="430.44364"
     inkscape:cy="128.87662"
     inkscape:window-width="1918"
     inkscape:window-height="1182"
     inkscape:window-x="1"
     inkscape:window-y="17"
     inkscape:window-maximized="0"
     inkscape:current-layer="layer1" />
  <defs
     id="defs2" />
  <g
     inkscape:label="Layer 1"
     inkscape:groupmode="layer"
     id="layer1">
    <g
       id="g3505">
      <rect
         style="fill:#a76424;fill-opacity:1;stroke:none;stroke-width:0.692486;stroke-linejoin:round;stroke-miterlimit:4;stroke-dasharray:none;stroke-opacity:1;stop-color:#000000"
         id="rect3311"
         width="25.720982"
         height="25.720982"
         x="121.73167"
         y="40.331463" />
      <path
         id="path3367"
         style="fill:#603308;fill-opacity:1;stroke:none;stroke-width:0.692486;stroke-linejoin:round;stroke-miterlimit:4;stroke-dasharray:none;stroke-opacity:1;stop-color:#000000"
         d="M 122.25042 40.804744 L 122.25042 65.525716 L 147.24114 65.525716 L 147.24114 40.804744 L 122.25042 40.804744 z M 135.33748 43.207182 C 135.36315 43.207326 135.3888 43.208389 135.41447 43.208732 L 135.57209 43.681571 L 131.56458 44.027287 L 131.50618 43.966309 C 132.71548 43.452236 134.02996 43.199847 135.33748 43.207182 z M 135.73538 43.218551 C 136.08271 43.234463 136.42852 43.268471 136.77098 43.32087 L 135.86768 43.615426 L 135.73538 43.218551 z M 137.38903 43.436108 C 137.72176 43.509484 138.04955 43.599332 138.37088 43.707926 L 138.34349 44.706832 L 136.43147 45.300594 L 135.96276 43.900163 L 137.38903 43.436108 z M 138.66647 43.813863 C 139.38831 44.085835 140.07142 44.449697 140.6927 44.902686 L 140.57592 45.18949 L 140.55835 45.17192 L 138.6427 44.654122 L 138.66647 43.813863 z M 135.67182 43.976644 L 136.14466 45.394645 L 133.86935 46.44161 L 131.8302 44.306856 L 135.67182 43.976644 z M 131.21525 44.0955 L 131.33617 44.222624 L 130.16208 52.009745 C 129.059 52.154554 127.90283 52.305236 127.04082 52.427808 C 126.8163 52.459734 126.62194 52.488671 126.42484 52.517725 C 126.09189 50.91226 126.07467 48.861086 128.38803 46.208032 C 129.1858 45.293116 130.15535 44.590622 131.21525 44.0955 z M 131.59765 44.495992 L 133.58203 46.574418 L 133.48022 46.620927 L 132.40846 51.71674 C 132.00654 51.76787 132.00263 51.765881 131.59352 51.818542 C 131.18801 51.870742 130.87102 51.91661 130.47059 51.968921 L 131.59765 44.495992 z M 138.63495 44.963147 L 140.40642 45.441154 L 140.45499 45.48818 L 139.98215 46.656067 L 139.96097 46.632812 L 138.59361 46.505688 L 138.63495 44.963147 z M 138.33419 45.023608 L 138.29492 46.492253 L 136.94513 46.843652 L 136.52552 45.585848 L 138.33419 45.023608 z M 140.94127 45.091305 C 141.72868 45.713634 142.40447 46.488778 142.91479 47.414677 L 140.81104 45.412215 L 140.94127 45.091305 z M 136.24026 45.679899 L 136.67951 46.998165 L 135.5292 48.181555 L 134.08794 46.672087 L 136.24026 45.679899 z M 140.6896 45.710905 L 142.72876 47.652389 L 141.57999 48.492131 L 140.20333 46.910315 L 140.6896 45.710905 z M 133.80062 46.802828 L 135.36745 48.443555 L 135.369 51.345703 C 134.48879 51.454561 134.00993 51.515145 132.72472 51.677983 L 133.74222 46.830216 L 133.80062 46.802828 z M 138.2851 46.804895 L 138.26184 47.720601 L 138.24996 47.718534 L 137.37508 48.130912 L 137.04125 47.128906 L 138.2851 46.804895 z M 138.58586 46.808512 L 139.81265 46.920133 L 139.85555 46.968709 L 139.43955 47.99397 L 139.37702 47.918005 L 138.55847 47.773311 L 138.58586 46.808512 z M 140.0762 47.222957 L 141.33814 48.671965 L 140.48445 49.295182 L 139.65452 48.263721 L 140.0762 47.222957 z M 136.787 47.318559 L 137.10378 48.263721 L 136.39064 49.082275 L 135.73642 48.396529 L 136.787 47.318559 z M 143.1587 47.895785 C 143.51452 48.662904 143.76356 49.521739 143.87804 50.473405 C 143.90318 50.682384 143.92147 50.888582 143.93592 51.092489 L 143.81706 51.089905 L 143.1587 47.895785 z M 142.85743 47.931441 L 143.50804 51.08422 L 142.36702 51.058382 L 141.72055 48.763949 L 142.85743 47.931441 z M 138.25203 48.04668 L 138.1833 50.554537 L 137.47068 48.416166 L 138.25203 48.04668 z M 138.55072 48.076135 L 139.21476 48.193441 L 139.31036 48.312297 L 138.49025 50.335946 L 138.55072 48.076135 z M 139.52533 48.57998 L 140.24002 49.472949 L 138.70885 50.593811 L 139.52533 48.57998 z M 137.21281 48.593933 L 137.90631 50.669775 L 136.63869 49.343758 L 136.64282 49.250224 L 137.21281 48.593933 z M 135.66614 48.757747 L 136.33586 49.45693 L 136.27747 51.232532 C 136.12932 51.250752 135.8543 51.285526 135.6682 51.308496 L 135.66614 48.757747 z M 141.46113 48.953084 L 142.05283 51.052698 L 141.01155 51.03151 L 140.62708 49.562349 L 141.46113 48.953084 z M 140.36508 49.754069 L 140.69942 51.025309 L 138.68559 50.982418 L 140.36508 49.754069 z M 136.6268 49.76182 L 137.84378 51.037195 C 137.78838 51.043995 136.84442 51.162905 136.58029 51.195325 L 136.6268 49.76182 z M 138.62306 51.279557 L 140.75368 51.323999 L 140.59762 52.625212 L 138.62306 51.279557 z M 141.05444 51.332267 L 142.09159 51.353455 L 142.05645 53.621016 L 140.87667 52.816414 L 141.05444 51.332267 z M 137.86704 51.335885 L 135.62118 53.339897 L 135.662 51.61132 C 136.34449 51.52706 137.76651 51.348147 137.86704 51.335885 z M 142.39079 51.359656 L 143.48065 51.38291 L 143.14837 54.365157 L 142.34377 53.816353 L 142.35565 53.806535 L 142.39079 51.359656 z M 143.78347 51.390662 L 143.95349 51.394279 C 144.00813 52.580649 143.88414 53.678523 143.62121 54.686584 L 143.42794 54.55481 L 143.78347 51.390662 z M 138.09545 51.533289 L 137.37508 54.439571 L 135.76381 53.613265 L 138.09545 51.533289 z M 135.36331 51.648527 L 135.31267 53.613265 L 133.05079 55.629163 L 132.85959 55.587821 L 132.68182 51.986491 C 133.9912 51.820427 134.4604 51.760227 135.36331 51.648527 z M 138.67991 51.6816 L 140.43381 52.876876 L 139.4318 53.998254 L 138.67991 51.6816 z M 138.36726 51.685734 L 139.19357 54.234416 L 137.66808 54.497965 L 138.36726 51.685734 z M 132.38262 52.023698 L 132.57227 55.832251 L 132.77536 55.877209 L 131.9413 56.619283 L 131.93923 56.619283 L 130.46077 52.273295 C 130.87821 52.218715 131.20948 52.171725 131.63279 52.117232 C 132.0096 52.068732 132.01149 52.070948 132.38262 52.023698 z M 130.15846 52.314636 L 131.69325 56.825989 L 131.70359 56.83219 L 128.01493 60.121395 C 126.46377 58.616008 125.62682 56.888455 126.48995 56.031722 C 127.29322 55.234402 126.81506 54.196893 126.48944 52.811764 C 126.68046 52.783455 126.86736 52.755268 127.08423 52.72443 C 127.93228 52.603845 129.07323 52.457206 130.15846 52.314636 z M 140.6834 53.048958 L 141.83579 53.833923 L 139.88087 55.384733 L 139.53929 54.32795 L 140.6834 53.048958 z M 135.52351 53.826172 L 137.30066 54.738261 L 136.8733 56.459086 L 133.41408 55.708744 L 135.52351 53.826172 z M 142.09779 54.01169 L 142.9768 54.611137 L 140.5139 57.336035 L 139.9806 55.689624 L 142.09779 54.01169 z M 139.28711 54.521737 L 139.61112 55.521676 L 137.18336 56.449268 L 137.59005 54.816292 L 139.28711 54.521737 z M 143.22692 54.783219 L 143.53594 54.994059 C 143.04747 56.655264 142.17992 58.062262 141.12214 59.207239 L 140.62139 57.664181 L 143.22692 54.783219 z M 139.7031 55.806413 L 140.2519 57.496232 L 136.5896 58.841886 L 137.09551 56.804801 L 139.7031 55.806413 z M 133.13658 55.955241 L 136.80095 56.750024 L 136.25008 58.966943 L 136.24181 58.970561 L 132.22035 56.771729 L 133.13658 55.955241 z M 131.98264 56.984635 L 136.17412 59.277519 L 135.33334 62.664909 C 134.88826 62.771041 134.45896 62.838723 134.05693 62.86593 C 132.09217 62.998896 129.83425 61.79659 128.23352 60.327067 L 131.98264 56.984635 z M 140.34389 57.781486 L 140.88752 59.454252 C 139.32242 61.051258 137.39112 62.101412 135.66252 62.58016 L 136.50226 59.195353 L 140.34389 57.781486 z " />
      <g
         id="g2151"
         transform="matrix(0.19232259,0,0,0.19232259,121.87069,34.492387)">
        <path
           style="fill:#e3e3d9;fill-opacity:1;stroke:none;stroke-width:1.4;paint-order:stroke markers fill"
           d="m 29.249151,47.729888 c 5.648261,1.577386 29.550625,0.128837 33.889566,0.04029 -0.551242,6.204183 -1.807295,42.634539 1.479769,49.312027 3.287064,6.677485 39.813634,21.779135 42.081974,30.197485 2.26833,8.41836 -6.49607,27.10441 -26.384188,16.69493 C 60.428137,133.56514 32.769923,127.04149 29.363922,116.79229 25.957921,106.54309 30.501598,92.710397 32.18484,87.876919 33.868082,83.043441 28.362872,58.517214 29.249151,47.729888 Z"
           id="path1570"
           sodipodi:nodetypes="cczzzzzc" />
        <path
           id="path2678"
           style="fill:#979797;fill-opacity:1;stroke:none;stroke-width:1.4;paint-order:stroke markers fill"
           d="m 49.171002,48.287941 c -0.733533,0.02258 -1.343598,0.05357 -2.087773,0.07255 l 2.133451,2.232869 -6.104787,40.489896 c -4.329429,0.568354 -8.613764,1.136213 -12.480959,1.663232 -0.147969,0.512081 -0.287732,1.080142 -0.435288,1.633676 3.941314,-0.537857 8.411599,-1.122279 12.897438,-1.711598 l 7.98029,23.457214 0.05374,0.0322 -11.236893,10.01969 c 0.484464,0.25853 0.961871,0.51721 1.469771,0.77385 l 11.218084,-10.00089 21.793984,11.92207 -2.724584,10.97895 c 0.48198,0.21313 0.967331,0.41804 1.445588,0.63412 l 2.98522,-12.0403 19.974907,-7.35154 6.002679,18.48096 1.48321,-0.47559 -6.042988,-18.61531 1.109717,-1.22794 c -0.42578,-0.29307 -0.853068,-0.58751 -1.300491,-0.88401 l -0.368115,0.40573 -0.271383,-0.84102 c -0.658013,-0.42893 -1.361895,-0.86384 -2.05553,-1.29781 l 0.964621,2.97179 -19.04253,6.99686 2.63054,-10.59202 8.783693,-3.36408 c -0.580279,-0.33745 -1.130948,-0.67391 -1.714285,-1.0103 l -6.612624,2.52574 1.378414,-5.53783 c -0.464217,-0.26696 -0.945562,-0.54189 -1.402596,-0.80609 l -1.587997,6.39498 -17.986553,-3.90148 9.638148,-8.60098 c -0.472139,-0.32655 -0.862261,-0.63078 -1.281683,-0.94312 l -10.245402,9.13031 -0.994178,-0.21496 -0.924316,-18.725467 c 3.395563,-0.430648 4.909704,-0.617733 6.953868,-0.875951 -0.05239,-0.49621 -0.09654,-1.027206 -0.142409,-1.555754 -1.967988,0.247364 -3.386235,0.421865 -6.588441,0.827586 l 5.290637,-25.206431 0.303627,-0.14241 0.467532,0.489028 c 0.01419,-0.865938 0.03807,-1.610859 0.05643,-2.445139 L 62.388189,62.131192 51.78542,51.031334 62.992757,50.066713 c 0.03436,-0.578857 0.06764,-1.165048 0.09942,-1.582623 l -12.687855,1.093595 z m 1.405283,3.726823 10.317951,10.806978 -0.529332,0.241827 -5.572769,26.496175 c -2.08982,0.265855 -2.11014,0.255512 -4.237345,0.529332 -2.108487,0.271419 -3.756706,0.509912 -5.838778,0.781908 z m 4.081502,39.141038 0.986117,19.802948 1.055978,0.23376 -4.336764,3.85849 H 52.35237 L 44.664959,92.453607 c 2.170518,-0.283794 3.893001,-0.528123 6.09404,-0.811464 1.959258,-0.25218 1.969064,-0.24066 3.898788,-0.486341 z m 3.920284,20.442438 19.053278,4.13256 -2.864306,11.52708 -0.04299,0.0188 -20.909973,-11.43303 z" />
        <path
           id="path3367-3"
           style="display:inline;fill:#979797;fill-opacity:1;stroke:none;stroke-width:3.60065;stroke-linejoin:round;stroke-miterlimit:4;stroke-dasharray:none;stroke-opacity:1;stop-color:#000000"
           d="M 29.249834 47.729005 C 28.892354 52.080063 29.579544 58.663404 30.410603 65.291017 C 31.443556 63.867364 32.582971 62.412766 33.887537 60.916636 C 39.108497 54.929055 45.741833 50.692581 52.951564 48.156233 C 44.217314 48.486784 32.948113 48.761821 29.249834 47.729005 z M 104.14096 123.63043 C 97.302454 132.86869 88.080059 139.44735 79.093059 143.36082 C 79.497733 143.56644 79.916941 143.76478 80.315629 143.97345 C 100.20373 154.38292 108.96997 135.69768 106.70164 127.27933 C 106.40245 126.16897 105.47725 124.93867 104.14096 123.63043 z " />
        <path
           style="color:#000000;fill:#000000;-inkscape-stroke:none;paint-order:stroke markers fill"
           d="m 63.908576,48.496591 c -1.394984,14.545156 0.866963,31.588706 0.286211,43.141103 -0.580752,11.552396 20.005822,15.798236 28.350879,22.536986 8.345054,6.73875 23.712154,12.43667 11.673494,26.99076 -12.038654,14.55409 -22.484068,2.74294 -39.627729,-3.30434 -17.143663,-6.04728 -29.283405,-10.88922 -33.06077,-15.9804 -3.777364,-5.09118 -6.899091,-14.79095 -2.251253,-27.800184 3.87542,-10.847247 -0.340883,-24.624623 -0.59873,-32.773462 -0.101782,-3.216662 -0.841237,-5.791363 -0.869984,-10.309303 -0.02875,-4.517939 1.012918,-4.676798 2.855592,-4.146885 10.486964,3.015821 20.151667,0.181152 31.624937,-0.452238 1.526484,-0.08427 1.701653,1.218991 1.617353,2.097963 z m -1.634526,0.671378 c -12.7162,1.616824 -25.179058,2.347926 -32.048199,-0.212604 -0.606966,0.727994 0.239317,4.435787 0.339593,11.878301 0.125956,9.348499 6.013138,23.495812 2.335065,32.341102 -3.67807,8.845292 -3.428529,15.234042 0.358867,23.591842 3.787396,8.3578 28.150267,15.56783 37.273032,20.92256 7.241757,4.25065 17.808021,10.41495 26.266595,4.70873 2.04571,-1.38005 4.508287,-4.37931 6.771657,-7.28693 4.57985,-5.88347 0.84223,-10.1328 -5.914017,-15.18153 C 87.268049,112.16637 69.961625,104.44795 66.489577,101.07402 60.759472,95.505851 62.357676,89.227507 62.074775,81.487112 61.791874,73.746717 60.709426,62.285962 62.274048,49.167969 Z"
           id="path258"
           sodipodi:nodetypes="szzzzzsszsssccszzssssszcc" />
        <path
           style="fill:#226ba1;fill-opacity:1;stroke:none;stroke-width:1.4;paint-order:stroke markers fill"
           d="m 27.841626,55.093113 c -0.07586,-0.415357 3.14796,-1.636876 3.251734,-0.803182 0.103774,0.833695 -1.573905,8.736365 -1.064297,10.392746 -0.759177,0.188347 -1.324094,0.877671 -1.318038,0.184402 0.0061,-0.693269 -0.793536,-9.358608 -0.869399,-9.773966 z"
           id="path1680"
           sodipodi:nodetypes="zzczz" />
        <path
           id="path1136"
           style="fill:#5353b2;fill-opacity:1;stroke:none;stroke-width:1.4;paint-order:stroke markers fill"
           d="m 102.83164,123.3033 c -4.224137,-1.75742 -20.692088,4.39295 -23.492048,19.95385 l -1.394547,-0.97154 c -0.75506,-5.91522 12.651171,-24.36151 23.892515,-19.98999 z M 29.814065,60.43987 c 5.935539,1.702873 28.340204,3.451521 32.378102,1.086588 l -0.131828,2.538204 C 51.178687,63.666411 55.279102,66.577907 29.399357,62.86637 Z m 0.236593,-4.725307 c 5.842548,2.844406 28.298592,3.962334 32.378102,1.086588 l -0.131828,2.538204 C 51.41528,58.941104 55.515695,61.8526 29.63595,58.141063 Z m 6.529311,67.884297 c 0,-2.53679 6.880751,-10.57157 8.506314,-12.09924 1.625563,-1.52768 -0.951515,-3.7136 -2.022723,-3.86007 -1.071211,-0.14646 -11.981561,-1.8872 -14.658954,-6.71562 -2.375786,7.35293 1.132551,19.1443 8.175363,22.67493 z" />
        <path
           id="path2654"
           style="color:#000000;fill:#000000;stroke-width:5.1996;-inkscape-stroke:none;paint-order:stroke markers fill"
           d="m 58.449097,58.006652 c -0.600448,0.0904 -1.246669,0.170074 -1.929242,0.233766 l 1.115091,1.16883 c 0.618504,-0.04296 1.317754,-0.06874 2.077025,-0.08061 z m -10.411995,0.411105 -0.241827,1.596058 c 0.566907,0.01428 1.083038,0.0164 1.571875,0.01344 l 0.23914,-1.587997 c -0.523509,-0.0061 -1.037927,-0.0064 -1.569188,-0.0215 z M 61.91797,61.63943 c -0.422243,0.20031 -0.98298,0.36756 -1.668606,0.50515 l 0.644872,0.677115 -0.529332,0.241827 -0.209584,0.994178 c 0.572586,-6.11e-4 1.077721,-0.01496 1.757276,0.0081 l 0.118227,-0.05643 0.02956,0.03224 0.112853,-2.136138 z m -14.501557,0.892073 -0.330497,2.184503 c 0.529501,0.01711 1.103872,0.04603 1.566501,0.04837 l 0.330497,-2.181817 c -0.525508,-0.01817 -1.034193,-0.02623 -1.566501,-0.05105 z m 50.458542,59.118637 c -0.52861,0.0199 -1.05712,0.074 -1.58531,0.16927 l 0.62875,1.93731 c 0.52208,-0.16204 1.02311,-0.29869 1.50739,-0.40573 z" />
        <path
           style="fill:#5ba5dc;fill-opacity:1;stroke:none;stroke-width:1.4;paint-order:stroke markers fill"
           d="m 28.407804,100.84568 c -2.151832,6.46495 2.784211,20.51778 8.168818,22.69277 l -1.188152,1.93013 c -3.824683,-1.35543 -11.746322,-13.11252 -8.238807,-24.97999 z"
           id="path1192"
           sodipodi:nodetypes="ccccc" />
      </g>
    </g>
    <path
       id="path2625"
       style="fill:none;fill-opacity:1;stroke:#000000;stroke-width:0.3;stroke-dasharray:none;stroke-opacity:1;paint-order:stroke markers fill"
       d="m 104.67552,51.306126 0.0679,-2.115121 0.71019,-0.815653 1.06658,-0.501546 1.02574,0.18135 1.1563,1.439958 0.46231,1.751359 -0.18313,1.521989 -1.42985,1.599232 -1.79129,0.310269 -2.04771,-1.050925 0.0559,-2.226903 -0.002,-2.992498 1.35385,-1.390102 1.47473,-0.382585 1.54162,0.14133 1.6518,1.896443 0.70548,2.506308 -0.0377,2.553877 -2.33312,1.848319 -2.80391,1.072885 -4.35335,-0.944904 -0.1898,-3.820565 1.08511,-5.163634 2.61335,-1.202458 2.35225,-0.731078 1.90555,0.515911 2.47412,2.355186 0.70746,3.435038 -0.37999,3.397488 -2.77023,3.064441 -4.28396,1.57615 -4.414,-2.413347 -1.533197,-4.510275 1.2105,-8.027543 4.228347,-0.364241 2.77966,-0.905069 2.59942,1.662758 M 93.133056,52.947172 C 93.383486,52.734532 106.40658,51.1483 106.40658,51.1483 L 97.503503,41.824031 M 109.89018,61.289638 106.59712,51.143862 103.55281,63.4034 m 6.02432,-19.663553 -3.00978,7.419263 0.24653,-9.068141 m 6.90432,9.184079 -7.22742,-0.15303 5.82992,-4.2639 m -5.93282,4.271454 6.91941,4.719823 m -17.944137,5.275548 11.128417,-9.922915 -3.19083,-9.558977" />
    <g
       id="g1068">
      <rect
         style="fill:#e6d056;fill-opacity:1;stroke:none;stroke-width:0.692486;stroke-linejoin:round;stroke-miterlimit:4;stroke-dasharray:none;stroke-opacity:1;stop-color:#000000"
         id="rect3311-5"
         width="25.720982"
         height="25.720982"
         x="72.308784"
         y="9.1203413" />
      <path
         style="opacity:1;fill:#f3e9b1;fill-opacity:1;stroke:none;stroke-width:0.7;stroke-linecap:round;stroke-dasharray:none;stroke-opacity:1;paint-order:stroke markers fill"
         d="m 95.780701,18.391483 -11.005215,14.941359 -3.216941,-0.0815 15.299437,-18.67815 z"
         id="path14243"
         sodipodi:nodetypes="ccccc" />
      <path
         style="opacity:1;fill:#dfbd40;fill-opacity:1;stroke:none;stroke-width:0.7;stroke-linecap:round;stroke-dasharray:none;stroke-opacity:1;paint-order:stroke markers fill"
         d="M 75.63887,17.142551 87.142634,31.70354 90.354984,31.513393 74.433193,13.362839 Z"
         id="path14247"
         sodipodi:nodetypes="ccccc" />
      <path
         style="opacity:1;fill:#f3e9b1;fill-opacity:1;stroke:none;stroke-width:0.7;stroke-linecap:round;stroke-dasharray:none;stroke-opacity:1;paint-order:stroke markers fill"
         d="m 73.740104,25.839259 10.865737,-15.540101 1.324243,0.05138 -11.868133,16.695553 z"
         id="path13647"
         sodipodi:nodetypes="ccccc" />
      <path
         style="opacity:1;fill:#dfbd40;fill-opacity:1;stroke:none;stroke-width:0.7;stroke-linecap:round;stroke-dasharray:none;stroke-opacity:1;paint-order:stroke markers fill"
         d="M 94.620424,18.113746 83.11666,32.674735 79.90431,32.484588 95.826101,14.334034 Z"
         id="path14245"
         sodipodi:nodetypes="ccccc" />
      <path
         style="opacity:1;fill:#f3e9b1;fill-opacity:1;stroke:none;stroke-width:0.7;stroke-linecap:round;stroke-dasharray:none;stroke-opacity:1;paint-order:stroke markers fill"
         d="m 74.585525,27.384664 10.865737,-15.540101 1.324243,0.05138 -11.868133,16.695553 z"
         id="path14253"
         sodipodi:nodetypes="ccccc" />
      <path
         style="opacity:1;fill:#f3e9b1;fill-opacity:1;stroke:none;stroke-width:0.7;stroke-linecap:round;stroke-dasharray:none;stroke-opacity:1;paint-order:stroke markers fill"
         d="M 76.708185,29.572484 88.733517,13.185106 90.028944,14.34368 78.160811,31.039233 Z"
         id="path14255"
         sodipodi:nodetypes="ccccc" />
      <path
         style="opacity:1;fill:#e6d056;fill-opacity:1;stroke:none;stroke-width:0.7;stroke-linecap:round;stroke-dasharray:none;stroke-opacity:1;paint-order:stroke markers fill"
         d="M 80.281312,29.318744 91.785076,14.757755 93.217991,14.594048 82.289536,29.839141 Z"
         id="path14257"
         sodipodi:nodetypes="ccccc" />
      <path
         id="path381"
         style="stroke-width:0.543167;stroke-linecap:round;paint-order:stroke markers fill"
         transform="translate(0,0.39992975)"
         d="m 75.773438,11.949219 c -0.108616,0.0019 -0.217308,0.0201 -0.3125,0.08203 -0.09519,0.06193 -0.166579,0.187048 -0.158204,0.318359 0.01653,0.259177 0.14833,0.519202 0.320313,0.796875 0.171983,0.277673 0.388988,0.570419 0.595703,0.867188 0.428259,0.61483 1.785296,2.297681 2.720703,3.105469 1.808336,1.561623 2.719445,2.21278 3.462891,2.572265 l -0.02344,-0.01563 c 0.05895,0.04387 0.13592,0.05504 0.212891,0.04883 0.64222,0.640117 1.297992,1.2938 1.958984,1.945313 2.625622,2.58538 5.26391,5.123088 7.169922,6.898437 0.953006,0.887675 1.725699,1.587561 2.261719,2.048829 0.26801,0.230633 0.477071,0.402563 0.626953,0.513671 0.07494,0.05555 0.133594,0.09676 0.185547,0.125 0.02598,0.01412 0.05041,0.0248 0.08398,0.0332 0.01679,0.0042 0.03668,0.0092 0.06641,0.0059 0.02708,-0.0031 0.06476,-0.02194 0.09375,-0.05078 0.05048,-0.05337 0.04912,-0.115789 0.04297,-0.146485 -0.0063,-0.03145 -0.0165,-0.05082 -0.02734,-0.07227 -0.02169,-0.04289 -0.0499,-0.08752 -0.08984,-0.142579 -0.07645,-0.10537 -0.197314,-0.250352 -0.351563,-0.429687 -0.0016,-0.0032 -0.0024,-0.01052 -0.0039,-0.01367 -0.0093,-0.01933 -0.01945,-0.03652 -0.03125,-0.05469 -0.0236,-0.03633 -0.05347,-0.07686 -0.08984,-0.123047 -0.07275,-0.09237 -0.17045,-0.207102 -0.28125,-0.333985 -0.221599,-0.253765 -0.493247,-0.553168 -0.701172,-0.792968 -0.227419,-0.262288 -1.059755,-1.118859 -2.146484,-2.220704 -1.086729,-1.101844 -2.420595,-2.439671 -3.623047,-3.636718 -1.20188,-1.196479 -1.775884,-1.77838 -2.710937,-2.691406 -0.849423,-0.829389 -1.484862,-1.437984 -1.78711,-1.697266 l -0.0078,-0.0059 c -0.0283,-0.02772 -0.0557,-0.0563 -0.08398,-0.08398 -6.57e-4,-6.44e-4 -0.0013,-0.0013 -0.002,-0.002 -0.518856,-0.831855 -1.621331,-2.127052 -3.013672,-3.498047 -1.512478,-1.489302 -2.926505,-2.63907 -3.748047,-3.074219 -0.016,-0.02886 -0.01965,-0.0668 -0.04102,-0.08789 -0.04753,-0.04692 -0.103293,-0.08048 -0.164063,-0.107422 -0.121539,-0.05388 -0.263651,-0.08256 -0.404296,-0.08008 z m 1.773437,2.085937 c 0.22817,0.104181 0.499912,0.285147 0.664063,0.408203 0.419433,0.314436 0.928748,0.758381 1.419921,1.232422 0.122288,0.118022 0.24199,0.240101 0.361329,0.361328 0.04597,0.04708 0.09197,0.09018 0.132812,0.132813 -0.01647,-0.01707 -0.01428,-0.01312 0.0078,0.0098 0.390058,0.407655 0.719918,0.789679 0.962891,1.105468 0.106688,0.141003 0.198371,0.27054 0.265625,0.382813 0.05571,0.093 0.05839,0.130138 0.08203,0.193359 -0.227239,-0.104804 -0.494885,-0.285769 -0.658203,-0.408203 -0.252694,-0.189435 -0.535877,-0.42573 -0.830078,-0.6875 h -0.002 c -0.208448,-0.18782 -0.425959,-0.39418 -0.646484,-0.611328 -0.807818,-0.795447 -1.452699,-1.559181 -1.708985,-1.988281 l 0.01953,0.06836 a 0.14447194,0.14447194 0 0 0 -0.04102,-0.09766 l 0.02344,0.0293 c -0.03548,-0.06413 -0.03484,-0.08329 -0.05273,-0.13086 z" />
      <g
         id="g13374"
         transform="matrix(0.34145036,0.33621705,-0.42732093,0.4432776,46.9278,-35.847563)">
        <path
           style="color:#000000;fill:#000000;stroke-linecap:round;-inkscape-stroke:none;paint-order:stroke markers fill"
           d="m 112.93394,23.500082 c 0.65802,0.462181 2.15191,0.608643 3.64419,0.82609 1.49228,0.217447 5.997,0.618399 8.50787,0.49058 4.97008,-0.253009 7.25551,-0.537074 8.84925,-0.95669 0.1919,-0.02069 0.32331,-0.136868 0.30303,-0.328812 -0.0207,-0.191898 -0.19282,-0.330828 -0.38476,-0.310547 0,0 -5.06689,0.535866 -10.01172,0.789063 -2.44707,0.1253 -5.53247,-0.189833 -7.16211,-0.375 -1.62964,-0.185167 -2.23078,-0.544243 -2.42535,-1.021096 -0.19457,-0.476853 -1.97842,0.424231 -1.3204,0.886412 z"
           id="path13361"
           sodipodi:nodetypes="zzscccszzz" />
        <path
           id="path11974"
           style="opacity:1;fill:#b3b3b3;fill-opacity:1;stroke:none;stroke-width:0.3;stroke-dasharray:none;stroke-opacity:1;paint-order:stroke markers fill"
           d="m 124.25391,21.822441 c -6.12526,-10e-6 -11.09125,0.551048 -11.09286,1.230932 -9.7e-4,0.680087 4.96775,1.352208 11.09483,1.352197 6.12708,1.1e-5 11.09187,-0.67211 11.0909,-1.352197 -0.002,-0.679885 -4.96761,-1.230943 -11.09287,-1.230932 z m 0,0.5333 c 3.47145,-1.2e-5 6.28584,0.312312 6.28644,0.697632 0.002,0.385522 -2.81317,0.698161 -6.28644,0.698149 -3.47306,-2e-5 -6.28789,-0.31265 -6.28592,-0.698149 6e-4,-0.385297 2.81468,-0.697612 6.28592,-0.697632 z"
           sodipodi:nodetypes="scscsscscs" />
        <path
           id="ellipse11978"
           style="opacity:1;fill:#b3b3b3;stroke-width:0.349601;paint-order:stroke markers fill"
           d="m 140.12891,22.421069 a 29.328999,0.63239916 0 0 0 -8.18606,0.0259 v 1.213319 a 29.328999,0.63239916 0 0 0 8.18606,0.0259 29.328999,0.63239916 0 0 0 29.32896,-0.632857 29.328999,0.63239916 0 0 0 -29.32896,-0.632268 z" />
        <path
           style="color:#000000;fill:#717171;stroke-linecap:round;-inkscape-stroke:none;paint-order:stroke markers fill;fill-opacity:1"
           d="m 163.06282,23.204363 c -1.13639,0.003 -8.6604,0.02136 -15.7386,0.0515 -3.5391,0.01507 -5.24736,0.0326 -7.97116,0.02367 -2.7238,-0.0089 -4.7303,-0.03678 -5.33203,-0.08594 -0.0832,-0.007 -0.15609,0.05538 -0.16211,0.138672 -0.007,0.08322 0.0554,0.156092 0.13867,0.162109 0.64542,0.05272 2.63029,0.07505 5.35547,0.08398 2.72519,0.0089 4.43166,-0.0086 7.97116,-0.02367 7.079,-0.03014 15.76795,-0.118529 17.12773,-0.202173 1.35979,-0.08364 2.8657,-0.055 2.92614,-0.168125 -0.97253,-0.233873 -3.17887,0.01697 -4.31527,0.01998 z"
           id="path12142"
           sodipodi:nodetypes="zscccccszcz" />
        <path
           style="color:#000000;fill:#000000;stroke-linecap:round;-inkscape-stroke:none;paint-order:stroke markers fill"
           d="m 124.04883,22.0625 c -1.44231,0.01125 -2.86726,0.07772 -3.98633,0.195312 -0.55954,0.0588 -3.04893,0.172337 -3.83138,0.503359 -0.78244,0.331025 1.17635,0.554006 1.69695,0.252983 0.5206,-0.301024 1.6136,-0.401425 2.16582,-0.459454 1.10443,-0.116056 2.52245,-0.182165 3.95703,-0.193359 1.43458,-0.01119 2.886,0.03425 4.05664,0.138672 0.58532,0.05221 1.10072,0.119282 1.50586,0.201172 0.40514,0.08189 0.70392,0.184702 0.83008,0.273437 0.0674,0.04791 0.16093,0.03218 0.20898,-0.03516 0.0475,-0.06794 0.0309,-0.161547 -0.0371,-0.208984 -0.20372,-0.143298 -0.52123,-0.238897 -0.94336,-0.324219 -0.42212,-0.08532 -0.94461,-0.152227 -1.5371,-0.205078 -1.185,-0.105702 -2.64363,-0.149926 -4.08594,-0.138672 z"
           id="path12256"
           sodipodi:nodetypes="sszzsssscccssss" />
        <path
           style="color:#000000;fill:#fafafa;fill-opacity:1;stroke-linecap:round;-inkscape-stroke:none;paint-order:stroke markers fill"
           d="m 124.44497,24.057745 c 1.44231,-0.01125 2.86726,-0.07772 3.98633,-0.195312 0.55954,-0.0588 3.04893,-0.172337 3.83138,-0.503359 0.78244,-0.331025 -1.17635,-0.554006 -1.69695,-0.252983 -0.5206,0.301024 -1.6136,0.401425 -2.16582,0.459454 -1.10443,0.116056 -2.52245,0.182165 -3.95703,0.193359 -1.43458,0.01119 -2.886,-0.03425 -4.05664,-0.138672 -0.58532,-0.05221 -1.10072,-0.119282 -1.50586,-0.201172 -0.40514,-0.08189 -0.70392,-0.184702 -0.83008,-0.273437 -0.0674,-0.04791 -0.16093,-0.03218 -0.20898,0.03516 -0.0475,0.06794 -0.0309,0.161547 0.0371,0.208984 0.20372,0.143298 0.52123,0.238897 0.94336,0.324219 0.42212,0.08532 0.94461,0.152227 1.5371,0.205078 1.185,0.105702 2.64363,0.149926 4.08594,0.138672 z"
           id="path13357"
           sodipodi:nodetypes="sszzsssscccssss" />
        <path
           style="color:#000000;fill:#ffffff;fill-opacity:1;stroke-linecap:round;-inkscape-stroke:none;paint-order:stroke markers fill"
           d="m 162.97449,22.738085 c -1.13639,-0.003 -8.6604,-0.02136 -15.7386,-0.0515 -3.5391,-0.01507 -5.24736,-0.0326 -7.97116,-0.02367 -2.7238,0.0089 -4.7303,0.03678 -5.33203,0.08594 -0.0832,0.007 -0.15609,-0.05538 -0.16211,-0.138672 -0.007,-0.08322 0.0554,-0.156092 0.13867,-0.162109 0.64542,-0.05272 2.63029,-0.07505 5.35547,-0.08398 2.72519,-0.0089 4.43166,0.0086 7.97116,0.02367 7.079,0.03014 15.76795,0.118529 17.12773,0.202173 1.35979,0.08364 3.47125,0.15386 3.53169,0.266985 -0.97253,0.233873 -3.78442,-0.11583 -4.92082,-0.11884 z"
           id="path13359"
           sodipodi:nodetypes="zscccccszczz" />
      </g>
      <path
         style="opacity:1;fill:#f3e9b1;fill-opacity:1;stroke:none;stroke-width:0.7;stroke-linecap:round;stroke-dasharray:none;stroke-opacity:1;paint-order:stroke markers fill"
         d="M 94.479488,25.994354 83.613751,10.454253 80.39681,10.535753 93.980349,27.788812 Z"
         id="path14251" />
      <path
         style="opacity:1;fill:#dfbd40;fill-opacity:1;stroke:none;stroke-width:0.7;stroke-linecap:round;stroke-dasharray:none;stroke-opacity:1;paint-order:stroke markers fill"
         d="M 96.182542,25.265371 84.678778,10.704382 83.245863,10.540675 94.174318,25.785768 Z"
         id="path14249"
         sodipodi:nodetypes="ccccc" />
      <path
         id="path14328"
         style="color:#000000;fill:#dfbd40;fill-opacity:1;stroke-width:0.463791;stroke-linecap:round;-inkscape-stroke:none;paint-order:stroke markers fill"
         d="m 73.349616,18.219165 c -0.133503,0.02905 -0.22414,0.103587 -0.166979,0.234548 0.152437,0.349242 0.70111,0.767477 1.232934,1.214604 0.531825,0.447125 2.194356,1.69081 3.199807,2.238159 1.990215,1.083431 2.943009,1.511555 3.657048,1.71844 0.05731,0.02696 0.113459,0.02552 0.153472,-0.0092 a 13.393084,0.29788794 31.579366 0 0 2.294888,1.418195 13.393084,0.29788794 31.579366 0 0 11.551888,6.750986 13.393084,0.29788794 31.579366 0 0 -0.565518,-0.46042 c -0.03298,-0.0804 -0.813787,-0.598545 -1.312638,-0.950384 -0.510257,-0.359888 -3.870651,-2.474201 -6.617863,-4.179493 -1.373607,-0.852646 -2.033698,-1.268298 -3.095882,-1.916269 -0.966538,-0.58961 -1.692334,-1.024653 -2.014151,-1.198624 a 13.393084,0.29788794 31.579366 0 0 -0.108412,-0.06588 c -0.66488,-0.6116 -2.000885,-1.569432 -3.595486,-2.54958 -1.733667,-1.065637 -3.293351,-1.862991 -4.073807,-2.110067 -0.04813,-0.120909 -0.34116,-0.178125 -0.539305,-0.135016 z m 1.920245,1.230981 c 0.003,-0.001 0.0071,-0.0013 0.01049,-0.002 0.272462,0.02121 0.684212,0.223071 0.899679,0.325168 0.455663,0.215914 1.022103,0.527816 1.582709,0.866214 0.140152,0.0846 0.279962,0.170936 0.417529,0.257882 0.05102,0.03249 0.102567,0.06488 0.152309,0.09708 7.79e-4,5.02e-4 0.0016,0.0011 0.0023,0.0016 0.456293,0.295469 0.85578,0.576246 1.162505,0.814616 0.136524,0.107495 0.25651,0.208787 0.353501,0.299938 0.139264,0.13088 0.232557,0.245151 0.261755,0.312162 0.0055,0.01293 0.01438,0.02284 0.02477,0.03002 5.56e-4,0.0098 -0.0011,0.01834 -0.005,0.02558 -0.0075,0.01413 -0.02396,0.02237 -0.04761,0.02588 -0.272462,-0.02121 -0.684214,-0.22307 -0.89968,-0.325168 -0.28479,-0.134946 -0.613011,-0.307293 -0.955885,-0.500188 -0.223865,-0.12738 -0.458338,-0.265697 -0.69906,-0.413662 -0.926681,-0.569609 -1.699566,-1.126205 -2.065842,-1.471198 -0.111537,-0.11044 -0.186182,-0.205263 -0.211731,-0.263897 -0.0037,-0.0086 -0.0091,-0.01612 -0.01518,-0.02228 -0.0026,-0.01416 -0.0015,-0.02628 0.0037,-0.0359 0.0053,-0.01002 0.015,-0.01719 0.02862,-0.02179 z" />
    </g>
  </g>
</svg>
