<?xml version='1.0' encoding='utf-8'?>
<svg xmlns="http://www.w3.org/2000/svg" xmlns:cc="http://creativecommons.org/ns#" xmlns:dc="http://purl.org/dc/elements/1.1/" xmlns:inkscape="http://www.inkscape.org/namespaces/inkscape" xmlns:rdf="http://www.w3.org/1999/02/22-rdf-syntax-ns#" xmlns:sodipodi="http://sodipodi.sourceforge.net/DTD/sodipodi-0.dtd" xmlns:xlink="http://www.w3.org/1999/xlink" height="1080" id="svg16" version="1.1" viewBox="0 0 507.99999 285.75" width="1920" sodipodi:docname="pointerwarning.svg" inkscape:version="0.92.2 (5c3e80d, 2017-08-06)">
  <defs id="defs10">
    <linearGradient id="linearGradient1142" inkscape:collect="always">
      <stop id="stop1138" offset="0" style="stop-color:#006e82;stop-opacity:1" />
      <stop id="stop1154" offset="0.09" style="stop-color:#0a64a0;stop-opacity:1" />
      <stop id="stop1150" offset="0.18000001" style="stop-color:#005cca;stop-opacity:1" />
      <stop id="stop1152" offset="0.27000001" style="stop-color:#00a0fa;stop-opacity:1" />
      <stop id="stop1146" offset="0.36000001" style="stop-color:#00c8f9;stop-opacity:1" />
      <stop id="stop1158" offset="0.44999999" style="stop-color:#14d2dc;stop-opacity:1" />
      <stop id="stop1148" offset="0.54000002" style="stop-color:#aa0a3c;stop-opacity:1" />
      <stop id="stop1160" offset="0.63" style="stop-color:#fa2800;stop-opacity:1" />
      <stop id="stop1162" offset="0.72000003" style="stop-color:#fa4d76;stop-opacity:1" />
      <stop id="stop1164" offset="0.81" style="stop-color:#f1f132;stop-opacity:1" />
      <stop id="stop1156" offset="0.89999998" style="stop-color:#fae68c;stop-opacity:1" />
      <stop id="stop1140" offset="1" style="stop-color:#fae6be;stop-opacity:1" />
    </linearGradient>
    <linearGradient gradientUnits="userSpaceOnUse" id="linearGradient1144" x1="47.039436" x2="419.07862" y1="-99.093464" y2="-99.093464" inkscape:collect="always" xlink:href="#linearGradient1142" />
  </defs>
  <sodipodi:namedview bordercolor="#666666" borderopacity="1.0" id="base" pagecolor="#ffffff" showgrid="false" units="px" inkscape:current-layer="layer1" inkscape:cx="252.5938" inkscape:cy="898.65325" inkscape:document-units="px" inkscape:pageopacity="0.0" inkscape:pageshadow="2" inkscape:window-height="750" inkscape:window-maximized="0" inkscape:window-width="1364" inkscape:window-x="0" inkscape:window-y="0" inkscape:zoom="0.24748737" />
  <metadata id="metadata13">
    <rdf:RDF>
      <cc:Work rdf:about="">
        <dc:format>image/svg+xml</dc:format>
        <dc:type rdf:resource="http://purl.org/dc/dcmitype/StillImage" />
        <dc:title>ASLR on the line Slide</dc:title>
        <cc:license rdf:resource="http://creativecommons.org/licenses/by/4.0/" />
        <dc:creator>
          <cc:Agent>
            <dc:title>Erik Bosman</dc:title>
          </cc:Agent>
        </dc:creator>
        <dc:date>2017</dc:date>
      </cc:Work>
      <cc:License rdf:about="http://creativecommons.org/licenses/by/4.0/">
        <cc:permits rdf:resource="http://creativecommons.org/ns#Reproduction" />
        <cc:permits rdf:resource="http://creativecommons.org/ns#Distribution" />
        <cc:requires rdf:resource="http://creativecommons.org/ns#Notice" />
        <cc:requires rdf:resource="http://creativecommons.org/ns#Attribution" />
        <cc:permits rdf:resource="http://creativecommons.org/ns#DerivativeWorks" />
      </cc:License>
    </rdf:RDF>
  </metadata>
  <g id="layer2" sodipodi:insensitive="true" inkscape:groupmode="layer" inkscape:label="back">
    <rect height="285.75" id="rect19" style="opacity:1;fill:#000000;fill-opacity:1;stroke:none;stroke-width:0.99999994;stroke-linecap:round;stroke-linejoin:round;stroke-miterlimit:4;stroke-dasharray:none;stroke-dashoffset:0;stroke-opacity:1;paint-order:markers stroke fill" width="508" x="-5.1900512e-15" y="-8.9821824e-06" />
  </g>
  <g id="layer1" transform="translate(0,-11.249984)" inkscape:groupmode="layer" inkscape:label="Layer 1">
    <g id="g4785" transform="translate(-2.4752425,0.68446709)">
      <path d="m 44.80857,61.988218 h 5.482796 10.929402 5.482794 V 51.040721 H 61.220768 50.291366 44.80857 Z m 43.771888,0 h 5.4828 10.947492 5.4647 V 51.040721 h -5.4647 -10.947492 -5.4828 z m 43.789982,0 h 5.46472 10.94747 5.46472 V 51.040721 h -5.46472 -10.94747 -5.46472 z m 43.7719,0 h 5.4647 10.94749 5.4647 V 51.040721 h -5.4647 -10.94749 -5.4647 z m 43.77188,0 h 5.4647 10.9475 5.4647 V 51.040721 h -5.4647 -10.9475 -5.4647 z m 43.77189,0 h 5.4647 10.94749 5.4828 V 51.040721 h -5.4828 -10.94749 -5.4647 z m 43.7719,0 h 5.48278 10.92941 5.4828 V 51.040721 h -5.4828 -10.92941 -5.48278 z m 43.77188,0 h 5.4828 10.9294 5.48279 V 51.040721 h -5.48279 -10.9294 -5.4828 z m 43.77189,0 h 5.48279 10.9475 5.4647 V 51.040721 h -5.4647 -10.9475 -5.48279 z m 43.78998,0 h 5.46469 10.9475 5.46472 V 51.040721 h -5.46472 -10.9475 -5.46469 z M 44.80857,76.156628 v 10.947499 5.464699 H 55.756067 V 87.104127 76.156628 70.673832 H 44.80857 Z m 412.40394,5.718032 v 10.9475 5.464701 h 10.9294 V 92.82216 81.87466 76.409959 h -10.9294 z M 44.80857,119.92851 v 10.9475 5.4647 h 10.947497 v -5.4647 -10.9475 -5.4647 H 44.80857 Z m 412.40394,5.71804 v 10.94749 5.4647 h 10.9294 v -5.4647 -10.94749 -5.4647 h -10.9294 z M 44.80857,163.70042 v 10.94749 5.4647 h 10.947497 v -5.4647 -10.94749 -5.46472 H 44.80857 Z m 412.40394,5.71801 v 10.94752 5.46468 h 10.9294 v -5.46468 -10.94752 -5.4647 h -10.9294 z M 44.80857,207.4723 v 10.9475 5.46472 h 10.947497 v -5.46472 -10.9475 -5.4647 H 44.80857 Z m 412.40394,5.71804 v 10.94752 5.48279 h 10.9294 v -5.48279 -10.94752 -5.4647 h -10.9294 z M 45.695228,255.84031 h 5.464699 10.947498 5.464698 V 244.89284 H 62.107425 51.159927 45.695228 Z m 43.77189,0 h 5.4647 10.947492 5.4828 v -10.94747 h -5.4828 -10.947492 -5.4647 z m 43.771892,0 h 5.4828 10.92939 5.4828 v -10.94747 h -5.4828 -10.92939 -5.4828 z m 43.77188,0 h 5.4828 10.9294 5.48279 v -10.94747 h -5.48279 -10.9294 -5.4828 z m 43.77189,0 h 5.48279 10.9475 5.4647 v -10.94747 h -5.4647 -10.9475 -5.48279 z m 43.79,0 h 5.4647 10.94749 5.4647 v -10.94747 h -5.4647 -10.94749 -5.4647 z m 43.77188,0 h 5.4647 10.94749 5.4647 v -10.94747 h -5.4647 -10.94749 -5.4647 z m 43.77188,0 h 5.4647 10.9475 5.4647 v -10.94747 h -5.4647 -10.9475 -5.4647 z m 43.77189,0 h 5.4647 10.94751 5.4828 v -10.94747 h -5.4828 -10.94751 -5.4647 z m 43.7719,0 h 5.4828 10.92939 5.4828 v -10.94747 h -5.4828 -10.92939 -5.4828 z" id="rect3004" style="color:#000000;font-style:normal;font-variant:normal;font-weight:normal;font-stretch:normal;font-size:medium;line-height:normal;font-family:Sans;-inkscape-font-specification:Sans;text-indent:0;text-align:start;text-decoration:none;text-decoration-line:none;letter-spacing:normal;word-spacing:normal;text-transform:none;writing-mode:lr-tb;direction:ltr;baseline-shift:baseline;text-anchor:start;display:inline;overflow:visible;visibility:visible;fill:#ffff00;fill-opacity:1;stroke:none;stroke-width:5.00050831;marker:none;enable-background:accumulate" inkscape:connector-curvature="0" />
      <g id="text3994" style="font-style:normal;font-variant:normal;font-weight:600;font-stretch:normal;font-size:101.22949982px;line-height:125%;font-family:LMSansDemiCond10;-inkscape-font-specification:'LMSansDemiCond10 Semi-Bold';text-align:start;letter-spacing:0px;word-spacing:0px;text-anchor:start;fill:#fc0000;fill-opacity:1;stroke:none;stroke-width:0.47300503" transform="matrix(0.55936685,0,0,0.55936685,30.255041,-337.88621)">
        <path d="m 223.25018,784.45577 9.41435,28.04057 h 11.13524 l 6.07377,-48.89385 c 3.03688,-0.50615 4.75779,-2.32828 4.75779,-5.06148 0,-1.61967 -0.80984,-3.13811 -2.02459,-4.15041 -1.0123,-0.7086 -1.92337,-0.91106 -4.65656,-0.91106 h -13.26106 c -2.63197,0 -3.34058,0.10123 -4.25164,0.70861 -1.51844,0.91106 -2.42951,2.63196 -2.42951,4.35286 0,1.61967 0.80984,3.13812 2.12582,4.15041 0.91106,0.70861 2.02459,0.91107 4.55533,0.91107 h 5.36516 l -3.54303,27.53442 -7.69345,-22.87786 h -10.52786 l -7.69345,22.87786 -3.64426,-27.53442 h 4.85902 c 2.4295,0 3.4418,-0.20246 4.35287,-0.70861 1.51844,-0.91106 2.42951,-2.63197 2.42951,-4.35287 0,-1.61967 -0.80984,-3.13811 -2.12582,-4.15041 -1.0123,-0.7086 -1.82214,-0.91106 -4.65656,-0.91106 h -13.26107 c -2.63196,0 -3.34057,0.10123 -4.25163,0.70861 -1.51845,1.01229 -2.42951,2.63196 -2.42951,4.55532 0,2.83443 1.61967,4.4541 4.65655,4.85902 l 6.27623,48.89385 h 11.23648 l 9.21188,-28.04057" id="path5529" style="font-weight:bold;font-family:'Nimbus Mono L';-inkscape-font-specification:'Nimbus Mono L Bold';stroke-width:0.47300503" inkscape:connector-curvature="0" />
        <path d="m 295.69096,796.50208 2.32828,5.87131 h -2.32828 c -2.63196,0 -3.34057,0.10123 -4.25164,0.7086 -1.51844,0.91107 -2.4295,2.63197 -2.4295,4.35287 0,1.61967 0.80983,3.13812 2.12582,4.04918 0.91106,0.70861 2.12582,1.0123 4.55532,1.0123 h 14.0709 c 2.12582,0 3.44181,-0.20246 4.25164,-0.70861 1.51844,-0.91106 2.42951,-2.63197 2.42951,-4.35287 0,-1.61967 -0.80984,-3.13811 -2.12582,-4.04918 -1.01229,-0.80983 -1.92336,-1.01229 -4.75779,-1.01229 l -20.14467,-48.89385 h -21.86557 c -2.73319,0 -3.4418,0.10123 -4.35287,0.70861 -1.51844,1.01229 -2.4295,2.63196 -2.4295,4.35286 0,1.61967 0.80983,3.13812 2.12581,4.15041 1.0123,0.70861 2.0246,0.91107 4.65656,0.91107 h 6.37746 l -15.69057,38.7709 c -2.53074,0 -3.44181,0.10123 -4.35287,0.7086 -1.51844,0.91107 -2.42951,2.63197 -2.42951,4.35287 0,3.34057 2.22705,5.06148 6.68115,5.06148 h 13.46352 c 2.12582,0 3.44181,-0.20246 4.25164,-0.70861 1.51844,-0.91106 2.42951,-2.63197 2.42951,-4.35287 0,-1.61967 -0.80984,-3.13811 -2.12582,-4.15041 -1.01229,-0.7086 -1.82213,-0.91106 -4.55533,-0.91106 h -2.32828 l 2.32828,-5.87131 h 24.09262 m -4.15041,-10.12295 h -15.89303 l 7.99713,-19.43607 7.8959,19.43607" id="path5531" style="font-weight:bold;font-family:'Nimbus Mono L';-inkscape-font-specification:'Nimbus Mono L Bold';stroke-width:0.47300503" inkscape:connector-curvature="0" />
        <path d="m 333.91617,790.02339 h 9.71803 c 4.25164,1.51844 13.56476,12.6537 18.62623,22.47295 h 7.99713 c 2.02459,0 3.54304,-0.30369 4.25164,-0.70861 1.51844,-0.91106 2.42951,-2.63197 2.42951,-4.35287 0,-1.61967 -0.80984,-3.23934 -2.02459,-4.15041 -1.01229,-0.7086 -2.12582,-0.91106 -4.65656,-0.91106 h -1.31598 c -4.25164,-6.78237 -7.99714,-11.43894 -12.75492,-15.58935 7.38975,-4.04917 10.93279,-8.9082 10.93279,-15.28565 0,-10.62909 -9.11067,-18.01885 -22.27049,-18.01885 h -22.57418 c -2.63196,0 -3.34057,0.10123 -4.25164,0.70861 -1.51844,0.91106 -2.42951,2.63196 -2.42951,4.35286 0,1.61967 0.80984,3.13812 2.12582,4.15041 0.91107,0.70861 2.02459,0.91107 4.55533,0.91107 h 1.51844 v 38.7709 h -1.51844 c -2.42951,0 -3.34057,0.10123 -4.25164,0.7086 -1.51844,0.91107 -2.42951,2.63197 -2.42951,4.35287 0,1.51844 0.80984,3.13812 2.12582,4.04918 0.80984,0.70861 2.22705,1.0123 4.55533,1.0123 h 15.18442 c 2.02459,0 3.54304,-0.30369 4.25164,-0.70861 1.51844,-0.91106 2.42951,-2.63197 2.42951,-4.35287 0,-1.61967 -0.80984,-3.13811 -2.02459,-4.15041 -1.01229,-0.7086 -1.92336,-0.91106 -4.65656,-0.91106 h -3.54303 v -12.35 m 0,-10.12295 v -16.29795 h 11.33771 c 6.47868,0 11.13524,3.23935 11.13524,7.59221 0,5.06147 -6.27624,8.70574 -14.77951,8.70574 h -7.69344" id="path5533" style="font-weight:bold;font-family:'Nimbus Mono L';-inkscape-font-specification:'Nimbus Mono L Bold';stroke-width:0.47300503" inkscape:connector-curvature="0" />
        <path d="m 392.48852,772.61191 26.21844,39.88443 h 10.02172 v -48.89385 c 4.04918,0 6.175,-1.82213 6.175,-5.06148 0,-1.61967 -0.80984,-3.13811 -2.12582,-4.15041 -1.01229,-0.7086 -1.82213,-0.91106 -4.55533,-0.91106 H 415.0627 c -2.63197,0 -3.34058,0.10123 -4.25164,0.70861 -1.51844,0.91106 -2.42951,2.63196 -2.42951,4.35286 0,1.61967 0.80984,3.13812 2.12582,4.15041 0.91106,0.70861 2.02459,0.91107 4.55533,0.91107 h 3.54303 v 29.55901 l -26.11721,-39.68196 h -11.64139 c -2.63197,0 -3.34058,0.10123 -4.25164,0.70861 -1.51844,0.91106 -2.42951,2.63196 -2.42951,4.35286 0,1.61967 0.80984,3.13812 2.12582,4.15041 0.91106,0.70861 2.02459,0.91107 4.55533,0.91107 h 1.51844 v 38.7709 c -3.94795,0 -6.175,1.82213 -6.175,5.06147 0,1.61967 0.80984,3.13812 2.12582,4.04918 0.91106,0.70861 2.22705,1.0123 4.65656,1.0123 h 13.0586 c 2.02459,0 3.54303,-0.30369 4.25164,-0.70861 1.51844,-1.01229 2.42951,-2.63197 2.42951,-4.35287 0,-1.61967 -0.70861,-3.13811 -2.02459,-4.15041 -1.0123,-0.7086 -1.92337,-0.91106 -4.65656,-0.91106 h -3.54303 v -29.76148" id="path5535" style="font-weight:bold;font-family:'Nimbus Mono L';-inkscape-font-specification:'Nimbus Mono L Bold';stroke-width:0.47300503" inkscape:connector-curvature="0" />
        <path d="m 471.10429,763.60249 h 10.22418 c 2.32828,0 3.4418,-0.20246 4.25164,-0.70861 1.51844,-0.91106 2.42951,-2.63197 2.42951,-4.35287 0,-1.61967 -0.70861,-3.13811 -2.12582,-4.15041 -1.0123,-0.7086 -1.82214,-0.91106 -4.55533,-0.91106 h -30.57131 c -2.63196,0 -3.34057,0.10123 -4.25164,0.70861 -1.51844,0.91106 -2.42951,2.63196 -2.42951,4.35286 0,1.61967 0.80984,3.13812 2.12582,4.15041 0.91107,0.70861 2.0246,0.91107 4.55533,0.91107 h 10.22418 v 38.7709 h -10.22418 c -2.63196,0 -3.34057,0.10123 -4.25164,0.7086 -1.51844,0.91107 -2.42951,2.63197 -2.42951,4.35287 0,1.51844 0.80984,3.13812 2.12582,4.04918 0.91107,0.70861 2.12583,1.0123 4.55533,1.0123 h 30.57131 c 4.45409,0 6.68115,-1.72091 6.68115,-5.06148 0,-1.61967 -0.70861,-3.13811 -2.12582,-4.15041 -1.0123,-0.7086 -1.82214,-0.91106 -4.55533,-0.91106 h -10.22418 v -38.7709" id="path5537" style="font-weight:bold;font-family:'Nimbus Mono L';-inkscape-font-specification:'Nimbus Mono L Bold';stroke-width:0.47300503" inkscape:connector-curvature="0" />
        <path d="m 513.88482,772.61191 26.21844,39.88443 h 10.02172 v -48.89385 c 4.04918,0 6.175,-1.82213 6.175,-5.06148 0,-1.61967 -0.80984,-3.13811 -2.12582,-4.15041 -1.01229,-0.7086 -1.82213,-0.91106 -4.55533,-0.91106 H 536.459 c -2.63197,0 -3.34058,0.10123 -4.25164,0.70861 -1.51844,0.91106 -2.42951,2.63196 -2.42951,4.35286 0,1.61967 0.80984,3.13812 2.12582,4.15041 0.91107,0.70861 2.02459,0.91107 4.55533,0.91107 h 3.54303 v 29.55901 l -26.11721,-39.68196 h -11.64139 c -2.63197,0 -3.34058,0.10123 -4.25164,0.70861 -1.51844,0.91106 -2.42951,2.63196 -2.42951,4.35286 0,1.61967 0.80984,3.13812 2.12582,4.15041 0.91106,0.70861 2.02459,0.91107 4.55533,0.91107 h 1.51844 v 38.7709 c -3.94795,0 -6.175,1.82213 -6.175,5.06147 0,1.61967 0.80984,3.13812 2.12582,4.04918 0.91106,0.70861 2.22705,1.0123 4.65656,1.0123 h 13.0586 c 2.02459,0 3.54304,-0.30369 4.25164,-0.70861 1.51844,-1.01229 2.42951,-2.63197 2.42951,-4.35287 0,-1.61967 -0.70861,-3.13811 -2.02459,-4.15041 -1.01229,-0.7086 -1.92336,-0.91106 -4.65656,-0.91106 h -3.54303 v -29.76148" id="path5539" style="font-weight:bold;font-family:'Nimbus Mono L';-inkscape-font-specification:'Nimbus Mono L Bold';stroke-width:0.47300503" inkscape:connector-curvature="0" />
        <path d="m 612.74652,794.27503 c 2.83443,-0.80984 4.25164,-2.53074 4.25164,-5.06148 0,-1.61967 -0.70861,-3.13811 -2.12582,-4.15041 -1.01229,-0.7086 -1.92336,-0.91106 -4.65656,-0.91106 h -17.71516 c -2.53073,0 -3.34057,0.10123 -4.25164,0.7086 -1.51844,0.91107 -2.4295,2.63197 -2.4295,4.35287 0,1.61967 0.80983,3.13812 2.12581,4.04918 0.91107,0.80984 2.0246,1.0123 4.55533,1.0123 h 10.12295 v 6.98483 c -3.84671,1.7209 -7.79467,2.53074 -12.65369,2.53074 -6.37745,0 -11.43893,-1.51844 -14.88073,-4.4541 -3.13811,-2.63196 -4.55533,-6.57992 -4.55533,-12.45123 v -6.47868 c 0,-5.06147 2.02459,-10.12296 5.36516,-13.46353 3.13812,-3.13811 7.69345,-4.75778 13.3623,-4.75778 7.38974,0 12.45123,2.22705 13.46352,5.77008 0.80984,3.13811 0.80984,3.13811 1.41721,3.84672 0.80984,0.91106 2.22705,1.51844 3.54304,1.51844 1.61967,0 3.13811,-0.80984 4.15041,-2.12582 0.80983,-1.01229 0.91106,-1.7209 0.91106,-4.55533 v -7.8959 c 0,-2.4295 -0.10123,-3.23934 -0.7086,-4.25164 -0.70861,-1.51844 -2.32828,-2.4295 -4.04918,-2.4295 -1.92336,0 -2.93566,0.80983 -4.15041,3.23934 -4.25164,-2.12582 -9.21189,-3.23934 -14.67828,-3.23934 -8.30081,0 -14.88074,2.53074 -20.2459,7.79467 -5.36516,5.36516 -8.50328,12.85615 -8.50328,20.54959 v 7.18729 c 0,7.08606 2.53074,13.96968 6.68115,18.32254 4.96024,5.06147 13.56476,7.99713 23.48524,7.99713 7.89589,0 13.15985,-1.51845 22.16926,-6.27623 v -13.36229" id="path5541" style="font-weight:bold;font-family:'Nimbus Mono L';-inkscape-font-specification:'Nimbus Mono L Bold';stroke-width:0.47300503" inkscape:connector-curvature="0" />
      </g>
      <g id="text3998" style="font-style:normal;font-variant:normal;font-weight:bold;font-stretch:normal;font-size:54.46775055px;line-height:125%;font-family:'Nimbus Mono L';-inkscape-font-specification:'Nimbus Mono L Bold';text-align:center;letter-spacing:0px;word-spacing:0px;writing-mode:lr-tb;text-anchor:middle;fill:#ffffff;fill-opacity:1;stroke:none;stroke-width:0.47300503" transform="matrix(0.55936685,0,0,0.55936685,30.255041,-337.88621)">
        <path d="m 147.05859,836.55737 h 5.93698 v 5.0655 c 0,1.25276 0.10894,1.79744 0.38128,2.28765 0.49021,0.76255 1.41616,1.30722 2.34211,1.30722 0.87148,0 1.6885,-0.43574 2.23318,-1.14382 0.43574,-0.54468 0.49021,-0.92595 0.49021,-2.45105 V 831.1106 h -28.10536 v 10.51227 c 0,1.25276 0.10894,1.79744 0.38127,2.28765 0.49021,0.81701 1.41617,1.30722 2.34212,1.30722 0.87148,0 1.6885,-0.43574 2.23318,-1.14382 0.38127,-0.54468 0.4902,-0.98042 0.4902,-2.45105 v -5.0655 h 5.82805 v 20.86115 h -3.5404 c -1.41616,0 -1.79744,0.0545 -2.28765,0.38127 -0.81701,0.49021 -1.30722,1.41617 -1.30722,2.34212 0,0.81701 0.43574,1.6885 1.14382,2.17871 0.49021,0.38127 1.19829,0.54468 2.45105,0.54468 h 12.58205 c 1.08935,0 1.90637,-0.16341 2.28765,-0.38128 0.81701,-0.49021 1.30722,-1.41616 1.30722,-2.34211 0,-0.87149 -0.43574,-1.6885 -1.14382,-2.23318 -0.54468,-0.38127 -0.98042,-0.49021 -2.45105,-0.49021 h -3.59487 v -20.86115" id="path5460" style="font-family:'Nimbus Mono L';-inkscape-font-specification:'Nimbus Mono L Bold';fill:#ffffff;stroke-width:0.47300503" inkscape:connector-curvature="0" />
        <path d="m 182.98603,849.73857 v 7.67995 h -0.81702 c -1.30722,0 -1.79743,0.0545 -2.28764,0.38127 -0.81702,0.49021 -1.30723,1.41617 -1.30723,2.34212 0,0.81701 0.43574,1.6885 1.14382,2.23318 0.49021,0.3268 1.14383,0.49021 2.45105,0.49021 h 6.5906 c 1.14382,0 1.8519,-0.10894 2.28765,-0.38128 0.81701,-0.49021 1.30722,-1.41616 1.30722,-2.34211 0,-0.87149 -0.43574,-1.6885 -1.14382,-2.23318 -0.49021,-0.38127 -0.98042,-0.49021 -2.45105,-0.49021 h -0.32681 v -20.86115 c 1.79744,-0.1634 2.83233,-1.14382 2.83233,-2.72339 0,-0.87148 -0.43575,-1.6885 -1.08936,-2.23317 -0.54468,-0.38128 -1.03489,-0.49021 -2.50551,-0.49021 h -5.50125 c -1.36169,0 -1.79743,0.0545 -2.28764,0.38127 -0.81702,0.49021 -1.30723,1.41616 -1.30723,2.34211 0,0.87149 0.43574,1.68851 1.14382,2.23318 0.54468,0.38128 1.03489,0.49021 2.45105,0.49021 h 0.81702 v 7.73442 h -11.6561 v -7.73442 h 0.81702 c 1.30722,0 1.79743,-0.10893 2.28764,-0.38127 0.81702,-0.49021 1.30723,-1.41616 1.30723,-2.34212 0,-0.87148 -0.43574,-1.6885 -1.14383,-2.23317 -0.4902,-0.38128 -0.98042,-0.49021 -2.45104,-0.49021 h -5.50125 c -1.36169,0 -1.79743,0.0545 -2.28764,0.38127 -0.81702,0.49021 -1.30723,1.41616 -1.30723,2.34211 0,1.57957 1.03489,2.55999 2.83232,2.72339 v 20.86115 h -0.3268 c -1.36169,0 -1.79744,0.0545 -2.28765,0.38127 -0.81701,0.49021 -1.30722,1.41617 -1.30722,2.34212 0,0.81701 0.43574,1.6885 1.08935,2.23318 0.49021,0.3268 1.19829,0.49021 2.50552,0.49021 h 6.5906 c 1.14382,0 1.8519,-0.10894 2.28764,-0.38128 0.81702,-0.49021 1.30723,-1.41616 1.30723,-2.34211 0,-0.87149 -0.43574,-1.6885 -1.14383,-2.23318 -0.4902,-0.38127 -1.03488,-0.49021 -2.45104,-0.49021 h -0.81702 v -7.67995 h 11.6561" id="path5462" style="font-family:'Nimbus Mono L';-inkscape-font-specification:'Nimbus Mono L Bold';fill:#ffffff;stroke-width:0.47300503" inkscape:connector-curvature="0" />
        <path d="m 212.43181,836.55737 h 5.50124 c 1.25276,0 1.8519,-0.10893 2.28764,-0.38127 0.81702,-0.49021 1.30723,-1.41616 1.30723,-2.34212 0,-0.87148 -0.38128,-1.6885 -1.14382,-2.23317 -0.54468,-0.38128 -0.98042,-0.49021 -2.45105,-0.49021 h -16.44926 c -1.41616,0 -1.79744,0.0545 -2.28765,0.38127 -0.81701,0.49021 -1.30722,1.41616 -1.30722,2.34211 0,0.87149 0.43574,1.68851 1.14382,2.23318 0.49021,0.38128 1.08936,0.49021 2.45105,0.49021 h 5.50124 v 20.86115 h -5.50124 c -1.41616,0 -1.79744,0.0545 -2.28765,0.38127 -0.81701,0.49021 -1.30722,1.41617 -1.30722,2.34212 0,0.81701 0.43574,1.6885 1.14382,2.17871 0.49021,0.38127 1.14382,0.54468 2.45105,0.54468 h 16.44926 c 2.39658,0 3.59487,-0.92596 3.59487,-2.72339 0,-0.87149 -0.38128,-1.6885 -1.14382,-2.23318 -0.54468,-0.38127 -0.98042,-0.49021 -2.45105,-0.49021 h -5.50124 v -20.86115" id="path5464" style="font-family:'Nimbus Mono L';-inkscape-font-specification:'Nimbus Mono L Bold';fill:#ffffff;stroke-width:0.47300503" inkscape:connector-curvature="0" />
        <path d="m 254.18729,833.94292 c 0,-1.41616 -0.0545,-1.8519 -0.38127,-2.34211 -0.43575,-0.76255 -1.3617,-1.25276 -2.28765,-1.25276 -1.08935,0 -1.57956,0.43574 -2.12424,1.79743 -1.90637,-1.19829 -4.30296,-1.79743 -7.08081,-1.79743 -6.75399,0 -11.8195,4.13955 -11.8195,9.64079 0,3.10466 1.6885,5.99145 4.46635,7.57102 1.74297,0.98042 3.48594,1.5251 7.02634,2.12424 3.70381,0.65361 4.5753,0.87148 5.71912,1.47063 1.19829,0.65361 1.96084,1.74297 1.96084,2.88679 0,2.34211 -3.15914,4.13955 -7.18975,4.13955 -3.59486,0 -7.02634,-1.57957 -7.57101,-3.5404 -0.43574,-1.47063 -0.43575,-1.47063 -0.81702,-1.85191 -0.49021,-0.49021 -1.19829,-0.76255 -1.96084,-0.76255 -0.87148,0 -1.6885,0.38128 -2.23318,1.08936 -0.38127,0.54468 -0.49021,1.14382 -0.49021,2.50551 v 3.59488 c 0,2.45104 0.87149,3.59487 2.77786,3.59487 0.87148,0 1.25276,-0.21787 2.17871,-1.30723 2.66892,1.41616 5.55571,2.12424 8.49697,2.12424 7.46207,0 12.47311,-3.81274 12.47311,-9.47738 0,-2.83232 -1.03489,-5.06551 -3.21359,-6.80847 -1.6885,-1.3617 -3.75828,-2.12425 -8.49697,-2.99573 -4.08508,-0.76255 -4.35742,-0.87148 -5.44678,-1.41616 -1.19829,-0.59915 -2.01531,-1.85191 -2.01531,-2.99573 0,-2.34211 2.7234,-4.13955 6.15486,-4.13955 3.377,0 5.99145,1.47063 6.48166,3.64934 0.38128,1.74297 0.38128,1.74297 0.76255,2.17871 0.43574,0.43574 1.19829,0.76255 1.96084,0.76255 0.81702,0 1.63403,-0.43574 2.17871,-1.14382 0.38127,-0.54468 0.49021,-0.98042 0.49021,-2.50552 v -4.79316" id="path5466" style="font-family:'Nimbus Mono L';-inkscape-font-specification:'Nimbus Mono L Bold';fill:#ffffff;stroke-width:0.47300503" inkscape:connector-curvature="0" />
        <path d="m 301.91296,851.97175 h 5.33784 c 5.0655,0 7.78889,-0.92596 10.18547,-3.59488 1.74297,-1.90637 2.72339,-4.46635 2.72339,-6.97187 0,-6.04591 -4.90211,-10.2944 -11.8195,-10.2944 h -12.69099 c -1.41616,0 -1.79743,0.0545 -2.28764,0.38127 -0.81702,0.49021 -1.30723,1.41616 -1.30723,2.34211 0,0.81702 0.43574,1.68851 1.14382,2.23318 0.49021,0.38128 1.08936,0.49021 2.45105,0.49021 h 0.81702 v 20.86115 h -0.81702 c -1.30722,0 -1.79743,0.0545 -2.28764,0.38127 -0.81702,0.49021 -1.30723,1.41617 -1.30723,2.34212 0,0.81701 0.43574,1.6885 1.14382,2.17871 0.43574,0.38127 1.19829,0.54468 2.45105,0.54468 h 11.6561 c 1.08935,0 1.90637,-0.16341 2.28765,-0.38128 0.81701,-0.49021 1.30722,-1.41616 1.30722,-2.34211 0,-0.87149 -0.43574,-1.6885 -1.14382,-2.23318 -0.54468,-0.38127 -0.98042,-0.49021 -2.45105,-0.49021 h -5.39231 v -5.44677 m 0,-15.41438 h 6.4272 c 3.75827,0 6.04592,1.90638 6.04592,5.01103 0,3.0502 -2.28765,4.95657 -6.04592,4.95657 h -6.4272 v -9.9676" id="path5468" style="font-family:'Nimbus Mono L';-inkscape-font-specification:'Nimbus Mono L Bold';fill:#ffffff;stroke-width:0.47300503" inkscape:connector-curvature="0" />
        <path d="m 334.57233,850.77345 h 5.2289 c 2.28764,0.81702 7.29868,6.80848 10.02207,12.09185 h 4.30295 c 1.08935,0 1.90637,-0.16341 2.28764,-0.38128 0.81702,-0.49021 1.30723,-1.41616 1.30723,-2.34211 0,-0.87149 -0.43574,-1.74297 -1.08936,-2.23318 -0.54467,-0.38127 -1.14382,-0.49021 -2.50551,-0.49021 h -0.70808 c -2.28765,-3.64934 -4.30296,-6.15486 -6.86294,-8.38803 3.97614,-2.17871 5.88252,-4.79317 5.88252,-8.22463 0,-5.71911 -4.90211,-9.69526 -11.98291,-9.69526 h -12.14631 c -1.41616,0 -1.79743,0.0545 -2.28764,0.38127 -0.81702,0.49021 -1.30723,1.41616 -1.30723,2.34211 0,0.87149 0.43575,1.68851 1.14383,2.23318 0.4902,0.38128 1.08935,0.49021 2.45104,0.49021 h 0.81702 v 20.86115 h -0.81702 c -1.30722,0 -1.79743,0.0545 -2.28764,0.38127 -0.81702,0.49021 -1.30723,1.41617 -1.30723,2.34212 0,0.81701 0.43575,1.6885 1.14383,2.17871 0.43574,0.38127 1.19829,0.54468 2.45104,0.54468 h 8.17017 c 1.08935,0 1.90637,-0.16341 2.28764,-0.38128 0.81702,-0.49021 1.30723,-1.41616 1.30723,-2.34211 0,-0.87149 -0.43574,-1.6885 -1.08936,-2.23318 -0.54467,-0.38127 -1.03489,-0.49021 -2.50551,-0.49021 h -1.90637 v -6.64507 m 0,-5.44677 v -8.76931 h 6.10038 c 3.48594,0 5.99146,1.74297 5.99146,4.08508 0,2.72339 -3.37701,4.68423 -7.9523,4.68423 h -4.13954" id="path5470" style="font-family:'Nimbus Mono L';-inkscape-font-specification:'Nimbus Mono L Bold';fill:#ffffff;stroke-width:0.47300503" inkscape:connector-curvature="0" />
        <path d="m 367.2317,849.62963 h 4.62976 v 0.38128 c 0,1.30722 0.10894,1.79743 0.38128,2.28764 0.49021,0.81702 1.41616,1.30723 2.34211,1.30723 0.81702,0 1.63403,-0.43574 2.17871,-1.14382 0.38127,-0.49021 0.49021,-1.03489 0.49021,-2.45105 v -6.15486 c 0,-0.49021 0,-0.65361 -0.0545,-1.14382 -0.21787,-1.5251 -1.19829,-2.50552 -2.66892,-2.50552 -0.81701,0 -1.63403,0.43574 -2.17871,1.14382 -0.38127,0.54468 -0.49021,1.03489 -0.49021,2.50552 v 0.38127 h -4.62976 v -7.67995 h 12.74546 v 2.72339 c 0,1.30722 0.10893,1.8519 0.38127,2.34211 0.54468,0.81702 1.41616,1.30723 2.34211,1.30723 0.87149,0 1.68851,-0.43574 2.23318,-1.14382 0.38128,-0.54468 0.49021,-0.98043 0.49021,-2.50552 v -8.17016 h -24.45602 c -1.41616,0 -1.79743,0.0545 -2.28764,0.38127 -0.81702,0.49021 -1.30723,1.41616 -1.30723,2.34211 0,0.87149 0.43574,1.68851 1.14382,2.23318 0.49021,0.38128 1.08936,0.49021 2.45105,0.49021 h 0.81702 v 20.86115 h -0.81702 c -1.30722,0 -1.79743,0.0545 -2.28764,0.38127 -0.81702,0.54468 -1.30723,1.41617 -1.30723,2.34212 0,0.87148 0.43574,1.6885 1.14382,2.17871 0.43575,0.38127 1.1983,0.54468 2.45105,0.54468 h 25.65431 v -8.2791 c 0,-1.3617 -0.10893,-1.85191 -0.38127,-2.34212 -0.54468,-0.81701 -1.41616,-1.30722 -2.34211,-1.30722 -0.87149,0 -1.68851,0.38127 -2.23318,1.14382 -0.38128,0.54468 -0.49021,0.98042 -0.49021,2.50552 v 2.83232 h -13.94375 v -7.78889" id="path5472" style="font-family:'Nimbus Mono L';-inkscape-font-specification:'Nimbus Mono L Bold';fill:#ffffff;stroke-width:0.47300503" inkscape:connector-curvature="0" />
        <path d="m 417.48417,833.94292 c 0,-1.41616 -0.0545,-1.8519 -0.38128,-2.34211 -0.43574,-0.76255 -1.36169,-1.25276 -2.28764,-1.25276 -1.08936,0 -1.57957,0.43574 -2.12425,1.79743 -1.90637,-1.19829 -4.30295,-1.79743 -7.0808,-1.79743 -6.754,0 -11.81951,4.13955 -11.81951,9.64079 0,3.10466 1.68851,5.99145 4.46636,7.57102 1.74297,0.98042 3.48594,1.5251 7.02634,2.12424 3.7038,0.65361 4.57529,0.87148 5.71911,1.47063 1.19829,0.65361 1.96084,1.74297 1.96084,2.88679 0,2.34211 -3.15913,4.13955 -7.18974,4.13955 -3.59487,0 -7.02634,-1.57957 -7.57102,-3.5404 -0.43574,-1.47063 -0.43574,-1.47063 -0.81701,-1.85191 -0.49021,-0.49021 -1.1983,-0.76255 -1.96084,-0.76255 -0.87149,0 -1.6885,0.38128 -2.23318,1.08936 -0.38128,0.54468 -0.49021,1.14382 -0.49021,2.50551 v 3.59488 c 0,2.45104 0.87148,3.59487 2.77785,3.59487 0.87149,0 1.25276,-0.21787 2.17871,-1.30723 2.66892,1.41616 5.55572,2.12424 8.49697,2.12424 7.46208,0 12.47312,-3.81274 12.47312,-9.47738 0,-2.83232 -1.03489,-5.06551 -3.2136,-6.80847 -1.6885,-1.3617 -3.75828,-2.12425 -8.49697,-2.99573 -4.08508,-0.76255 -4.35742,-0.87148 -5.44677,-1.41616 -1.19829,-0.59915 -2.01531,-1.85191 -2.01531,-2.99573 0,-2.34211 2.72339,-4.13955 6.15486,-4.13955 3.37699,0 5.99145,1.47063 6.48166,3.64934 0.38127,1.74297 0.38127,1.74297 0.76255,2.17871 0.43574,0.43574 1.19829,0.76255 1.96084,0.76255 0.81701,0 1.63403,-0.43574 2.17871,-1.14382 0.38127,-0.54468 0.49021,-0.98042 0.49021,-2.50552 v -4.79316" id="path5474" style="font-family:'Nimbus Mono L';-inkscape-font-specification:'Nimbus Mono L Bold';fill:#ffffff;stroke-width:0.47300503" inkscape:connector-curvature="0" />
        <path d="m 432.55044,849.62963 h 4.62976 v 0.38128 c 0,1.30722 0.10894,1.79743 0.38128,2.28764 0.49021,0.81702 1.41616,1.30723 2.34211,1.30723 0.81702,0 1.63403,-0.43574 2.17871,-1.14382 0.38127,-0.49021 0.49021,-1.03489 0.49021,-2.45105 v -6.15486 c 0,-0.49021 0,-0.65361 -0.0545,-1.14382 -0.21787,-1.5251 -1.19829,-2.50552 -2.66892,-2.50552 -0.81701,0 -1.63403,0.43574 -2.17871,1.14382 -0.38127,0.54468 -0.49021,1.03489 -0.49021,2.50552 v 0.38127 h -4.62976 v -7.67995 h 12.74546 v 2.72339 c 0,1.30722 0.10893,1.8519 0.38127,2.34211 0.54468,0.81702 1.41616,1.30723 2.34212,1.30723 0.87148,0 1.6885,-0.43574 2.23317,-1.14382 0.38128,-0.54468 0.49021,-0.98043 0.49021,-2.50552 v -8.17016 h -24.45602 c -1.41616,0 -1.79743,0.0545 -2.28764,0.38127 -0.81702,0.49021 -1.30723,1.41616 -1.30723,2.34211 0,0.87149 0.43574,1.68851 1.14382,2.23318 0.49021,0.38128 1.08936,0.49021 2.45105,0.49021 h 0.81702 v 20.86115 h -0.81702 c -1.30722,0 -1.79743,0.0545 -2.28764,0.38127 -0.81702,0.54468 -1.30723,1.41617 -1.30723,2.34212 0,0.87148 0.43574,1.6885 1.14382,2.17871 0.43575,0.38127 1.1983,0.54468 2.45105,0.54468 h 25.65431 v -8.2791 c 0,-1.3617 -0.10893,-1.85191 -0.38127,-2.34212 -0.54468,-0.81701 -1.41616,-1.30722 -2.34211,-1.30722 -0.87149,0 -1.6885,0.38127 -2.23318,1.14382 -0.38128,0.54468 -0.49021,0.98042 -0.49021,2.50552 v 2.83232 h -13.94375 v -7.78889" id="path5476" style="font-family:'Nimbus Mono L';-inkscape-font-specification:'Nimbus Mono L Bold';fill:#ffffff;stroke-width:0.47300503" inkscape:connector-curvature="0" />
        <path d="m 464.06602,841.405 14.10714,21.4603 h 5.39231 v -26.30793 c 2.17871,0 3.32253,-0.98042 3.32253,-2.72339 0,-0.87148 -0.43574,-1.6885 -1.14382,-2.23317 -0.54468,-0.38128 -0.98042,-0.49021 -2.45105,-0.49021 h -7.08081 c -1.41616,0 -1.79743,0.0545 -2.28764,0.38127 -0.81702,0.49021 -1.30723,1.41616 -1.30723,2.34211 0,0.87149 0.43574,1.68851 1.14382,2.23318 0.49021,0.38128 1.08936,0.49021 2.45105,0.49021 h 1.90637 v 15.90459 L 464.06602,831.1106 h -6.2638 c -1.41616,0 -1.79743,0.0545 -2.28764,0.38127 -0.81702,0.49021 -1.30723,1.41616 -1.30723,2.34211 0,0.87149 0.43575,1.68851 1.14383,2.23318 0.4902,0.38128 1.08935,0.49021 2.45104,0.49021 h 0.81702 v 20.86115 c -2.12424,0 -3.32253,0.98042 -3.32253,2.72339 0,0.87148 0.43574,1.6885 1.14382,2.17871 0.49021,0.38127 1.19829,0.54468 2.50552,0.54468 h 7.02634 c 1.08935,0 1.90637,-0.16341 2.28764,-0.38128 0.81702,-0.54468 1.30723,-1.41616 1.30723,-2.34211 0,-0.87149 -0.38128,-1.6885 -1.08936,-2.23318 -0.54467,-0.38127 -1.03489,-0.49021 -2.50551,-0.49021 h -1.90637 V 841.405" id="path5478" style="font-family:'Nimbus Mono L';-inkscape-font-specification:'Nimbus Mono L Bold';fill:#ffffff;stroke-width:0.47300503" inkscape:connector-curvature="0" />
        <path d="m 506.3117,836.55737 h 5.93699 v 5.0655 c 0,1.25276 0.10893,1.79744 0.38127,2.28765 0.49021,0.76255 1.41616,1.30722 2.34211,1.30722 0.87149,0 1.68851,-0.43574 2.23318,-1.14382 0.43574,-0.54468 0.49021,-0.92595 0.49021,-2.45105 V 831.1106 H 489.5901 v 10.51227 c 0,1.25276 0.10894,1.79744 0.38128,2.28765 0.49021,0.81701 1.41616,1.30722 2.34211,1.30722 0.87148,0 1.6885,-0.43574 2.23318,-1.14382 0.38127,-0.54468 0.49021,-0.98042 0.49021,-2.45105 v -5.0655 h 5.82805 v 20.86115 h -3.54041 c -1.41616,0 -1.79743,0.0545 -2.28764,0.38127 -0.81702,0.49021 -1.30723,1.41617 -1.30723,2.34212 0,0.81701 0.43574,1.6885 1.14382,2.17871 0.49021,0.38127 1.1983,0.54468 2.45105,0.54468 h 12.58205 c 1.08936,0 1.90638,-0.16341 2.28765,-0.38128 0.81701,-0.49021 1.30723,-1.41616 1.30723,-2.34211 0,-0.87149 -0.43575,-1.6885 -1.14383,-2.23318 -0.54467,-0.38127 -0.98042,-0.49021 -2.45105,-0.49021 h -3.59487 v -20.86115" id="path5480" style="font-family:'Nimbus Mono L';-inkscape-font-specification:'Nimbus Mono L Bold';fill:#ffffff;stroke-width:0.47300503" inkscape:connector-curvature="0" />
        <path d="m 542.6204,854.25939 1.25276,3.15913 h -1.25276 c -1.41616,0 -1.79743,0.0545 -2.28764,0.38127 -0.81702,0.49021 -1.30723,1.41617 -1.30723,2.34212 0,0.87148 0.43575,1.6885 1.14383,2.17871 0.4902,0.38127 1.14382,0.54468 2.45104,0.54468 h 7.57102 c 1.14382,0 1.85191,-0.10894 2.28765,-0.38128 0.81701,-0.49021 1.30722,-1.41616 1.30722,-2.34211 0,-0.87149 -0.43574,-1.6885 -1.14382,-2.17871 -0.54468,-0.43574 -1.03489,-0.54468 -2.55998,-0.54468 L 539.2434,831.1106 h -11.76503 c -1.47063,0 -1.8519,0.0545 -2.34211,0.38127 -0.81702,0.54468 -1.30723,1.41616 -1.30723,2.34211 0,0.87149 0.43574,1.68851 1.14382,2.23318 0.54468,0.38128 1.08936,0.49021 2.50552,0.49021 h 3.43147 l -8.4425,20.86115 c -1.3617,0 -1.85191,0.0545 -2.34212,0.38127 -0.81701,0.49021 -1.30722,1.41617 -1.30722,2.34212 0,1.79743 1.19829,2.72339 3.59487,2.72339 h 7.24421 c 1.14382,0 1.8519,-0.10894 2.28765,-0.38128 0.81701,-0.49021 1.30722,-1.41616 1.30722,-2.34211 0,-0.87149 -0.43574,-1.6885 -1.14382,-2.23318 -0.54468,-0.38127 -0.98042,-0.49021 -2.45105,-0.49021 h -1.25276 l 1.25276,-3.15913 h 12.96332 m -2.23317,-5.44677 h -8.55144 l 4.30295,-10.45781 4.24849,10.45781" id="path5482" style="font-family:'Nimbus Mono L';-inkscape-font-specification:'Nimbus Mono L Bold';fill:#ffffff;stroke-width:0.47300503" inkscape:connector-curvature="0" />
        <path d="m 571.63046,836.55737 h 5.93698 v 5.0655 c 0,1.25276 0.10894,1.79744 0.38128,2.28765 0.49021,0.76255 1.41616,1.30722 2.34211,1.30722 0.87148,0 1.6885,-0.43574 2.23318,-1.14382 0.43574,-0.54468 0.49021,-0.92595 0.49021,-2.45105 V 831.1106 h -28.10536 v 10.51227 c 0,1.25276 0.10893,1.79744 0.38127,2.28765 0.49021,0.81701 1.41617,1.30722 2.34212,1.30722 0.87148,0 1.6885,-0.43574 2.23317,-1.14382 0.38128,-0.54468 0.49021,-0.98042 0.49021,-2.45105 v -5.0655 h 5.82805 v 20.86115 h -3.5404 c -1.41616,0 -1.79744,0.0545 -2.28765,0.38127 -0.81701,0.49021 -1.30722,1.41617 -1.30722,2.34212 0,0.81701 0.43574,1.6885 1.14382,2.17871 0.49021,0.38127 1.19829,0.54468 2.45105,0.54468 h 12.58205 c 1.08935,0 1.90637,-0.16341 2.28765,-0.38128 0.81701,-0.49021 1.30722,-1.41616 1.30722,-2.34211 0,-0.87149 -0.43574,-1.6885 -1.14382,-2.23318 -0.54468,-0.38127 -0.98042,-0.49021 -2.45105,-0.49021 h -3.59487 v -20.86115" id="path5484" style="font-family:'Nimbus Mono L';-inkscape-font-specification:'Nimbus Mono L Bold';fill:#ffffff;stroke-width:0.47300503" inkscape:connector-curvature="0" />
        <path d="m 604.34429,836.55737 h 5.50124 c 1.25276,0 1.85191,-0.10893 2.28765,-0.38127 0.81701,-0.49021 1.30722,-1.41616 1.30722,-2.34212 0,-0.87148 -0.38127,-1.6885 -1.14382,-2.23317 -0.54468,-0.38128 -0.98042,-0.49021 -2.45105,-0.49021 h -16.44926 c -1.41616,0 -1.79744,0.0545 -2.28764,0.38127 -0.81702,0.49021 -1.30723,1.41616 -1.30723,2.34211 0,0.87149 0.43574,1.68851 1.14382,2.23318 0.49021,0.38128 1.08936,0.49021 2.45105,0.49021 h 5.50124 v 20.86115 h -5.50124 c -1.41616,0 -1.79744,0.0545 -2.28764,0.38127 -0.81702,0.49021 -1.30723,1.41617 -1.30723,2.34212 0,0.81701 0.43574,1.6885 1.14382,2.17871 0.49021,0.38127 1.14383,0.54468 2.45105,0.54468 h 16.44926 c 2.39658,0 3.59487,-0.92596 3.59487,-2.72339 0,-0.87149 -0.38127,-1.6885 -1.14382,-2.23318 -0.54468,-0.38127 -0.98042,-0.49021 -2.45105,-0.49021 h -5.50124 v -20.86115" id="path5486" style="font-family:'Nimbus Mono L';-inkscape-font-specification:'Nimbus Mono L Bold';fill:#ffffff;stroke-width:0.47300503" inkscape:connector-curvature="0" />
        <path d="m 634.28029,830.34805 c -8.38802,0 -15.1965,7.46209 -15.1965,16.61266 0,9.20504 6.80848,16.66713 15.1965,16.66713 8.27909,0 15.19651,-7.46209 15.19651,-16.39479 0,-5.2289 -1.68851,-9.42292 -5.11997,-12.69098 -2.88679,-2.72339 -6.4272,-4.19402 -10.07654,-4.19402 m 0,5.44677 c 5.39231,0 9.74973,5.06551 9.74973,11.3293 0,5.99144 -4.46636,11.05695 -9.74973,11.05695 -5.33783,0 -9.74972,-5.06551 -9.74972,-11.22036 0,-6.10038 4.41189,-11.16589 9.74972,-11.16589" id="path5488" style="font-family:'Nimbus Mono L';-inkscape-font-specification:'Nimbus Mono L Bold';fill:#ffffff;stroke-width:0.47300503" inkscape:connector-curvature="0" />
        <path d="m 660.02225,841.405 14.10715,21.4603 h 5.39231 v -26.30793 c 2.17871,0 3.32253,-0.98042 3.32253,-2.72339 0,-0.87148 -0.43574,-1.6885 -1.14382,-2.23317 -0.54468,-0.38128 -0.98042,-0.49021 -2.45105,-0.49021 h -7.08081 c -1.41616,0 -1.79743,0.0545 -2.28764,0.38127 -0.81702,0.49021 -1.30723,1.41616 -1.30723,2.34211 0,0.87149 0.43574,1.68851 1.14382,2.23318 0.49021,0.38128 1.08936,0.49021 2.45105,0.49021 h 1.90637 v 15.90459 L 660.02225,831.1106 h -6.26379 c -1.41616,0 -1.79743,0.0545 -2.28764,0.38127 -0.81702,0.49021 -1.30723,1.41616 -1.30723,2.34211 0,0.87149 0.43574,1.68851 1.14382,2.23318 0.49021,0.38128 1.08936,0.49021 2.45105,0.49021 h 0.81702 v 20.86115 c -2.12424,0 -3.32253,0.98042 -3.32253,2.72339 0,0.87148 0.43574,1.6885 1.14382,2.17871 0.49021,0.38127 1.19829,0.54468 2.50551,0.54468 h 7.02634 c 1.08936,0 1.90638,-0.16341 2.28765,-0.38128 0.81702,-0.54468 1.30723,-1.41616 1.30723,-2.34211 0,-0.87149 -0.38128,-1.6885 -1.08936,-2.23318 -0.54468,-0.38127 -1.03489,-0.49021 -2.50552,-0.49021 h -1.90637 V 841.405" id="path5490" style="font-family:'Nimbus Mono L';-inkscape-font-specification:'Nimbus Mono L Bold';fill:#ffffff;stroke-width:0.47300503" inkscape:connector-curvature="0" />
        <path d="m 86.794704,885.47631 6.427195,13.67141 h 4.956565 l 6.045916,-13.67141 v 15.74118 h -1.90637 c -1.41616,0 -1.79743,0.0545 -2.28764,0.38128 -0.817018,0.49021 -1.307228,1.41616 -1.307228,2.34211 0,0.81701 0.435742,1.6885 1.143822,2.17871 0.435746,0.38127 1.198296,0.54468 2.451046,0.54468 h 7.08081 c 1.08935,0 1.90637,-0.16341 2.28765,-0.38128 0.81701,-0.54467 1.30722,-1.41616 1.30722,-2.34211 0,-1.74297 -1.19829,-2.72339 -3.32253,-2.72339 v -20.86115 c 1.79743,-0.1634 2.83232,-1.14382 2.83232,-2.72338 0,-0.87149 -0.43574,-1.68851 -1.08935,-2.23318 -0.54468,-0.38128 -1.03489,-0.49021 -2.50552,-0.49021 h -5.99145 l -7.353148,16.17692 -7.51655,-16.17692 h -5.936984 c -0.05447,-0.0545 -0.108936,-0.0545 -0.217871,-0.0545 -0.653613,0 -1.797436,0.21787 -2.069775,0.38127 -0.817015,0.54468 -1.307226,1.47063 -1.307226,2.34212 0,1.63403 1.034889,2.61445 2.832323,2.77785 v 20.86115 c -2.12424,0 -3.322533,0.98042 -3.322533,2.72339 0,0.87148 0.435743,1.6885 1.143823,2.17871 0.490209,0.38127 1.198292,0.54468 2.505517,0.54468 h 7.026339 c 1.089354,0 1.906372,-0.16341 2.287646,-0.38128 0.817015,-0.54467 1.307226,-1.41616 1.307226,-2.34211 0,-0.87148 -0.381275,-1.6885 -1.089355,-2.23318 -0.599145,-0.38127 -1.034889,-0.49021 -2.505517,-0.49021 h -1.906371 v -15.74118" id="path5492" style="font-family:'Nimbus Mono L';-inkscape-font-specification:'Nimbus Mono L Bold';fill:#ffffff;stroke-width:0.47300503" inkscape:connector-curvature="0" />
        <path d="m 134.37824,898.05836 1.25276,3.15913 h -1.25276 c -1.41616,0 -1.79743,0.0545 -2.28764,0.38128 -0.81702,0.49021 -1.30723,1.41616 -1.30723,2.34211 0,0.87148 0.43574,1.6885 1.14382,2.17871 0.49021,0.38127 1.14383,0.54468 2.45105,0.54468 h 7.57102 c 1.14382,0 1.8519,-0.10894 2.28764,-0.38128 0.81702,-0.49021 1.30723,-1.41616 1.30723,-2.34211 0,-0.87148 -0.43574,-1.6885 -1.14382,-2.17871 -0.54468,-0.43574 -1.03489,-0.54468 -2.55999,-0.54468 l -10.83908,-26.30792 h -11.76503 c -1.47063,0 -1.85191,0.0545 -2.34212,0.38127 -0.81701,0.54468 -1.30722,1.41616 -1.30722,2.34212 0,0.87148 0.43574,1.6885 1.14382,2.23317 0.54468,0.38128 1.08936,0.49021 2.50552,0.49021 h 3.43147 l -8.44251,20.86115 c -1.36169,0 -1.8519,0.0545 -2.34211,0.38128 -0.81701,0.49021 -1.30722,1.41616 -1.30722,2.34211 0,1.79743 1.19829,2.72339 3.59487,2.72339 h 7.24421 c 1.14382,0 1.8519,-0.10894 2.28764,-0.38128 0.81702,-0.49021 1.30723,-1.41616 1.30723,-2.34211 0,-0.87148 -0.43574,-1.6885 -1.14382,-2.23318 -0.54468,-0.38127 -0.98042,-0.49021 -2.45105,-0.49021 h -1.25276 l 1.25276,-3.15913 h 12.96332 m -2.23318,-5.44677 h -8.55143 l 4.30295,-10.45781 4.24848,10.45781" id="path5494" style="font-family:'Nimbus Mono L';-inkscape-font-specification:'Nimbus Mono L Bold';fill:#ffffff;stroke-width:0.47300503" inkscape:connector-curvature="0" />
        <path d="m 163.44274,893.31967 8.93272,-12.96333 h 0.10893 c 1.90637,0.21787 3.43147,-1.03489 3.43147,-2.72338 0,-0.87149 -0.38128,-1.68851 -1.14382,-2.23318 -0.49021,-0.38128 -0.98042,-0.49021 -2.45105,-0.49021 h -5.01103 c -1.3617,0 -1.85191,0.0545 -2.34212,0.38127 -0.81701,0.49021 -1.30722,1.41616 -1.30722,2.34212 0,1.25275 0.70808,2.12424 2.17871,2.66892 l -5.11997,7.40761 -5.17444,-7.40761 c 1.41616,-0.59915 2.06978,-1.41617 2.06978,-2.66892 0,-0.87149 -0.43575,-1.68851 -1.08936,-2.23318 -0.54468,-0.38128 -1.03489,-0.49021 -2.50552,-0.49021 h -4.84763 c -0.43574,0 -0.49021,0 -1.14382,0.10893 -1.57956,0.16341 -2.50552,1.14383 -2.50552,2.61446 0,1.74296 1.25277,2.72338 3.48594,2.72338 l 8.98718,12.96333 v 7.89782 h -3.5404 c -1.47063,0 -1.85191,0.0545 -2.34212,0.38128 -0.81701,0.49021 -1.30722,1.41616 -1.30722,2.34211 0,0.87148 0.43574,1.6885 1.14382,2.17871 0.49021,0.38127 1.19829,0.54468 2.50552,0.54468 h 12.52758 c 1.14382,0 1.96084,-0.16341 2.34211,-0.38128 0.81702,-0.49021 1.30723,-1.41616 1.30723,-2.34211 0,-0.87148 -0.43574,-1.6885 -1.14382,-2.23318 -0.54468,-0.38127 -0.98043,-0.49021 -2.50552,-0.49021 h -3.54041 v -7.89782" id="path5496" style="font-family:'Nimbus Mono L';-inkscape-font-specification:'Nimbus Mono L Bold';fill:#ffffff;stroke-width:0.47300503" inkscape:connector-curvature="0" />
        <path d="m 234.04487,875.99892 c -2.99573,-1.41616 -4.90211,-1.8519 -7.73443,-1.8519 -8.38802,0 -14.81522,6.64507 -14.81522,15.35991 v 3.59487 c 0,8.27909 6.75401,14.32502 16.01351,14.32502 3.92168,0 7.62549,-0.98043 10.02207,-2.72339 1.8519,-1.30723 2.88679,-2.72339 2.88679,-3.97615 0,-1.47063 -1.25276,-2.72339 -2.72339,-2.72339 -0.70808,0 -1.36169,0.27234 -1.96083,0.87149 -1.47063,1.52509 -1.47063,1.5251 -2.06978,1.8519 -1.36169,0.81702 -3.54041,1.25276 -5.99145,1.25276 -6.53613,0 -10.73015,-3.54041 -10.73015,-8.98718 v -3.48593 c 0,-5.71911 4.03062,-9.91314 9.58633,-9.91314 1.8519,0 3.81274,0.49022 5.28337,1.30723 1.57956,0.87148 2.12424,1.57957 2.39658,2.88679 0.21787,1.30723 0.32681,1.6885 0.76255,2.12424 0.43574,0.43575 1.19829,0.76255 1.90637,0.76255 0.87148,0 1.6885,-0.43574 2.23318,-1.14382 0.38127,-0.49021 0.49021,-1.08936 0.49021,-2.45105 v -4.57529 c 0,-1.36169 -0.0545,-1.79744 -0.38128,-2.28765 -0.49021,-0.81701 -1.36169,-1.30722 -2.34211,-1.30722 -0.92595,0 -1.57957,0.32681 -2.28765,1.30722 l -0.54467,-0.21787" id="path5498" style="font-family:'Nimbus Mono L';-inkscape-font-specification:'Nimbus Mono L Bold';fill:#ffffff;stroke-width:0.47300503" inkscape:connector-curvature="0" />
        <path d="m 258.69748,874.14702 c -8.38802,0 -15.1965,7.46209 -15.1965,16.61266 0,9.20504 6.80848,16.66714 15.1965,16.66714 8.27909,0 15.19651,-7.4621 15.19651,-16.3948 0,-5.2289 -1.68851,-9.42292 -5.11997,-12.69098 -2.88679,-2.72339 -6.4272,-4.19402 -10.07654,-4.19402 m 0,5.44677 c 5.39231,0 9.74973,5.06551 9.74973,11.3293 0,5.99144 -4.46636,11.05695 -9.74973,11.05695 -5.33783,0 -9.74972,-5.06551 -9.74972,-11.22036 0,-6.10038 4.41189,-11.16589 9.74972,-11.16589" id="path5500" style="font-family:'Nimbus Mono L';-inkscape-font-specification:'Nimbus Mono L Bold';fill:#ffffff;stroke-width:0.47300503" inkscape:connector-curvature="0" />
        <path d="m 284.43944,885.20397 14.10715,21.4603 h 5.39231 v -26.30793 c 2.1787,0 3.32253,-0.98042 3.32253,-2.72338 0,-0.87149 -0.43574,-1.68851 -1.14382,-2.23318 -0.54468,-0.38128 -0.98042,-0.49021 -2.45105,-0.49021 h -7.08081 c -1.41616,0 -1.79744,0.0545 -2.28764,0.38127 -0.81702,0.49021 -1.30723,1.41616 -1.30723,2.34212 0,0.87148 0.43574,1.6885 1.14382,2.23317 0.49021,0.38128 1.08936,0.49021 2.45105,0.49021 h 1.90637 v 15.90459 l -14.05268,-21.35136 h -6.26379 c -1.41616,0 -1.79744,0.0545 -2.28764,0.38127 -0.81702,0.49021 -1.30723,1.41616 -1.30723,2.34212 0,0.87148 0.43574,1.6885 1.14382,2.23317 0.49021,0.38128 1.08936,0.49021 2.45105,0.49021 h 0.81702 v 20.86115 c -2.12424,0 -3.32254,0.98042 -3.32254,2.72339 0,0.87148 0.43575,1.6885 1.14383,2.17871 0.49021,0.38127 1.19829,0.54468 2.50551,0.54468 h 7.02634 c 1.08936,0 1.90638,-0.16341 2.28765,-0.38128 0.81701,-0.54467 1.30723,-1.41616 1.30723,-2.34211 0,-0.87148 -0.38128,-1.6885 -1.08936,-2.23318 -0.54468,-0.38127 -1.03489,-0.49021 -2.50552,-0.49021 h -1.90637 v -16.01352" id="path5502" style="font-family:'Nimbus Mono L';-inkscape-font-specification:'Nimbus Mono L Bold';fill:#ffffff;stroke-width:0.47300503" inkscape:connector-curvature="0" />
        <path d="m 326.68514,880.35634 h 5.93699 v 5.0655 c 0,1.25276 0.10893,1.79744 0.38127,2.28765 0.49021,0.76255 1.41617,1.30723 2.34212,1.30723 0.87148,0 1.6885,-0.43575 2.23317,-1.14383 0.43575,-0.54467 0.49021,-0.92595 0.49021,-2.45105 v -10.51227 h -28.10536 v 10.51227 c 0,1.25276 0.10894,1.79744 0.38128,2.28765 0.49021,0.81701 1.41616,1.30723 2.34211,1.30723 0.87149,0 1.6885,-0.43575 2.23318,-1.14383 0.38127,-0.54467 0.49021,-0.98042 0.49021,-2.45105 v -5.0655 h 5.82805 v 20.86115 h -3.5404 c -1.41616,0 -1.79744,0.0545 -2.28765,0.38128 -0.81702,0.49021 -1.30723,1.41616 -1.30723,2.34211 0,0.81701 0.43575,1.6885 1.14383,2.17871 0.49021,0.38127 1.19829,0.54468 2.45105,0.54468 h 12.58205 c 1.08935,0 1.90637,-0.16341 2.28764,-0.38128 0.81702,-0.49021 1.30723,-1.41616 1.30723,-2.34211 0,-0.87148 -0.43575,-1.6885 -1.14383,-2.23318 -0.54467,-0.38127 -0.98042,-0.49021 -2.45104,-0.49021 h -3.59488 v -20.86115" id="path5504" style="font-family:'Nimbus Mono L';-inkscape-font-specification:'Nimbus Mono L Bold';fill:#ffffff;stroke-width:0.47300503" inkscape:connector-curvature="0" />
        <path d="m 362.99386,898.05836 1.25276,3.15913 h -1.25276 c -1.41616,0 -1.79743,0.0545 -2.28764,0.38128 -0.81702,0.49021 -1.30723,1.41616 -1.30723,2.34211 0,0.87148 0.43574,1.6885 1.14382,2.17871 0.49021,0.38127 1.14383,0.54468 2.45105,0.54468 h 7.57102 c 1.14382,0 1.8519,-0.10894 2.28764,-0.38128 0.81702,-0.49021 1.30723,-1.41616 1.30723,-2.34211 0,-0.87148 -0.43574,-1.6885 -1.14382,-2.17871 -0.54468,-0.43574 -1.03489,-0.54468 -2.55999,-0.54468 l -10.83908,-26.30792 h -11.76503 c -1.47063,0 -1.85191,0.0545 -2.34212,0.38127 -0.81701,0.54468 -1.30722,1.41616 -1.30722,2.34212 0,0.87148 0.43574,1.6885 1.14382,2.23317 0.54468,0.38128 1.08936,0.49021 2.50552,0.49021 h 3.43147 l -8.44251,20.86115 c -1.36169,0 -1.8519,0.0545 -2.34211,0.38128 -0.81701,0.49021 -1.30723,1.41616 -1.30723,2.34211 0,1.79743 1.1983,2.72339 3.59488,2.72339 h 7.24421 c 1.14382,0 1.8519,-0.10894 2.28764,-0.38128 0.81702,-0.49021 1.30723,-1.41616 1.30723,-2.34211 0,-0.87148 -0.43574,-1.6885 -1.14382,-2.23318 -0.54468,-0.38127 -0.98043,-0.49021 -2.45105,-0.49021 h -1.25276 l 1.25276,-3.15913 h 12.96332 m -2.23318,-5.44677 h -8.55143 l 4.30295,-10.45781 4.24848,10.45781" id="path5506" style="font-family:'Nimbus Mono L';-inkscape-font-specification:'Nimbus Mono L Bold';fill:#ffffff;stroke-width:0.47300503" inkscape:connector-curvature="0" />
        <path d="m 392.05835,880.35634 h 5.50125 c 1.25275,0 1.8519,-0.10893 2.28764,-0.38127 0.81702,-0.49021 1.30723,-1.41616 1.30723,-2.34211 0,-0.87149 -0.38128,-1.68851 -1.14383,-2.23318 -0.54467,-0.38128 -0.98042,-0.49021 -2.45104,-0.49021 h -16.44926 c -1.41617,0 -1.79744,0.0545 -2.28765,0.38127 -0.81702,0.49021 -1.30723,1.41616 -1.30723,2.34212 0,0.87148 0.43575,1.6885 1.14383,2.23317 0.49021,0.38128 1.08935,0.49021 2.45105,0.49021 h 5.50124 v 20.86115 h -5.50124 c -1.41617,0 -1.79744,0.0545 -2.28765,0.38128 -0.81702,0.49021 -1.30723,1.41616 -1.30723,2.34211 0,0.81701 0.43575,1.6885 1.14383,2.17871 0.49021,0.38127 1.14382,0.54468 2.45105,0.54468 h 16.44926 c 2.39657,0 3.59487,-0.92596 3.59487,-2.72339 0,-0.87148 -0.38128,-1.6885 -1.14383,-2.23318 -0.54467,-0.38127 -0.98042,-0.49021 -2.45104,-0.49021 h -5.50125 v -20.86115" id="path5508" style="font-family:'Nimbus Mono L';-inkscape-font-specification:'Nimbus Mono L Bold';fill:#ffffff;stroke-width:0.47300503" inkscape:connector-curvature="0" />
        <path d="m 415.07695,885.20397 14.10715,21.4603 h 5.39231 v -26.30793 c 2.17871,0 3.32253,-0.98042 3.32253,-2.72338 0,-0.87149 -0.43574,-1.68851 -1.14382,-2.23318 -0.54468,-0.38128 -0.98042,-0.49021 -2.45105,-0.49021 h -7.08081 c -1.41616,0 -1.79743,0.0545 -2.28764,0.38127 -0.81702,0.49021 -1.30723,1.41616 -1.30723,2.34212 0,0.87148 0.43574,1.6885 1.14382,2.23317 0.49021,0.38128 1.08936,0.49021 2.45105,0.49021 h 1.90637 v 15.90459 l -14.05268,-21.35136 h -6.26379 c -1.41616,0 -1.79743,0.0545 -2.28764,0.38127 -0.81702,0.49021 -1.30723,1.41616 -1.30723,2.34212 0,0.87148 0.43574,1.6885 1.14382,2.23317 0.49021,0.38128 1.08936,0.49021 2.45105,0.49021 h 0.81702 v 20.86115 c -2.12424,0 -3.32253,0.98042 -3.32253,2.72339 0,0.87148 0.43574,1.6885 1.14382,2.17871 0.49021,0.38127 1.19829,0.54468 2.50552,0.54468 h 7.02634 c 1.08935,0 1.90637,-0.16341 2.28764,-0.38128 0.81702,-0.54467 1.30723,-1.41616 1.30723,-2.34211 0,-0.87148 -0.38128,-1.6885 -1.08936,-2.23318 -0.54467,-0.38127 -1.03489,-0.49021 -2.50551,-0.49021 h -1.90638 v -16.01352" id="path5510" style="font-family:'Nimbus Mono L';-inkscape-font-specification:'Nimbus Mono L Bold';fill:#ffffff;stroke-width:0.47300503" inkscape:connector-curvature="0" />
        <path d="m 481.5395,895.77072 h 5.33784 c 5.0655,0 7.78889,-0.92596 10.18547,-3.59488 1.74297,-1.90636 2.72339,-4.46635 2.72339,-6.97187 0,-6.04591 -4.90211,-10.2944 -11.8195,-10.2944 h -12.69099 c -1.41616,0 -1.79743,0.0545 -2.28764,0.38127 -0.81702,0.49021 -1.30723,1.41616 -1.30723,2.34212 0,0.81701 0.43574,1.6885 1.14382,2.23317 0.49021,0.38128 1.08936,0.49021 2.45105,0.49021 h 0.81702 v 20.86115 h -0.81702 c -1.30722,0 -1.79743,0.0545 -2.28764,0.38128 -0.81702,0.49021 -1.30723,1.41616 -1.30723,2.34211 0,0.81701 0.43574,1.6885 1.14382,2.17871 0.43574,0.38127 1.19829,0.54468 2.45105,0.54468 h 11.6561 c 1.08935,0 1.90637,-0.16341 2.28765,-0.38128 0.81701,-0.49021 1.30722,-1.41616 1.30722,-2.34211 0,-0.87148 -0.43574,-1.6885 -1.14382,-2.23318 -0.54468,-0.38127 -0.98042,-0.49021 -2.45105,-0.49021 h -5.39231 v -5.44677 m 0,-15.41438 h 6.4272 c 3.75827,0 6.04592,1.90638 6.04592,5.01104 0,3.05019 -2.28765,4.95656 -6.04592,4.95656 h -6.4272 v -9.9676" id="path5512" style="font-family:'Nimbus Mono L';-inkscape-font-specification:'Nimbus Mono L Bold';fill:#ffffff;stroke-width:0.47300503" inkscape:connector-curvature="0" />
        <path d="m 519.97248,874.14702 c -8.38803,0 -15.1965,7.46209 -15.1965,16.61266 0,9.20504 6.80847,16.66714 15.1965,16.66714 8.27909,0 15.1965,-7.4621 15.1965,-16.3948 0,-5.2289 -1.6885,-9.42292 -5.11997,-12.69098 -2.88679,-2.72339 -6.4272,-4.19402 -10.07653,-4.19402 m 0,5.44677 c 5.3923,0 9.74972,5.06551 9.74972,11.3293 0,5.99144 -4.46636,11.05695 -9.74972,11.05695 -5.33784,0 -9.74973,-5.06551 -9.74973,-11.22036 0,-6.10038 4.41189,-11.16589 9.74973,-11.16589" id="path5514" style="font-family:'Nimbus Mono L';-inkscape-font-specification:'Nimbus Mono L Bold';fill:#ffffff;stroke-width:0.47300503" inkscape:connector-curvature="0" />
        <path d="m 555.35523,880.35634 h 5.50124 c 1.25276,0 1.8519,-0.10893 2.28765,-0.38127 0.81701,-0.49021 1.30722,-1.41616 1.30722,-2.34211 0,-0.87149 -0.38127,-1.68851 -1.14382,-2.23318 -0.54468,-0.38128 -0.98042,-0.49021 -2.45105,-0.49021 h -16.44926 c -1.41616,0 -1.79744,0.0545 -2.28765,0.38127 -0.81701,0.49021 -1.30722,1.41616 -1.30722,2.34212 0,0.87148 0.43574,1.6885 1.14382,2.23317 0.49021,0.38128 1.08936,0.49021 2.45105,0.49021 h 5.50124 v 20.86115 h -5.50124 c -1.41616,0 -1.79744,0.0545 -2.28765,0.38128 -0.81701,0.49021 -1.30722,1.41616 -1.30722,2.34211 0,0.81701 0.43574,1.6885 1.14382,2.17871 0.49021,0.38127 1.14383,0.54468 2.45105,0.54468 h 16.44926 c 2.39658,0 3.59487,-0.92596 3.59487,-2.72339 0,-0.87148 -0.38127,-1.6885 -1.14382,-2.23318 -0.54468,-0.38127 -0.98042,-0.49021 -2.45105,-0.49021 h -5.50124 v -20.86115" id="path5516" style="font-family:'Nimbus Mono L';-inkscape-font-specification:'Nimbus Mono L Bold';fill:#ffffff;stroke-width:0.47300503" inkscape:connector-curvature="0" />
        <path d="m 578.37383,885.20397 14.10715,21.4603 h 5.3923 v -26.30793 c 2.17871,0 3.32254,-0.98042 3.32254,-2.72338 0,-0.87149 -0.43575,-1.68851 -1.14383,-2.23318 -0.54467,-0.38128 -0.98042,-0.49021 -2.45104,-0.49021 h -7.08081 c -1.41616,0 -1.79744,0.0545 -2.28765,0.38127 -0.81701,0.49021 -1.30722,1.41616 -1.30722,2.34212 0,0.87148 0.43574,1.6885 1.14382,2.23317 0.49021,0.38128 1.08936,0.49021 2.45105,0.49021 h 1.90637 v 15.90459 l -14.05268,-21.35136 h -6.26379 c -1.41616,0 -1.79744,0.0545 -2.28765,0.38127 -0.81701,0.49021 -1.30722,1.41616 -1.30722,2.34212 0,0.87148 0.43574,1.6885 1.14382,2.23317 0.49021,0.38128 1.08936,0.49021 2.45105,0.49021 h 0.81701 v 20.86115 c -2.12424,0 -3.32253,0.98042 -3.32253,2.72339 0,0.87148 0.43574,1.6885 1.14382,2.17871 0.49021,0.38127 1.1983,0.54468 2.50552,0.54468 h 7.02634 c 1.08935,0 1.90637,-0.16341 2.28765,-0.38128 0.81701,-0.54467 1.30722,-1.41616 1.30722,-2.34211 0,-0.87148 -0.38127,-1.6885 -1.08935,-2.23318 -0.54468,-0.38127 -1.03489,-0.49021 -2.50552,-0.49021 h -1.90637 v -16.01352" id="path5518" style="font-family:'Nimbus Mono L';-inkscape-font-specification:'Nimbus Mono L Bold';fill:#ffffff;stroke-width:0.47300503" inkscape:connector-curvature="0" />
        <path d="m 620.61952,880.35634 h 5.93698 v 5.0655 c 0,1.25276 0.10894,1.79744 0.38128,2.28765 0.4902,0.76255 1.41616,1.30723 2.34211,1.30723 0.87148,0 1.6885,-0.43575 2.23318,-1.14383 0.43574,-0.54467 0.49021,-0.92595 0.49021,-2.45105 v -10.51227 h -28.10536 v 10.51227 c 0,1.25276 0.10893,1.79744 0.38127,2.28765 0.49021,0.81701 1.41616,1.30723 2.34211,1.30723 0.87149,0 1.68851,-0.43575 2.23318,-1.14383 0.38128,-0.54467 0.49021,-0.98042 0.49021,-2.45105 v -5.0655 h 5.82805 v 20.86115 h -3.5404 c -1.41616,0 -1.79744,0.0545 -2.28765,0.38128 -0.81701,0.49021 -1.30722,1.41616 -1.30722,2.34211 0,0.81701 0.43574,1.6885 1.14382,2.17871 0.49021,0.38127 1.19829,0.54468 2.45105,0.54468 h 12.58205 c 1.08935,0 1.90637,-0.16341 2.28764,-0.38128 0.81702,-0.49021 1.30723,-1.41616 1.30723,-2.34211 0,-0.87148 -0.43574,-1.6885 -1.14382,-2.23318 -0.54468,-0.38127 -0.98042,-0.49021 -2.45105,-0.49021 h -3.59487 v -20.86115" id="path5520" style="font-family:'Nimbus Mono L';-inkscape-font-specification:'Nimbus Mono L Bold';fill:#ffffff;stroke-width:0.47300503" inkscape:connector-curvature="0" />
        <path d="m 644.83638,893.4286 h 4.62976 v 0.38128 c 0,1.30722 0.10893,1.79743 0.38127,2.28764 0.49021,0.81702 1.41616,1.30723 2.34211,1.30723 0.81702,0 1.63404,-0.43574 2.17871,-1.14382 0.38128,-0.49021 0.49021,-1.03489 0.49021,-2.45105 v -6.15486 c 0,-0.49021 0,-0.65361 -0.0545,-1.14382 -0.21787,-1.5251 -1.1983,-2.50552 -2.66892,-2.50552 -0.81702,0 -1.63404,0.43575 -2.17871,1.14383 -0.38128,0.54467 -0.49021,1.03488 -0.49021,2.50551 v 0.38128 h -4.62976 v -7.67996 h 12.74545 v 2.72339 c 0,1.30723 0.10894,1.8519 0.38128,2.34211 0.54467,0.81702 1.41616,1.30723 2.34211,1.30723 0.87148,0 1.6885,-0.43574 2.23318,-1.14382 0.38127,-0.54468 0.49021,-0.98042 0.49021,-2.50552 v -8.17016 h -24.45602 c -1.41616,0 -1.79744,0.0545 -2.28765,0.38127 -0.81701,0.49021 -1.30723,1.41616 -1.30723,2.34212 0,0.87148 0.43575,1.6885 1.14383,2.23317 0.49021,0.38128 1.08935,0.49021 2.45105,0.49021 h 0.81701 v 20.86115 h -0.81701 c -1.30723,0 -1.79744,0.0545 -2.28765,0.38128 -0.81701,0.54467 -1.30723,1.41616 -1.30723,2.34211 0,0.87148 0.43575,1.6885 1.14383,2.17871 0.43574,0.38127 1.19829,0.54468 2.45105,0.54468 h 25.65431 v -8.2791 c 0,-1.36169 -0.10894,-1.85191 -0.38128,-2.34211 -0.54467,-0.81702 -1.41616,-1.30723 -2.34211,-1.30723 -0.87148,0 -1.6885,0.38127 -2.23318,1.14382 -0.38127,0.54468 -0.49021,0.98042 -0.49021,2.50552 v 2.83232 h -13.94374 v -7.78889" id="path5522" style="font-family:'Nimbus Mono L';-inkscape-font-specification:'Nimbus Mono L Bold';fill:#ffffff;stroke-width:0.47300503" inkscape:connector-curvature="0" />
        <path d="m 677.49574,894.57243 h 5.2289 c 2.28765,0.81701 7.29869,6.80847 10.02207,12.09184 h 4.30295 c 1.08936,0 1.90637,-0.16341 2.28765,-0.38128 0.81701,-0.49021 1.30722,-1.41616 1.30722,-2.34211 0,-0.87148 -0.43574,-1.74297 -1.08935,-2.23318 -0.54468,-0.38127 -1.14382,-0.49021 -2.50552,-0.49021 h -0.70808 c -2.28764,-3.64933 -4.30295,-6.15486 -6.86293,-8.38803 3.97614,-2.17871 5.88251,-4.79317 5.88251,-8.22463 0,-5.71911 -4.9021,-9.69526 -11.9829,-9.69526 h -12.14631 c -1.41616,0 -1.79744,0.0545 -2.28765,0.38127 -0.81701,0.49021 -1.30722,1.41616 -1.30722,2.34212 0,0.87148 0.43574,1.6885 1.14382,2.23317 0.49021,0.38128 1.08936,0.49021 2.45105,0.49021 h 0.81702 v 20.86115 h -0.81702 c -1.30723,0 -1.79744,0.0545 -2.28765,0.38128 -0.81701,0.49021 -1.30722,1.41616 -1.30722,2.34211 0,0.81701 0.43574,1.6885 1.14382,2.17871 0.43574,0.38127 1.19829,0.54468 2.45105,0.54468 h 8.17016 c 1.08936,0 1.90637,-0.16341 2.28765,-0.38128 0.81701,-0.49021 1.30722,-1.41616 1.30722,-2.34211 0,-0.87148 -0.43574,-1.6885 -1.08935,-2.23318 -0.54468,-0.38127 -1.03489,-0.49021 -2.50552,-0.49021 h -1.90637 v -6.64506 m 0,-5.44678 v -8.76931 h 6.10039 c 3.48593,0 5.99145,1.74297 5.99145,4.08508 0,2.72339 -3.377,4.68423 -7.95229,4.68423 h -4.13955" id="path5524" style="font-family:'Nimbus Mono L';-inkscape-font-specification:'Nimbus Mono L Bold';fill:#ffffff;stroke-width:0.47300503" inkscape:connector-curvature="0" />
        <path d="m 727.74825,877.74189 c 0,-1.41616 -0.0545,-1.8519 -0.38128,-2.34211 -0.43574,-0.76255 -1.36169,-1.25276 -2.28764,-1.25276 -1.08936,0 -1.57957,0.43574 -2.12424,1.79744 -1.90637,-1.19829 -4.30296,-1.79744 -7.08081,-1.79744 -6.754,0 -11.8195,4.13955 -11.8195,9.64079 0,3.10466 1.6885,5.99146 4.46635,7.57102 1.74297,0.98042 3.48594,1.5251 7.02634,2.12424 3.70381,0.65361 4.57529,0.87149 5.71912,1.47063 1.19828,0.65361 1.96083,1.74297 1.96083,2.88679 0,2.34211 -3.15913,4.13955 -7.18974,4.13955 -3.59487,0 -7.02634,-1.57957 -7.57102,-3.5404 -0.43574,-1.47063 -0.43574,-1.47063 -0.81701,-1.85191 -0.49021,-0.49021 -1.19829,-0.76255 -1.96084,-0.76255 -0.87148,0 -1.6885,0.38128 -2.23318,1.08936 -0.38127,0.54468 -0.49021,1.14382 -0.49021,2.50552 v 3.59487 c 0,2.45104 0.87149,3.59487 2.77786,3.59487 0.87148,0 1.25276,-0.21787 2.17871,-1.30723 2.66891,1.41616 5.55571,2.12425 8.49697,2.12425 7.46207,0 12.47311,-3.81275 12.47311,-9.47739 0,-2.83232 -1.03489,-5.06551 -3.2136,-6.80847 -1.6885,-1.36169 -3.75828,-2.12425 -8.49697,-2.99573 -4.08507,-0.76255 -4.35742,-0.87148 -5.44677,-1.41616 -1.19829,-0.59914 -2.01531,-1.8519 -2.01531,-2.99573 0,-2.34211 2.72339,-4.13955 6.15486,-4.13955 3.377,0 5.99145,1.47064 6.48166,3.64934 0.38127,1.74297 0.38128,1.74297 0.76255,2.17871 0.43574,0.43575 1.19829,0.76255 1.96084,0.76255 0.81701,0 1.63403,-0.43574 2.17871,-1.14382 0.38127,-0.54468 0.49021,-0.98042 0.49021,-2.50552 v -4.79316" id="path5526" style="font-family:'Nimbus Mono L';-inkscape-font-specification:'Nimbus Mono L Bold';fill:#ffffff;stroke-width:0.47300503" inkscape:connector-curvature="0" />
      </g>
      <g id="g5450" style="fill:#fc0000;fill-opacity:1;stroke-width:0.47300503" transform="matrix(-0.46507104,0,0,0.46507104,443.03195,-246.51983)">
        <path d="m 205.87109,957.92474 v 22 h 397.125 v -22 z" id="path4009" style="color:#000000;font-style:normal;font-variant:normal;font-weight:normal;font-stretch:normal;font-size:medium;line-height:normal;font-family:Sans;-inkscape-font-specification:Sans;text-indent:0;text-align:start;text-decoration:none;text-decoration-line:none;letter-spacing:normal;word-spacing:normal;text-transform:none;writing-mode:lr-tb;direction:ltr;baseline-shift:baseline;text-anchor:start;display:inline;overflow:visible;visibility:visible;fill:#fc0000;fill-opacity:1;fill-rule:nonzero;stroke:none;stroke-width:10.40611076;marker:none;enable-background:accumulate" inkscape:connector-curvature="0" />
        <path d="m 155.08616,968.93367 76.12,-44 v 88.00003 z" id="path5443" style="fill:#fc0000;fill-opacity:1;fill-rule:evenodd;stroke:none;stroke-width:4.162444pt;marker-start:none" inkscape:connector-curvature="0" />
        <path d="m 624.56502,968.93367 c 0,12.144 -9.856,22 -22,22 -12.144,0 -22,-9.856 -22,-22 0,-12.144 9.856,-22 22,-22 12.144,0 22,9.856 22,22 z" id="path5445" style="fill:#fc0000;fill-opacity:1;fill-rule:evenodd;stroke:none;stroke-width:2.08122236pt;marker-start:none;marker-end:none" inkscape:connector-curvature="0" />
      </g>
    </g>
  </g>
</svg>