<?xml version="1.0" encoding="UTF-8" standalone="no"?>
<!-- Created with Inkscape (http://www.inkscape.org/) -->

<svg
   width="1920"
   height="1080"
   id="svg2"
   version="1.1"
   inkscape:version="1.2.2 (b0a8486541, 2022-12-01)"
   sodipodi:docname="chakra_nan_boxing.svg"
   xmlns:inkscape="http://www.inkscape.org/namespaces/inkscape"
   xmlns:sodipodi="http://sodipodi.sourceforge.net/DTD/sodipodi-0.dtd"
   xmlns="http://www.w3.org/2000/svg"
   xmlns:svg="http://www.w3.org/2000/svg"
   xmlns:rdf="http://www.w3.org/1999/02/22-rdf-syntax-ns#"
   xmlns:cc="http://creativecommons.org/ns#"
   xmlns:dc="http://purl.org/dc/elements/1.1/">
  <defs
     id="defs4">
    <marker
       inkscape:stockid="DotM"
       orient="auto"
       refY="0.0"
       refX="0.0"
       id="marker7183"
       style="overflow:visible"
       inkscape:isstock="true">
      <path
         id="path7185"
         d="M -2.5,-1.0 C -2.5,1.7600000 -4.7400000,4.0 -7.5,4.0 C -10.260000,4.0 -12.5,1.7600000 -12.5,-1.0 C -12.5,-3.7600000 -10.260000,-6.0 -7.5,-6.0 C -4.7400000,-6.0 -2.5,-3.7600000 -2.5,-1.0 z "
         style="fill-rule:evenodd;stroke:#ffffff;stroke-width:1pt;stroke-opacity:1;fill:#ffffff;fill-opacity:1"
         transform="scale(0.4) translate(7.4, 1)" />
    </marker>
    <marker
       style="overflow:visible"
       inkscape:stockid="InfiniteLineStart"
       id="InfiniteLineStart"
       refX="0"
       refY="0"
       orient="auto"
       inkscape:isstock="true">
      <g
         id="g7152"
         style="fill:#ffffff;stroke:#ffffff;stroke-opacity:1;fill-opacity:1"
         transform="translate(-13,0)">
        <circle
           id="circle7154"
           r="0.8"
           cy="0"
           cx="3"
           style="stroke:#ffffff;stroke-opacity:1;fill:#ffffff;fill-opacity:1" />
        <circle
           id="circle7156"
           r="0.8"
           cy="0"
           cx="6.5"
           style="stroke:#ffffff;stroke-opacity:1;fill:#ffffff;fill-opacity:1" />
        <circle
           id="circle7158"
           r="0.8"
           cy="0"
           cx="10"
           style="stroke:#ffffff;stroke-opacity:1;fill:#ffffff;fill-opacity:1" />
      </g>
    </marker>
    <marker
       inkscape:stockid="DotM"
       orient="auto"
       refY="0.0"
       refX="0.0"
       id="DotM"
       style="overflow:visible"
       inkscape:isstock="true">
      <path
         id="path6972"
         d="M -2.5,-1.0 C -2.5,1.7600000 -4.7400000,4.0 -7.5,4.0 C -10.260000,4.0 -12.5,1.7600000 -12.5,-1.0 C -12.5,-3.7600000 -10.260000,-6.0 -7.5,-6.0 C -4.7400000,-6.0 -2.5,-3.7600000 -2.5,-1.0 z "
         style="fill-rule:evenodd;stroke:#ffffff;stroke-width:1pt;stroke-opacity:1;fill:#ffffff;fill-opacity:1"
         transform="scale(0.4) translate(7.4, 1)" />
    </marker>
    <marker
       inkscape:stockid="DotL"
       orient="auto"
       refY="0.0"
       refX="0.0"
       id="DotL"
       style="overflow:visible"
       inkscape:isstock="true">
      <path
         id="path6969"
         d="M -2.5,-1.0 C -2.5,1.7600000 -4.7400000,4.0 -7.5,4.0 C -10.260000,4.0 -12.5,1.7600000 -12.5,-1.0 C -12.5,-3.7600000 -10.260000,-6.0 -7.5,-6.0 C -4.7400000,-6.0 -2.5,-3.7600000 -2.5,-1.0 z "
         style="fill-rule:evenodd;stroke:#ffffff;stroke-width:1pt;stroke-opacity:1;fill:#ffffff;fill-opacity:1"
         transform="scale(0.8) translate(7.4, 1)" />
    </marker>
    <marker
       inkscape:stockid="TriangleOutM"
       orient="auto"
       refY="0.0"
       refX="0.0"
       id="TriangleOutM"
       style="overflow:visible"
       inkscape:isstock="true">
      <path
         id="path4953"
         d="M 5.77,0.0 L -2.88,5.0 L -2.88,-5.0 L 5.77,0.0 z "
         style="fill-rule:evenodd;stroke:#885818;stroke-width:1pt;stroke-opacity:1;fill:#885818;fill-opacity:1"
         transform="scale(0.4)" />
    </marker>
    <marker
       inkscape:stockid="TriangleOutL"
       orient="auto"
       refY="0.0"
       refX="0.0"
       id="TriangleOutL"
       style="overflow:visible"
       inkscape:isstock="true">
      <path
         id="path4950"
         d="M 5.77,0.0 L -2.88,5.0 L -2.88,-5.0 L 5.77,0.0 z "
         style="fill-rule:evenodd;stroke:#ffffff;stroke-width:1pt;stroke-opacity:1;fill:#ffffff;fill-opacity:1"
         transform="scale(0.8)" />
    </marker>
    <linearGradient
       id="linearGradient7793-2">
      <stop
         style="stop-color:#ffffff;stop-opacity:1"
         offset="0"
         id="stop4640" />
      <stop
         id="stop4646"
         offset="0.5"
         style="stop-color:#f8d821;stop-opacity:1" />
      <stop
         id="stop4642"
         offset="1"
         style="stop-color:#885818;stop-opacity:1" />
    </linearGradient>
    <linearGradient
       id="linearGradient7793">
      <stop
         id="stop4630"
         offset="0"
         style="stop-color:#ffffff;stop-opacity:1;" />
      <stop
         style="stop-color:#ffffff;stop-opacity:0.28858522;"
         offset="0.5"
         id="stop4632" />
      <stop
         id="stop4634"
         offset="1"
         style="stop-color:#ffffff;stop-opacity:0;" />
    </linearGradient>
    <linearGradient
       id="linearGradient4636">
      <stop
         style="stop-color:#ffffff;stop-opacity:1;"
         offset="0"
         id="stop7795" />
      <stop
         id="stop7803"
         offset="0.5"
         style="stop-color:#ffffff;stop-opacity:0.28858522;" />
      <stop
         style="stop-color:#ffffff;stop-opacity:0;"
         offset="1"
         id="stop7797" />
    </linearGradient>
    <marker
       inkscape:stockid="TriangleOutM"
       orient="auto"
       refY="0"
       refX="0"
       id="marker15926"
       style="overflow:visible"
       inkscape:isstock="true">
      <path
         inkscape:connector-curvature="0"
         id="path15928"
         d="m 5.77,0 -8.65,5 0,-10 8.65,5 z"
         style="fill:#ffffff;fill-opacity:1;fill-rule:evenodd;stroke:#ffffff;stroke-width:1pt;stroke-opacity:1"
         transform="scale(0.4,0.4)" />
    </marker>
    <marker
       inkscape:stockid="TriangleOutM"
       orient="auto"
       refY="0"
       refX="0"
       id="marker15926-6"
       style="overflow:visible"
       inkscape:isstock="true">
      <path
         inkscape:connector-curvature="0"
         id="path15928-0"
         d="m 5.77,0 -8.65,5 0,-10 8.65,5 z"
         style="fill:#ffffff;fill-opacity:1;fill-rule:evenodd;stroke:#ffffff;stroke-width:1pt;stroke-opacity:1"
         transform="scale(0.4,0.4)" />
    </marker>
  </defs>
  <sodipodi:namedview
     id="base"
     pagecolor="#ffffff"
     bordercolor="#666666"
     borderopacity="1.0"
     inkscape:pageopacity="0.0"
     inkscape:pageshadow="2"
     inkscape:zoom="0.70710678"
     inkscape:cx="1164.6049"
     inkscape:cy="490.025"
     inkscape:document-units="px"
     inkscape:current-layer="layer10"
     showgrid="false"
     inkscape:window-width="1918"
     inkscape:window-height="1182"
     inkscape:window-x="1"
     inkscape:window-y="17"
     inkscape:window-maximized="0"
     inkscape:showpageshadow="2"
     inkscape:pagecheckerboard="0"
     inkscape:deskcolor="#d1d1d1" />
  <metadata
     id="metadata7">
    <rdf:RDF>
      <cc:Work
         rdf:about="">
        <dc:format>image/svg+xml</dc:format>
        <dc:type
           rdf:resource="http://purl.org/dc/dcmitype/StillImage" />
      </cc:Work>
    </rdf:RDF>
  </metadata>
  <g
     inkscape:groupmode="layer"
     id="layer2"
     inkscape:label="back"
     transform="translate(0,312)"
     sodipodi:insensitive="true">
    <rect
       style="fill:#000000;fill-opacity:1;stroke:none"
       id="rect5418"
       width="1920"
       height="1080"
       x="0"
       y="-312" />
  </g>
  <g
     inkscape:groupmode="layer"
     id="layer4-2"
     inkscape:label="pagenumber"
     style="display:inline"
     transform="translate(-4.9414062e-5)"
     sodipodi:insensitive="true">
    <text
       xml:space="preserve"
       style="font-style:normal;font-variant:normal;font-weight:bold;font-stretch:normal;line-height:0%;font-family:'Bitstream Vera Sans Mono';-inkscape-font-specification:'Bitstream Vera Sans Mono Bold';text-align:end;letter-spacing:0px;word-spacing:0px;text-anchor:end;fill:#fdfdfd;fill-opacity:1;stroke:none"
       x="1902.5485"
       y="1059.1504"
       id="text61"><tspan
         sodipodi:role="line"
         x="1902.5485"
         y="1059.1504"
         id="pagenumber"
         style="font-style:normal;font-variant:normal;font-weight:bold;font-stretch:normal;font-size:50px;line-height:1.25;font-family:'Bitstream Vera Sans Mono';-inkscape-font-specification:'Bitstream Vera Sans Mono Bold';fill:#fdfdfd;fill-opacity:1">PAGENUMBER</tspan></text>
  </g>
  <g
     inkscape:groupmode="layer"
     id="layer3"
     inkscape:label="numbers_base"
     transform="translate(0,312)"
     sodipodi:insensitive="true"
     style="display:inline">
    <rect
       y="107.06293"
       x="159.54407"
       height="125.71005"
       width="1582.8198"
       id="rect6798"
       style="fill:#284bd4;fill-opacity:1;stroke:#000000;stroke-width:6.13238;stroke-linecap:round;stroke-linejoin:round;stroke-miterlimit:4;stroke-dasharray:none;stroke-dashoffset:0;stroke-opacity:1" />
  </g>
  <g
     inkscape:groupmode="layer"
     id="g8399"
     inkscape:label="numbers_text"
     transform="translate(0,312)"
     sodipodi:insensitive="true"
     style="display:inline">
    <text
       id="text8397"
       y="-76"
       x="117.77832"
       style="font-style:normal;font-variant:normal;font-weight:bold;font-stretch:normal;line-height:0%;font-family:'Bitstream Vera Sans Mono';-inkscape-font-specification:'Bitstream Vera Sans Mono Bold';text-align:start;letter-spacing:0px;word-spacing:0px;writing-mode:lr-tb;text-anchor:start;fill:#ffffff;fill-opacity:1;stroke:none"
       xml:space="preserve"><tspan
         id="tspan8395"
         y="-76"
         x="117.77832"
         sodipodi:role="line"
         style="font-size:70px;line-height:1.25">Numbers (doubles)</tspan></text>
  </g>
  <g
     inkscape:groupmode="layer"
     id="g8593"
     inkscape:label="nan_text"
     transform="translate(0,312)"
     style="display:none"
     sodipodi:insensitive="true">
    <text
       id="text4556"
       y="-76"
       x="117.77832"
       style="font-style:normal;font-variant:normal;font-weight:bold;font-stretch:normal;line-height:0%;font-family:'Bitstream Vera Sans Mono';-inkscape-font-specification:'Bitstream Vera Sans Mono Bold';text-align:start;letter-spacing:0px;word-spacing:0px;writing-mode:lr-tb;text-anchor:start;fill:#ffffff;fill-opacity:1;stroke:none"
       xml:space="preserve"><tspan
         id="tspan4558"
         y="-76"
         x="117.77832"
         sodipodi:role="line"
         style="font-size:70px;line-height:1.25">Numbers, NaN</tspan></text>
  </g>
  <g
     inkscape:groupmode="layer"
     id="g13938"
     inkscape:label="nan_xor_text"
     transform="translate(0,312)"
     style="display:none"
     sodipodi:insensitive="true">
    <text
       id="text4556-2"
       y="236"
       x="117.77832"
       style="font-style:normal;font-variant:normal;font-weight:bold;font-stretch:normal;line-height:0%;font-family:'Bitstream Vera Sans Mono';-inkscape-font-specification:'Bitstream Vera Sans Mono Bold';text-align:start;letter-spacing:0px;word-spacing:0px;writing-mode:lr-tb;text-anchor:start;fill:#ffffff;fill-opacity:1;stroke:none"
       xml:space="preserve"
       transform="translate(0,-312)"><tspan
         id="tspan4558-0"
         y="236"
         x="117.77832"
         sodipodi:role="line"
         style="font-size:70px;line-height:1.25">Numbers, NaN, 14 high bits flipped</tspan></text>
  </g>
  <g
     inkscape:groupmode="layer"
     id="layer5"
     inkscape:label="numbers_fields"
     sodipodi:insensitive="true"
     style="display:none">
    <path
       sodipodi:nodetypes="ccscsscsccsssscsccscssccssscsc"
       inkscape:connector-curvature="0"
       id="path7004"
       d="m 726.137,407.51537 h 10.3752 v -4.61168 c 0,-11.95992 -1.7772,-19.98095 -5.3317,-24.06474 -3.5545,-4.03468 -10.6394,-6.05196 -21.2549,-6.05196 H 541.11207 c -7.25307,0 -12.27258,-1.2972 -15.05846,-3.89069 -2.78604,-2.54516 -4.17903,-7.18055 -4.17903,-13.90515 v -4.46768 h -10.3032 v 4.46768 c 0,6.77294 -1.36883,11.43205 -4.10684,13.97811 -2.73792,2.54515 -7.70931,3.81773 -14.91442,3.81773 H 323.66454 c -10.61551,0 -17.67649,2.01728 -21.18288,6.05196 -3.55452,4.08379 -16.98575,21.37749 -5.33164,24.06474 v 4.61168 h 10.30312 v -5.04378 c 0,-6.72472 1.05686,-11.11945 3.17027,-13.18506 2.06545,-2.01728 6.50858,-3.0256 13.32928,-3.0256 h 169.46207 c 7.54129,0 13.01705,-1.10486 16.42753,-3.31446 3.41031,-2.1614 5.71597,-5.88426 6.91671,-11.16779 1.29697,5.33187 3.65067,9.07844 7.06098,11.23984 3.41039,2.16127 8.86218,3.24241 16.35543,3.24241 H 709.6375 c 6.8688,0 11.3359,1.00832 13.4013,3.0256 2.0653,2.06561 3.0982,6.46034 3.0982,13.18506 z"
       style="font-style:normal;font-variant:normal;font-weight:normal;font-stretch:normal;font-size:medium;line-height:125%;font-family:'DejaVu Sans Mono';-inkscape-font-specification:'DejaVu Sans Mono';letter-spacing:0px;word-spacing:0px;fill:#ffffff;fill-opacity:1;stroke:none;stroke-width:1px;stroke-linecap:butt;stroke-linejoin:miter;stroke-opacity:1" />
    <text
       xml:space="preserve"
       style="font-style:normal;font-variant:normal;font-weight:normal;font-stretch:normal;line-height:0%;font-family:'Bitstream Vera Sans Mono';-inkscape-font-specification:'Bitstream Vera Sans Mono';text-align:center;letter-spacing:0px;word-spacing:0px;writing-mode:lr-tb;text-anchor:middle;fill:#ffffff;fill-opacity:1;stroke:none;stroke-width:1px;stroke-linecap:butt;stroke-linejoin:miter;stroke-opacity:1"
       x="650.68665"
       y="326.21155"
       id="text6957"><tspan
         y="326.21155"
         x="650.68665"
         sodipodi:role="line"
         id="tspan6961"
         style="font-weight:bold;font-size:50px;line-height:1.25;text-align:center;text-anchor:middle">exponent (11 bit)</tspan></text>
    <path
       sodipodi:nodetypes="ccscsscsccssssccccscssccssscsc"
       inkscape:connector-curvature="0"
       id="path3989"
       d="m 185.45212,408.38825 h -10.8641 v -4.82905 c 0,-12.52367 1.8608,-20.92276 5.5829,-25.19905 3.722,-4.22471 11.141,-6.33722 22.2568,-6.33722 h 4.54762 c 7.59485,0 8.85097,-1.3582 11.76819,-4.07394 2.91731,-2.66512 4.37596,-7.519 4.37596,-14.5607 v -4.67814 h 10.7888 v 4.67814 c 0,7.09218 1.43346,11.9709 4.30046,14.63696 2.86709,2.66513 4.07273,3.99768 11.61754,3.99768 h 6.62292 c 11.11588,0 18.50968,2.11251 22.18135,6.33722 3.72205,4.27629 5.58294,25.19905 5.58294,25.19905 v 4.82905 h -10.78876 v -5.28152 c 0,-7.04156 -1.10669,-11.64356 -3.31971,-13.80655 -2.1628,-2.11236 -6.81535,-3.16806 -13.95755,-3.16806 h -7.22673 c -7.8967,0 -9.63052,-1.15695 -13.20174,-3.47085 -3.57113,-2.26313 -5.98545,-6.16146 -7.24269,-11.69404 -1.35822,5.58306 -3.82276,9.50623 -7.39389,11.7695 -3.57113,2.26327 -5.27984,3.39539 -13.12631,3.39539 h -5.2266 c -7.1927,0 -11.8703,1.0557 -14.0331,3.16806 -2.1627,2.16299 -3.2443,6.76499 -3.2443,13.80655 z"
       style="font-style:normal;font-variant:normal;font-weight:normal;font-stretch:normal;font-size:medium;line-height:125%;font-family:'DejaVu Sans Mono';-inkscape-font-specification:'DejaVu Sans Mono';letter-spacing:0px;word-spacing:0px;fill:#ffffff;fill-opacity:1;stroke:none;stroke-width:1px;stroke-linecap:butt;stroke-linejoin:miter;stroke-opacity:1" />
    <path
       style="font-style:normal;font-variant:normal;font-weight:normal;font-stretch:normal;font-size:medium;line-height:125%;font-family:'DejaVu Sans Mono';-inkscape-font-specification:'DejaVu Sans Mono';letter-spacing:0px;word-spacing:0px;fill:#ffffff;fill-opacity:1;stroke:none;stroke-width:1px;stroke-linecap:butt;stroke-linejoin:miter;stroke-opacity:1"
       d="m 1720.137,407.51537 h 10.3752 v -4.61168 c 0,-11.95992 -1.7772,-19.98095 -5.3317,-24.06474 -3.5545,-4.03468 -10.6394,-6.05196 -21.2549,-6.05196 h -428.8135 c -7.2531,0 -12.2726,-1.2972 -15.0585,-3.89069 -2.786,-2.54516 -4.179,-7.18055 -4.179,-13.90515 v -4.46768 h -10.3032 v 4.46768 c 0,6.77294 -1.3688,11.43205 -4.1069,13.97811 -2.7379,2.54515 -7.7093,3.81773 -14.9144,3.81773 H 817.6645 c -10.6155,0 -17.6765,2.01728 -21.1828,6.05196 -3.5546,4.08379 -16.98581,21.37749 -5.3317,24.06474 v 4.61168 h 10.3031 v -5.04378 c 0,-6.72472 1.0569,-11.11945 3.1703,-13.18506 2.0655,-2.01728 6.5086,-3.0256 13.3293,-3.0256 h 409.4621 c 7.5413,0 13.017,-1.10486 16.4275,-3.31446 3.4103,-2.1614 5.716,-5.88426 6.9167,-11.16779 1.297,5.33187 3.6507,9.07844 7.061,11.23984 3.4104,2.16127 8.8622,3.24241 16.3554,3.24241 h 429.4621 c 6.8688,0 11.3359,1.00832 13.4013,3.0256 2.0653,2.06561 -3.4224,11.54065 3.0982,13.18506 z"
       id="path4540"
       inkscape:connector-curvature="0"
       sodipodi:nodetypes="ccscsscsccsssscsccscssccssscsc" />
    <text
       id="text4542"
       y="326.21155"
       x="1390.6865"
       style="font-style:normal;font-variant:normal;font-weight:normal;font-stretch:normal;line-height:0%;font-family:'Bitstream Vera Sans Mono';-inkscape-font-specification:'Bitstream Vera Sans Mono';text-align:center;letter-spacing:0px;word-spacing:0px;writing-mode:lr-tb;text-anchor:middle;fill:#ffffff;fill-opacity:1;stroke:none;stroke-width:1px;stroke-linecap:butt;stroke-linejoin:miter;stroke-opacity:1"
       xml:space="preserve"><tspan
         style="font-weight:bold;font-size:50px;line-height:1.25;text-align:center;text-anchor:middle"
         id="tspan4544"
         sodipodi:role="line"
         x="1390.6865"
         y="326.21155">mantissa (52 bit)</tspan></text>
    <text
       id="text4562"
       y="326.21155"
       x="230.68665"
       style="font-style:normal;font-variant:normal;font-weight:normal;font-stretch:normal;line-height:0%;font-family:'Bitstream Vera Sans Mono';-inkscape-font-specification:'Bitstream Vera Sans Mono';text-align:center;letter-spacing:0px;word-spacing:0px;writing-mode:lr-tb;text-anchor:middle;fill:#ffffff;fill-opacity:1;stroke:none;stroke-width:1px;stroke-linecap:butt;stroke-linejoin:miter;stroke-opacity:1"
       xml:space="preserve"><tspan
         style="font-weight:bold;font-size:50px;line-height:1.25;text-align:center;text-anchor:middle"
         id="tspan4564"
         sodipodi:role="line"
         x="230.68665"
         y="326.21155">sign</tspan></text>
    <text
       xml:space="preserve"
       style="font-style:normal;font-weight:normal;line-height:0%;font-family:sans-serif;letter-spacing:0px;word-spacing:0px;fill:#000000;fill-opacity:1;stroke:none;stroke-width:1px;stroke-linecap:butt;stroke-linejoin:miter;stroke-opacity:1"
       x="729.73419"
       y="309.86377"
       id="text4566"><tspan
         sodipodi:role="line"
         id="tspan4568"
         x="729.73419"
         y="309.86377"
         style="font-size:20px;line-height:1.25;font-family:sans-serif"> </tspan></text>
  </g>
  <g
     inkscape:groupmode="layer"
     id="g13015"
     inkscape:label="nan_fields"
     style="display:inline"
     sodipodi:insensitive="true">
    <flowRoot
       xml:space="preserve"
       id="flowRoot6420"
       style="font-style:normal;font-weight:normal;line-height:0.01%;font-family:sans-serif;letter-spacing:0px;word-spacing:0px;fill:#000000;fill-opacity:1;stroke:none;stroke-width:1px;stroke-linecap:butt;stroke-linejoin:miter;stroke-opacity:1"><flowRegion
         id="flowRegion6422"
         style="font-family:sans-serif"><rect
           id="rect6424"
           width="1934.6442"
           height="186.67619"
           x="-96.166519"
           y="129.64848" /></flowRegion><flowPara
         id="flowPara6426"
         style="font-size:40px;line-height:1.25;font-family:sans-serif"> </flowPara></flowRoot>
    <path
       sodipodi:nodetypes="ccscsscsccsssscsccscssccssscsc"
       inkscape:connector-curvature="0"
       id="path7004-5"
       d="m 726.137,407.51537 h 10.3752 v -4.61168 c 0,-11.95992 -1.7772,-19.98095 -5.3317,-24.06474 -3.5545,-4.03468 -10.6394,-6.05196 -21.2549,-6.05196 H 541.11207 c -7.25307,0 -12.27258,-1.2972 -15.05846,-3.89069 -2.78604,-2.54516 -4.17903,-7.18055 -4.17903,-13.90515 v -4.46768 h -10.3032 v 4.46768 c 0,6.77294 -1.36883,11.43205 -4.10684,13.97811 -2.73792,2.54515 -7.70931,3.81773 -14.91442,3.81773 H 323.66454 c -10.61551,0 -17.67649,2.01728 -21.18288,6.05196 -3.55452,4.08379 -16.98575,21.37749 -5.33164,24.06474 v 4.61168 h 10.30312 v -5.04378 c 0,-6.72472 1.05686,-11.11945 3.17027,-13.18506 2.06545,-2.01728 6.50858,-3.0256 13.32928,-3.0256 h 169.46207 c 7.54129,0 13.01705,-1.10486 16.42753,-3.31446 3.41031,-2.1614 5.71597,-5.88426 6.91671,-11.16779 1.29697,5.33187 3.65067,9.07844 7.06098,11.23984 3.41039,2.16127 8.86218,3.24241 16.35543,3.24241 H 709.6375 c 6.8688,0 11.3359,1.00832 13.4013,3.0256 2.0653,2.06561 3.0982,6.46034 3.0982,13.18506 z"
       style="font-style:normal;font-variant:normal;font-weight:normal;font-stretch:normal;font-size:medium;line-height:125%;font-family:'DejaVu Sans Mono';-inkscape-font-specification:'DejaVu Sans Mono';letter-spacing:0px;word-spacing:0px;fill:#ffffff;fill-opacity:1;stroke:none;stroke-width:1px;stroke-linecap:butt;stroke-linejoin:miter;stroke-opacity:1" />
    <text
       xml:space="preserve"
       style="font-style:normal;font-variant:normal;font-weight:normal;font-stretch:normal;line-height:0%;font-family:'Bitstream Vera Sans Mono';-inkscape-font-specification:'Bitstream Vera Sans Mono';text-align:center;letter-spacing:0px;word-spacing:0px;writing-mode:lr-tb;text-anchor:middle;fill:#ffffff;fill-opacity:1;stroke:none;stroke-width:1px;stroke-linecap:butt;stroke-linejoin:miter;stroke-opacity:1"
       x="650.68665"
       y="326.21155"
       id="text6957-3"><tspan
         y="326.21155"
         x="650.68665"
         sodipodi:role="line"
         id="tspan6961-5"
         style="font-weight:bold;font-size:50px;line-height:1.25;text-align:center;text-anchor:middle">exponent (11 bit)</tspan></text>
    <path
       sodipodi:nodetypes="ccscsscsccssssccccscssccssscsc"
       inkscape:connector-curvature="0"
       id="path3989-6"
       d="m 185.45212,408.38825 h -10.8641 v -4.82905 c 0,-12.52367 1.8608,-20.92276 5.5829,-25.19905 3.722,-4.22471 11.141,-6.33722 22.2568,-6.33722 h 4.54762 c 7.59485,0 8.85097,-1.3582 11.76819,-4.07394 2.91731,-2.66512 4.37596,-7.519 4.37596,-14.5607 v -4.67814 h 10.7888 v 4.67814 c 0,7.09218 1.43346,11.9709 4.30046,14.63696 2.86709,2.66513 4.07273,3.99768 11.61754,3.99768 h 6.62292 c 11.11588,0 18.50968,2.11251 22.18135,6.33722 3.72205,4.27629 5.58294,25.19905 5.58294,25.19905 v 4.82905 h -10.78876 v -5.28152 c 0,-7.04156 -1.10669,-11.64356 -3.31971,-13.80655 -2.1628,-2.11236 -6.81535,-3.16806 -13.95755,-3.16806 h -7.22673 c -7.8967,0 -9.63052,-1.15695 -13.20174,-3.47085 -3.57113,-2.26313 -5.98545,-6.16146 -7.24269,-11.69404 -1.35822,5.58306 -3.82276,9.50623 -7.39389,11.7695 -3.57113,2.26327 -5.27984,3.39539 -13.12631,3.39539 h -5.2266 c -7.1927,0 -11.8703,1.0557 -14.0331,3.16806 -2.1627,2.16299 -3.2443,6.76499 -3.2443,13.80655 z"
       style="font-style:normal;font-variant:normal;font-weight:normal;font-stretch:normal;font-size:medium;line-height:125%;font-family:'DejaVu Sans Mono';-inkscape-font-specification:'DejaVu Sans Mono';letter-spacing:0px;word-spacing:0px;fill:#ffffff;fill-opacity:1;stroke:none;stroke-width:1px;stroke-linecap:butt;stroke-linejoin:miter;stroke-opacity:1" />
    <path
       style="font-style:normal;font-variant:normal;font-weight:normal;font-stretch:normal;font-size:medium;line-height:125%;font-family:'DejaVu Sans Mono';-inkscape-font-specification:'DejaVu Sans Mono';letter-spacing:0px;word-spacing:0px;fill:#ffffff;fill-opacity:1;stroke:none;stroke-width:1px;stroke-linecap:butt;stroke-linejoin:miter;stroke-opacity:1"
       d="m 1720.137,407.51537 h 10.3752 v -4.61168 c 0,-11.95992 -1.7772,-19.98095 -5.3317,-24.06474 -3.5545,-4.03468 -10.6394,-6.05196 -21.2549,-6.05196 h -428.8135 c -7.2531,0 -12.2726,-1.2972 -15.0585,-3.89069 -2.786,-2.54516 -4.179,-7.18055 -4.179,-13.90515 v -4.46768 h -10.3032 v 4.46768 c 0,6.77294 -1.3688,11.43205 -4.1069,13.97811 -2.7379,2.54515 -7.7093,3.81773 -14.9144,3.81773 H 817.6645 c -10.6155,0 -17.6765,2.01728 -21.1828,6.05196 -3.5546,4.08379 -16.98581,21.37749 -5.3317,24.06474 v 4.61168 h 10.3031 v -5.04378 c 0,-6.72472 1.0569,-11.11945 3.1703,-13.18506 2.0655,-2.01728 6.5086,-3.0256 13.3293,-3.0256 h 409.4621 c 7.5413,0 13.017,-1.10486 16.4275,-3.31446 3.4103,-2.1614 5.716,-5.88426 6.9167,-11.16779 1.297,5.33187 3.6507,9.07844 7.061,11.23984 3.4104,2.16127 8.8622,3.24241 16.3554,3.24241 h 429.4621 c 6.8688,0 11.3359,1.00832 13.4013,3.0256 2.0653,2.06561 -3.4224,11.54065 3.0982,13.18506 z"
       id="path4540-2"
       inkscape:connector-curvature="0"
       sodipodi:nodetypes="ccscsscsccsssscsccscssccssscsc" />
    <text
       id="text4542-9"
       y="326.21155"
       x="1250.6865"
       style="font-style:normal;font-variant:normal;font-weight:normal;font-stretch:normal;line-height:0%;font-family:'Bitstream Vera Sans Mono';-inkscape-font-specification:'Bitstream Vera Sans Mono';text-align:center;letter-spacing:0px;word-spacing:0px;writing-mode:lr-tb;text-anchor:middle;fill:#ffffff;fill-opacity:1;stroke:none;stroke-width:1px;stroke-linecap:butt;stroke-linejoin:miter;stroke-opacity:1"
       xml:space="preserve"><tspan
         style="font-weight:bold;font-size:50px;line-height:1.25;text-align:center;text-anchor:middle"
         id="tspan4544-1"
         sodipodi:role="line"
         x="1250.6865"
         y="326.21155">52 bit unused</tspan></text>
    <text
       id="text4562-2"
       y="326.21155"
       x="230.68665"
       style="font-style:normal;font-variant:normal;font-weight:normal;font-stretch:normal;line-height:0%;font-family:'Bitstream Vera Sans Mono';-inkscape-font-specification:'Bitstream Vera Sans Mono';text-align:center;letter-spacing:0px;word-spacing:0px;writing-mode:lr-tb;text-anchor:middle;fill:#ffffff;fill-opacity:1;stroke:none;stroke-width:1px;stroke-linecap:butt;stroke-linejoin:miter;stroke-opacity:1"
       xml:space="preserve"><tspan
         style="font-weight:bold;font-size:50px;line-height:1.25;text-align:center;text-anchor:middle"
         id="tspan4564-7"
         sodipodi:role="line"
         x="230.68665"
         y="326.21155">sign</tspan></text>
    <text
       xml:space="preserve"
       style="font-style:normal;font-weight:normal;line-height:0%;font-family:sans-serif;letter-spacing:0px;word-spacing:0px;fill:#000000;fill-opacity:1;stroke:none;stroke-width:1px;stroke-linecap:butt;stroke-linejoin:miter;stroke-opacity:1"
       x="729.73419"
       y="309.86377"
       id="text4566-0"><tspan
         sodipodi:role="line"
         id="tspan4568-9"
         x="729.73419"
         y="309.86377"
         style="font-size:20px;line-height:1.25;font-family:sans-serif"> </tspan></text>
  </g>
  <g
     inkscape:groupmode="layer"
     id="layer6"
     inkscape:label="numbers_bits"
     sodipodi:insensitive="true"
     style="display:none">
    <rect
       style="display:inline;fill:#ffffff;fill-opacity:1;stroke:none;stroke-width:3.9348;stroke-linecap:round;stroke-linejoin:round;stroke-miterlimit:4;stroke-dasharray:none;stroke-dashoffset:0;stroke-opacity:1"
       id="rect4546"
       width="1536"
       height="80"
       x="182.17148"
       y="128.48877"
       transform="translate(0,312)" />
    <text
       id="text4552"
       y="506.21155"
       x="212.48999"
       style="font-style:normal;font-variant:normal;font-weight:normal;font-stretch:normal;line-height:0%;font-family:'Bitstream Vera Sans Mono';-inkscape-font-specification:'Bitstream Vera Sans Mono';text-align:start;letter-spacing:0px;word-spacing:0px;writing-mode:lr-tb;text-anchor:start;fill:#000000;fill-opacity:1;stroke:none;stroke-width:1px;stroke-linecap:butt;stroke-linejoin:miter;stroke-opacity:1"
       xml:space="preserve"><tspan
         style="font-weight:bold;font-size:67.2153px;line-height:1.25;text-align:start;text-anchor:start;fill:#000000;fill-opacity:1"
         id="tspan4554"
         sodipodi:role="line"
         x="212.48999"
         y="506.21155">0 10000110011 10010010000111111011...</tspan></text>
  </g>
  <g
     inkscape:groupmode="layer"
     id="g12907"
     inkscape:label="nan_bits"
     style="display:none"
     sodipodi:insensitive="true">
    <rect
       style="display:inline;fill:#ffffff;fill-opacity:1;stroke:none;stroke-width:3.9348;stroke-linecap:round;stroke-linejoin:round;stroke-miterlimit:4;stroke-dasharray:none;stroke-dashoffset:0;stroke-opacity:1"
       id="rect12901"
       width="1536"
       height="80"
       x="182.17148"
       y="128.48877"
       transform="translate(0,312)" />
    <text
       id="text4552-6"
       y="506.21155"
       x="212.48999"
       style="font-style:normal;font-variant:normal;font-weight:normal;font-stretch:normal;line-height:0%;font-family:'Bitstream Vera Sans Mono';-inkscape-font-specification:'Bitstream Vera Sans Mono';text-align:start;letter-spacing:0px;word-spacing:0px;writing-mode:lr-tb;text-anchor:start;fill:#000000;fill-opacity:1;stroke:none;stroke-width:1px;stroke-linecap:butt;stroke-linejoin:miter;stroke-opacity:1"
       xml:space="preserve"><tspan
         style="font-weight:bold;font-size:67.2153px;line-height:1.25;text-align:start;text-anchor:start;fill:#000000;fill-opacity:1"
         id="tspan4554-7"
         sodipodi:role="line"
         x="212.48999"
         y="506.21155">0 11111111111 ????????????????????...</tspan></text>
  </g>
  <g
     inkscape:groupmode="layer"
     id="g13296"
     inkscape:label="nan_bits_canonical"
     style="display:none"
     sodipodi:insensitive="true">
    <rect
       style="display:inline;fill:#ffffff;fill-opacity:1;stroke:none;stroke-width:3.9348;stroke-linecap:round;stroke-linejoin:round;stroke-miterlimit:4;stroke-dasharray:none;stroke-dashoffset:0;stroke-opacity:1"
       id="rect13290"
       width="1536"
       height="80"
       x="182.17148"
       y="128.48877"
       transform="translate(0,312)" />
    <text
       id="text4552-3"
       y="506.21155"
       x="212.48999"
       style="font-style:normal;font-variant:normal;font-weight:normal;font-stretch:normal;line-height:0%;font-family:'Bitstream Vera Sans Mono';-inkscape-font-specification:'Bitstream Vera Sans Mono';text-align:start;letter-spacing:0px;word-spacing:0px;writing-mode:lr-tb;text-anchor:start;fill:#000000;fill-opacity:1;stroke:none;stroke-width:1px;stroke-linecap:butt;stroke-linejoin:miter;stroke-opacity:1"
       xml:space="preserve"><tspan
         style="font-weight:bold;font-size:67.2153px;line-height:1.25;text-align:start;text-anchor:start;fill:#000000;fill-opacity:1"
         id="tspan4554-6"
         sodipodi:role="line"
         x="212.48999"
         y="506.21155">0 11111111111 10000000000000000000...</tspan></text>
  </g>
  <g
     inkscape:groupmode="layer"
     id="g13378"
     inkscape:label="nan_bits_xor"
     style="display:inline"
     sodipodi:insensitive="true">
    <g
       id="g13443"
       style="display:inline">
      <rect
         style="fill:#ffffff;fill-opacity:1;stroke:none;stroke-width:3.9348;stroke-linecap:round;stroke-linejoin:round;stroke-miterlimit:4;stroke-dasharray:none;stroke-dashoffset:0;stroke-opacity:1"
         id="rect4546-0"
         width="1536"
         height="80"
         x="182.17148"
         y="440.48877" />
      <text
         id="text4552-62"
         y="506.21155"
         x="212.48999"
         style="font-style:normal;font-variant:normal;font-weight:normal;font-stretch:normal;line-height:0%;font-family:'Bitstream Vera Sans Mono';-inkscape-font-specification:'Bitstream Vera Sans Mono';text-align:start;letter-spacing:0px;word-spacing:0px;writing-mode:lr-tb;text-anchor:start;fill:#000000;fill-opacity:1;stroke:none;stroke-width:1px;stroke-linecap:butt;stroke-linejoin:miter;stroke-opacity:1"
         xml:space="preserve"><tspan
           style="font-weight:bold;font-size:67.2153px;line-height:1.25;text-align:start;text-anchor:start;fill:#000000;fill-opacity:1"
           id="tspan4554-61"
           sodipodi:role="line"
           x="212.48999"
           y="506.21155">0 11111111111 10000000000000000000...</tspan></text>
      <rect
         y="440.48877"
         x="182.17148"
         height="80"
         width="678.98663"
         id="rect7919"
         style="fill:#000000;fill-opacity:1;stroke:none;stroke-width:3.9348;stroke-linecap:round;stroke-linejoin:round;stroke-miterlimit:4;stroke-dasharray:none;stroke-dashoffset:0;stroke-opacity:1" />
      <text
         xml:space="preserve"
         style="font-style:normal;font-variant:normal;font-weight:normal;font-stretch:normal;line-height:0%;font-family:'Bitstream Vera Sans Mono';-inkscape-font-specification:'Bitstream Vera Sans Mono';text-align:start;letter-spacing:0px;word-spacing:0px;writing-mode:lr-tb;text-anchor:start;fill:#ffffff;fill-opacity:1;stroke:none;stroke-width:1px;stroke-linecap:butt;stroke-linejoin:miter;stroke-opacity:1"
         x="212.48999"
         y="506.21155"
         id="text7921"><tspan
           y="506.21155"
           x="212.48999"
           sodipodi:role="line"
           id="tspan7923"
           style="font-weight:bold;font-size:67.2153px;line-height:1.25;text-align:start;text-anchor:start;fill:#ffffff;fill-opacity:1">1 00000000000 01</tspan></text>
    </g>
  </g>
  <g
     inkscape:groupmode="layer"
     id="layer4"
     inkscape:label="objects_base"
     style="display:inline"
     sodipodi:insensitive="true">
    <rect
       style="fill:#284bd4;fill-opacity:1;stroke:#000000;stroke-width:6.13238;stroke-linecap:round;stroke-linejoin:round;stroke-miterlimit:4;stroke-dasharray:none;stroke-dashoffset:0;stroke-opacity:1"
       id="rect4570"
       width="1582.8198"
       height="125.71005"
       x="159.54407"
       y="819.06293" />
  </g>
  <g
     inkscape:groupmode="layer"
     id="layer10"
     inkscape:label="objects_bits_xor"
     sodipodi:insensitive="true"
     style="display:inline">
    <rect
       y="840.48877"
       x="182.17148"
       height="80"
       width="1536"
       id="rect4586-8"
       style="fill:#ffffff;fill-opacity:1;stroke:none;stroke-width:3.9348;stroke-linecap:round;stroke-linejoin:round;stroke-miterlimit:4;stroke-dasharray:none;stroke-dashoffset:0;stroke-opacity:1" />
    <text
       xml:space="preserve"
       style="font-style:normal;font-variant:normal;font-weight:normal;font-stretch:normal;line-height:0%;font-family:'Bitstream Vera Sans Mono';-inkscape-font-specification:'Bitstream Vera Sans Mono';text-align:start;letter-spacing:0px;word-spacing:0px;writing-mode:lr-tb;text-anchor:start;fill:#000000;fill-opacity:1;stroke:none;stroke-width:1px;stroke-linecap:butt;stroke-linejoin:miter;stroke-opacity:1"
       x="212.48999"
       y="906.21155"
       id="text4588-7"><tspan
         y="906.21155"
         x="212.48999"
         sodipodi:role="line"
         id="tspan4590-9"
         style="font-weight:bold;font-size:67.2153px;line-height:1.25;text-align:start;text-anchor:start;fill:#000000;fill-opacity:1">0000000000000000 00000010011100100100</tspan></text>
    <rect
       style="fill:#000000;fill-opacity:1;stroke:none;stroke-width:3.9348;stroke-linecap:round;stroke-linejoin:round;stroke-miterlimit:4;stroke-dasharray:none;stroke-dashoffset:0;stroke-opacity:1"
       id="rect7913"
       width="594.13379"
       height="80"
       x="182.17148"
       y="840.48877" />
    <text
       id="text7915"
       y="906.21155"
       x="212.48999"
       style="font-style:normal;font-variant:normal;font-weight:normal;font-stretch:normal;line-height:0%;font-family:'Bitstream Vera Sans Mono';-inkscape-font-specification:'Bitstream Vera Sans Mono';text-align:start;letter-spacing:0px;word-spacing:0px;writing-mode:lr-tb;text-anchor:start;fill:#ffffff;fill-opacity:1;stroke:none;stroke-width:1px;stroke-linecap:butt;stroke-linejoin:miter;stroke-opacity:1"
       xml:space="preserve"><tspan
         style="font-weight:bold;font-size:67.2153px;line-height:1.25;text-align:start;text-anchor:start;fill:#ffffff;fill-opacity:1"
         id="tspan7917"
         sodipodi:role="line"
         x="212.48999"
         y="906.21155">00000000000000</tspan></text>
  </g>
  <g
     inkscape:groupmode="layer"
     id="g8470"
     inkscape:label="objects_text"
     style="display:inline"
     sodipodi:insensitive="true">
    <text
       xml:space="preserve"
       style="font-style:normal;font-variant:normal;font-weight:bold;font-stretch:normal;line-height:0%;font-family:'Bitstream Vera Sans Mono';-inkscape-font-specification:'Bitstream Vera Sans Mono Bold';text-align:start;letter-spacing:0px;word-spacing:0px;writing-mode:lr-tb;text-anchor:start;fill:#ffffff;fill-opacity:1;stroke:none"
       x="117.77832"
       y="658"
       id="text8468"><tspan
         sodipodi:role="line"
         x="117.77832"
         y="658"
         id="tspan8466"
         style="font-size:70px;line-height:1.25">Objects (pointers)</tspan></text>
  </g>
  <g
     inkscape:groupmode="layer"
     id="g13848"
     inkscape:label="objects_nan_boxed_text"
     style="display:none"
     sodipodi:insensitive="true">
    <text
       xml:space="preserve"
       style="font-style:normal;font-variant:normal;font-weight:bold;font-stretch:normal;line-height:0%;font-family:'Bitstream Vera Sans Mono';-inkscape-font-specification:'Bitstream Vera Sans Mono Bold';text-align:start;letter-spacing:0px;word-spacing:0px;writing-mode:lr-tb;text-anchor:start;fill:#ffffff;fill-opacity:1;stroke:none"
       x="117.77832"
       y="658"
       id="text4604"><tspan
         sodipodi:role="line"
         x="117.77832"
         y="658"
         id="tspan4606"
         style="font-size:70px;line-height:1.25">Objects, Non-canonical -NaN</tspan></text>
  </g>
  <g
     inkscape:groupmode="layer"
     id="layer7"
     inkscape:label="objects_fields"
     sodipodi:insensitive="true"
     style="display:inline">
    <path
       style="font-style:normal;font-variant:normal;font-weight:normal;font-stretch:normal;font-size:medium;line-height:125%;font-family:'DejaVu Sans Mono';-inkscape-font-specification:'DejaVu Sans Mono';letter-spacing:0px;word-spacing:0px;display:inline;fill:#ffffff;fill-opacity:1;stroke:none;stroke-width:1px;stroke-linecap:butt;stroke-linejoin:miter;stroke-opacity:1"
       d="m 834.137,807.51537 h 10.3752 v -4.61168 c 0,-11.95992 -1.7772,-19.98095 -5.3317,-24.06474 -3.5545,-4.03468 -10.6394,-6.05196 -21.2549,-6.05196 H 549.11207 c -7.25307,0 -12.27258,-1.2972 -15.05846,-3.89069 -2.78604,-2.54516 -4.17903,-7.18055 -4.17903,-13.90515 v -4.46768 h -10.3032 v 4.46768 c 0,6.77294 -1.36883,11.43205 -4.10684,13.97811 -2.73792,2.54515 -7.70931,3.81773 -14.91442,3.81773 H 231.66454 c -10.61551,0 -17.67649,2.01728 -21.18288,6.05196 -3.55452,4.08379 -16.98575,21.37749 -5.33164,24.06474 v 4.61168 h 10.30312 v -5.04378 c 0,-6.72472 1.05686,-11.11945 3.17027,-13.18506 2.06545,-2.01728 6.50858,-3.0256 13.32928,-3.0256 h 269.46207 c 7.54129,0 13.01705,-1.10486 16.42753,-3.31446 3.41031,-2.1614 5.71597,-5.88426 6.91671,-11.16779 1.29697,5.33187 3.65067,9.07844 7.06098,11.23984 3.41039,2.16127 8.86218,3.24241 16.35543,3.24241 H 817.6375 c 6.8688,0 11.3359,1.00832 13.4013,3.0256 2.0653,2.06561 -3.42236,11.54065 3.0982,13.18506 z"
       id="path4572"
       inkscape:connector-curvature="0"
       sodipodi:nodetypes="ccscsscsccsssscsccscssccssscsc" />
    <text
       id="text4574"
       y="726.21155"
       x="530.68665"
       style="font-style:normal;font-variant:normal;font-weight:normal;font-stretch:normal;line-height:0%;font-family:'Bitstream Vera Sans Mono';-inkscape-font-specification:'Bitstream Vera Sans Mono';text-align:center;letter-spacing:0px;word-spacing:0px;writing-mode:lr-tb;text-anchor:middle;display:inline;fill:#ffffff;fill-opacity:1;stroke:none;stroke-width:1px;stroke-linecap:butt;stroke-linejoin:miter;stroke-opacity:1"
       xml:space="preserve"><tspan
         style="font-weight:bold;font-size:50px;line-height:1.25;text-align:center;text-anchor:middle"
         id="tspan4576"
         sodipodi:role="line"
         x="530.68665"
         y="726.21155">sign extended</tspan></text>
    <path
       sodipodi:nodetypes="ccscsscsccsssscsccscssccssscsc"
       inkscape:connector-curvature="0"
       id="path4580"
       d="m 1680.137,807.51537 h 10.3752 v -4.61168 c 0,-11.95992 -1.7772,-19.98095 -5.3317,-24.06474 -3.5545,-4.03468 -10.6394,-6.05196 -21.2549,-6.05196 h -348.8135 c -7.2531,0 -12.2726,-1.2972 -15.0585,-3.89069 -2.786,-2.54516 -4.179,-7.18055 -4.179,-13.90515 v -4.46768 h -10.3032 v 4.46768 c 0,6.77294 -1.3688,11.43205 -4.1069,13.97811 -2.7379,2.54515 -7.7093,3.81773 -14.9144,3.81773 H 937.6645 c -10.6155,0 -17.6765,2.01728 -21.1828,6.05196 -3.5546,4.08379 -5.3317,12.10482 -5.3317,24.06474 v 4.61168 h 10.3031 v -5.04378 c 0,-6.72472 1.0569,-11.11945 3.1703,-13.18506 2.0655,-2.01728 6.5086,-3.0256 13.3293,-3.0256 h 329.4621 c 7.5413,0 13.017,-1.10486 16.4275,-3.31446 3.4103,-2.1614 5.716,-5.88426 6.9167,-11.16779 1.297,5.33187 3.6507,9.07844 7.061,11.23984 3.4104,2.16127 8.8622,3.24241 16.3554,3.24241 h 349.4621 c 6.8688,0 11.3359,1.00832 13.4013,3.0256 2.0653,2.06561 -3.4224,11.54064 3.0982,13.18506 z"
       style="font-style:normal;font-variant:normal;font-weight:normal;font-stretch:normal;font-size:medium;line-height:125%;font-family:'DejaVu Sans Mono';-inkscape-font-specification:'DejaVu Sans Mono';letter-spacing:0px;word-spacing:0px;display:inline;fill:#ffffff;fill-opacity:1;stroke:none;stroke-width:1px;stroke-linecap:butt;stroke-linejoin:miter;stroke-opacity:1" />
    <text
       xml:space="preserve"
       style="font-style:normal;font-variant:normal;font-weight:normal;font-stretch:normal;line-height:0%;font-family:'Bitstream Vera Sans Mono';-inkscape-font-specification:'Bitstream Vera Sans Mono';text-align:center;letter-spacing:0px;word-spacing:0px;writing-mode:lr-tb;text-anchor:middle;display:inline;fill:#ffffff;fill-opacity:1;stroke:none;stroke-width:1px;stroke-linecap:butt;stroke-linejoin:miter;stroke-opacity:1"
       x="1310.6865"
       y="726.21155"
       id="text4582"><tspan
         y="726.21155"
         x="1310.6865"
         sodipodi:role="line"
         id="tspan4584"
         style="font-weight:bold;font-size:50px;line-height:1.25;text-align:center;text-anchor:middle">48 bit virtually addressable</tspan></text>
    <text
       id="text4596"
       y="709.86377"
       x="729.73419"
       style="font-style:normal;font-weight:normal;line-height:0%;font-family:sans-serif;letter-spacing:0px;word-spacing:0px;display:inline;fill:#000000;fill-opacity:1;stroke:none;stroke-width:1px;stroke-linecap:butt;stroke-linejoin:miter;stroke-opacity:1"
       xml:space="preserve"><tspan
         y="709.86377"
         x="729.73419"
         id="tspan4598"
         sodipodi:role="line"
         style="font-size:20px;line-height:1.25;font-family:sans-serif"> </tspan></text>
  </g>
  <g
     inkscape:groupmode="layer"
     id="layer8"
     inkscape:label="objects_bits"
     sodipodi:insensitive="true"
     style="display:none">
    <rect
       y="840.48877"
       x="182.17148"
       height="80"
       width="1536"
       id="rect4586"
       style="display:inline;fill:#ffffff;fill-opacity:1;stroke:none;stroke-width:3.9348;stroke-linecap:round;stroke-linejoin:round;stroke-miterlimit:4;stroke-dasharray:none;stroke-dashoffset:0;stroke-opacity:1" />
    <text
       xml:space="preserve"
       style="font-style:normal;font-variant:normal;font-weight:normal;font-stretch:normal;line-height:0%;font-family:'Bitstream Vera Sans Mono';-inkscape-font-specification:'Bitstream Vera Sans Mono';text-align:start;letter-spacing:0px;word-spacing:0px;writing-mode:lr-tb;text-anchor:start;display:inline;fill:#000000;fill-opacity:1;stroke:none;stroke-width:1px;stroke-linecap:butt;stroke-linejoin:miter;stroke-opacity:1"
       x="212.48999"
       y="906.21155"
       id="text4588"><tspan
         y="906.21155"
         x="212.48999"
         sodipodi:role="line"
         id="tspan4590"
         style="font-weight:bold;font-size:67.2153px;line-height:1.25;text-align:start;text-anchor:start;fill:#000000;fill-opacity:1">0000000000000000 00000010011100100100</tspan></text>
  </g>
  <g
     inkscape:groupmode="layer"
     id="layer1"
     inkscape:label="title"
     style="display:inline"
     sodipodi:insensitive="true">
    <text
       xml:space="preserve"
       style="font-style:normal;font-variant:normal;font-weight:bold;font-stretch:normal;line-height:0%;font-family:'Bitstream Vera Sans Mono';-inkscape-font-specification:'Bitstream Vera Sans Mono Bold';text-align:center;letter-spacing:0px;word-spacing:0px;writing-mode:lr-tb;text-anchor:middle;fill:#ffffff;fill-opacity:1;stroke:none"
       x="960"
       y="96"
       id="text6208"><tspan
         sodipodi:role="line"
         x="960"
         y="96"
         id="tspan3009"
         style="font-size:70px;line-height:1.25">Data in Chakra's mixed-type arrays</tspan></text>
  </g>
</svg>
