<?xml version="1.0" encoding="UTF-8" standalone="no"?>
<!-- Created with Inkscape (http://www.inkscape.org/) -->

<svg
   width="1920"
   height="1080"
   id="svg2"
   version="1.1"
   inkscape:version="1.2.2 (b0a8486541, 2022-12-01)"
   sodipodi:docname="fake_object.svg"
   xmlns:inkscape="http://www.inkscape.org/namespaces/inkscape"
   xmlns:sodipodi="http://sodipodi.sourceforge.net/DTD/sodipodi-0.dtd"
   xmlns="http://www.w3.org/2000/svg"
   xmlns:svg="http://www.w3.org/2000/svg"
   xmlns:rdf="http://www.w3.org/1999/02/22-rdf-syntax-ns#"
   xmlns:cc="http://creativecommons.org/ns#"
   xmlns:dc="http://purl.org/dc/elements/1.1/">
  <defs
     id="defs4">
    <marker
       inkscape:stockid="DotM"
       orient="auto"
       refY="0.0"
       refX="0.0"
       id="marker7183"
       style="overflow:visible"
       inkscape:isstock="true">
      <path
         id="path7185"
         d="M -2.5,-1.0 C -2.5,1.7600000 -4.7400000,4.0 -7.5,4.0 C -10.260000,4.0 -12.5,1.7600000 -12.5,-1.0 C -12.5,-3.7600000 -10.260000,-6.0 -7.5,-6.0 C -4.7400000,-6.0 -2.5,-3.7600000 -2.5,-1.0 z "
         style="fill-rule:evenodd;stroke:#ffffff;stroke-width:1pt;stroke-opacity:1;fill:#ffffff;fill-opacity:1"
         transform="scale(0.4) translate(7.4, 1)" />
    </marker>
    <marker
       style="overflow:visible"
       inkscape:stockid="InfiniteLineStart"
       id="InfiniteLineStart"
       refX="0"
       refY="0"
       orient="auto"
       inkscape:isstock="true">
      <g
         id="g7152"
         style="fill:#ffffff;stroke:#ffffff;stroke-opacity:1;fill-opacity:1"
         transform="translate(-13,0)">
        <circle
           id="circle7154"
           r="0.8"
           cy="0"
           cx="3"
           style="stroke:#ffffff;stroke-opacity:1;fill:#ffffff;fill-opacity:1" />
        <circle
           id="circle7156"
           r="0.8"
           cy="0"
           cx="6.5"
           style="stroke:#ffffff;stroke-opacity:1;fill:#ffffff;fill-opacity:1" />
        <circle
           id="circle7158"
           r="0.8"
           cy="0"
           cx="10"
           style="stroke:#ffffff;stroke-opacity:1;fill:#ffffff;fill-opacity:1" />
      </g>
    </marker>
    <marker
       inkscape:stockid="DotM"
       orient="auto"
       refY="0.0"
       refX="0.0"
       id="DotM"
       style="overflow:visible"
       inkscape:isstock="true">
      <path
         id="path6972"
         d="M -2.5,-1.0 C -2.5,1.7600000 -4.7400000,4.0 -7.5,4.0 C -10.260000,4.0 -12.5,1.7600000 -12.5,-1.0 C -12.5,-3.7600000 -10.260000,-6.0 -7.5,-6.0 C -4.7400000,-6.0 -2.5,-3.7600000 -2.5,-1.0 z "
         style="fill-rule:evenodd;stroke:#ffffff;stroke-width:1pt;stroke-opacity:1;fill:#ffffff;fill-opacity:1"
         transform="scale(0.4) translate(7.4, 1)" />
    </marker>
    <marker
       inkscape:stockid="DotL"
       orient="auto"
       refY="0.0"
       refX="0.0"
       id="DotL"
       style="overflow:visible"
       inkscape:isstock="true">
      <path
         id="path6969"
         d="M -2.5,-1.0 C -2.5,1.7600000 -4.7400000,4.0 -7.5,4.0 C -10.260000,4.0 -12.5,1.7600000 -12.5,-1.0 C -12.5,-3.7600000 -10.260000,-6.0 -7.5,-6.0 C -4.7400000,-6.0 -2.5,-3.7600000 -2.5,-1.0 z "
         style="fill-rule:evenodd;stroke:#ffffff;stroke-width:1pt;stroke-opacity:1;fill:#ffffff;fill-opacity:1"
         transform="scale(0.8) translate(7.4, 1)" />
    </marker>
    <marker
       inkscape:stockid="TriangleOutM"
       orient="auto"
       refY="0.0"
       refX="0.0"
       id="TriangleOutM"
       style="overflow:visible"
       inkscape:isstock="true">
      <path
         id="path4953"
         d="M 5.77,0.0 L -2.88,5.0 L -2.88,-5.0 L 5.77,0.0 z "
         style="fill-rule:evenodd;stroke:#885818;stroke-width:1pt;stroke-opacity:1;fill:#885818;fill-opacity:1"
         transform="scale(0.4)" />
    </marker>
    <marker
       inkscape:stockid="TriangleOutL"
       orient="auto"
       refY="0.0"
       refX="0.0"
       id="TriangleOutL"
       style="overflow:visible"
       inkscape:isstock="true">
      <path
         id="path4950"
         d="M 5.77,0.0 L -2.88,5.0 L -2.88,-5.0 L 5.77,0.0 z "
         style="fill-rule:evenodd;stroke:#ffffff;stroke-width:1pt;stroke-opacity:1;fill:#ffffff;fill-opacity:1"
         transform="scale(0.8)" />
    </marker>
    <linearGradient
       id="linearGradient7793-2">
      <stop
         style="stop-color:#ffffff;stop-opacity:1"
         offset="0"
         id="stop4640" />
      <stop
         id="stop4646"
         offset="0.5"
         style="stop-color:#f8d821;stop-opacity:1" />
      <stop
         id="stop4642"
         offset="1"
         style="stop-color:#885818;stop-opacity:1" />
    </linearGradient>
    <linearGradient
       id="linearGradient7793">
      <stop
         id="stop4630"
         offset="0"
         style="stop-color:#ffffff;stop-opacity:1;" />
      <stop
         style="stop-color:#ffffff;stop-opacity:0.28858522;"
         offset="0.5"
         id="stop4632" />
      <stop
         id="stop4634"
         offset="1"
         style="stop-color:#ffffff;stop-opacity:0;" />
    </linearGradient>
    <linearGradient
       id="linearGradient4636">
      <stop
         style="stop-color:#ffffff;stop-opacity:1;"
         offset="0"
         id="stop7795" />
      <stop
         id="stop7803"
         offset="0.5"
         style="stop-color:#ffffff;stop-opacity:0.28858522;" />
      <stop
         style="stop-color:#ffffff;stop-opacity:0;"
         offset="1"
         id="stop7797" />
    </linearGradient>
    <marker
       inkscape:stockid="TriangleOutM"
       orient="auto"
       refY="0"
       refX="0"
       id="marker15926"
       style="overflow:visible"
       inkscape:isstock="true">
      <path
         inkscape:connector-curvature="0"
         id="path15928"
         d="m 5.77,0 -8.65,5 0,-10 8.65,5 z"
         style="fill:#ffffff;fill-opacity:1;fill-rule:evenodd;stroke:#ffffff;stroke-width:1pt;stroke-opacity:1"
         transform="scale(0.4,0.4)" />
    </marker>
  </defs>
  <sodipodi:namedview
     id="base"
     pagecolor="#ffffff"
     bordercolor="#666666"
     borderopacity="1.0"
     inkscape:pageopacity="0.0"
     inkscape:pageshadow="2"
     inkscape:zoom="0.35355339"
     inkscape:cx="425.67828"
     inkscape:cy="-142.83557"
     inkscape:document-units="px"
     inkscape:current-layer="svg2"
     showgrid="false"
     inkscape:window-width="1918"
     inkscape:window-height="1182"
     inkscape:window-x="1"
     inkscape:window-y="17"
     inkscape:window-maximized="0"
     inkscape:showpageshadow="2"
     inkscape:pagecheckerboard="0"
     inkscape:deskcolor="#d1d1d1" />
  <metadata
     id="metadata7">
    <rdf:RDF>
      <cc:Work
         rdf:about="">
        <dc:format>image/svg+xml</dc:format>
        <dc:type
           rdf:resource="http://purl.org/dc/dcmitype/StillImage" />
        <dc:title />
      </cc:Work>
    </rdf:RDF>
  </metadata>
  <g
     inkscape:groupmode="layer"
     id="layer2"
     inkscape:label="back"
     transform="translate(0,312)"
     sodipodi:insensitive="true">
    <rect
       style="fill:#000000;fill-opacity:1;stroke:none"
       id="rect5418"
       width="1920"
       height="1080"
       x="0"
       y="-312" />
  </g>
  <g
     inkscape:groupmode="layer"
     id="layer4"
     inkscape:label="pagenumber"
     style="display:inline"
     transform="translate(-4.9414062e-5)"
     sodipodi:insensitive="true">
    <text
       xml:space="preserve"
       style="font-style:normal;font-variant:normal;font-weight:bold;font-stretch:normal;line-height:0%;font-family:'Bitstream Vera Sans Mono';-inkscape-font-specification:'Bitstream Vera Sans Mono Bold';text-align:end;letter-spacing:0px;word-spacing:0px;text-anchor:end;fill:#fdfdfd;fill-opacity:1;stroke:none"
       x="1902.5485"
       y="1059.1504"
       id="text61"><tspan
         sodipodi:role="line"
         x="1902.5485"
         y="1059.1504"
         id="pagenumber"
         style="font-style:normal;font-variant:normal;font-weight:bold;font-stretch:normal;font-size:50px;line-height:1.25;font-family:'Bitstream Vera Sans Mono';-inkscape-font-specification:'Bitstream Vera Sans Mono Bold';fill:#fdfdfd;fill-opacity:1">PAGENUMBER</tspan></text>
  </g>
  <g
     inkscape:groupmode="layer"
     id="layer3"
     inkscape:label="base"
     transform="translate(0,312)"
     sodipodi:insensitive="true">
    <g
       id="g3484"
       transform="matrix(2.1428204,0,0,2.1428204,-391.11362,-1104.6585)">
      <text
         xml:space="preserve"
         style="font-style:normal;font-variant:normal;font-weight:bold;font-stretch:normal;line-height:0%;font-family:'Bitstream Vera Sans Mono';-inkscape-font-specification:'Bitstream Vera Sans Mono Bold';text-align:center;letter-spacing:0px;word-spacing:0px;writing-mode:lr-tb;text-anchor:middle;fill:#000000;fill-opacity:1;stroke:none"
         x="692.29028"
         y="601.0824"
         id="text6846"><tspan
           sodipodi:role="line"
           x="692.29028"
           y="601.0824"
           id="tspan6848"
           style="font-size:60px;line-height:1.25">array</tspan><tspan
           id="tspan6850"
           sodipodi:role="line"
           x="692.29028"
           y="676.0824"
           style="font-size:60px;line-height:1.25">data</tspan></text>
      <rect
         style="fill:#00c900;fill-opacity:1;stroke:#000000;stroke-width:3;stroke-linecap:round;stroke-linejoin:round;stroke-miterlimit:4;stroke-dasharray:none;stroke-dashoffset:0;stroke-opacity:1"
         id="rect6664"
         width="301.94431"
         height="157.71005"
         x="479.55835"
         y="543.06293" />
      <g
         id="g6666"
         transform="matrix(1.5,0,0,1.5,-288.80509,420.16257)">
        <rect
           style="fill:#284bd4;fill-opacity:1;stroke:none;stroke-width:2;stroke-linecap:round;stroke-linejoin:round;stroke-miterlimit:4;stroke-dasharray:none;stroke-dashoffset:0;stroke-opacity:1"
           id="rect6668"
           width="80"
           height="80"
           x="527.5"
           y="94.5" />
        <rect
           style="fill:#ffffff;fill-opacity:1;stroke:none;stroke-width:2;stroke-linecap:round;stroke-linejoin:round;stroke-miterlimit:4;stroke-dasharray:none;stroke-dashoffset:0;stroke-opacity:1"
           id="rect6670"
           width="21.213203"
           height="20.152544"
           x="526.97131"
           y="94.588287" />
        <rect
           y="99.498718"
           x="532.8913"
           height="63.89035"
           width="62.091362"
           id="rect6672"
           style="fill:#74b7f3;fill-opacity:1;stroke:none;stroke-width:2;stroke-linecap:round;stroke-linejoin:round;stroke-miterlimit:4;stroke-dasharray:none;stroke-dashoffset:0;stroke-opacity:1"
           ry="10.141324"
           rx="10.141324" />
        <g
           transform="matrix(1.1106731,0,0,0.90035493,0,-340)"
           style="font-style:normal;font-variant:normal;font-weight:bold;font-stretch:normal;font-size:99.4063px;line-height:125%;font-family:'Liberation Sans';-inkscape-font-specification:'Liberation Sans Bold';letter-spacing:0px;word-spacing:0px;fill:#ffffff;fill-opacity:1;stroke:none;stroke-width:3.4;stroke-linecap:butt;stroke-linejoin:miter;stroke-miterlimit:4;stroke-dasharray:none;stroke-opacity:1"
           id="g6674">
          <path
             sodipodi:nodetypes="scccsccccccscccscsccscccscssccsccccc"
             inkscape:connector-curvature="0"
             id="path6676"
             d="m 536.5604,508.52461 c 0,2.13569 -0.29123,4.0125 -0.87369,5.63044 -0.5501,1.61794 -1.29435,3.07409 -2.23276,4.36844 -0.93841,1.26199 -2.00625,2.41073 -3.20352,3.44621 -1.19728,1.00313 -2.42692,1.95771 -3.68891,2.86376 -1.26199,0.90605 -2.50781,1.79591 -3.73744,2.6696 -1.19728,0.87369 -2.2813,1.81209 -3.25206,2.81521 -0.97077,0.97077 -1.76356,2.05479 -2.37838,3.25207 -0.61481,1.16491 -0.95458,2.52398 -1.0193,4.07721 h -12.9597 c 0.16179,-2.7505 0.74425,-5.09652 1.74737,-7.03805 1.03549,-1.97389 2.2813,-3.6889 3.73745,-5.14505 1.45615,-1.45615 3.00937,-2.7505 4.65967,-3.88306 1.65029,-1.16491 3.17116,-2.34601 4.56259,-3.54329 1.42379,-1.19727 2.5887,-2.49162 3.49475,-3.88305 0.93841,-1.42379 1.40761,-3.10645 1.40761,-5.04798 0,-2.84757 -0.93841,-5.09651 -2.81522,-6.74681 -1.84445,-1.6503 -4.4817,-2.47545 -7.91173,-2.47545 -1.6503,0 -3.17116,0.25887 -4.56259,0.77661 -1.39143,0.48538 -2.62106,1.18109 -3.68891,2.08714 -1.03548,0.90605 -1.89299,2.00625 -2.57252,3.3006 -0.67953,1.29435 -1.11638,2.71814 -1.31053,4.27137 l -13.8334,-0.58246 c 0.38831,-2.87993 1.1811,-5.5819 2.37838,-8.10589 1.22963,-2.52399 2.89611,-4.72438 4.99943,-6.60119 2.10333,-1.87681 4.67585,-3.36532 7.71758,-4.46552 3.07409,-1.1002 6.63356,-1.6503 10.67841,-1.6503 3.88306,0 7.34545,0.45302 10.38718,1.35907 3.04173,0.90605 5.61425,2.21658 7.71758,3.9316 2.13568,1.68265 3.75362,3.73744 4.85382,6.16435 1.13256,2.42691 1.69884,5.14505 1.69884,8.15442 z m -33.34662,52.24353 v -12.41813 h 12.87146 v 12.41813 z"
             style="stroke:#000000;stroke-width:6;stroke-miterlimit:4;stroke-dasharray:none;stroke-opacity:1" />
          <path
             d="m 536.5604,508.52461 c 0,2.13569 -0.29123,4.0125 -0.87369,5.63044 -0.5501,1.61794 -1.29435,3.07409 -2.23276,4.36844 -0.93841,1.26199 -2.00625,2.41073 -3.20352,3.44621 -1.19728,1.00313 -2.42692,1.95771 -3.68891,2.86376 -1.26199,0.90605 -2.50781,1.79591 -3.73744,2.6696 -1.19728,0.87369 -2.2813,1.81209 -3.25206,2.81521 -0.97077,0.97077 -1.76356,2.05479 -2.37838,3.25207 -0.61481,1.16491 -0.95458,2.52398 -1.0193,4.07721 h -12.9597 c 0.16179,-2.7505 0.74425,-5.09652 1.74737,-7.03805 1.03549,-1.97389 2.2813,-3.6889 3.73745,-5.14505 1.45615,-1.45615 3.00937,-2.7505 4.65967,-3.88306 1.65029,-1.16491 3.17116,-2.34601 4.56259,-3.54329 1.42379,-1.19727 2.5887,-2.49162 3.49475,-3.88305 0.93841,-1.42379 1.40761,-3.10645 1.40761,-5.04798 0,-2.84757 -0.93841,-5.09651 -2.81522,-6.74681 -1.84445,-1.6503 -4.4817,-2.47545 -7.91173,-2.47545 -1.6503,0 -3.17116,0.25887 -4.56259,0.77661 -1.39143,0.48538 -2.62106,1.18109 -3.68891,2.08714 -1.03548,0.90605 -1.89299,2.00625 -2.57252,3.3006 -0.67953,1.29435 -1.11638,2.71814 -1.31053,4.27137 l -13.8334,-0.58246 c 0.38831,-2.87993 1.1811,-5.5819 2.37838,-8.10589 1.22963,-2.52399 2.89611,-4.72438 4.99943,-6.60119 2.10333,-1.87681 4.67585,-3.36532 7.71758,-4.46552 3.07409,-1.1002 6.63356,-1.6503 10.67841,-1.6503 3.88306,0 7.34545,0.45302 10.38718,1.35907 3.04173,0.90605 5.61425,2.21658 7.71758,3.9316 2.13568,1.68265 3.75362,3.73744 4.85382,6.16435 1.13256,2.42691 1.69884,5.14505 1.69884,8.15442 z m -33.34662,52.24353 v -12.41813 h 12.87146 v 12.41813 z"
             id="path6678"
             inkscape:connector-curvature="0"
             sodipodi:nodetypes="scccsccccccscccscsccscccscssccsccccc" />
        </g>
        <rect
           y="94.5"
           x="527.5"
           height="80"
           width="80"
           id="rect6680"
           style="fill:none;fill-opacity:1;stroke:#000000;stroke-width:2;stroke-linecap:round;stroke-linejoin:round;stroke-miterlimit:4;stroke-dasharray:none;stroke-dashoffset:0;stroke-opacity:1" />
      </g>
      <g
         transform="matrix(1.5,0,0,1.5,-153.80508,420.16257)"
         id="g6682">
        <rect
           y="94.5"
           x="527.5"
           height="80"
           width="80"
           id="rect6684"
           style="fill:#daa13a;fill-opacity:1;stroke:none;stroke-width:2;stroke-linecap:round;stroke-linejoin:round;stroke-miterlimit:4;stroke-dasharray:none;stroke-dashoffset:0;stroke-opacity:1" />
        <rect
           y="94.588287"
           x="526.97131"
           height="20.152544"
           width="21.213203"
           id="rect6686"
           style="fill:#ffffff;fill-opacity:1;stroke:none;stroke-width:2;stroke-linecap:round;stroke-linejoin:round;stroke-miterlimit:4;stroke-dasharray:none;stroke-dashoffset:0;stroke-opacity:1" />
        <rect
           ry="10.141324"
           style="fill:#f8d821;fill-opacity:1;stroke:none;stroke-width:2;stroke-linecap:round;stroke-linejoin:round;stroke-miterlimit:4;stroke-dasharray:none;stroke-dashoffset:0;stroke-opacity:1"
           id="rect6688"
           width="62.091362"
           height="63.89035"
           x="532.8913"
           y="99.498718"
           rx="10.141324" />
        <g
           id="g6690"
           style="font-style:normal;font-variant:normal;font-weight:bold;font-stretch:normal;font-size:99.4063px;line-height:125%;font-family:'Liberation Sans';-inkscape-font-specification:'Liberation Sans Bold';letter-spacing:0px;word-spacing:0px;fill:#ffffff;fill-opacity:1;stroke:none;stroke-width:3.4;stroke-linecap:butt;stroke-linejoin:miter;stroke-miterlimit:4;stroke-dasharray:none;stroke-opacity:1"
           transform="matrix(1.1106731,0,0,0.90035493,0,-340)">
          <path
             style="stroke:#000000;stroke-width:6;stroke-miterlimit:4;stroke-dasharray:none;stroke-opacity:1"
             d="m 536.5604,508.52461 c 0,2.13569 -0.29123,4.0125 -0.87369,5.63044 -0.5501,1.61794 -1.29435,3.07409 -2.23276,4.36844 -0.93841,1.26199 -2.00625,2.41073 -3.20352,3.44621 -1.19728,1.00313 -2.42692,1.95771 -3.68891,2.86376 -1.26199,0.90605 -2.50781,1.79591 -3.73744,2.6696 -1.19728,0.87369 -2.2813,1.81209 -3.25206,2.81521 -0.97077,0.97077 -1.76356,2.05479 -2.37838,3.25207 -0.61481,1.16491 -0.95458,2.52398 -1.0193,4.07721 h -12.9597 c 0.16179,-2.7505 0.74425,-5.09652 1.74737,-7.03805 1.03549,-1.97389 2.2813,-3.6889 3.73745,-5.14505 1.45615,-1.45615 3.00937,-2.7505 4.65967,-3.88306 1.65029,-1.16491 3.17116,-2.34601 4.56259,-3.54329 1.42379,-1.19727 2.5887,-2.49162 3.49475,-3.88305 0.93841,-1.42379 1.40761,-3.10645 1.40761,-5.04798 0,-2.84757 -0.93841,-5.09651 -2.81522,-6.74681 -1.84445,-1.6503 -4.4817,-2.47545 -7.91173,-2.47545 -1.6503,0 -3.17116,0.25887 -4.56259,0.77661 -1.39143,0.48538 -2.62106,1.18109 -3.68891,2.08714 -1.03548,0.90605 -1.89299,2.00625 -2.57252,3.3006 -0.67953,1.29435 -1.11638,2.71814 -1.31053,4.27137 l -13.8334,-0.58246 c 0.38831,-2.87993 1.1811,-5.5819 2.37838,-8.10589 1.22963,-2.52399 2.89611,-4.72438 4.99943,-6.60119 2.10333,-1.87681 4.67585,-3.36532 7.71758,-4.46552 3.07409,-1.1002 6.63356,-1.6503 10.67841,-1.6503 3.88306,0 7.34545,0.45302 10.38718,1.35907 3.04173,0.90605 5.61425,2.21658 7.71758,3.9316 2.13568,1.68265 3.75362,3.73744 4.85382,6.16435 1.13256,2.42691 1.69884,5.14505 1.69884,8.15442 z m -33.34662,52.24353 v -12.41813 h 12.87146 v 12.41813 z"
             id="path6692"
             inkscape:connector-curvature="0"
             sodipodi:nodetypes="scccsccccccscccscsccscccscssccsccccc" />
          <path
             sodipodi:nodetypes="scccsccccccscccscsccscccscssccsccccc"
             inkscape:connector-curvature="0"
             id="path6694"
             d="m 536.5604,508.52461 c 0,2.13569 -0.29123,4.0125 -0.87369,5.63044 -0.5501,1.61794 -1.29435,3.07409 -2.23276,4.36844 -0.93841,1.26199 -2.00625,2.41073 -3.20352,3.44621 -1.19728,1.00313 -2.42692,1.95771 -3.68891,2.86376 -1.26199,0.90605 -2.50781,1.79591 -3.73744,2.6696 -1.19728,0.87369 -2.2813,1.81209 -3.25206,2.81521 -0.97077,0.97077 -1.76356,2.05479 -2.37838,3.25207 -0.61481,1.16491 -0.95458,2.52398 -1.0193,4.07721 h -12.9597 c 0.16179,-2.7505 0.74425,-5.09652 1.74737,-7.03805 1.03549,-1.97389 2.2813,-3.6889 3.73745,-5.14505 1.45615,-1.45615 3.00937,-2.7505 4.65967,-3.88306 1.65029,-1.16491 3.17116,-2.34601 4.56259,-3.54329 1.42379,-1.19727 2.5887,-2.49162 3.49475,-3.88305 0.93841,-1.42379 1.40761,-3.10645 1.40761,-5.04798 0,-2.84757 -0.93841,-5.09651 -2.81522,-6.74681 -1.84445,-1.6503 -4.4817,-2.47545 -7.91173,-2.47545 -1.6503,0 -3.17116,0.25887 -4.56259,0.77661 -1.39143,0.48538 -2.62106,1.18109 -3.68891,2.08714 -1.03548,0.90605 -1.89299,2.00625 -2.57252,3.3006 -0.67953,1.29435 -1.11638,2.71814 -1.31053,4.27137 l -13.8334,-0.58246 c 0.38831,-2.87993 1.1811,-5.5819 2.37838,-8.10589 1.22963,-2.52399 2.89611,-4.72438 4.99943,-6.60119 2.10333,-1.87681 4.67585,-3.36532 7.71758,-4.46552 3.07409,-1.1002 6.63356,-1.6503 10.67841,-1.6503 3.88306,0 7.34545,0.45302 10.38718,1.35907 3.04173,0.90605 5.61425,2.21658 7.71758,3.9316 2.13568,1.68265 3.75362,3.73744 4.85382,6.16435 1.13256,2.42691 1.69884,5.14505 1.69884,8.15442 z m -33.34662,52.24353 v -12.41813 h 12.87146 v 12.41813 z" />
        </g>
        <rect
           style="fill:none;fill-opacity:1;stroke:#000000;stroke-width:2;stroke-linecap:round;stroke-linejoin:round;stroke-miterlimit:4;stroke-dasharray:none;stroke-dashoffset:0;stroke-opacity:1"
           id="rect6696"
           width="80"
           height="80"
           x="527.5"
           y="94.5" />
      </g>
    </g>
  </g>
  <g
     inkscape:groupmode="layer"
     id="layer1"
     inkscape:label="title"
     sodipodi:insensitive="true">
    <text
       xml:space="preserve"
       style="font-style:normal;font-variant:normal;font-weight:bold;font-stretch:normal;line-height:0%;font-family:'Bitstream Vera Sans Mono';-inkscape-font-specification:'Bitstream Vera Sans Mono Bold';text-align:center;letter-spacing:0px;word-spacing:0px;writing-mode:lr-tb;text-anchor:middle;fill:#ffffff;fill-opacity:1;stroke:none"
       x="920"
       y="96"
       id="text6208"><tspan
         sodipodi:role="line"
         x="920"
         y="96"
         id="tspan3009"
         style="font-size:70px;line-height:1.25">fake Uint8Array object</tspan></text>
  </g>
</svg>
