<?xml version="1.0" encoding="UTF-8" standalone="no"?>
<!-- Created with Inkscape (http://www.inkscape.org/) -->

<svg
   width="1920"
   height="1080"
   id="svg2"
   version="1.1"
   inkscape:version="1.2.2 (b0a8486541, 2022-12-01)"
   sodipodi:docname="pivot.svg"
   xmlns:inkscape="http://www.inkscape.org/namespaces/inkscape"
   xmlns:sodipodi="http://sodipodi.sourceforge.net/DTD/sodipodi-0.dtd"
   xmlns="http://www.w3.org/2000/svg"
   xmlns:svg="http://www.w3.org/2000/svg"
   xmlns:rdf="http://www.w3.org/1999/02/22-rdf-syntax-ns#"
   xmlns:cc="http://creativecommons.org/ns#"
   xmlns:dc="http://purl.org/dc/elements/1.1/">
  <defs
     id="defs4">
    <marker
       inkscape:stockid="DotM"
       orient="auto"
       refY="0"
       refX="0"
       id="marker7183"
       style="overflow:visible"
       inkscape:isstock="true">
      <path
         id="path7185"
         d="m -2.5,-1 c 0,2.76 -2.24,5 -5,5 -2.76,0 -5,-2.24 -5,-5 0,-2.76 2.24,-5 5,-5 2.76,0 5,2.24 5,5 z"
         style="fill:#ffffff;fill-opacity:1;fill-rule:evenodd;stroke:#ffffff;stroke-width:1pt;stroke-opacity:1"
         transform="matrix(0.4,0,0,0.4,2.96,0.4)" />
    </marker>
    <marker
       style="overflow:visible"
       inkscape:stockid="InfiniteLineStart"
       id="InfiniteLineStart"
       refX="0"
       refY="0"
       orient="auto"
       inkscape:isstock="true">
      <g
         id="g7152"
         style="fill:#ffffff;stroke:#ffffff;stroke-opacity:1;fill-opacity:1"
         transform="translate(-13,0)">
        <circle
           id="circle7154"
           r="0.8"
           cy="0"
           cx="3"
           style="stroke:#ffffff;stroke-opacity:1;fill:#ffffff;fill-opacity:1" />
        <circle
           id="circle7156"
           r="0.8"
           cy="0"
           cx="6.5"
           style="stroke:#ffffff;stroke-opacity:1;fill:#ffffff;fill-opacity:1" />
        <circle
           id="circle7158"
           r="0.8"
           cy="0"
           cx="10"
           style="stroke:#ffffff;stroke-opacity:1;fill:#ffffff;fill-opacity:1" />
      </g>
    </marker>
    <marker
       inkscape:stockid="DotM"
       orient="auto"
       refY="0.0"
       refX="0.0"
       id="DotM"
       style="overflow:visible"
       inkscape:isstock="true">
      <path
         id="path6972"
         d="M -2.5,-1.0 C -2.5,1.7600000 -4.7400000,4.0 -7.5,4.0 C -10.260000,4.0 -12.5,1.7600000 -12.5,-1.0 C -12.5,-3.7600000 -10.260000,-6.0 -7.5,-6.0 C -4.7400000,-6.0 -2.5,-3.7600000 -2.5,-1.0 z "
         style="fill-rule:evenodd;stroke:#ffffff;stroke-width:1pt;stroke-opacity:1;fill:#ffffff;fill-opacity:1"
         transform="scale(0.4) translate(7.4, 1)" />
    </marker>
    <marker
       inkscape:stockid="DotL"
       orient="auto"
       refY="0.0"
       refX="0.0"
       id="DotL"
       style="overflow:visible"
       inkscape:isstock="true">
      <path
         id="path6969"
         d="M -2.5,-1.0 C -2.5,1.7600000 -4.7400000,4.0 -7.5,4.0 C -10.260000,4.0 -12.5,1.7600000 -12.5,-1.0 C -12.5,-3.7600000 -10.260000,-6.0 -7.5,-6.0 C -4.7400000,-6.0 -2.5,-3.7600000 -2.5,-1.0 z "
         style="fill-rule:evenodd;stroke:#ffffff;stroke-width:1pt;stroke-opacity:1;fill:#ffffff;fill-opacity:1"
         transform="scale(0.8) translate(7.4, 1)" />
    </marker>
    <marker
       inkscape:stockid="TriangleOutM"
       orient="auto"
       refY="0.0"
       refX="0.0"
       id="TriangleOutM"
       style="overflow:visible"
       inkscape:isstock="true">
      <path
         id="path4953"
         d="M 5.77,0.0 L -2.88,5.0 L -2.88,-5.0 L 5.77,0.0 z "
         style="fill-rule:evenodd;stroke:#885818;stroke-width:1pt;stroke-opacity:1;fill:#885818;fill-opacity:1"
         transform="scale(0.4)" />
    </marker>
    <marker
       inkscape:stockid="TriangleOutL"
       orient="auto"
       refY="0.0"
       refX="0.0"
       id="TriangleOutL"
       style="overflow:visible"
       inkscape:isstock="true">
      <path
         id="path4950"
         d="M 5.77,0.0 L -2.88,5.0 L -2.88,-5.0 L 5.77,0.0 z "
         style="fill-rule:evenodd;stroke:#ffffff;stroke-width:1pt;stroke-opacity:1;fill:#ffffff;fill-opacity:1"
         transform="scale(0.8)" />
    </marker>
    <linearGradient
       id="linearGradient7793-2">
      <stop
         style="stop-color:#ffffff;stop-opacity:1"
         offset="0"
         id="stop4640" />
      <stop
         id="stop4646"
         offset="0.5"
         style="stop-color:#f8d821;stop-opacity:1" />
      <stop
         id="stop4642"
         offset="1"
         style="stop-color:#885818;stop-opacity:1" />
    </linearGradient>
    <linearGradient
       id="linearGradient7793">
      <stop
         id="stop4630"
         offset="0"
         style="stop-color:#ffffff;stop-opacity:1;" />
      <stop
         style="stop-color:#ffffff;stop-opacity:0.28858522;"
         offset="0.5"
         id="stop4632" />
      <stop
         id="stop4634"
         offset="1"
         style="stop-color:#ffffff;stop-opacity:0;" />
    </linearGradient>
    <linearGradient
       id="linearGradient4636">
      <stop
         style="stop-color:#ffffff;stop-opacity:1;"
         offset="0"
         id="stop7795" />
      <stop
         id="stop7803"
         offset="0.5"
         style="stop-color:#ffffff;stop-opacity:0.28858522;" />
      <stop
         style="stop-color:#ffffff;stop-opacity:0;"
         offset="1"
         id="stop7797" />
    </linearGradient>
    <marker
       inkscape:stockid="TriangleOutM"
       orient="auto"
       refY="0"
       refX="0"
       id="marker15926"
       style="overflow:visible"
       inkscape:isstock="true">
      <path
         inkscape:connector-curvature="0"
         id="path15928"
         d="M 5.77,0 -2.88,5 V -5 Z"
         style="fill:#ffffff;fill-opacity:1;fill-rule:evenodd;stroke:#ffffff;stroke-width:1pt;stroke-opacity:1"
         transform="scale(0.4)" />
    </marker>
    <marker
       inkscape:stockid="TriangleOutM"
       orient="auto"
       refY="0"
       refX="0"
       id="marker4477"
       style="overflow:visible"
       inkscape:isstock="true"
       inkscape:collect="always"
       viewBox="0 0 4.2595265 4.9243081"
       markerWidth="4.2595263"
       markerHeight="4.9243083"
       preserveAspectRatio="xMidYMid">
      <path
         inkscape:connector-curvature="0"
         id="path4366"
         d="M 5.77,0 -2.88,5 V -5 Z"
         style="fill:#575757;fill-opacity:1;fill-rule:evenodd;stroke:#575757;stroke-width:1pt;stroke-opacity:1"
         transform="scale(0.4)" />
    </marker>
    <marker
       inkscape:stockid="DotM"
       orient="auto"
       refY="0"
       refX="0"
       id="marker7183-3"
       style="overflow:visible"
       inkscape:isstock="true"
       viewBox="0 0 4.5333334 4.5333334"
       markerWidth="4.5333333"
       markerHeight="4.5333333"
       preserveAspectRatio="xMidYMid">
      <path
         id="path7185-7"
         d="m -2.5,-1 c 0,2.76 -2.24,5 -5,5 -2.76,0 -5,-2.24 -5,-5 0,-2.76 2.24,-5 5,-5 2.76,0 5,2.24 5,5 z"
         style="fill:#ffffff;fill-opacity:1;fill-rule:evenodd;stroke:#ffffff;stroke-width:1pt;stroke-opacity:1"
         transform="matrix(0.4,0,0,0.4,2.96,0.4)" />
    </marker>
    <marker
       inkscape:isstock="true"
       style="overflow:visible"
       id="marker12686"
       refX="0"
       refY="0"
       orient="auto"
       inkscape:stockid="TriangleOutM"
       inkscape:collect="always">
      <path
         transform="scale(0.4)"
         style="fill:#ffffff;fill-opacity:1;fill-rule:evenodd;stroke:#ffffff;stroke-width:1pt;stroke-opacity:1"
         d="M 5.77,0 -2.88,5 V -5 Z"
         id="path12688"
         inkscape:connector-curvature="0" />
    </marker>
    <marker
       inkscape:stockid="TriangleOutM"
       orient="auto"
       refY="0"
       refX="0"
       id="marker15926-5"
       style="overflow:visible"
       inkscape:isstock="true"
       viewBox="0 0 4.2595265 4.9243081"
       markerWidth="4.2595263"
       markerHeight="4.9243078"
       preserveAspectRatio="xMidYMid">
      <path
         inkscape:connector-curvature="0"
         id="path15928-9"
         d="M 5.77,0 -2.88,5 V -5 Z"
         style="fill:#ffffff;fill-opacity:1;fill-rule:evenodd;stroke:#ffffff;stroke-width:1pt;stroke-opacity:1"
         transform="scale(0.4)" />
    </marker>
    <marker
       inkscape:stockid="TriangleOutM"
       orient="auto"
       refY="0"
       refX="0"
       id="marker15926-5-3"
       style="overflow:visible"
       inkscape:isstock="true"
       viewBox="0 0 4.2595265 4.9243081"
       markerWidth="4.2595263"
       markerHeight="4.9243078"
       preserveAspectRatio="xMidYMid">
      <path
         inkscape:connector-curvature="0"
         id="path15928-9-6"
         d="M 5.77,0 -2.88,5 V -5 Z"
         style="fill:#ffffff;fill-opacity:1;fill-rule:evenodd;stroke:#ffffff;stroke-width:1pt;stroke-opacity:1"
         transform="scale(0.4)" />
    </marker>
    <marker
       inkscape:stockid="DotM"
       orient="auto"
       refY="0"
       refX="0"
       id="marker7183-3-1"
       style="overflow:visible"
       inkscape:isstock="true"
       viewBox="0 0 4.5333334 4.5333334"
       markerWidth="4.5333333"
       markerHeight="4.5333333"
       preserveAspectRatio="xMidYMid">
      <path
         id="path7185-7-2"
         d="m -2.5,-1 c 0,2.76 -2.24,5 -5,5 -2.76,0 -5,-2.24 -5,-5 0,-2.76 2.24,-5 5,-5 2.76,0 5,2.24 5,5 z"
         style="fill:#ffffff;fill-opacity:1;fill-rule:evenodd;stroke:#ffffff;stroke-width:1pt;stroke-opacity:1"
         transform="matrix(0.4,0,0,0.4,2.96,0.4)" />
    </marker>
  </defs>
  <sodipodi:namedview
     id="base"
     pagecolor="#ffffff"
     bordercolor="#666666"
     borderopacity="1.0"
     inkscape:pageopacity="0.0"
     inkscape:pageshadow="2"
     inkscape:zoom="0.70710678"
     inkscape:cx="994.19214"
     inkscape:cy="522.55191"
     inkscape:document-units="px"
     inkscape:current-layer="layer3"
     showgrid="false"
     inkscape:window-width="1918"
     inkscape:window-height="1182"
     inkscape:window-x="1"
     inkscape:window-y="17"
     inkscape:window-maximized="0"
     inkscape:showpageshadow="2"
     inkscape:pagecheckerboard="0"
     inkscape:deskcolor="#d1d1d1" />
  <metadata
     id="metadata7">
    <rdf:RDF>
      <cc:Work
         rdf:about="">
        <dc:format>image/svg+xml</dc:format>
        <dc:type
           rdf:resource="http://purl.org/dc/dcmitype/StillImage" />
      </cc:Work>
    </rdf:RDF>
  </metadata>
  <g
     inkscape:groupmode="layer"
     id="layer2"
     inkscape:label="back"
     transform="translate(0,312)"
     sodipodi:insensitive="true">
    <rect
       style="fill:#000000;fill-opacity:1;stroke:none"
       id="rect5418"
       width="1920"
       height="1080"
       x="0"
       y="-312" />
  </g>
  <g
     inkscape:groupmode="layer"
     id="layer4"
     inkscape:label="pagenumber"
     style="display:inline"
     transform="translate(-4.9414062e-5)"
     sodipodi:insensitive="true">
    <text
       xml:space="preserve"
       style="font-style:normal;font-variant:normal;font-weight:bold;font-stretch:normal;line-height:0%;font-family:'Bitstream Vera Sans Mono';-inkscape-font-specification:'Bitstream Vera Sans Mono Bold';text-align:end;letter-spacing:0px;word-spacing:0px;text-anchor:end;fill:#fdfdfd;fill-opacity:1;stroke:none"
       x="1902.5485"
       y="1059.1504"
       id="text61"><tspan
         sodipodi:role="line"
         x="1902.5485"
         y="1059.1504"
         id="pagenumber"
         style="font-style:normal;font-variant:normal;font-weight:bold;font-stretch:normal;font-size:50px;line-height:1.25;font-family:'Bitstream Vera Sans Mono';-inkscape-font-specification:'Bitstream Vera Sans Mono Bold';fill:#fdfdfd;fill-opacity:1">PAGENUMBER</tspan></text>
  </g>
  <g
     inkscape:groupmode="layer"
     id="layer11"
     inkscape:label="array"
     style="display:inline"
     sodipodi:insensitive="true">
    <g
       id="g21235">
      <rect
         y="543.06293"
         x="419.55835"
         height="157.71005"
         width="526.80426"
         id="rect6698"
         style="fill:#74b7f3;fill-opacity:1;stroke:#000000;stroke-width:3;stroke-linecap:round;stroke-linejoin:round;stroke-miterlimit:4;stroke-dasharray:none;stroke-dashoffset:0;stroke-opacity:1" />
      <rect
         style="fill:#284bd4;fill-opacity:1;stroke:#000000;stroke-width:3;stroke-linecap:round;stroke-linejoin:round;stroke-miterlimit:4;stroke-dasharray:none;stroke-dashoffset:0;stroke-opacity:1"
         id="rect4648-0"
         width="301.94431"
         height="157.71005"
         x="119.55842"
         y="543.06293" />
      <text
         id="text6834"
         y="601.0824"
         x="272.29016"
         style="font-style:normal;font-variant:normal;font-weight:bold;font-stretch:normal;line-height:0%;font-family:'Bitstream Vera Sans Mono';-inkscape-font-specification:'Bitstream Vera Sans Mono Bold';text-align:center;letter-spacing:0px;word-spacing:0px;writing-mode:lr-tb;text-anchor:middle;fill:#ffffff;fill-opacity:1;stroke:none"
         xml:space="preserve"><tspan
           id="tspan6836"
           y="601.0824"
           x="272.29016"
           sodipodi:role="line"
           style="font-size:60px;line-height:1.25">array</tspan><tspan
           y="676.0824"
           x="272.29016"
           sodipodi:role="line"
           id="tspan6838"
           style="font-size:60px;line-height:1.25">header</tspan></text>
      <text
         xml:space="preserve"
         style="font-style:normal;font-variant:normal;font-weight:bold;font-stretch:normal;line-height:0%;font-family:'Bitstream Vera Sans Mono';-inkscape-font-specification:'Bitstream Vera Sans Mono Bold';text-align:center;letter-spacing:0px;word-spacing:0px;writing-mode:lr-tb;text-anchor:middle;fill:#ffffff;fill-opacity:1;stroke:none"
         x="518.14801"
         y="931.79309"
         id="text6862"><tspan
           id="tspan6866"
           sodipodi:role="line"
           x="518.14801"
           y="931.79309"
           style="font-size:60px;line-height:1.25">JavaScript Array</tspan></text>
      <path
         style="fill:none;fill-rule:evenodd;stroke:#ffffff;stroke-width:12;stroke-linecap:butt;stroke-linejoin:miter;stroke-miterlimit:4;stroke-dasharray:none;stroke-opacity:1"
         d="M 135.7645,717.96133 514.77374,853.72583 930.55253,720.78975"
         id="path6870"
         inkscape:connector-curvature="0" />
    </g>
  </g>
  <g
     inkscape:groupmode="layer"
     id="layer12"
     inkscape:label="2nd_array"
     sodipodi:insensitive="true"
     style="display:inline">
    <g
       id="g21327">
      <rect
         y="543.06293"
         x="959.55835"
         height="157.71005"
         width="301.94431"
         id="rect6798"
         style="fill:#284bd4;fill-opacity:1;stroke:#000000;stroke-width:3;stroke-linecap:round;stroke-linejoin:round;stroke-miterlimit:4;stroke-dasharray:none;stroke-dashoffset:0;stroke-opacity:1" />
      <rect
         style="fill:#00c900;fill-opacity:1;stroke:#000000;stroke-width:3;stroke-linecap:round;stroke-linejoin:round;stroke-miterlimit:4;stroke-dasharray:none;stroke-dashoffset:0;stroke-opacity:1"
         id="rect6800"
         width="301.94431"
         height="157.71005"
         x="1319.5583"
         y="543.06293" />
      <g
         id="g6802"
         transform="matrix(1.5,0,0,1.5,551.19487,420.16257)">
        <rect
           style="fill:#284bd4;fill-opacity:1;stroke:none;stroke-width:2;stroke-linecap:round;stroke-linejoin:round;stroke-miterlimit:4;stroke-dasharray:none;stroke-dashoffset:0;stroke-opacity:1"
           id="rect6804"
           width="80"
           height="80"
           x="527.5"
           y="94.5" />
        <rect
           style="fill:#ffffff;fill-opacity:1;stroke:none;stroke-width:2;stroke-linecap:round;stroke-linejoin:round;stroke-miterlimit:4;stroke-dasharray:none;stroke-dashoffset:0;stroke-opacity:1"
           id="rect6806"
           width="21.213203"
           height="20.152544"
           x="526.97131"
           y="94.588287" />
        <rect
           y="99.498718"
           x="532.8913"
           height="63.89035"
           width="62.091362"
           id="rect6808"
           style="fill:#74b7f3;fill-opacity:1;stroke:none;stroke-width:2;stroke-linecap:round;stroke-linejoin:round;stroke-miterlimit:4;stroke-dasharray:none;stroke-dashoffset:0;stroke-opacity:1"
           ry="10.141324"
           rx="10.141324" />
        <g
           transform="matrix(1.1106731,0,0,0.90035493,0,-340)"
           style="font-style:normal;font-variant:normal;font-weight:bold;font-stretch:normal;font-size:99.4063px;line-height:125%;font-family:'Liberation Sans';-inkscape-font-specification:'Liberation Sans Bold';letter-spacing:0px;word-spacing:0px;fill:#ffffff;fill-opacity:1;stroke:none;stroke-width:3.4;stroke-linecap:butt;stroke-linejoin:miter;stroke-miterlimit:4;stroke-dasharray:none;stroke-opacity:1"
           id="g6810">
          <path
             sodipodi:nodetypes="scccsccccccscccscsccscccscssccsccccc"
             inkscape:connector-curvature="0"
             id="path6812"
             d="m 536.5604,508.52461 c 0,2.13569 -0.29123,4.0125 -0.87369,5.63044 -0.5501,1.61794 -1.29435,3.07409 -2.23276,4.36844 -0.93841,1.26199 -2.00625,2.41073 -3.20352,3.44621 -1.19728,1.00313 -2.42692,1.95771 -3.68891,2.86376 -1.26199,0.90605 -2.50781,1.79591 -3.73744,2.6696 -1.19728,0.87369 -2.2813,1.81209 -3.25206,2.81521 -0.97077,0.97077 -1.76356,2.05479 -2.37838,3.25207 -0.61481,1.16491 -0.95458,2.52398 -1.0193,4.07721 h -12.9597 c 0.16179,-2.7505 0.74425,-5.09652 1.74737,-7.03805 1.03549,-1.97389 2.2813,-3.6889 3.73745,-5.14505 1.45615,-1.45615 3.00937,-2.7505 4.65967,-3.88306 1.65029,-1.16491 3.17116,-2.34601 4.56259,-3.54329 1.42379,-1.19727 2.5887,-2.49162 3.49475,-3.88305 0.93841,-1.42379 1.40761,-3.10645 1.40761,-5.04798 0,-2.84757 -0.93841,-5.09651 -2.81522,-6.74681 -1.84445,-1.6503 -4.4817,-2.47545 -7.91173,-2.47545 -1.6503,0 -3.17116,0.25887 -4.56259,0.77661 -1.39143,0.48538 -2.62106,1.18109 -3.68891,2.08714 -1.03548,0.90605 -1.89299,2.00625 -2.57252,3.3006 -0.67953,1.29435 -1.11638,2.71814 -1.31053,4.27137 l -13.8334,-0.58246 c 0.38831,-2.87993 1.1811,-5.5819 2.37838,-8.10589 1.22963,-2.52399 2.89611,-4.72438 4.99943,-6.60119 2.10333,-1.87681 4.67585,-3.36532 7.71758,-4.46552 3.07409,-1.1002 6.63356,-1.6503 10.67841,-1.6503 3.88306,0 7.34545,0.45302 10.38718,1.35907 3.04173,0.90605 5.61425,2.21658 7.71758,3.9316 2.13568,1.68265 3.75362,3.73744 4.85382,6.16435 1.13256,2.42691 1.69884,5.14505 1.69884,8.15442 z m -33.34662,52.24353 v -12.41813 h 12.87146 v 12.41813 z"
             style="stroke:#000000;stroke-width:6;stroke-miterlimit:4;stroke-dasharray:none;stroke-opacity:1" />
          <path
             d="m 536.5604,508.52461 c 0,2.13569 -0.29123,4.0125 -0.87369,5.63044 -0.5501,1.61794 -1.29435,3.07409 -2.23276,4.36844 -0.93841,1.26199 -2.00625,2.41073 -3.20352,3.44621 -1.19728,1.00313 -2.42692,1.95771 -3.68891,2.86376 -1.26199,0.90605 -2.50781,1.79591 -3.73744,2.6696 -1.19728,0.87369 -2.2813,1.81209 -3.25206,2.81521 -0.97077,0.97077 -1.76356,2.05479 -2.37838,3.25207 -0.61481,1.16491 -0.95458,2.52398 -1.0193,4.07721 h -12.9597 c 0.16179,-2.7505 0.74425,-5.09652 1.74737,-7.03805 1.03549,-1.97389 2.2813,-3.6889 3.73745,-5.14505 1.45615,-1.45615 3.00937,-2.7505 4.65967,-3.88306 1.65029,-1.16491 3.17116,-2.34601 4.56259,-3.54329 1.42379,-1.19727 2.5887,-2.49162 3.49475,-3.88305 0.93841,-1.42379 1.40761,-3.10645 1.40761,-5.04798 0,-2.84757 -0.93841,-5.09651 -2.81522,-6.74681 -1.84445,-1.6503 -4.4817,-2.47545 -7.91173,-2.47545 -1.6503,0 -3.17116,0.25887 -4.56259,0.77661 -1.39143,0.48538 -2.62106,1.18109 -3.68891,2.08714 -1.03548,0.90605 -1.89299,2.00625 -2.57252,3.3006 -0.67953,1.29435 -1.11638,2.71814 -1.31053,4.27137 l -13.8334,-0.58246 c 0.38831,-2.87993 1.1811,-5.5819 2.37838,-8.10589 1.22963,-2.52399 2.89611,-4.72438 4.99943,-6.60119 2.10333,-1.87681 4.67585,-3.36532 7.71758,-4.46552 3.07409,-1.1002 6.63356,-1.6503 10.67841,-1.6503 3.88306,0 7.34545,0.45302 10.38718,1.35907 3.04173,0.90605 5.61425,2.21658 7.71758,3.9316 2.13568,1.68265 3.75362,3.73744 4.85382,6.16435 1.13256,2.42691 1.69884,5.14505 1.69884,8.15442 z m -33.34662,52.24353 v -12.41813 h 12.87146 v 12.41813 z"
             id="path6814"
             inkscape:connector-curvature="0"
             sodipodi:nodetypes="scccsccccccscccscsccscccscssccsccccc" />
        </g>
        <rect
           y="94.5"
           x="527.5"
           height="80"
           width="80"
           id="rect6816"
           style="fill:none;fill-opacity:1;stroke:#000000;stroke-width:2;stroke-linecap:round;stroke-linejoin:round;stroke-miterlimit:4;stroke-dasharray:none;stroke-dashoffset:0;stroke-opacity:1" />
      </g>
      <g
         transform="matrix(1.5,0,0,1.5,686.19499,420.16257)"
         id="g6818">
        <rect
           y="94.5"
           x="527.5"
           height="80"
           width="80"
           id="rect6820"
           style="fill:#daa13a;fill-opacity:1;stroke:none;stroke-width:2;stroke-linecap:round;stroke-linejoin:round;stroke-miterlimit:4;stroke-dasharray:none;stroke-dashoffset:0;stroke-opacity:1" />
        <rect
           y="94.588287"
           x="526.97131"
           height="20.152544"
           width="21.213203"
           id="rect6822"
           style="fill:#ffffff;fill-opacity:1;stroke:none;stroke-width:2;stroke-linecap:round;stroke-linejoin:round;stroke-miterlimit:4;stroke-dasharray:none;stroke-dashoffset:0;stroke-opacity:1" />
        <rect
           ry="10.141324"
           style="fill:#f8d821;fill-opacity:1;stroke:none;stroke-width:2;stroke-linecap:round;stroke-linejoin:round;stroke-miterlimit:4;stroke-dasharray:none;stroke-dashoffset:0;stroke-opacity:1"
           id="rect6824"
           width="62.091362"
           height="63.89035"
           x="532.8913"
           y="99.498718"
           rx="10.141324" />
        <g
           id="g6826"
           style="font-style:normal;font-variant:normal;font-weight:bold;font-stretch:normal;font-size:99.4063px;line-height:125%;font-family:'Liberation Sans';-inkscape-font-specification:'Liberation Sans Bold';letter-spacing:0px;word-spacing:0px;fill:#ffffff;fill-opacity:1;stroke:none;stroke-width:3.4;stroke-linecap:butt;stroke-linejoin:miter;stroke-miterlimit:4;stroke-dasharray:none;stroke-opacity:1"
           transform="matrix(1.1106731,0,0,0.90035493,0,-340)">
          <path
             style="stroke:#000000;stroke-width:6;stroke-miterlimit:4;stroke-dasharray:none;stroke-opacity:1"
             d="m 536.5604,508.52461 c 0,2.13569 -0.29123,4.0125 -0.87369,5.63044 -0.5501,1.61794 -1.29435,3.07409 -2.23276,4.36844 -0.93841,1.26199 -2.00625,2.41073 -3.20352,3.44621 -1.19728,1.00313 -2.42692,1.95771 -3.68891,2.86376 -1.26199,0.90605 -2.50781,1.79591 -3.73744,2.6696 -1.19728,0.87369 -2.2813,1.81209 -3.25206,2.81521 -0.97077,0.97077 -1.76356,2.05479 -2.37838,3.25207 -0.61481,1.16491 -0.95458,2.52398 -1.0193,4.07721 h -12.9597 c 0.16179,-2.7505 0.74425,-5.09652 1.74737,-7.03805 1.03549,-1.97389 2.2813,-3.6889 3.73745,-5.14505 1.45615,-1.45615 3.00937,-2.7505 4.65967,-3.88306 1.65029,-1.16491 3.17116,-2.34601 4.56259,-3.54329 1.42379,-1.19727 2.5887,-2.49162 3.49475,-3.88305 0.93841,-1.42379 1.40761,-3.10645 1.40761,-5.04798 0,-2.84757 -0.93841,-5.09651 -2.81522,-6.74681 -1.84445,-1.6503 -4.4817,-2.47545 -7.91173,-2.47545 -1.6503,0 -3.17116,0.25887 -4.56259,0.77661 -1.39143,0.48538 -2.62106,1.18109 -3.68891,2.08714 -1.03548,0.90605 -1.89299,2.00625 -2.57252,3.3006 -0.67953,1.29435 -1.11638,2.71814 -1.31053,4.27137 l -13.8334,-0.58246 c 0.38831,-2.87993 1.1811,-5.5819 2.37838,-8.10589 1.22963,-2.52399 2.89611,-4.72438 4.99943,-6.60119 2.10333,-1.87681 4.67585,-3.36532 7.71758,-4.46552 3.07409,-1.1002 6.63356,-1.6503 10.67841,-1.6503 3.88306,0 7.34545,0.45302 10.38718,1.35907 3.04173,0.90605 5.61425,2.21658 7.71758,3.9316 2.13568,1.68265 3.75362,3.73744 4.85382,6.16435 1.13256,2.42691 1.69884,5.14505 1.69884,8.15442 z m -33.34662,52.24353 v -12.41813 h 12.87146 v 12.41813 z"
             id="path6828"
             inkscape:connector-curvature="0"
             sodipodi:nodetypes="scccsccccccscccscsccscccscssccsccccc" />
          <path
             sodipodi:nodetypes="scccsccccccscccscsccscccscssccsccccc"
             inkscape:connector-curvature="0"
             id="path6830"
             d="m 536.5604,508.52461 c 0,2.13569 -0.29123,4.0125 -0.87369,5.63044 -0.5501,1.61794 -1.29435,3.07409 -2.23276,4.36844 -0.93841,1.26199 -2.00625,2.41073 -3.20352,3.44621 -1.19728,1.00313 -2.42692,1.95771 -3.68891,2.86376 -1.26199,0.90605 -2.50781,1.79591 -3.73744,2.6696 -1.19728,0.87369 -2.2813,1.81209 -3.25206,2.81521 -0.97077,0.97077 -1.76356,2.05479 -2.37838,3.25207 -0.61481,1.16491 -0.95458,2.52398 -1.0193,4.07721 h -12.9597 c 0.16179,-2.7505 0.74425,-5.09652 1.74737,-7.03805 1.03549,-1.97389 2.2813,-3.6889 3.73745,-5.14505 1.45615,-1.45615 3.00937,-2.7505 4.65967,-3.88306 1.65029,-1.16491 3.17116,-2.34601 4.56259,-3.54329 1.42379,-1.19727 2.5887,-2.49162 3.49475,-3.88305 0.93841,-1.42379 1.40761,-3.10645 1.40761,-5.04798 0,-2.84757 -0.93841,-5.09651 -2.81522,-6.74681 -1.84445,-1.6503 -4.4817,-2.47545 -7.91173,-2.47545 -1.6503,0 -3.17116,0.25887 -4.56259,0.77661 -1.39143,0.48538 -2.62106,1.18109 -3.68891,2.08714 -1.03548,0.90605 -1.89299,2.00625 -2.57252,3.3006 -0.67953,1.29435 -1.11638,2.71814 -1.31053,4.27137 l -13.8334,-0.58246 c 0.38831,-2.87993 1.1811,-5.5819 2.37838,-8.10589 1.22963,-2.52399 2.89611,-4.72438 4.99943,-6.60119 2.10333,-1.87681 4.67585,-3.36532 7.71758,-4.46552 3.07409,-1.1002 6.63356,-1.6503 10.67841,-1.6503 3.88306,0 7.34545,0.45302 10.38718,1.35907 3.04173,0.90605 5.61425,2.21658 7.71758,3.9316 2.13568,1.68265 3.75362,3.73744 4.85382,6.16435 1.13256,2.42691 1.69884,5.14505 1.69884,8.15442 z m -33.34662,52.24353 v -12.41813 h 12.87146 v 12.41813 z" />
        </g>
        <rect
           style="fill:none;fill-opacity:1;stroke:#000000;stroke-width:2;stroke-linecap:round;stroke-linejoin:round;stroke-miterlimit:4;stroke-dasharray:none;stroke-dashoffset:0;stroke-opacity:1"
           id="rect6832"
           width="80"
           height="80"
           x="527.5"
           y="94.5" />
      </g>
      <rect
         style="fill:#74b7f3;fill-opacity:1;stroke:#000000;stroke-width:3;stroke-linecap:round;stroke-linejoin:round;stroke-miterlimit:4;stroke-dasharray:none;stroke-dashoffset:0;stroke-opacity:1"
         id="rect6796"
         width="526.80426"
         height="157.71005"
         x="1259.5583"
         y="543.06293" />
      <text
         xml:space="preserve"
         style="font-style:normal;font-variant:normal;font-weight:bold;font-stretch:normal;line-height:0%;font-family:'Bitstream Vera Sans Mono';-inkscape-font-specification:'Bitstream Vera Sans Mono Bold';text-align:center;letter-spacing:0px;word-spacing:0px;writing-mode:lr-tb;text-anchor:middle;fill:#ffffff;fill-opacity:1;stroke:none"
         x="1112.2903"
         y="601.0824"
         id="text6840"><tspan
           sodipodi:role="line"
           x="1112.2903"
           y="601.0824"
           id="tspan6842"
           style="font-size:60px;line-height:1.25">array</tspan><tspan
           id="tspan6844"
           sodipodi:role="line"
           x="1112.2903"
           y="676.0824"
           style="font-size:60px;line-height:1.25">header</tspan></text>
      <text
         xml:space="preserve"
         style="font-style:normal;font-variant:normal;font-weight:bold;font-stretch:normal;line-height:0%;font-family:'Bitstream Vera Sans Mono';-inkscape-font-specification:'Bitstream Vera Sans Mono Bold';text-align:center;letter-spacing:0px;word-spacing:0px;writing-mode:lr-tb;text-anchor:middle;fill:#000000;fill-opacity:1;stroke:none"
         x="1512.2903"
         y="601.0824"
         id="text6852"><tspan
           sodipodi:role="line"
           x="1512.2903"
           y="601.0824"
           id="tspan6854"
           style="font-size:60px;line-height:1.25">array</tspan><tspan
           id="tspan6856"
           sodipodi:role="line"
           x="1512.2903"
           y="676.0824"
           style="font-size:60px;line-height:1.25">data</tspan></text>
      <text
         id="text6891"
         y="931.79309"
         x="1358.1479"
         style="font-style:normal;font-variant:normal;font-weight:bold;font-stretch:normal;line-height:0%;font-family:'Bitstream Vera Sans Mono';-inkscape-font-specification:'Bitstream Vera Sans Mono Bold';text-align:center;letter-spacing:0px;word-spacing:0px;writing-mode:lr-tb;text-anchor:middle;fill:#ffffff;fill-opacity:1;stroke:none"
         xml:space="preserve"><tspan
           y="931.79309"
           x="1358.1479"
           sodipodi:role="line"
           id="tspan6893"
           style="font-size:60px;line-height:1.25">JavaScript Array</tspan></text>
      <path
         inkscape:connector-curvature="0"
         id="path6895"
         d="m 975.7645,717.96133 379.0092,135.7645 415.7788,-132.93608"
         style="fill:none;fill-rule:evenodd;stroke:#ffffff;stroke-width:12;stroke-linecap:butt;stroke-linejoin:miter;stroke-miterlimit:4;stroke-dasharray:none;stroke-opacity:1" />
    </g>
  </g>
  <g
     inkscape:groupmode="layer"
     id="layer3"
     inkscape:label="fake_object"
     transform="translate(0,312)"
     sodipodi:insensitive="true"
     style="display:inline">
    <text
       id="text6846"
       y="601.0824"
       x="692.29028"
       style="font-style:normal;font-variant:normal;font-weight:bold;font-stretch:normal;line-height:0%;font-family:'Bitstream Vera Sans Mono';-inkscape-font-specification:'Bitstream Vera Sans Mono Bold';text-align:center;letter-spacing:0px;word-spacing:0px;writing-mode:lr-tb;text-anchor:middle;fill:#000000;fill-opacity:1;stroke:none"
       xml:space="preserve"
       transform="translate(0,-312)"><tspan
         id="tspan6848"
         y="601.0824"
         x="692.29028"
         sodipodi:role="line"
         style="font-size:60px;line-height:1.25">array</tspan><tspan
         y="676.0824"
         x="692.29028"
         sodipodi:role="line"
         id="tspan6850"
         style="font-size:60px;line-height:1.25">data</tspan></text>
    <rect
       y="543.06293"
       x="479.55835"
       height="157.71005"
       width="301.94431"
       id="rect6664"
       style="fill:#00c900;fill-opacity:1;stroke:#000000;stroke-width:3;stroke-linecap:round;stroke-linejoin:round;stroke-miterlimit:4;stroke-dasharray:none;stroke-dashoffset:0;stroke-opacity:1"
       transform="translate(0,-312)" />
    <g
       transform="matrix(1.5,0,0,1.5,-288.80509,108.16257)"
       id="g6666">
      <rect
         y="94.5"
         x="527.5"
         height="80"
         width="80"
         id="rect6668"
         style="fill:#284bd4;fill-opacity:1;stroke:none;stroke-width:2;stroke-linecap:round;stroke-linejoin:round;stroke-miterlimit:4;stroke-dasharray:none;stroke-dashoffset:0;stroke-opacity:1" />
      <rect
         y="94.588287"
         x="526.97131"
         height="20.152544"
         width="21.213203"
         id="rect6670"
         style="fill:#ffffff;fill-opacity:1;stroke:none;stroke-width:2;stroke-linecap:round;stroke-linejoin:round;stroke-miterlimit:4;stroke-dasharray:none;stroke-dashoffset:0;stroke-opacity:1" />
      <rect
         ry="10.141324"
         style="fill:#74b7f3;fill-opacity:1;stroke:none;stroke-width:2;stroke-linecap:round;stroke-linejoin:round;stroke-miterlimit:4;stroke-dasharray:none;stroke-dashoffset:0;stroke-opacity:1"
         id="rect6672"
         width="62.091362"
         height="63.89035"
         x="532.8913"
         y="99.498718"
         rx="10.141324" />
      <g
         id="g6674"
         style="font-style:normal;font-variant:normal;font-weight:bold;font-stretch:normal;font-size:99.4063px;line-height:125%;font-family:'Liberation Sans';-inkscape-font-specification:'Liberation Sans Bold';letter-spacing:0px;word-spacing:0px;fill:#ffffff;fill-opacity:1;stroke:none;stroke-width:3.4;stroke-linecap:butt;stroke-linejoin:miter;stroke-miterlimit:4;stroke-dasharray:none;stroke-opacity:1"
         transform="matrix(1.1106731,0,0,0.90035493,0,-340)">
        <path
           style="stroke:#000000;stroke-width:6;stroke-miterlimit:4;stroke-dasharray:none;stroke-opacity:1"
           d="m 536.5604,508.52461 c 0,2.13569 -0.29123,4.0125 -0.87369,5.63044 -0.5501,1.61794 -1.29435,3.07409 -2.23276,4.36844 -0.93841,1.26199 -2.00625,2.41073 -3.20352,3.44621 -1.19728,1.00313 -2.42692,1.95771 -3.68891,2.86376 -1.26199,0.90605 -2.50781,1.79591 -3.73744,2.6696 -1.19728,0.87369 -2.2813,1.81209 -3.25206,2.81521 -0.97077,0.97077 -1.76356,2.05479 -2.37838,3.25207 -0.61481,1.16491 -0.95458,2.52398 -1.0193,4.07721 h -12.9597 c 0.16179,-2.7505 0.74425,-5.09652 1.74737,-7.03805 1.03549,-1.97389 2.2813,-3.6889 3.73745,-5.14505 1.45615,-1.45615 3.00937,-2.7505 4.65967,-3.88306 1.65029,-1.16491 3.17116,-2.34601 4.56259,-3.54329 1.42379,-1.19727 2.5887,-2.49162 3.49475,-3.88305 0.93841,-1.42379 1.40761,-3.10645 1.40761,-5.04798 0,-2.84757 -0.93841,-5.09651 -2.81522,-6.74681 -1.84445,-1.6503 -4.4817,-2.47545 -7.91173,-2.47545 -1.6503,0 -3.17116,0.25887 -4.56259,0.77661 -1.39143,0.48538 -2.62106,1.18109 -3.68891,2.08714 -1.03548,0.90605 -1.89299,2.00625 -2.57252,3.3006 -0.67953,1.29435 -1.11638,2.71814 -1.31053,4.27137 l -13.8334,-0.58246 c 0.38831,-2.87993 1.1811,-5.5819 2.37838,-8.10589 1.22963,-2.52399 2.89611,-4.72438 4.99943,-6.60119 2.10333,-1.87681 4.67585,-3.36532 7.71758,-4.46552 3.07409,-1.1002 6.63356,-1.6503 10.67841,-1.6503 3.88306,0 7.34545,0.45302 10.38718,1.35907 3.04173,0.90605 5.61425,2.21658 7.71758,3.9316 2.13568,1.68265 3.75362,3.73744 4.85382,6.16435 1.13256,2.42691 1.69884,5.14505 1.69884,8.15442 z m -33.34662,52.24353 v -12.41813 h 12.87146 v 12.41813 z"
           id="path6676"
           inkscape:connector-curvature="0"
           sodipodi:nodetypes="scccsccccccscccscsccscccscssccsccccc" />
        <path
           sodipodi:nodetypes="scccsccccccscccscsccscccscssccsccccc"
           inkscape:connector-curvature="0"
           id="path6678"
           d="m 536.5604,508.52461 c 0,2.13569 -0.29123,4.0125 -0.87369,5.63044 -0.5501,1.61794 -1.29435,3.07409 -2.23276,4.36844 -0.93841,1.26199 -2.00625,2.41073 -3.20352,3.44621 -1.19728,1.00313 -2.42692,1.95771 -3.68891,2.86376 -1.26199,0.90605 -2.50781,1.79591 -3.73744,2.6696 -1.19728,0.87369 -2.2813,1.81209 -3.25206,2.81521 -0.97077,0.97077 -1.76356,2.05479 -2.37838,3.25207 -0.61481,1.16491 -0.95458,2.52398 -1.0193,4.07721 h -12.9597 c 0.16179,-2.7505 0.74425,-5.09652 1.74737,-7.03805 1.03549,-1.97389 2.2813,-3.6889 3.73745,-5.14505 1.45615,-1.45615 3.00937,-2.7505 4.65967,-3.88306 1.65029,-1.16491 3.17116,-2.34601 4.56259,-3.54329 1.42379,-1.19727 2.5887,-2.49162 3.49475,-3.88305 0.93841,-1.42379 1.40761,-3.10645 1.40761,-5.04798 0,-2.84757 -0.93841,-5.09651 -2.81522,-6.74681 -1.84445,-1.6503 -4.4817,-2.47545 -7.91173,-2.47545 -1.6503,0 -3.17116,0.25887 -4.56259,0.77661 -1.39143,0.48538 -2.62106,1.18109 -3.68891,2.08714 -1.03548,0.90605 -1.89299,2.00625 -2.57252,3.3006 -0.67953,1.29435 -1.11638,2.71814 -1.31053,4.27137 l -13.8334,-0.58246 c 0.38831,-2.87993 1.1811,-5.5819 2.37838,-8.10589 1.22963,-2.52399 2.89611,-4.72438 4.99943,-6.60119 2.10333,-1.87681 4.67585,-3.36532 7.71758,-4.46552 3.07409,-1.1002 6.63356,-1.6503 10.67841,-1.6503 3.88306,0 7.34545,0.45302 10.38718,1.35907 3.04173,0.90605 5.61425,2.21658 7.71758,3.9316 2.13568,1.68265 3.75362,3.73744 4.85382,6.16435 1.13256,2.42691 1.69884,5.14505 1.69884,8.15442 z m -33.34662,52.24353 v -12.41813 h 12.87146 v 12.41813 z" />
      </g>
      <rect
         style="fill:none;fill-opacity:1;stroke:#000000;stroke-width:2;stroke-linecap:round;stroke-linejoin:round;stroke-miterlimit:4;stroke-dasharray:none;stroke-dashoffset:0;stroke-opacity:1"
         id="rect6680"
         width="80"
         height="80"
         x="527.5"
         y="94.5" />
    </g>
    <g
       id="g6682"
       transform="matrix(1.5,0,0,1.5,-153.80508,108.16257)">
      <rect
         style="fill:#daa13a;fill-opacity:1;stroke:none;stroke-width:2;stroke-linecap:round;stroke-linejoin:round;stroke-miterlimit:4;stroke-dasharray:none;stroke-dashoffset:0;stroke-opacity:1"
         id="rect6684"
         width="80"
         height="80"
         x="527.5"
         y="94.5" />
      <rect
         style="fill:#ffffff;fill-opacity:1;stroke:none;stroke-width:2;stroke-linecap:round;stroke-linejoin:round;stroke-miterlimit:4;stroke-dasharray:none;stroke-dashoffset:0;stroke-opacity:1"
         id="rect6686"
         width="21.213203"
         height="20.152544"
         x="526.97131"
         y="94.588287" />
      <rect
         y="99.498718"
         x="532.8913"
         height="63.89035"
         width="62.091362"
         id="rect6688"
         style="fill:#f8d821;fill-opacity:1;stroke:none;stroke-width:2;stroke-linecap:round;stroke-linejoin:round;stroke-miterlimit:4;stroke-dasharray:none;stroke-dashoffset:0;stroke-opacity:1"
         ry="10.141324"
         rx="10.141324" />
      <g
         transform="matrix(1.1106731,0,0,0.90035493,0,-340)"
         style="font-style:normal;font-variant:normal;font-weight:bold;font-stretch:normal;font-size:99.4063px;line-height:125%;font-family:'Liberation Sans';-inkscape-font-specification:'Liberation Sans Bold';letter-spacing:0px;word-spacing:0px;fill:#ffffff;fill-opacity:1;stroke:none;stroke-width:3.4;stroke-linecap:butt;stroke-linejoin:miter;stroke-miterlimit:4;stroke-dasharray:none;stroke-opacity:1"
         id="g6690">
        <path
           sodipodi:nodetypes="scccsccccccscccscsccscccscssccsccccc"
           inkscape:connector-curvature="0"
           id="path6692"
           d="m 536.5604,508.52461 c 0,2.13569 -0.29123,4.0125 -0.87369,5.63044 -0.5501,1.61794 -1.29435,3.07409 -2.23276,4.36844 -0.93841,1.26199 -2.00625,2.41073 -3.20352,3.44621 -1.19728,1.00313 -2.42692,1.95771 -3.68891,2.86376 -1.26199,0.90605 -2.50781,1.79591 -3.73744,2.6696 -1.19728,0.87369 -2.2813,1.81209 -3.25206,2.81521 -0.97077,0.97077 -1.76356,2.05479 -2.37838,3.25207 -0.61481,1.16491 -0.95458,2.52398 -1.0193,4.07721 h -12.9597 c 0.16179,-2.7505 0.74425,-5.09652 1.74737,-7.03805 1.03549,-1.97389 2.2813,-3.6889 3.73745,-5.14505 1.45615,-1.45615 3.00937,-2.7505 4.65967,-3.88306 1.65029,-1.16491 3.17116,-2.34601 4.56259,-3.54329 1.42379,-1.19727 2.5887,-2.49162 3.49475,-3.88305 0.93841,-1.42379 1.40761,-3.10645 1.40761,-5.04798 0,-2.84757 -0.93841,-5.09651 -2.81522,-6.74681 -1.84445,-1.6503 -4.4817,-2.47545 -7.91173,-2.47545 -1.6503,0 -3.17116,0.25887 -4.56259,0.77661 -1.39143,0.48538 -2.62106,1.18109 -3.68891,2.08714 -1.03548,0.90605 -1.89299,2.00625 -2.57252,3.3006 -0.67953,1.29435 -1.11638,2.71814 -1.31053,4.27137 l -13.8334,-0.58246 c 0.38831,-2.87993 1.1811,-5.5819 2.37838,-8.10589 1.22963,-2.52399 2.89611,-4.72438 4.99943,-6.60119 2.10333,-1.87681 4.67585,-3.36532 7.71758,-4.46552 3.07409,-1.1002 6.63356,-1.6503 10.67841,-1.6503 3.88306,0 7.34545,0.45302 10.38718,1.35907 3.04173,0.90605 5.61425,2.21658 7.71758,3.9316 2.13568,1.68265 3.75362,3.73744 4.85382,6.16435 1.13256,2.42691 1.69884,5.14505 1.69884,8.15442 z m -33.34662,52.24353 v -12.41813 h 12.87146 v 12.41813 z"
           style="stroke:#000000;stroke-width:6;stroke-miterlimit:4;stroke-dasharray:none;stroke-opacity:1" />
        <path
           d="m 536.5604,508.52461 c 0,2.13569 -0.29123,4.0125 -0.87369,5.63044 -0.5501,1.61794 -1.29435,3.07409 -2.23276,4.36844 -0.93841,1.26199 -2.00625,2.41073 -3.20352,3.44621 -1.19728,1.00313 -2.42692,1.95771 -3.68891,2.86376 -1.26199,0.90605 -2.50781,1.79591 -3.73744,2.6696 -1.19728,0.87369 -2.2813,1.81209 -3.25206,2.81521 -0.97077,0.97077 -1.76356,2.05479 -2.37838,3.25207 -0.61481,1.16491 -0.95458,2.52398 -1.0193,4.07721 h -12.9597 c 0.16179,-2.7505 0.74425,-5.09652 1.74737,-7.03805 1.03549,-1.97389 2.2813,-3.6889 3.73745,-5.14505 1.45615,-1.45615 3.00937,-2.7505 4.65967,-3.88306 1.65029,-1.16491 3.17116,-2.34601 4.56259,-3.54329 1.42379,-1.19727 2.5887,-2.49162 3.49475,-3.88305 0.93841,-1.42379 1.40761,-3.10645 1.40761,-5.04798 0,-2.84757 -0.93841,-5.09651 -2.81522,-6.74681 -1.84445,-1.6503 -4.4817,-2.47545 -7.91173,-2.47545 -1.6503,0 -3.17116,0.25887 -4.56259,0.77661 -1.39143,0.48538 -2.62106,1.18109 -3.68891,2.08714 -1.03548,0.90605 -1.89299,2.00625 -2.57252,3.3006 -0.67953,1.29435 -1.11638,2.71814 -1.31053,4.27137 l -13.8334,-0.58246 c 0.38831,-2.87993 1.1811,-5.5819 2.37838,-8.10589 1.22963,-2.52399 2.89611,-4.72438 4.99943,-6.60119 2.10333,-1.87681 4.67585,-3.36532 7.71758,-4.46552 3.07409,-1.1002 6.63356,-1.6503 10.67841,-1.6503 3.88306,0 7.34545,0.45302 10.38718,1.35907 3.04173,0.90605 5.61425,2.21658 7.71758,3.9316 2.13568,1.68265 3.75362,3.73744 4.85382,6.16435 1.13256,2.42691 1.69884,5.14505 1.69884,8.15442 z m -33.34662,52.24353 v -12.41813 h 12.87146 v 12.41813 z"
           id="path6694"
           inkscape:connector-curvature="0"
           sodipodi:nodetypes="scccsccccccscccscsccscccscssccsccccc" />
      </g>
      <rect
         y="94.5"
         x="527.5"
         height="80"
         width="80"
         id="rect6696"
         style="fill:none;fill-opacity:1;stroke:#000000;stroke-width:2;stroke-linecap:round;stroke-linejoin:round;stroke-miterlimit:4;stroke-dasharray:none;stroke-dashoffset:0;stroke-opacity:1" />
    </g>
  </g>
  <g
     inkscape:groupmode="layer"
     id="layer13"
     inkscape:label="pointer"
     style="display:none"
     sodipodi:insensitive="true">
    <path
       sodipodi:nodetypes="cc"
       inkscape:connector-curvature="0"
       id="path4215-9"
       d="M 746.39036,269.51439 912.62261,470.41622"
       style="fill:none;fill-opacity:1;fill-rule:evenodd;stroke:#ffffff;stroke-width:19.433;stroke-linecap:butt;stroke-linejoin:miter;stroke-miterlimit:4;stroke-dasharray:none;stroke-dashoffset:0;stroke-opacity:1;marker-start:url(#marker7183-3);marker-end:url(#marker15926-5)"
       inkscape:label="path4215-9" />
  </g>
  <g
     inkscape:groupmode="layer"
     id="g28949"
     inkscape:label="pointer_flip_intend"
     style="display:none"
     sodipodi:insensitive="true">
    <path
       style="display:inline;fill:none;fill-opacity:1;fill-rule:evenodd;stroke:#575757;stroke-width:19.433;stroke-linecap:butt;stroke-linejoin:miter;stroke-miterlimit:4;stroke-dasharray:none;stroke-opacity:1;marker-end:url(#marker4477)"
       d="M 743.56966,271.80451 528.43727,487.32769"
       id="path12684-1"
       inkscape:connector-curvature="0"
       sodipodi:nodetypes="cc" />
    <path
       sodipodi:nodetypes="cc"
       inkscape:connector-curvature="0"
       id="path28947"
       d="M 746.39036,269.51439 912.62261,470.41622"
       style="fill:none;fill-opacity:1;fill-rule:evenodd;stroke:#ffffff;stroke-width:19.433;stroke-linecap:butt;stroke-linejoin:miter;stroke-miterlimit:4;stroke-dasharray:none;stroke-dashoffset:0;stroke-opacity:1;marker-start:url(#marker7183-3);marker-end:url(#marker15926-5)"
       inkscape:label="path4215-9" />
    <path
       sodipodi:nodetypes="cc"
       inkscape:connector-curvature="0"
       id="path15924-9"
       d="m 845.59058,466.13005 c -57.08145,91.94504 -165.57371,67.95296 -206.66907,3.03998"
       style="display:inline;fill:none;fill-rule:evenodd;stroke:#ffffff;stroke-width:8.0969;stroke-linecap:butt;stroke-linejoin:miter;stroke-miterlimit:4;stroke-dasharray:none;stroke-opacity:1;marker-end:url(#marker15926-5-3)" />
  </g>
  <g
     inkscape:groupmode="layer"
     id="layer14"
     inkscape:label="pointer_flip"
     style="display:inline"
     sodipodi:insensitive="true">
    <g
       id="g21560"
       style="display:inline">
      <g
         id="g6897"
         transform="matrix(-1.6193796,0,0,-1.6193796,1227.1978,-660.77071)">
        <path
           sodipodi:nodetypes="cc"
           inkscape:connector-curvature="0"
           id="path4215"
           d="M 296.90842,-574.47006 194.25661,-698.53105"
           style="fill:none;fill-rule:evenodd;stroke:#575757;stroke-width:12;stroke-linecap:butt;stroke-linejoin:miter;stroke-miterlimit:4;stroke-dasharray:none;stroke-dashoffset:0;stroke-opacity:1;marker-end:url(#marker4477)" />
        <path
           style="fill:none;fill-rule:evenodd;stroke:#ffffff;stroke-width:12;stroke-linecap:butt;stroke-linejoin:miter;stroke-miterlimit:4;stroke-dasharray:none;stroke-opacity:1;marker-start:url(#marker7183-3);marker-end:url(#marker12686)"
           d="M 298.65026,-575.88426 431.49891,-708.97423"
           id="path12684"
           inkscape:connector-curvature="0"
           sodipodi:nodetypes="cc" />
        <path
           sodipodi:nodetypes="cc"
           inkscape:connector-curvature="0"
           id="path15924"
           d="m 235.65026,-695.88425 c 35.24896,-56.77794 102.24515,-41.96234 127.62237,-1.87725"
           style="fill:none;fill-rule:evenodd;stroke:#ffffff;stroke-width:5;stroke-linecap:butt;stroke-linejoin:miter;stroke-miterlimit:4;stroke-dasharray:none;stroke-opacity:1;marker-end:url(#marker15926-5)" />
      </g>
      <rect
         style="fill:#000000;fill-opacity:1;stroke:none;stroke-width:19.433;stroke-linecap:round;stroke-linejoin:round;stroke-miterlimit:4;stroke-dasharray:none;stroke-dashoffset:0;stroke-opacity:1"
         id="rect5239"
         width="112"
         height="94"
         x="62.238884"
         y="780.02142"
         transform="rotate(-66.09718)" />
      <path
         sodipodi:nodetypes="cccccccccc"
         inkscape:connector-curvature="0"
         id="path4893"
         d="m 812.92217,140.7878 -17.2833,31.16794 -42.41541,76.49094 38.63503,21.42334 21.42492,-38.63746 173.20804,96.04626 14.92425,-26.9145 -173.20786,-96.0462 23.34873,-42.10656 z"
         style="fill:#ff1616;fill-opacity:1;stroke:none;stroke-width:3.3;stroke-linecap:round;stroke-linejoin:round;stroke-miterlimit:4;stroke-dasharray:none;stroke-dashoffset:0;stroke-opacity:1" />
    </g>
  </g>
  <g
     inkscape:groupmode="layer"
     id="layer15"
     inkscape:label="array_data_text"
     sodipodi:insensitive="true"
     style="display:none">
    <text
       id="text6846-4"
       y="601.0824"
       x="692.29028"
       style="font-style:normal;font-variant:normal;font-weight:bold;font-stretch:normal;line-height:0%;font-family:'Bitstream Vera Sans Mono';-inkscape-font-specification:'Bitstream Vera Sans Mono Bold';text-align:center;letter-spacing:0px;word-spacing:0px;writing-mode:lr-tb;text-anchor:middle;fill:#000000;fill-opacity:1;stroke:none"
       xml:space="preserve"><tspan
         id="tspan6848-7"
         y="601.0824"
         x="692.29028"
         sodipodi:role="line"
         style="font-size:60px;line-height:1.25">array</tspan><tspan
         y="676.0824"
         x="692.29028"
         sodipodi:role="line"
         id="tspan6850-8"
         style="font-size:60px;line-height:1.25">data</tspan></text>
  </g>
  <g
     inkscape:groupmode="layer"
     id="layer1"
     inkscape:label="title"
     sodipodi:insensitive="true">
    <text
       xml:space="preserve"
       style="font-style:normal;font-variant:normal;font-weight:bold;font-stretch:normal;line-height:0%;font-family:'Bitstream Vera Sans Mono';-inkscape-font-specification:'Bitstream Vera Sans Mono Bold';text-align:center;letter-spacing:0px;word-spacing:0px;writing-mode:lr-tb;text-anchor:middle;fill:#ffffff;fill-opacity:1;stroke:none"
       x="920"
       y="96"
       id="text6208"><tspan
         sodipodi:role="line"
         x="920"
         y="96"
         id="tspan3009"
         style="font-size:70px;line-height:1.25">pointer pivotting</tspan></text>
    <g
       id="g4303" />
  </g>
</svg>
