<?xml version="1.0" encoding="UTF-8" standalone="no"?>
<!-- Created with Inkscape (http://www.inkscape.org/) -->

<svg
   width="1920"
   height="1080"
   id="svg2"
   version="1.1"
   inkscape:version="1.2.2 (b0a8486541, 2022-12-01)"
   sodipodi:docname="pointerwarning.svg"
   xmlns:inkscape="http://www.inkscape.org/namespaces/inkscape"
   xmlns:sodipodi="http://sodipodi.sourceforge.net/DTD/sodipodi-0.dtd"
   xmlns="http://www.w3.org/2000/svg"
   xmlns:svg="http://www.w3.org/2000/svg"
   xmlns:rdf="http://www.w3.org/1999/02/22-rdf-syntax-ns#"
   xmlns:cc="http://creativecommons.org/ns#"
   xmlns:dc="http://purl.org/dc/elements/1.1/">
  <defs
     id="defs4">
    <marker
       inkscape:stockid="DotM"
       orient="auto"
       refY="0.0"
       refX="0.0"
       id="marker7183"
       style="overflow:visible"
       inkscape:isstock="true">
      <path
         id="path7185"
         d="M -2.5,-1.0 C -2.5,1.7600000 -4.7400000,4.0 -7.5,4.0 C -10.260000,4.0 -12.5,1.7600000 -12.5,-1.0 C -12.5,-3.7600000 -10.260000,-6.0 -7.5,-6.0 C -4.7400000,-6.0 -2.5,-3.7600000 -2.5,-1.0 z "
         style="fill-rule:evenodd;stroke:#ffffff;stroke-width:1pt;stroke-opacity:1;fill:#ffffff;fill-opacity:1"
         transform="scale(0.4) translate(7.4, 1)" />
    </marker>
    <marker
       style="overflow:visible"
       inkscape:stockid="InfiniteLineStart"
       id="InfiniteLineStart"
       refX="0"
       refY="0"
       orient="auto"
       inkscape:isstock="true">
      <g
         id="g7152"
         style="fill:#ffffff;stroke:#ffffff;stroke-opacity:1;fill-opacity:1"
         transform="translate(-13,0)">
        <circle
           id="circle7154"
           r="0.8"
           cy="0"
           cx="3"
           style="stroke:#ffffff;stroke-opacity:1;fill:#ffffff;fill-opacity:1" />
        <circle
           id="circle7156"
           r="0.8"
           cy="0"
           cx="6.5"
           style="stroke:#ffffff;stroke-opacity:1;fill:#ffffff;fill-opacity:1" />
        <circle
           id="circle7158"
           r="0.8"
           cy="0"
           cx="10"
           style="stroke:#ffffff;stroke-opacity:1;fill:#ffffff;fill-opacity:1" />
      </g>
    </marker>
    <marker
       inkscape:stockid="DotM"
       orient="auto"
       refY="0.0"
       refX="0.0"
       id="DotM"
       style="overflow:visible"
       inkscape:isstock="true">
      <path
         id="path6972"
         d="M -2.5,-1.0 C -2.5,1.7600000 -4.7400000,4.0 -7.5,4.0 C -10.260000,4.0 -12.5,1.7600000 -12.5,-1.0 C -12.5,-3.7600000 -10.260000,-6.0 -7.5,-6.0 C -4.7400000,-6.0 -2.5,-3.7600000 -2.5,-1.0 z "
         style="fill-rule:evenodd;stroke:#ffffff;stroke-width:1pt;stroke-opacity:1;fill:#ffffff;fill-opacity:1"
         transform="scale(0.4) translate(7.4, 1)" />
    </marker>
    <marker
       inkscape:stockid="DotL"
       orient="auto"
       refY="0.0"
       refX="0.0"
       id="DotL"
       style="overflow:visible"
       inkscape:isstock="true">
      <path
         id="path6969"
         d="M -2.5,-1.0 C -2.5,1.7600000 -4.7400000,4.0 -7.5,4.0 C -10.260000,4.0 -12.5,1.7600000 -12.5,-1.0 C -12.5,-3.7600000 -10.260000,-6.0 -7.5,-6.0 C -4.7400000,-6.0 -2.5,-3.7600000 -2.5,-1.0 z "
         style="fill-rule:evenodd;stroke:#ffffff;stroke-width:1pt;stroke-opacity:1;fill:#ffffff;fill-opacity:1"
         transform="scale(0.8) translate(7.4, 1)" />
    </marker>
    <marker
       inkscape:stockid="TriangleOutM"
       orient="auto"
       refY="0.0"
       refX="0.0"
       id="TriangleOutM"
       style="overflow:visible"
       inkscape:isstock="true">
      <path
         id="path4953"
         d="M 5.77,0.0 L -2.88,5.0 L -2.88,-5.0 L 5.77,0.0 z "
         style="fill-rule:evenodd;stroke:#885818;stroke-width:1pt;stroke-opacity:1;fill:#885818;fill-opacity:1"
         transform="scale(0.4)" />
    </marker>
    <marker
       inkscape:stockid="TriangleOutL"
       orient="auto"
       refY="0.0"
       refX="0.0"
       id="TriangleOutL"
       style="overflow:visible"
       inkscape:isstock="true">
      <path
         id="path4950"
         d="M 5.77,0.0 L -2.88,5.0 L -2.88,-5.0 L 5.77,0.0 z "
         style="fill-rule:evenodd;stroke:#ffffff;stroke-width:1pt;stroke-opacity:1;fill:#ffffff;fill-opacity:1"
         transform="scale(0.8)" />
    </marker>
    <linearGradient
       id="linearGradient7793-2">
      <stop
         style="stop-color:#ffffff;stop-opacity:1"
         offset="0"
         id="stop4640" />
      <stop
         id="stop4646"
         offset="0.5"
         style="stop-color:#f8d821;stop-opacity:1" />
      <stop
         id="stop4642"
         offset="1"
         style="stop-color:#885818;stop-opacity:1" />
    </linearGradient>
    <linearGradient
       id="linearGradient7793">
      <stop
         id="stop4630"
         offset="0"
         style="stop-color:#ffffff;stop-opacity:1;" />
      <stop
         style="stop-color:#ffffff;stop-opacity:0.28858522;"
         offset="0.5"
         id="stop4632" />
      <stop
         id="stop4634"
         offset="1"
         style="stop-color:#ffffff;stop-opacity:0;" />
    </linearGradient>
    <linearGradient
       id="linearGradient4636">
      <stop
         style="stop-color:#ffffff;stop-opacity:1;"
         offset="0"
         id="stop7795" />
      <stop
         id="stop7803"
         offset="0.5"
         style="stop-color:#ffffff;stop-opacity:0.28858522;" />
      <stop
         style="stop-color:#ffffff;stop-opacity:0;"
         offset="1"
         id="stop7797" />
    </linearGradient>
    <marker
       inkscape:stockid="TriangleOutM"
       orient="auto"
       refY="0"
       refX="0"
       id="marker15926"
       style="overflow:visible"
       inkscape:isstock="true">
      <path
         inkscape:connector-curvature="0"
         id="path15928"
         d="m 5.77,0 -8.65,5 0,-10 8.65,5 z"
         style="fill:#ffffff;fill-opacity:1;fill-rule:evenodd;stroke:#ffffff;stroke-width:1pt;stroke-opacity:1"
         transform="scale(0.4,0.4)" />
    </marker>
    <marker
       inkscape:stockid="TriangleOutM"
       orient="auto"
       refY="0"
       refX="0"
       id="marker15926-6"
       style="overflow:visible"
       inkscape:isstock="true">
      <path
         inkscape:connector-curvature="0"
         id="path15928-0"
         d="m 5.77,0 -8.65,5 0,-10 8.65,5 z"
         style="fill:#ffffff;fill-opacity:1;fill-rule:evenodd;stroke:#ffffff;stroke-width:1pt;stroke-opacity:1"
         transform="scale(0.4,0.4)" />
    </marker>
  </defs>
  <sodipodi:namedview
     id="base"
     pagecolor="#ffffff"
     bordercolor="#666666"
     borderopacity="1.0"
     inkscape:pageopacity="0.0"
     inkscape:pageshadow="2"
     inkscape:zoom="0.35355339"
     inkscape:cx="623.66818"
     inkscape:cy="787.71696"
     inkscape:document-units="px"
     inkscape:current-layer="layer1"
     showgrid="false"
     inkscape:window-width="1918"
     inkscape:window-height="1182"
     inkscape:window-x="1"
     inkscape:window-y="17"
     inkscape:window-maximized="0"
     inkscape:showpageshadow="2"
     inkscape:pagecheckerboard="0"
     inkscape:deskcolor="#d1d1d1" />
  <metadata
     id="metadata7">
    <rdf:RDF>
      <cc:Work
         rdf:about="">
        <dc:format>image/svg+xml</dc:format>
        <dc:type
           rdf:resource="http://purl.org/dc/dcmitype/StillImage" />
        <dc:title />
      </cc:Work>
    </rdf:RDF>
  </metadata>
  <g
     inkscape:groupmode="layer"
     id="layer2"
     inkscape:label="back"
     transform="translate(0,312)"
     sodipodi:insensitive="true">
    <rect
       style="fill:#000000;fill-opacity:1;stroke:none"
       id="rect5418"
       width="1920"
       height="1080"
       x="0"
       y="-312" />
  </g>
  <g
     inkscape:groupmode="layer"
     id="layer1"
     inkscape:label="title">
    <g
       id="g4303" />
    <flowRoot
       xml:space="preserve"
       id="flowRoot6420"
       style="font-style:normal;font-weight:normal;line-height:0.01%;font-family:sans-serif;letter-spacing:0px;word-spacing:0px;fill:#000000;fill-opacity:1;stroke:none;stroke-width:1px;stroke-linecap:butt;stroke-linejoin:miter;stroke-opacity:1"><flowRegion
         id="flowRegion6422"
         style="font-family:sans-serif"><rect
           id="rect6424"
           width="1934.6442"
           height="186.67619"
           x="-96.166519"
           y="129.64848" /></flowRegion><flowPara
         id="flowPara6426"
         style="font-size:40px;line-height:1.25;font-family:sans-serif"> </flowPara></flowRoot>
    <path
       style="color:#000000;font-style:normal;font-variant:normal;font-weight:normal;font-stretch:normal;font-size:medium;line-height:normal;font-family:Sans;-inkscape-font-specification:Sans;text-indent:0;text-align:start;text-decoration:none;text-decoration-line:none;letter-spacing:normal;word-spacing:normal;text-transform:none;direction:ltr;block-progression:tb;writing-mode:lr-tb;baseline-shift:baseline;text-anchor:start;display:inline;overflow:visible;visibility:visible;fill:#ffff00;fill-opacity:1;stroke:none;stroke-width:18.89955902;marker:none;enable-background:accumulate"
       d="m 56.267305,152.28563 23.52429,0 46.893295,0 23.5243,0 0,-46.9709 -23.5243,0 -46.893295,0 -23.52429,0 z m 187.806145,0 23.5243,0 46.97093,0 23.44665,0 0,-46.9709 -23.44665,0 -46.97093,0 -23.5243,0 z m 187.88379,0 23.44665,0 46.97093,0 23.44666,0 0,-46.9709 -23.44666,0 -46.97093,0 -23.44665,0 z m 187.80614,0 23.44663,0 46.97096,0 23.44665,0 0,-46.9709 -23.44665,0 -46.97096,0 -23.44663,0 z m 187.80615,0 23.44663,0 46.97095,0 23.44666,0 0,-46.9709 -23.44666,0 -46.97095,0 -23.44663,0 z m 187.80615,0 23.44662,0 46.971,0 23.5243,0 0,-46.9709 -23.5243,0 -46.971,0 -23.44662,0 z m 187.80612,0 23.5243,0 46.8933,0 23.5243,0 0,-46.9709 -23.5243,0 -46.8933,0 -23.5243,0 z m 187.8062,0 23.5242,0 46.8934,0 23.5243,0 0,-46.9709 -23.5243,0 -46.8934,0 -23.5242,0 z m 187.8061,0 23.5243,0 46.9709,0 23.4467,0 0,-46.9709 -23.4467,0 -46.9709,0 -23.5243,0 z m 187.8838,0 23.4466,0 46.971,0 23.4466,0 0,-46.9709 -23.4466,0 -46.971,0 -23.4466,0 z m -1690.410595,60.7905 0,46.971 0,23.4466 46.970945,0 0,-23.4466 0,-46.971 0,-23.5243 -46.970945,0 z m 1769.445995,24.5336 0,46.971 0,23.4466 46.8933,0 0,-23.4466 0,-46.971 0,-23.4466 -46.8933,0 z m -1769.445995,163.2726 0,46.97093 0,23.44665 46.970945,0 0,-23.44665 0,-46.97093 0,-23.4467 -46.970945,0 z m 1769.445995,24.5336 0,46.97092 0,23.44663 46.8933,0 0,-23.44663 0,-46.97092 0,-23.4467 -46.8933,0 z M 56.267305,588.68845 l 0,46.97095 0,23.44666 46.970945,0 0,-23.44666 0,-46.97095 0,-23.44666 -46.970945,0 z m 1769.445995,24.53359 0,46.97095 0,23.44663 46.8933,0 0,-23.44663 0,-46.97095 0,-23.44666 -46.8933,0 z M 56.267305,776.49459 l 0,46.97095 0,23.44676 46.970945,0 0,-23.44676 0,-46.97095 0,-23.44665 -46.970945,0 z m 1769.445995,24.53359 0,46.97108 0,23.52432 46.8933,0 0,-23.52432 0,-46.97108 0,-23.44665 -46.8933,0 z M 60.071565,984.0207 l 23.44665,0 46.970945,0 23.44665,0 0,-46.97088 -23.44665,0 -46.970945,0 -23.44665,0 z m 187.806125,0 23.44666,0 46.97095,0 23.5243,0 0,-46.97088 -23.5243,0 -46.97095,0 -23.44666,0 z m 187.80615,0 23.52429,0 46.89332,0 23.52429,0 0,-46.97088 -23.52429,0 -46.89332,0 -23.52429,0 z m 187.80614,0 23.5243,0 46.89331,0 23.5243,0 0,-46.97088 -23.5243,0 -46.89331,0 -23.5243,0 z m 187.80615,0 23.52429,0 46.97095,0 23.44666,0 0,-46.97088 -23.44666,0 -46.97095,0 -23.52429,0 z m 187.88375,0 23.44672,0 46.9709,0 23.4467,0 0,-46.97088 -23.4467,0 -46.9709,0 -23.44672,0 z m 187.80622,0 23.4466,0 46.971,0 23.4466,0 0,-46.97088 -23.4466,0 -46.971,0 -23.4466,0 z m 187.8061,0 23.4467,0 46.9709,0 23.4467,0 0,-46.97088 -23.4467,0 -46.9709,0 -23.4467,0 z m 187.8062,0 23.4466,0 46.971,0 23.5243,0 0,-46.97088 -23.5243,0 -46.971,0 -23.4466,0 z m 187.8061,0 23.5243,0 46.8933,0 23.5243,0 0,-46.97088 -23.5243,0 -46.8933,0 -23.5243,0 z"
       id="rect3004"
       inkscape:connector-curvature="0" />
    <path
       inkscape:connector-curvature="0"
       d="m 529.62488,319.29213 22.59444,67.2974 26.72457,0 14.57705,-117.3453 c 7.28851,-1.2147 11.4187,-5.5878 11.4187,-12.1475 0,-3.8872 -1.94362,-7.5315 -4.85902,-9.961 -2.42952,-1.7006 -4.61609,-2.1865 -11.17574,-2.1865 l -31.82655,0 c -6.31672,0 -8.01739,0.2429 -10.20393,1.7006 -3.64426,2.1866 -5.83083,6.3167 -5.83083,10.4469 0,3.8872 1.94362,7.5315 5.10197,9.961 2.18655,1.7006 4.85902,2.1865 10.93279,2.1865 l 12.87639,0 -8.50327,66.0826 -18.46428,-54.9068 -25.26687,0 -18.46428,54.9068 -8.74622,-66.0826 11.66165,0 c 5.8308,0 8.26032,-0.4859 10.44688,-1.7006 3.64426,-2.1866 5.83083,-6.3168 5.83083,-10.4469 0,-3.8872 -1.94362,-7.5315 -5.10197,-9.961 -2.42952,-1.7006 -4.37314,-2.1865 -11.17574,-2.1865 l -31.82657,0 c -6.31671,0 -8.01737,0.2429 -10.20391,1.7006 -3.64428,2.4295 -5.83083,6.3167 -5.83083,10.9328 0,6.8026 3.88721,10.6898 11.17572,11.6616 l 15.06295,117.3453 26.96756,0 22.10851,-67.2974"
       style="font-style:normal;font-variant:normal;font-weight:bold;font-stretch:normal;font-size:101.22949982px;line-height:125%;font-family:'Nimbus Mono L';-inkscape-font-specification:'Nimbus Mono L Bold';text-align:start;letter-spacing:0px;word-spacing:0px;text-anchor:start;fill:#fc0000;fill-opacity:1;stroke:none"
       id="path5529" />
    <path
       inkscape:connector-curvature="0"
       d="m 703.48275,348.20333 5.58787,14.0911 -5.58787,0 c -6.3167,0 -8.01737,0.243 -10.20394,1.7006 -3.64425,2.1866 -5.8308,6.3168 -5.8308,10.4469 0,3.8872 1.9436,7.5315 5.10197,9.7181 2.18655,1.7006 5.10197,2.4295 10.93277,2.4295 l 33.77016,0 c 5.10197,0 8.26034,-0.4859 10.20394,-1.7007 3.64425,-2.1865 5.83082,-6.3167 5.83082,-10.4469 0,-3.8872 -1.94362,-7.5314 -5.10197,-9.718 -2.42949,-1.9436 -4.61606,-2.4295 -11.41869,-2.4295 l -48.34721,-117.3452 -52.47737,0 c -6.55966,0 -8.26032,0.2429 -10.44689,1.7006 -3.64425,2.4295 -5.8308,6.3167 -5.8308,10.4469 0,3.8872 1.94359,7.5315 5.10195,9.961 2.42952,1.7006 4.85904,2.1865 11.17574,2.1865 l 15.3059,0 -37.65736,93.0502 c -6.07378,0 -8.26035,0.243 -10.44689,1.7006 -3.64426,2.1866 -5.83083,6.3168 -5.83083,10.4469 0,8.0174 5.34492,12.1476 16.03476,12.1476 l 32.31245,0 c 5.10197,0 8.26035,-0.4859 10.20394,-1.7007 3.64425,-2.1865 5.83082,-6.3167 5.83082,-10.4469 0,-3.8872 -1.94361,-7.5314 -5.10197,-9.961 -2.42949,-1.7006 -4.37311,-2.1865 -10.93279,-2.1865 l -5.58787,0 5.58787,-14.0911 57.82229,0 m -9.96098,-24.2951 -38.14328,0 19.19312,-46.6466 18.95016,46.6466"
       style="font-style:normal;font-variant:normal;font-weight:bold;font-stretch:normal;font-size:101.22949982px;line-height:125%;font-family:'Nimbus Mono L';-inkscape-font-specification:'Nimbus Mono L Bold';text-align:start;letter-spacing:0px;word-spacing:0px;text-anchor:start;fill:#fc0000;fill-opacity:1;stroke:none"
       id="path5531" />
    <path
       inkscape:connector-curvature="0"
       d="m 795.22325,332.65443 23.32328,0 c 10.20393,3.6443 32.55542,30.3689 44.70295,53.9351 l 19.19311,0 c 4.85902,0 8.5033,-0.7289 10.20394,-1.7007 3.64425,-2.1865 5.83082,-6.3167 5.83082,-10.4469 0,-3.8872 -1.94362,-7.7744 -4.85902,-9.961 -2.42949,-1.7006 -5.10196,-2.1865 -11.17574,-2.1865 l -3.15835,0 c -10.20394,-16.2777 -19.19314,-27.4535 -30.61181,-37.4144 17.7354,-9.718 26.2387,-21.3797 26.2387,-36.6856 0,-25.5098 -21.86561,-43.2452 -53.44918,-43.2452 l -54.17803,0 c -6.31671,0 -8.01737,0.2429 -10.20394,1.7006 -3.64425,2.1866 -5.83082,6.3167 -5.83082,10.4469 0,3.8872 1.94361,7.5315 5.10197,9.961 2.18656,1.7006 4.85901,2.1865 10.93279,2.1865 l 3.64425,0 0,93.0502 -3.64425,0 c -5.83083,0 -8.01737,0.243 -10.20394,1.7006 -3.64425,2.1866 -5.83082,6.3168 -5.83082,10.4469 0,3.6443 1.94361,7.5315 5.10197,9.7181 1.94361,1.7006 5.34492,2.4295 10.93279,2.4295 l 36.44261,0 c 4.85901,0 8.50329,-0.7289 10.20393,-1.7007 3.64426,-2.1865 5.83083,-6.3167 5.83083,-10.4469 0,-3.8872 -1.94362,-7.5314 -4.85902,-9.961 -2.4295,-1.7006 -4.61606,-2.1865 -11.17574,-2.1865 l -8.50328,0 0,-29.64 m 0,-24.2951 0,-39.1151 27.21051,0 c 15.54883,0 26.72457,7.7745 26.72457,18.2213 0,12.1476 -15.06297,20.8938 -35.47082,20.8938 l -18.46426,0"
       style="font-style:normal;font-variant:normal;font-weight:bold;font-stretch:normal;font-size:101.22949982px;line-height:125%;font-family:'Nimbus Mono L';-inkscape-font-specification:'Nimbus Mono L Bold';text-align:start;letter-spacing:0px;word-spacing:0px;text-anchor:start;fill:#fc0000;fill-opacity:1;stroke:none"
       id="path5533" />
    <path
       inkscape:connector-curvature="0"
       d="m 935.79689,290.86683 62.92429,95.7227 24.05212,0 0,-117.3453 c 9.718,0 14.82,-4.3731 14.82,-12.1475 0,-3.8872 -1.9436,-7.5315 -5.102,-9.961 -2.4295,-1.7006 -4.3731,-2.1865 -10.9328,-2.1865 l -31.58362,0 c -6.3167,0 -8.0173,0.2429 -10.2039,1.7006 -3.6442,2.1866 -5.8308,6.3167 -5.8308,10.4469 0,3.8872 1.9436,7.5315 5.102,9.961 2.1865,1.7006 4.859,2.1865 10.9327,2.1865 l 8.5033,0 0,70.9417 -62.68129,-95.2367 -27.93933,0 c -6.31673,0 -8.01739,0.2429 -10.20394,1.7006 -3.64425,2.1866 -5.83082,6.3167 -5.83082,10.4469 0,3.8872 1.94361,7.5315 5.10197,9.961 2.18654,1.7006 4.85901,2.1865 10.93279,2.1865 l 3.64425,0 0,93.0502 c -9.47508,0 -14.82,4.3731 -14.82,12.1475 0,3.8872 1.94362,7.5315 5.10197,9.7181 2.18655,1.7006 5.34492,2.4295 11.17575,2.4295 l 31.34064,0 c 4.85901,0 8.50331,-0.7289 10.20391,-1.7007 3.6443,-2.4295 5.8308,-6.3167 5.8308,-10.4469 0,-3.8872 -1.7006,-7.5314 -4.859,-9.961 -2.4295,-1.7006 -4.6161,-2.1865 -11.17571,-2.1865 l -8.50328,0 0,-71.4276"
       style="font-style:normal;font-variant:normal;font-weight:bold;font-stretch:normal;font-size:101.22949982px;line-height:125%;font-family:'Nimbus Mono L';-inkscape-font-specification:'Nimbus Mono L Bold';text-align:start;letter-spacing:0px;word-spacing:0px;text-anchor:start;fill:#fc0000;fill-opacity:1;stroke:none"
       id="path5535" />
    <path
       inkscape:connector-curvature="0"
       d="m 1124.4748,269.24423 24.538,0 c 5.5879,0 8.2603,-0.4859 10.2039,-1.7006 3.6443,-2.1866 5.8309,-6.3168 5.8309,-10.4469 0,-3.8872 -1.7007,-7.5315 -5.102,-9.961 -2.4295,-1.7006 -4.3732,-2.1865 -10.9328,-2.1865 l -73.3712,0 c -6.3167,0 -8.0173,0.2429 -10.2039,1.7006 -3.6442,2.1866 -5.8308,6.3167 -5.8308,10.4469 0,3.8872 1.9436,7.5315 5.102,9.961 2.1865,1.7006 4.859,2.1865 10.9327,2.1865 l 24.5381,0 0,93.0502 -24.5381,0 c -6.3167,0 -8.0173,0.243 -10.2039,1.7006 -3.6442,2.1866 -5.8308,6.3168 -5.8308,10.4469 0,3.6443 1.9436,7.5315 5.102,9.7181 2.1865,1.7006 5.1019,2.4295 10.9327,2.4295 l 73.3712,0 c 10.6898,0 16.0348,-4.1302 16.0348,-12.1476 0,-3.8872 -1.7007,-7.5314 -5.102,-9.961 -2.4295,-1.7006 -4.3732,-2.1865 -10.9328,-2.1865 l -24.538,0 0,-93.0502"
       style="font-style:normal;font-variant:normal;font-weight:bold;font-stretch:normal;font-size:101.22949982px;line-height:125%;font-family:'Nimbus Mono L';-inkscape-font-specification:'Nimbus Mono L Bold';text-align:start;letter-spacing:0px;word-spacing:0px;text-anchor:start;fill:#fc0000;fill-opacity:1;stroke:none"
       id="path5537" />
    <path
       inkscape:connector-curvature="0"
       d="m 1227.148,290.86683 62.9243,95.7227 24.0521,0 0,-117.3453 c 9.718,0 14.82,-4.3731 14.82,-12.1475 0,-3.8872 -1.9436,-7.5315 -5.102,-9.961 -2.4294,-1.7006 -4.3731,-2.1865 -10.9327,-2.1865 l -31.5836,0 c -6.3168,0 -8.0174,0.2429 -10.204,1.7006 -3.6442,2.1866 -5.8308,6.3167 -5.8308,10.4469 0,3.8872 1.9436,7.5315 5.102,9.961 2.1865,1.7006 4.859,2.1865 10.9328,2.1865 l 8.5032,0 0,70.9417 -62.6813,-95.2367 -27.9393,0 c -6.3167,0 -8.0174,0.2429 -10.2039,1.7006 -3.6443,2.1866 -5.8309,6.3167 -5.8309,10.4469 0,3.8872 1.9437,7.5315 5.102,9.961 2.1865,1.7006 4.859,2.1865 10.9328,2.1865 l 3.6443,0 0,93.0502 c -9.4751,0 -14.82,4.3731 -14.82,12.1475 0,3.8872 1.9436,7.5315 5.1019,9.7181 2.1866,1.7006 5.3449,2.4295 11.1758,2.4295 l 31.3406,0 c 4.859,0 8.5033,-0.7289 10.2039,-1.7007 3.6443,-2.4295 5.8309,-6.3167 5.8309,-10.4469 0,-3.8872 -1.7007,-7.5314 -4.8591,-9.961 -2.4294,-1.7006 -4.616,-2.1865 -11.1757,-2.1865 l -8.5033,0 0,-71.4276"
       style="font-style:normal;font-variant:normal;font-weight:bold;font-stretch:normal;font-size:101.22949982px;line-height:125%;font-family:'Nimbus Mono L';-inkscape-font-specification:'Nimbus Mono L Bold';text-align:start;letter-spacing:0px;word-spacing:0px;text-anchor:start;fill:#fc0000;fill-opacity:1;stroke:none"
       id="path5539" />
    <path
       inkscape:connector-curvature="0"
       d="m 1464.4161,342.85833 c 6.8026,-1.9436 10.2039,-6.0737 10.2039,-12.1475 0,-3.8872 -1.7006,-7.5315 -5.1019,-9.961 -2.4295,-1.7006 -4.6161,-2.1865 -11.1758,-2.1865 l -42.5163,0 c -6.0738,0 -8.0174,0.2429 -10.204,1.7006 -3.6442,2.1866 -5.8308,6.3167 -5.8308,10.4469 0,3.8872 1.9436,7.5315 5.102,9.718 2.1865,1.9436 4.859,2.4295 10.9328,2.4295 l 24.295,0 0,16.7636 c -9.2321,4.1302 -18.7072,6.0738 -30.3688,6.0738 -15.3059,0 -27.4535,-3.6443 -35.7138,-10.6898 -7.5314,-6.3167 -10.9328,-15.7918 -10.9328,-29.883 l 0,-15.5488 c 0,-12.1475 4.859,-24.2951 12.8764,-32.3125 7.5315,-7.5315 18.4643,-11.4187 32.0695,-11.4187 17.7354,0 29.883,5.345 32.3125,13.8482 1.9436,7.5315 1.9436,7.5315 3.4013,9.2322 1.9436,2.1865 5.3449,3.6442 8.5033,3.6442 3.8872,0 7.5314,-1.9436 9.961,-5.102 1.9436,-2.4295 2.1865,-4.1301 2.1865,-10.9327 l 0,-18.9502 c 0,-5.8308 -0.2429,-7.7744 -1.7006,-10.2039 -1.7007,-3.6443 -5.5879,-5.8308 -9.7181,-5.8308 -4.616,0 -7.0455,1.9435 -9.9609,7.7744 -10.204,-5.102 -22.1086,-7.7744 -35.2279,-7.7744 -19.922,0 -35.7138,6.0737 -48.5902,18.7072 -12.8764,12.8763 -20.4078,30.8547 -20.4078,49.319 l 0,17.2495 c 0,17.0065 6.0737,33.5272 16.0347,43.9741 11.9046,12.1475 32.5554,19.1931 56.3646,19.1931 18.9501,0 31.5836,-3.6443 53.2062,-15.063 l 0,-32.0695"
       style="font-style:normal;font-variant:normal;font-weight:bold;font-stretch:normal;font-size:101.22949982px;line-height:125%;font-family:'Nimbus Mono L';-inkscape-font-specification:'Nimbus Mono L Bold';text-align:start;letter-spacing:0px;word-spacing:0px;text-anchor:start;fill:#fc0000;fill-opacity:1;stroke:none"
       id="path5541" />
    <g
       transform="matrix(2.4,0,0,2.4,-6.1755505,-1563.4018)"
       style="font-style:normal;font-variant:normal;font-weight:bold;font-stretch:normal;font-size:54.46775055px;line-height:125%;font-family:'Nimbus Mono L';-inkscape-font-specification:'Nimbus Mono L Bold';text-align:center;letter-spacing:0px;word-spacing:0px;writing-mode:lr-tb;text-anchor:middle;fill:#ffffff;fill-opacity:1;stroke:none"
       id="text3998">
      <path
         inkscape:connector-curvature="0"
         d="m 147.05859,836.55737 5.93698,0 0,5.0655 c 0,1.25276 0.10894,1.79744 0.38128,2.28765 0.49021,0.76255 1.41616,1.30722 2.34211,1.30722 0.87148,0 1.6885,-0.43574 2.23318,-1.14382 0.43574,-0.54468 0.49021,-0.92595 0.49021,-2.45105 l 0,-10.51227 -28.10536,0 0,10.51227 c 0,1.25276 0.10894,1.79744 0.38127,2.28765 0.49021,0.81701 1.41617,1.30722 2.34212,1.30722 0.87148,0 1.6885,-0.43574 2.23318,-1.14382 0.38127,-0.54468 0.4902,-0.98042 0.4902,-2.45105 l 0,-5.0655 5.82805,0 0,20.86115 -3.5404,0 c -1.41616,0 -1.79744,0.0545 -2.28765,0.38127 -0.81701,0.49021 -1.30722,1.41617 -1.30722,2.34212 0,0.81701 0.43574,1.6885 1.14382,2.17871 0.49021,0.38127 1.19829,0.54468 2.45105,0.54468 l 12.58205,0 c 1.08935,0 1.90637,-0.16341 2.28765,-0.38128 0.81701,-0.49021 1.30722,-1.41616 1.30722,-2.34211 0,-0.87149 -0.43574,-1.6885 -1.14382,-2.23318 -0.54468,-0.38127 -0.98042,-0.49021 -2.45105,-0.49021 l -3.59487,0 0,-20.86115"
         style="font-family:'Nimbus Mono L';-inkscape-font-specification:'Nimbus Mono L Bold';fill:#ffffff"
         id="path5460" />
      <path
         inkscape:connector-curvature="0"
         d="m 182.98603,849.73857 0,7.67995 -0.81702,0 c -1.30722,0 -1.79743,0.0545 -2.28764,0.38127 -0.81702,0.49021 -1.30723,1.41617 -1.30723,2.34212 0,0.81701 0.43574,1.6885 1.14382,2.23318 0.49021,0.3268 1.14383,0.49021 2.45105,0.49021 l 6.5906,0 c 1.14382,0 1.8519,-0.10894 2.28765,-0.38128 0.81701,-0.49021 1.30722,-1.41616 1.30722,-2.34211 0,-0.87149 -0.43574,-1.6885 -1.14382,-2.23318 -0.49021,-0.38127 -0.98042,-0.49021 -2.45105,-0.49021 l -0.32681,0 0,-20.86115 c 1.79744,-0.1634 2.83233,-1.14382 2.83233,-2.72339 0,-0.87148 -0.43575,-1.6885 -1.08936,-2.23317 -0.54468,-0.38128 -1.03489,-0.49021 -2.50551,-0.49021 l -5.50125,0 c -1.36169,0 -1.79743,0.0545 -2.28764,0.38127 -0.81702,0.49021 -1.30723,1.41616 -1.30723,2.34211 0,0.87149 0.43574,1.68851 1.14382,2.23318 0.54468,0.38128 1.03489,0.49021 2.45105,0.49021 l 0.81702,0 0,7.73442 -11.6561,0 0,-7.73442 0.81702,0 c 1.30722,0 1.79743,-0.10893 2.28764,-0.38127 0.81702,-0.49021 1.30723,-1.41616 1.30723,-2.34212 0,-0.87148 -0.43574,-1.6885 -1.14383,-2.23317 -0.4902,-0.38128 -0.98042,-0.49021 -2.45104,-0.49021 l -5.50125,0 c -1.36169,0 -1.79743,0.0545 -2.28764,0.38127 -0.81702,0.49021 -1.30723,1.41616 -1.30723,2.34211 0,1.57957 1.03489,2.55999 2.83232,2.72339 l 0,20.86115 -0.3268,0 c -1.36169,0 -1.79744,0.0545 -2.28765,0.38127 -0.81701,0.49021 -1.30722,1.41617 -1.30722,2.34212 0,0.81701 0.43574,1.6885 1.08935,2.23318 0.49021,0.3268 1.19829,0.49021 2.50552,0.49021 l 6.5906,0 c 1.14382,0 1.8519,-0.10894 2.28764,-0.38128 0.81702,-0.49021 1.30723,-1.41616 1.30723,-2.34211 0,-0.87149 -0.43574,-1.6885 -1.14383,-2.23318 -0.4902,-0.38127 -1.03488,-0.49021 -2.45104,-0.49021 l -0.81702,0 0,-7.67995 11.6561,0"
         style="font-family:'Nimbus Mono L';-inkscape-font-specification:'Nimbus Mono L Bold';fill:#ffffff"
         id="path5462" />
      <path
         inkscape:connector-curvature="0"
         d="m 212.43181,836.55737 5.50124,0 c 1.25276,0 1.8519,-0.10893 2.28764,-0.38127 0.81702,-0.49021 1.30723,-1.41616 1.30723,-2.34212 0,-0.87148 -0.38128,-1.6885 -1.14382,-2.23317 -0.54468,-0.38128 -0.98042,-0.49021 -2.45105,-0.49021 l -16.44926,0 c -1.41616,0 -1.79744,0.0545 -2.28765,0.38127 -0.81701,0.49021 -1.30722,1.41616 -1.30722,2.34211 0,0.87149 0.43574,1.68851 1.14382,2.23318 0.49021,0.38128 1.08936,0.49021 2.45105,0.49021 l 5.50124,0 0,20.86115 -5.50124,0 c -1.41616,0 -1.79744,0.0545 -2.28765,0.38127 -0.81701,0.49021 -1.30722,1.41617 -1.30722,2.34212 0,0.81701 0.43574,1.6885 1.14382,2.17871 0.49021,0.38127 1.14382,0.54468 2.45105,0.54468 l 16.44926,0 c 2.39658,0 3.59487,-0.92596 3.59487,-2.72339 0,-0.87149 -0.38128,-1.6885 -1.14382,-2.23318 -0.54468,-0.38127 -0.98042,-0.49021 -2.45105,-0.49021 l -5.50124,0 0,-20.86115"
         style="font-family:'Nimbus Mono L';-inkscape-font-specification:'Nimbus Mono L Bold';fill:#ffffff"
         id="path5464" />
      <path
         inkscape:connector-curvature="0"
         d="m 254.18729,833.94292 c 0,-1.41616 -0.0545,-1.8519 -0.38127,-2.34211 -0.43575,-0.76255 -1.3617,-1.25276 -2.28765,-1.25276 -1.08935,0 -1.57956,0.43574 -2.12424,1.79743 -1.90637,-1.19829 -4.30296,-1.79743 -7.08081,-1.79743 -6.75399,0 -11.8195,4.13955 -11.8195,9.64079 0,3.10466 1.6885,5.99145 4.46635,7.57102 1.74297,0.98042 3.48594,1.5251 7.02634,2.12424 3.70381,0.65361 4.5753,0.87148 5.71912,1.47063 1.19829,0.65361 1.96084,1.74297 1.96084,2.88679 0,2.34211 -3.15914,4.13955 -7.18975,4.13955 -3.59486,0 -7.02634,-1.57957 -7.57101,-3.5404 -0.43574,-1.47063 -0.43575,-1.47063 -0.81702,-1.85191 -0.49021,-0.49021 -1.19829,-0.76255 -1.96084,-0.76255 -0.87148,0 -1.6885,0.38128 -2.23318,1.08936 -0.38127,0.54468 -0.49021,1.14382 -0.49021,2.50551 l 0,3.59488 c 0,2.45104 0.87149,3.59487 2.77786,3.59487 0.87148,0 1.25276,-0.21787 2.17871,-1.30723 2.66892,1.41616 5.55571,2.12424 8.49697,2.12424 7.46207,0 12.47311,-3.81274 12.47311,-9.47738 0,-2.83232 -1.03489,-5.06551 -3.21359,-6.80847 -1.6885,-1.3617 -3.75828,-2.12425 -8.49697,-2.99573 -4.08508,-0.76255 -4.35742,-0.87148 -5.44678,-1.41616 -1.19829,-0.59915 -2.01531,-1.85191 -2.01531,-2.99573 0,-2.34211 2.7234,-4.13955 6.15486,-4.13955 3.377,0 5.99145,1.47063 6.48166,3.64934 0.38128,1.74297 0.38128,1.74297 0.76255,2.17871 0.43574,0.43574 1.19829,0.76255 1.96084,0.76255 0.81702,0 1.63403,-0.43574 2.17871,-1.14382 0.38127,-0.54468 0.49021,-0.98042 0.49021,-2.50552 l 0,-4.79316"
         style="font-family:'Nimbus Mono L';-inkscape-font-specification:'Nimbus Mono L Bold';fill:#ffffff"
         id="path5466" />
      <path
         inkscape:connector-curvature="0"
         d="m 301.91296,851.97175 5.33784,0 c 5.0655,0 7.78889,-0.92596 10.18547,-3.59488 1.74297,-1.90637 2.72339,-4.46635 2.72339,-6.97187 0,-6.04591 -4.90211,-10.2944 -11.8195,-10.2944 l -12.69099,0 c -1.41616,0 -1.79743,0.0545 -2.28764,0.38127 -0.81702,0.49021 -1.30723,1.41616 -1.30723,2.34211 0,0.81702 0.43574,1.68851 1.14382,2.23318 0.49021,0.38128 1.08936,0.49021 2.45105,0.49021 l 0.81702,0 0,20.86115 -0.81702,0 c -1.30722,0 -1.79743,0.0545 -2.28764,0.38127 -0.81702,0.49021 -1.30723,1.41617 -1.30723,2.34212 0,0.81701 0.43574,1.6885 1.14382,2.17871 0.43574,0.38127 1.19829,0.54468 2.45105,0.54468 l 11.6561,0 c 1.08935,0 1.90637,-0.16341 2.28765,-0.38128 0.81701,-0.49021 1.30722,-1.41616 1.30722,-2.34211 0,-0.87149 -0.43574,-1.6885 -1.14382,-2.23318 -0.54468,-0.38127 -0.98042,-0.49021 -2.45105,-0.49021 l -5.39231,0 0,-5.44677 m 0,-15.41438 6.4272,0 c 3.75827,0 6.04592,1.90638 6.04592,5.01103 0,3.0502 -2.28765,4.95657 -6.04592,4.95657 l -6.4272,0 0,-9.9676"
         style="font-family:'Nimbus Mono L';-inkscape-font-specification:'Nimbus Mono L Bold';fill:#ffffff"
         id="path5468" />
      <path
         inkscape:connector-curvature="0"
         d="m 334.57233,850.77345 5.2289,0 c 2.28764,0.81702 7.29868,6.80848 10.02207,12.09185 l 4.30295,0 c 1.08935,0 1.90637,-0.16341 2.28764,-0.38128 0.81702,-0.49021 1.30723,-1.41616 1.30723,-2.34211 0,-0.87149 -0.43574,-1.74297 -1.08936,-2.23318 -0.54467,-0.38127 -1.14382,-0.49021 -2.50551,-0.49021 l -0.70808,0 c -2.28765,-3.64934 -4.30296,-6.15486 -6.86294,-8.38803 3.97614,-2.17871 5.88252,-4.79317 5.88252,-8.22463 0,-5.71911 -4.90211,-9.69526 -11.98291,-9.69526 l -12.14631,0 c -1.41616,0 -1.79743,0.0545 -2.28764,0.38127 -0.81702,0.49021 -1.30723,1.41616 -1.30723,2.34211 0,0.87149 0.43575,1.68851 1.14383,2.23318 0.4902,0.38128 1.08935,0.49021 2.45104,0.49021 l 0.81702,0 0,20.86115 -0.81702,0 c -1.30722,0 -1.79743,0.0545 -2.28764,0.38127 -0.81702,0.49021 -1.30723,1.41617 -1.30723,2.34212 0,0.81701 0.43575,1.6885 1.14383,2.17871 0.43574,0.38127 1.19829,0.54468 2.45104,0.54468 l 8.17017,0 c 1.08935,0 1.90637,-0.16341 2.28764,-0.38128 0.81702,-0.49021 1.30723,-1.41616 1.30723,-2.34211 0,-0.87149 -0.43574,-1.6885 -1.08936,-2.23318 -0.54467,-0.38127 -1.03489,-0.49021 -2.50551,-0.49021 l -1.90637,0 0,-6.64507 m 0,-5.44677 0,-8.76931 6.10038,0 c 3.48594,0 5.99146,1.74297 5.99146,4.08508 0,2.72339 -3.37701,4.68423 -7.9523,4.68423 l -4.13954,0"
         style="font-family:'Nimbus Mono L';-inkscape-font-specification:'Nimbus Mono L Bold';fill:#ffffff"
         id="path5470" />
      <path
         inkscape:connector-curvature="0"
         d="m 367.2317,849.62963 4.62976,0 0,0.38128 c 0,1.30722 0.10894,1.79743 0.38128,2.28764 0.49021,0.81702 1.41616,1.30723 2.34211,1.30723 0.81702,0 1.63403,-0.43574 2.17871,-1.14382 0.38127,-0.49021 0.49021,-1.03489 0.49021,-2.45105 l 0,-6.15486 c 0,-0.49021 0,-0.65361 -0.0545,-1.14382 -0.21787,-1.5251 -1.19829,-2.50552 -2.66892,-2.50552 -0.81701,0 -1.63403,0.43574 -2.17871,1.14382 -0.38127,0.54468 -0.49021,1.03489 -0.49021,2.50552 l 0,0.38127 -4.62976,0 0,-7.67995 12.74546,0 0,2.72339 c 0,1.30722 0.10893,1.8519 0.38127,2.34211 0.54468,0.81702 1.41616,1.30723 2.34211,1.30723 0.87149,0 1.68851,-0.43574 2.23318,-1.14382 0.38128,-0.54468 0.49021,-0.98043 0.49021,-2.50552 l 0,-8.17016 -24.45602,0 c -1.41616,0 -1.79743,0.0545 -2.28764,0.38127 -0.81702,0.49021 -1.30723,1.41616 -1.30723,2.34211 0,0.87149 0.43574,1.68851 1.14382,2.23318 0.49021,0.38128 1.08936,0.49021 2.45105,0.49021 l 0.81702,0 0,20.86115 -0.81702,0 c -1.30722,0 -1.79743,0.0545 -2.28764,0.38127 -0.81702,0.54468 -1.30723,1.41617 -1.30723,2.34212 0,0.87148 0.43574,1.6885 1.14382,2.17871 0.43575,0.38127 1.1983,0.54468 2.45105,0.54468 l 25.65431,0 0,-8.2791 c 0,-1.3617 -0.10893,-1.85191 -0.38127,-2.34212 -0.54468,-0.81701 -1.41616,-1.30722 -2.34211,-1.30722 -0.87149,0 -1.68851,0.38127 -2.23318,1.14382 -0.38128,0.54468 -0.49021,0.98042 -0.49021,2.50552 l 0,2.83232 -13.94375,0 0,-7.78889"
         style="font-family:'Nimbus Mono L';-inkscape-font-specification:'Nimbus Mono L Bold';fill:#ffffff"
         id="path5472" />
      <path
         inkscape:connector-curvature="0"
         d="m 417.48417,833.94292 c 0,-1.41616 -0.0545,-1.8519 -0.38128,-2.34211 -0.43574,-0.76255 -1.36169,-1.25276 -2.28764,-1.25276 -1.08936,0 -1.57957,0.43574 -2.12425,1.79743 -1.90637,-1.19829 -4.30295,-1.79743 -7.0808,-1.79743 -6.754,0 -11.81951,4.13955 -11.81951,9.64079 0,3.10466 1.68851,5.99145 4.46636,7.57102 1.74297,0.98042 3.48594,1.5251 7.02634,2.12424 3.7038,0.65361 4.57529,0.87148 5.71911,1.47063 1.19829,0.65361 1.96084,1.74297 1.96084,2.88679 0,2.34211 -3.15913,4.13955 -7.18974,4.13955 -3.59487,0 -7.02634,-1.57957 -7.57102,-3.5404 -0.43574,-1.47063 -0.43574,-1.47063 -0.81701,-1.85191 -0.49021,-0.49021 -1.1983,-0.76255 -1.96084,-0.76255 -0.87149,0 -1.6885,0.38128 -2.23318,1.08936 -0.38128,0.54468 -0.49021,1.14382 -0.49021,2.50551 l 0,3.59488 c 0,2.45104 0.87148,3.59487 2.77785,3.59487 0.87149,0 1.25276,-0.21787 2.17871,-1.30723 2.66892,1.41616 5.55572,2.12424 8.49697,2.12424 7.46208,0 12.47312,-3.81274 12.47312,-9.47738 0,-2.83232 -1.03489,-5.06551 -3.2136,-6.80847 -1.6885,-1.3617 -3.75828,-2.12425 -8.49697,-2.99573 -4.08508,-0.76255 -4.35742,-0.87148 -5.44677,-1.41616 -1.19829,-0.59915 -2.01531,-1.85191 -2.01531,-2.99573 0,-2.34211 2.72339,-4.13955 6.15486,-4.13955 3.37699,0 5.99145,1.47063 6.48166,3.64934 0.38127,1.74297 0.38127,1.74297 0.76255,2.17871 0.43574,0.43574 1.19829,0.76255 1.96084,0.76255 0.81701,0 1.63403,-0.43574 2.17871,-1.14382 0.38127,-0.54468 0.49021,-0.98042 0.49021,-2.50552 l 0,-4.79316"
         style="font-family:'Nimbus Mono L';-inkscape-font-specification:'Nimbus Mono L Bold';fill:#ffffff"
         id="path5474" />
      <path
         inkscape:connector-curvature="0"
         d="m 432.55044,849.62963 4.62976,0 0,0.38128 c 0,1.30722 0.10894,1.79743 0.38128,2.28764 0.49021,0.81702 1.41616,1.30723 2.34211,1.30723 0.81702,0 1.63403,-0.43574 2.17871,-1.14382 0.38127,-0.49021 0.49021,-1.03489 0.49021,-2.45105 l 0,-6.15486 c 0,-0.49021 0,-0.65361 -0.0545,-1.14382 -0.21787,-1.5251 -1.19829,-2.50552 -2.66892,-2.50552 -0.81701,0 -1.63403,0.43574 -2.17871,1.14382 -0.38127,0.54468 -0.49021,1.03489 -0.49021,2.50552 l 0,0.38127 -4.62976,0 0,-7.67995 12.74546,0 0,2.72339 c 0,1.30722 0.10893,1.8519 0.38127,2.34211 0.54468,0.81702 1.41616,1.30723 2.34212,1.30723 0.87148,0 1.6885,-0.43574 2.23317,-1.14382 0.38128,-0.54468 0.49021,-0.98043 0.49021,-2.50552 l 0,-8.17016 -24.45602,0 c -1.41616,0 -1.79743,0.0545 -2.28764,0.38127 -0.81702,0.49021 -1.30723,1.41616 -1.30723,2.34211 0,0.87149 0.43574,1.68851 1.14382,2.23318 0.49021,0.38128 1.08936,0.49021 2.45105,0.49021 l 0.81702,0 0,20.86115 -0.81702,0 c -1.30722,0 -1.79743,0.0545 -2.28764,0.38127 -0.81702,0.54468 -1.30723,1.41617 -1.30723,2.34212 0,0.87148 0.43574,1.6885 1.14382,2.17871 0.43575,0.38127 1.1983,0.54468 2.45105,0.54468 l 25.65431,0 0,-8.2791 c 0,-1.3617 -0.10893,-1.85191 -0.38127,-2.34212 -0.54468,-0.81701 -1.41616,-1.30722 -2.34211,-1.30722 -0.87149,0 -1.6885,0.38127 -2.23318,1.14382 -0.38128,0.54468 -0.49021,0.98042 -0.49021,2.50552 l 0,2.83232 -13.94375,0 0,-7.78889"
         style="font-family:'Nimbus Mono L';-inkscape-font-specification:'Nimbus Mono L Bold';fill:#ffffff"
         id="path5476" />
      <path
         inkscape:connector-curvature="0"
         d="m 464.06602,841.405 14.10714,21.4603 5.39231,0 0,-26.30793 c 2.17871,0 3.32253,-0.98042 3.32253,-2.72339 0,-0.87148 -0.43574,-1.6885 -1.14382,-2.23317 -0.54468,-0.38128 -0.98042,-0.49021 -2.45105,-0.49021 l -7.08081,0 c -1.41616,0 -1.79743,0.0545 -2.28764,0.38127 -0.81702,0.49021 -1.30723,1.41616 -1.30723,2.34211 0,0.87149 0.43574,1.68851 1.14382,2.23318 0.49021,0.38128 1.08936,0.49021 2.45105,0.49021 l 1.90637,0 0,15.90459 -14.05267,-21.35136 -6.2638,0 c -1.41616,0 -1.79743,0.0545 -2.28764,0.38127 -0.81702,0.49021 -1.30723,1.41616 -1.30723,2.34211 0,0.87149 0.43575,1.68851 1.14383,2.23318 0.4902,0.38128 1.08935,0.49021 2.45104,0.49021 l 0.81702,0 0,20.86115 c -2.12424,0 -3.32253,0.98042 -3.32253,2.72339 0,0.87148 0.43574,1.6885 1.14382,2.17871 0.49021,0.38127 1.19829,0.54468 2.50552,0.54468 l 7.02634,0 c 1.08935,0 1.90637,-0.16341 2.28764,-0.38128 0.81702,-0.54468 1.30723,-1.41616 1.30723,-2.34211 0,-0.87149 -0.38128,-1.6885 -1.08936,-2.23318 -0.54467,-0.38127 -1.03489,-0.49021 -2.50551,-0.49021 l -1.90637,0 0,-16.01352"
         style="font-family:'Nimbus Mono L';-inkscape-font-specification:'Nimbus Mono L Bold';fill:#ffffff"
         id="path5478" />
      <path
         inkscape:connector-curvature="0"
         d="m 506.3117,836.55737 5.93699,0 0,5.0655 c 0,1.25276 0.10893,1.79744 0.38127,2.28765 0.49021,0.76255 1.41616,1.30722 2.34211,1.30722 0.87149,0 1.68851,-0.43574 2.23318,-1.14382 0.43574,-0.54468 0.49021,-0.92595 0.49021,-2.45105 l 0,-10.51227 -28.10536,0 0,10.51227 c 0,1.25276 0.10894,1.79744 0.38128,2.28765 0.49021,0.81701 1.41616,1.30722 2.34211,1.30722 0.87148,0 1.6885,-0.43574 2.23318,-1.14382 0.38127,-0.54468 0.49021,-0.98042 0.49021,-2.45105 l 0,-5.0655 5.82805,0 0,20.86115 -3.54041,0 c -1.41616,0 -1.79743,0.0545 -2.28764,0.38127 -0.81702,0.49021 -1.30723,1.41617 -1.30723,2.34212 0,0.81701 0.43574,1.6885 1.14382,2.17871 0.49021,0.38127 1.1983,0.54468 2.45105,0.54468 l 12.58205,0 c 1.08936,0 1.90638,-0.16341 2.28765,-0.38128 0.81701,-0.49021 1.30723,-1.41616 1.30723,-2.34211 0,-0.87149 -0.43575,-1.6885 -1.14383,-2.23318 -0.54467,-0.38127 -0.98042,-0.49021 -2.45105,-0.49021 l -3.59487,0 0,-20.86115"
         style="font-family:'Nimbus Mono L';-inkscape-font-specification:'Nimbus Mono L Bold';fill:#ffffff"
         id="path5480" />
      <path
         inkscape:connector-curvature="0"
         d="m 542.6204,854.25939 1.25276,3.15913 -1.25276,0 c -1.41616,0 -1.79743,0.0545 -2.28764,0.38127 -0.81702,0.49021 -1.30723,1.41617 -1.30723,2.34212 0,0.87148 0.43575,1.6885 1.14383,2.17871 0.4902,0.38127 1.14382,0.54468 2.45104,0.54468 l 7.57102,0 c 1.14382,0 1.85191,-0.10894 2.28765,-0.38128 0.81701,-0.49021 1.30722,-1.41616 1.30722,-2.34211 0,-0.87149 -0.43574,-1.6885 -1.14382,-2.17871 -0.54468,-0.43574 -1.03489,-0.54468 -2.55998,-0.54468 l -10.83909,-26.30792 -11.76503,0 c -1.47063,0 -1.8519,0.0545 -2.34211,0.38127 -0.81702,0.54468 -1.30723,1.41616 -1.30723,2.34211 0,0.87149 0.43574,1.68851 1.14382,2.23318 0.54468,0.38128 1.08936,0.49021 2.50552,0.49021 l 3.43147,0 -8.4425,20.86115 c -1.3617,0 -1.85191,0.0545 -2.34212,0.38127 -0.81701,0.49021 -1.30722,1.41617 -1.30722,2.34212 0,1.79743 1.19829,2.72339 3.59487,2.72339 l 7.24421,0 c 1.14382,0 1.8519,-0.10894 2.28765,-0.38128 0.81701,-0.49021 1.30722,-1.41616 1.30722,-2.34211 0,-0.87149 -0.43574,-1.6885 -1.14382,-2.23318 -0.54468,-0.38127 -0.98042,-0.49021 -2.45105,-0.49021 l -1.25276,0 1.25276,-3.15913 12.96332,0 m -2.23317,-5.44677 -8.55144,0 4.30295,-10.45781 4.24849,10.45781"
         style="font-family:'Nimbus Mono L';-inkscape-font-specification:'Nimbus Mono L Bold';fill:#ffffff"
         id="path5482" />
      <path
         inkscape:connector-curvature="0"
         d="m 571.63046,836.55737 5.93698,0 0,5.0655 c 0,1.25276 0.10894,1.79744 0.38128,2.28765 0.49021,0.76255 1.41616,1.30722 2.34211,1.30722 0.87148,0 1.6885,-0.43574 2.23318,-1.14382 0.43574,-0.54468 0.49021,-0.92595 0.49021,-2.45105 l 0,-10.51227 -28.10536,0 0,10.51227 c 0,1.25276 0.10893,1.79744 0.38127,2.28765 0.49021,0.81701 1.41617,1.30722 2.34212,1.30722 0.87148,0 1.6885,-0.43574 2.23317,-1.14382 0.38128,-0.54468 0.49021,-0.98042 0.49021,-2.45105 l 0,-5.0655 5.82805,0 0,20.86115 -3.5404,0 c -1.41616,0 -1.79744,0.0545 -2.28765,0.38127 -0.81701,0.49021 -1.30722,1.41617 -1.30722,2.34212 0,0.81701 0.43574,1.6885 1.14382,2.17871 0.49021,0.38127 1.19829,0.54468 2.45105,0.54468 l 12.58205,0 c 1.08935,0 1.90637,-0.16341 2.28765,-0.38128 0.81701,-0.49021 1.30722,-1.41616 1.30722,-2.34211 0,-0.87149 -0.43574,-1.6885 -1.14382,-2.23318 -0.54468,-0.38127 -0.98042,-0.49021 -2.45105,-0.49021 l -3.59487,0 0,-20.86115"
         style="font-family:'Nimbus Mono L';-inkscape-font-specification:'Nimbus Mono L Bold';fill:#ffffff"
         id="path5484" />
      <path
         inkscape:connector-curvature="0"
         d="m 604.34429,836.55737 5.50124,0 c 1.25276,0 1.85191,-0.10893 2.28765,-0.38127 0.81701,-0.49021 1.30722,-1.41616 1.30722,-2.34212 0,-0.87148 -0.38127,-1.6885 -1.14382,-2.23317 -0.54468,-0.38128 -0.98042,-0.49021 -2.45105,-0.49021 l -16.44926,0 c -1.41616,0 -1.79744,0.0545 -2.28764,0.38127 -0.81702,0.49021 -1.30723,1.41616 -1.30723,2.34211 0,0.87149 0.43574,1.68851 1.14382,2.23318 0.49021,0.38128 1.08936,0.49021 2.45105,0.49021 l 5.50124,0 0,20.86115 -5.50124,0 c -1.41616,0 -1.79744,0.0545 -2.28764,0.38127 -0.81702,0.49021 -1.30723,1.41617 -1.30723,2.34212 0,0.81701 0.43574,1.6885 1.14382,2.17871 0.49021,0.38127 1.14383,0.54468 2.45105,0.54468 l 16.44926,0 c 2.39658,0 3.59487,-0.92596 3.59487,-2.72339 0,-0.87149 -0.38127,-1.6885 -1.14382,-2.23318 -0.54468,-0.38127 -0.98042,-0.49021 -2.45105,-0.49021 l -5.50124,0 0,-20.86115"
         style="font-family:'Nimbus Mono L';-inkscape-font-specification:'Nimbus Mono L Bold';fill:#ffffff"
         id="path5486" />
      <path
         inkscape:connector-curvature="0"
         d="m 634.28029,830.34805 c -8.38802,0 -15.1965,7.46209 -15.1965,16.61266 0,9.20504 6.80848,16.66713 15.1965,16.66713 8.27909,0 15.19651,-7.46209 15.19651,-16.39479 0,-5.2289 -1.68851,-9.42292 -5.11997,-12.69098 -2.88679,-2.72339 -6.4272,-4.19402 -10.07654,-4.19402 m 0,5.44677 c 5.39231,0 9.74973,5.06551 9.74973,11.3293 0,5.99144 -4.46636,11.05695 -9.74973,11.05695 -5.33783,0 -9.74972,-5.06551 -9.74972,-11.22036 0,-6.10038 4.41189,-11.16589 9.74972,-11.16589"
         style="font-family:'Nimbus Mono L';-inkscape-font-specification:'Nimbus Mono L Bold';fill:#ffffff"
         id="path5488" />
      <path
         inkscape:connector-curvature="0"
         d="m 660.02225,841.405 14.10715,21.4603 5.39231,0 0,-26.30793 c 2.17871,0 3.32253,-0.98042 3.32253,-2.72339 0,-0.87148 -0.43574,-1.6885 -1.14382,-2.23317 -0.54468,-0.38128 -0.98042,-0.49021 -2.45105,-0.49021 l -7.08081,0 c -1.41616,0 -1.79743,0.0545 -2.28764,0.38127 -0.81702,0.49021 -1.30723,1.41616 -1.30723,2.34211 0,0.87149 0.43574,1.68851 1.14382,2.23318 0.49021,0.38128 1.08936,0.49021 2.45105,0.49021 l 1.90637,0 0,15.90459 -14.05268,-21.35136 -6.26379,0 c -1.41616,0 -1.79743,0.0545 -2.28764,0.38127 -0.81702,0.49021 -1.30723,1.41616 -1.30723,2.34211 0,0.87149 0.43574,1.68851 1.14382,2.23318 0.49021,0.38128 1.08936,0.49021 2.45105,0.49021 l 0.81702,0 0,20.86115 c -2.12424,0 -3.32253,0.98042 -3.32253,2.72339 0,0.87148 0.43574,1.6885 1.14382,2.17871 0.49021,0.38127 1.19829,0.54468 2.50551,0.54468 l 7.02634,0 c 1.08936,0 1.90638,-0.16341 2.28765,-0.38128 0.81702,-0.54468 1.30723,-1.41616 1.30723,-2.34211 0,-0.87149 -0.38128,-1.6885 -1.08936,-2.23318 -0.54468,-0.38127 -1.03489,-0.49021 -2.50552,-0.49021 l -1.90637,0 0,-16.01352"
         style="font-family:'Nimbus Mono L';-inkscape-font-specification:'Nimbus Mono L Bold';fill:#ffffff"
         id="path5490" />
      <path
         inkscape:connector-curvature="0"
         d="m 86.794704,885.47631 6.427195,13.67141 4.956565,0 6.045916,-13.67141 0,15.74118 -1.90637,0 c -1.41616,0 -1.79743,0.0545 -2.28764,0.38128 -0.817018,0.49021 -1.307228,1.41616 -1.307228,2.34211 0,0.81701 0.435742,1.6885 1.143822,2.17871 0.435746,0.38127 1.198296,0.54468 2.451046,0.54468 l 7.08081,0 c 1.08935,0 1.90637,-0.16341 2.28765,-0.38128 0.81701,-0.54467 1.30722,-1.41616 1.30722,-2.34211 0,-1.74297 -1.19829,-2.72339 -3.32253,-2.72339 l 0,-20.86115 c 1.79743,-0.1634 2.83232,-1.14382 2.83232,-2.72338 0,-0.87149 -0.43574,-1.68851 -1.08935,-2.23318 -0.54468,-0.38128 -1.03489,-0.49021 -2.50552,-0.49021 l -5.99145,0 -7.353148,16.17692 -7.51655,-16.17692 -5.936984,0 c -0.05447,-0.0545 -0.108936,-0.0545 -0.217871,-0.0545 -0.653613,0 -1.797436,0.21787 -2.069775,0.38127 -0.817015,0.54468 -1.307226,1.47063 -1.307226,2.34212 0,1.63403 1.034889,2.61445 2.832323,2.77785 l 0,20.86115 c -2.12424,0 -3.322533,0.98042 -3.322533,2.72339 0,0.87148 0.435743,1.6885 1.143823,2.17871 0.490209,0.38127 1.198292,0.54468 2.505517,0.54468 l 7.026339,0 c 1.089354,0 1.906372,-0.16341 2.287646,-0.38128 0.817015,-0.54467 1.307226,-1.41616 1.307226,-2.34211 0,-0.87148 -0.381275,-1.6885 -1.089355,-2.23318 -0.599145,-0.38127 -1.034889,-0.49021 -2.505517,-0.49021 l -1.906371,0 0,-15.74118"
         style="font-family:'Nimbus Mono L';-inkscape-font-specification:'Nimbus Mono L Bold';fill:#ffffff"
         id="path5492" />
      <path
         inkscape:connector-curvature="0"
         d="m 134.37824,898.05836 1.25276,3.15913 -1.25276,0 c -1.41616,0 -1.79743,0.0545 -2.28764,0.38128 -0.81702,0.49021 -1.30723,1.41616 -1.30723,2.34211 0,0.87148 0.43574,1.6885 1.14382,2.17871 0.49021,0.38127 1.14383,0.54468 2.45105,0.54468 l 7.57102,0 c 1.14382,0 1.8519,-0.10894 2.28764,-0.38128 0.81702,-0.49021 1.30723,-1.41616 1.30723,-2.34211 0,-0.87148 -0.43574,-1.6885 -1.14382,-2.17871 -0.54468,-0.43574 -1.03489,-0.54468 -2.55999,-0.54468 l -10.83908,-26.30792 -11.76503,0 c -1.47063,0 -1.85191,0.0545 -2.34212,0.38127 -0.81701,0.54468 -1.30722,1.41616 -1.30722,2.34212 0,0.87148 0.43574,1.6885 1.14382,2.23317 0.54468,0.38128 1.08936,0.49021 2.50552,0.49021 l 3.43147,0 -8.44251,20.86115 c -1.36169,0 -1.8519,0.0545 -2.34211,0.38128 -0.81701,0.49021 -1.30722,1.41616 -1.30722,2.34211 0,1.79743 1.19829,2.72339 3.59487,2.72339 l 7.24421,0 c 1.14382,0 1.8519,-0.10894 2.28764,-0.38128 0.81702,-0.49021 1.30723,-1.41616 1.30723,-2.34211 0,-0.87148 -0.43574,-1.6885 -1.14382,-2.23318 -0.54468,-0.38127 -0.98042,-0.49021 -2.45105,-0.49021 l -1.25276,0 1.25276,-3.15913 12.96332,0 m -2.23318,-5.44677 -8.55143,0 4.30295,-10.45781 4.24848,10.45781"
         style="font-family:'Nimbus Mono L';-inkscape-font-specification:'Nimbus Mono L Bold';fill:#ffffff"
         id="path5494" />
      <path
         inkscape:connector-curvature="0"
         d="m 163.44274,893.31967 8.93272,-12.96333 0.10893,0 c 1.90637,0.21787 3.43147,-1.03489 3.43147,-2.72338 0,-0.87149 -0.38128,-1.68851 -1.14382,-2.23318 -0.49021,-0.38128 -0.98042,-0.49021 -2.45105,-0.49021 l -5.01103,0 c -1.3617,0 -1.85191,0.0545 -2.34212,0.38127 -0.81701,0.49021 -1.30722,1.41616 -1.30722,2.34212 0,1.25275 0.70808,2.12424 2.17871,2.66892 l -5.11997,7.40761 -5.17444,-7.40761 c 1.41616,-0.59915 2.06978,-1.41617 2.06978,-2.66892 0,-0.87149 -0.43575,-1.68851 -1.08936,-2.23318 -0.54468,-0.38128 -1.03489,-0.49021 -2.50552,-0.49021 l -4.84763,0 c -0.43574,0 -0.49021,0 -1.14382,0.10893 -1.57956,0.16341 -2.50552,1.14383 -2.50552,2.61446 0,1.74296 1.25277,2.72338 3.48594,2.72338 l 8.98718,12.96333 0,7.89782 -3.5404,0 c -1.47063,0 -1.85191,0.0545 -2.34212,0.38128 -0.81701,0.49021 -1.30722,1.41616 -1.30722,2.34211 0,0.87148 0.43574,1.6885 1.14382,2.17871 0.49021,0.38127 1.19829,0.54468 2.50552,0.54468 l 12.52758,0 c 1.14382,0 1.96084,-0.16341 2.34211,-0.38128 0.81702,-0.49021 1.30723,-1.41616 1.30723,-2.34211 0,-0.87148 -0.43574,-1.6885 -1.14382,-2.23318 -0.54468,-0.38127 -0.98043,-0.49021 -2.50552,-0.49021 l -3.54041,0 0,-7.89782"
         style="font-family:'Nimbus Mono L';-inkscape-font-specification:'Nimbus Mono L Bold';fill:#ffffff"
         id="path5496" />
      <path
         inkscape:connector-curvature="0"
         d="m 234.04487,875.99892 c -2.99573,-1.41616 -4.90211,-1.8519 -7.73443,-1.8519 -8.38802,0 -14.81522,6.64507 -14.81522,15.35991 l 0,3.59487 c 0,8.27909 6.75401,14.32502 16.01351,14.32502 3.92168,0 7.62549,-0.98043 10.02207,-2.72339 1.8519,-1.30723 2.88679,-2.72339 2.88679,-3.97615 0,-1.47063 -1.25276,-2.72339 -2.72339,-2.72339 -0.70808,0 -1.36169,0.27234 -1.96083,0.87149 -1.47063,1.52509 -1.47063,1.5251 -2.06978,1.8519 -1.36169,0.81702 -3.54041,1.25276 -5.99145,1.25276 -6.53613,0 -10.73015,-3.54041 -10.73015,-8.98718 l 0,-3.48593 c 0,-5.71911 4.03062,-9.91314 9.58633,-9.91314 1.8519,0 3.81274,0.49022 5.28337,1.30723 1.57956,0.87148 2.12424,1.57957 2.39658,2.88679 0.21787,1.30723 0.32681,1.6885 0.76255,2.12424 0.43574,0.43575 1.19829,0.76255 1.90637,0.76255 0.87148,0 1.6885,-0.43574 2.23318,-1.14382 0.38127,-0.49021 0.49021,-1.08936 0.49021,-2.45105 l 0,-4.57529 c 0,-1.36169 -0.0545,-1.79744 -0.38128,-2.28765 -0.49021,-0.81701 -1.36169,-1.30722 -2.34211,-1.30722 -0.92595,0 -1.57957,0.32681 -2.28765,1.30722 l -0.54467,-0.21787"
         style="font-family:'Nimbus Mono L';-inkscape-font-specification:'Nimbus Mono L Bold';fill:#ffffff"
         id="path5498" />
      <path
         inkscape:connector-curvature="0"
         d="m 258.69748,874.14702 c -8.38802,0 -15.1965,7.46209 -15.1965,16.61266 0,9.20504 6.80848,16.66714 15.1965,16.66714 8.27909,0 15.19651,-7.4621 15.19651,-16.3948 0,-5.2289 -1.68851,-9.42292 -5.11997,-12.69098 -2.88679,-2.72339 -6.4272,-4.19402 -10.07654,-4.19402 m 0,5.44677 c 5.39231,0 9.74973,5.06551 9.74973,11.3293 0,5.99144 -4.46636,11.05695 -9.74973,11.05695 -5.33783,0 -9.74972,-5.06551 -9.74972,-11.22036 0,-6.10038 4.41189,-11.16589 9.74972,-11.16589"
         style="font-family:'Nimbus Mono L';-inkscape-font-specification:'Nimbus Mono L Bold';fill:#ffffff"
         id="path5500" />
      <path
         inkscape:connector-curvature="0"
         d="m 284.43944,885.20397 14.10715,21.4603 5.39231,0 0,-26.30793 c 2.1787,0 3.32253,-0.98042 3.32253,-2.72338 0,-0.87149 -0.43574,-1.68851 -1.14382,-2.23318 -0.54468,-0.38128 -0.98042,-0.49021 -2.45105,-0.49021 l -7.08081,0 c -1.41616,0 -1.79744,0.0545 -2.28764,0.38127 -0.81702,0.49021 -1.30723,1.41616 -1.30723,2.34212 0,0.87148 0.43574,1.6885 1.14382,2.23317 0.49021,0.38128 1.08936,0.49021 2.45105,0.49021 l 1.90637,0 0,15.90459 -14.05268,-21.35136 -6.26379,0 c -1.41616,0 -1.79744,0.0545 -2.28764,0.38127 -0.81702,0.49021 -1.30723,1.41616 -1.30723,2.34212 0,0.87148 0.43574,1.6885 1.14382,2.23317 0.49021,0.38128 1.08936,0.49021 2.45105,0.49021 l 0.81702,0 0,20.86115 c -2.12424,0 -3.32254,0.98042 -3.32254,2.72339 0,0.87148 0.43575,1.6885 1.14383,2.17871 0.49021,0.38127 1.19829,0.54468 2.50551,0.54468 l 7.02634,0 c 1.08936,0 1.90638,-0.16341 2.28765,-0.38128 0.81701,-0.54467 1.30723,-1.41616 1.30723,-2.34211 0,-0.87148 -0.38128,-1.6885 -1.08936,-2.23318 -0.54468,-0.38127 -1.03489,-0.49021 -2.50552,-0.49021 l -1.90637,0 0,-16.01352"
         style="font-family:'Nimbus Mono L';-inkscape-font-specification:'Nimbus Mono L Bold';fill:#ffffff"
         id="path5502" />
      <path
         inkscape:connector-curvature="0"
         d="m 326.68514,880.35634 5.93699,0 0,5.0655 c 0,1.25276 0.10893,1.79744 0.38127,2.28765 0.49021,0.76255 1.41617,1.30723 2.34212,1.30723 0.87148,0 1.6885,-0.43575 2.23317,-1.14383 0.43575,-0.54467 0.49021,-0.92595 0.49021,-2.45105 l 0,-10.51227 -28.10536,0 0,10.51227 c 0,1.25276 0.10894,1.79744 0.38128,2.28765 0.49021,0.81701 1.41616,1.30723 2.34211,1.30723 0.87149,0 1.6885,-0.43575 2.23318,-1.14383 0.38127,-0.54467 0.49021,-0.98042 0.49021,-2.45105 l 0,-5.0655 5.82805,0 0,20.86115 -3.5404,0 c -1.41616,0 -1.79744,0.0545 -2.28765,0.38128 -0.81702,0.49021 -1.30723,1.41616 -1.30723,2.34211 0,0.81701 0.43575,1.6885 1.14383,2.17871 0.49021,0.38127 1.19829,0.54468 2.45105,0.54468 l 12.58205,0 c 1.08935,0 1.90637,-0.16341 2.28764,-0.38128 0.81702,-0.49021 1.30723,-1.41616 1.30723,-2.34211 0,-0.87148 -0.43575,-1.6885 -1.14383,-2.23318 -0.54467,-0.38127 -0.98042,-0.49021 -2.45104,-0.49021 l -3.59488,0 0,-20.86115"
         style="font-family:'Nimbus Mono L';-inkscape-font-specification:'Nimbus Mono L Bold';fill:#ffffff"
         id="path5504" />
      <path
         inkscape:connector-curvature="0"
         d="m 362.99386,898.05836 1.25276,3.15913 -1.25276,0 c -1.41616,0 -1.79743,0.0545 -2.28764,0.38128 -0.81702,0.49021 -1.30723,1.41616 -1.30723,2.34211 0,0.87148 0.43574,1.6885 1.14382,2.17871 0.49021,0.38127 1.14383,0.54468 2.45105,0.54468 l 7.57102,0 c 1.14382,0 1.8519,-0.10894 2.28764,-0.38128 0.81702,-0.49021 1.30723,-1.41616 1.30723,-2.34211 0,-0.87148 -0.43574,-1.6885 -1.14382,-2.17871 -0.54468,-0.43574 -1.03489,-0.54468 -2.55999,-0.54468 l -10.83908,-26.30792 -11.76503,0 c -1.47063,0 -1.85191,0.0545 -2.34212,0.38127 -0.81701,0.54468 -1.30722,1.41616 -1.30722,2.34212 0,0.87148 0.43574,1.6885 1.14382,2.23317 0.54468,0.38128 1.08936,0.49021 2.50552,0.49021 l 3.43147,0 -8.44251,20.86115 c -1.36169,0 -1.8519,0.0545 -2.34211,0.38128 -0.81701,0.49021 -1.30723,1.41616 -1.30723,2.34211 0,1.79743 1.1983,2.72339 3.59488,2.72339 l 7.24421,0 c 1.14382,0 1.8519,-0.10894 2.28764,-0.38128 0.81702,-0.49021 1.30723,-1.41616 1.30723,-2.34211 0,-0.87148 -0.43574,-1.6885 -1.14382,-2.23318 -0.54468,-0.38127 -0.98043,-0.49021 -2.45105,-0.49021 l -1.25276,0 1.25276,-3.15913 12.96332,0 m -2.23318,-5.44677 -8.55143,0 4.30295,-10.45781 4.24848,10.45781"
         style="font-family:'Nimbus Mono L';-inkscape-font-specification:'Nimbus Mono L Bold';fill:#ffffff"
         id="path5506" />
      <path
         inkscape:connector-curvature="0"
         d="m 392.05835,880.35634 5.50125,0 c 1.25275,0 1.8519,-0.10893 2.28764,-0.38127 0.81702,-0.49021 1.30723,-1.41616 1.30723,-2.34211 0,-0.87149 -0.38128,-1.68851 -1.14383,-2.23318 -0.54467,-0.38128 -0.98042,-0.49021 -2.45104,-0.49021 l -16.44926,0 c -1.41617,0 -1.79744,0.0545 -2.28765,0.38127 -0.81702,0.49021 -1.30723,1.41616 -1.30723,2.34212 0,0.87148 0.43575,1.6885 1.14383,2.23317 0.49021,0.38128 1.08935,0.49021 2.45105,0.49021 l 5.50124,0 0,20.86115 -5.50124,0 c -1.41617,0 -1.79744,0.0545 -2.28765,0.38128 -0.81702,0.49021 -1.30723,1.41616 -1.30723,2.34211 0,0.81701 0.43575,1.6885 1.14383,2.17871 0.49021,0.38127 1.14382,0.54468 2.45105,0.54468 l 16.44926,0 c 2.39657,0 3.59487,-0.92596 3.59487,-2.72339 0,-0.87148 -0.38128,-1.6885 -1.14383,-2.23318 -0.54467,-0.38127 -0.98042,-0.49021 -2.45104,-0.49021 l -5.50125,0 0,-20.86115"
         style="font-family:'Nimbus Mono L';-inkscape-font-specification:'Nimbus Mono L Bold';fill:#ffffff"
         id="path5508" />
      <path
         inkscape:connector-curvature="0"
         d="m 415.07695,885.20397 14.10715,21.4603 5.39231,0 0,-26.30793 c 2.17871,0 3.32253,-0.98042 3.32253,-2.72338 0,-0.87149 -0.43574,-1.68851 -1.14382,-2.23318 -0.54468,-0.38128 -0.98042,-0.49021 -2.45105,-0.49021 l -7.08081,0 c -1.41616,0 -1.79743,0.0545 -2.28764,0.38127 -0.81702,0.49021 -1.30723,1.41616 -1.30723,2.34212 0,0.87148 0.43574,1.6885 1.14382,2.23317 0.49021,0.38128 1.08936,0.49021 2.45105,0.49021 l 1.90637,0 0,15.90459 -14.05268,-21.35136 -6.26379,0 c -1.41616,0 -1.79743,0.0545 -2.28764,0.38127 -0.81702,0.49021 -1.30723,1.41616 -1.30723,2.34212 0,0.87148 0.43574,1.6885 1.14382,2.23317 0.49021,0.38128 1.08936,0.49021 2.45105,0.49021 l 0.81702,0 0,20.86115 c -2.12424,0 -3.32253,0.98042 -3.32253,2.72339 0,0.87148 0.43574,1.6885 1.14382,2.17871 0.49021,0.38127 1.19829,0.54468 2.50552,0.54468 l 7.02634,0 c 1.08935,0 1.90637,-0.16341 2.28764,-0.38128 0.81702,-0.54467 1.30723,-1.41616 1.30723,-2.34211 0,-0.87148 -0.38128,-1.6885 -1.08936,-2.23318 -0.54467,-0.38127 -1.03489,-0.49021 -2.50551,-0.49021 l -1.90638,0 0,-16.01352"
         style="font-family:'Nimbus Mono L';-inkscape-font-specification:'Nimbus Mono L Bold';fill:#ffffff"
         id="path5510" />
      <path
         inkscape:connector-curvature="0"
         d="m 481.5395,895.77072 5.33784,0 c 5.0655,0 7.78889,-0.92596 10.18547,-3.59488 1.74297,-1.90636 2.72339,-4.46635 2.72339,-6.97187 0,-6.04591 -4.90211,-10.2944 -11.8195,-10.2944 l -12.69099,0 c -1.41616,0 -1.79743,0.0545 -2.28764,0.38127 -0.81702,0.49021 -1.30723,1.41616 -1.30723,2.34212 0,0.81701 0.43574,1.6885 1.14382,2.23317 0.49021,0.38128 1.08936,0.49021 2.45105,0.49021 l 0.81702,0 0,20.86115 -0.81702,0 c -1.30722,0 -1.79743,0.0545 -2.28764,0.38128 -0.81702,0.49021 -1.30723,1.41616 -1.30723,2.34211 0,0.81701 0.43574,1.6885 1.14382,2.17871 0.43574,0.38127 1.19829,0.54468 2.45105,0.54468 l 11.6561,0 c 1.08935,0 1.90637,-0.16341 2.28765,-0.38128 0.81701,-0.49021 1.30722,-1.41616 1.30722,-2.34211 0,-0.87148 -0.43574,-1.6885 -1.14382,-2.23318 -0.54468,-0.38127 -0.98042,-0.49021 -2.45105,-0.49021 l -5.39231,0 0,-5.44677 m 0,-15.41438 6.4272,0 c 3.75827,0 6.04592,1.90638 6.04592,5.01104 0,3.05019 -2.28765,4.95656 -6.04592,4.95656 l -6.4272,0 0,-9.9676"
         style="font-family:'Nimbus Mono L';-inkscape-font-specification:'Nimbus Mono L Bold';fill:#ffffff"
         id="path5512" />
      <path
         inkscape:connector-curvature="0"
         d="m 519.97248,874.14702 c -8.38803,0 -15.1965,7.46209 -15.1965,16.61266 0,9.20504 6.80847,16.66714 15.1965,16.66714 8.27909,0 15.1965,-7.4621 15.1965,-16.3948 0,-5.2289 -1.6885,-9.42292 -5.11997,-12.69098 -2.88679,-2.72339 -6.4272,-4.19402 -10.07653,-4.19402 m 0,5.44677 c 5.3923,0 9.74972,5.06551 9.74972,11.3293 0,5.99144 -4.46636,11.05695 -9.74972,11.05695 -5.33784,0 -9.74973,-5.06551 -9.74973,-11.22036 0,-6.10038 4.41189,-11.16589 9.74973,-11.16589"
         style="font-family:'Nimbus Mono L';-inkscape-font-specification:'Nimbus Mono L Bold';fill:#ffffff"
         id="path5514" />
      <path
         inkscape:connector-curvature="0"
         d="m 555.35523,880.35634 5.50124,0 c 1.25276,0 1.8519,-0.10893 2.28765,-0.38127 0.81701,-0.49021 1.30722,-1.41616 1.30722,-2.34211 0,-0.87149 -0.38127,-1.68851 -1.14382,-2.23318 -0.54468,-0.38128 -0.98042,-0.49021 -2.45105,-0.49021 l -16.44926,0 c -1.41616,0 -1.79744,0.0545 -2.28765,0.38127 -0.81701,0.49021 -1.30722,1.41616 -1.30722,2.34212 0,0.87148 0.43574,1.6885 1.14382,2.23317 0.49021,0.38128 1.08936,0.49021 2.45105,0.49021 l 5.50124,0 0,20.86115 -5.50124,0 c -1.41616,0 -1.79744,0.0545 -2.28765,0.38128 -0.81701,0.49021 -1.30722,1.41616 -1.30722,2.34211 0,0.81701 0.43574,1.6885 1.14382,2.17871 0.49021,0.38127 1.14383,0.54468 2.45105,0.54468 l 16.44926,0 c 2.39658,0 3.59487,-0.92596 3.59487,-2.72339 0,-0.87148 -0.38127,-1.6885 -1.14382,-2.23318 -0.54468,-0.38127 -0.98042,-0.49021 -2.45105,-0.49021 l -5.50124,0 0,-20.86115"
         style="font-family:'Nimbus Mono L';-inkscape-font-specification:'Nimbus Mono L Bold';fill:#ffffff"
         id="path5516" />
      <path
         inkscape:connector-curvature="0"
         d="m 578.37383,885.20397 14.10715,21.4603 5.3923,0 0,-26.30793 c 2.17871,0 3.32254,-0.98042 3.32254,-2.72338 0,-0.87149 -0.43575,-1.68851 -1.14383,-2.23318 -0.54467,-0.38128 -0.98042,-0.49021 -2.45104,-0.49021 l -7.08081,0 c -1.41616,0 -1.79744,0.0545 -2.28765,0.38127 -0.81701,0.49021 -1.30722,1.41616 -1.30722,2.34212 0,0.87148 0.43574,1.6885 1.14382,2.23317 0.49021,0.38128 1.08936,0.49021 2.45105,0.49021 l 1.90637,0 0,15.90459 -14.05268,-21.35136 -6.26379,0 c -1.41616,0 -1.79744,0.0545 -2.28765,0.38127 -0.81701,0.49021 -1.30722,1.41616 -1.30722,2.34212 0,0.87148 0.43574,1.6885 1.14382,2.23317 0.49021,0.38128 1.08936,0.49021 2.45105,0.49021 l 0.81701,0 0,20.86115 c -2.12424,0 -3.32253,0.98042 -3.32253,2.72339 0,0.87148 0.43574,1.6885 1.14382,2.17871 0.49021,0.38127 1.1983,0.54468 2.50552,0.54468 l 7.02634,0 c 1.08935,0 1.90637,-0.16341 2.28765,-0.38128 0.81701,-0.54467 1.30722,-1.41616 1.30722,-2.34211 0,-0.87148 -0.38127,-1.6885 -1.08935,-2.23318 -0.54468,-0.38127 -1.03489,-0.49021 -2.50552,-0.49021 l -1.90637,0 0,-16.01352"
         style="font-family:'Nimbus Mono L';-inkscape-font-specification:'Nimbus Mono L Bold';fill:#ffffff"
         id="path5518" />
      <path
         inkscape:connector-curvature="0"
         d="m 620.61952,880.35634 5.93698,0 0,5.0655 c 0,1.25276 0.10894,1.79744 0.38128,2.28765 0.4902,0.76255 1.41616,1.30723 2.34211,1.30723 0.87148,0 1.6885,-0.43575 2.23318,-1.14383 0.43574,-0.54467 0.49021,-0.92595 0.49021,-2.45105 l 0,-10.51227 -28.10536,0 0,10.51227 c 0,1.25276 0.10893,1.79744 0.38127,2.28765 0.49021,0.81701 1.41616,1.30723 2.34211,1.30723 0.87149,0 1.68851,-0.43575 2.23318,-1.14383 0.38128,-0.54467 0.49021,-0.98042 0.49021,-2.45105 l 0,-5.0655 5.82805,0 0,20.86115 -3.5404,0 c -1.41616,0 -1.79744,0.0545 -2.28765,0.38128 -0.81701,0.49021 -1.30722,1.41616 -1.30722,2.34211 0,0.81701 0.43574,1.6885 1.14382,2.17871 0.49021,0.38127 1.19829,0.54468 2.45105,0.54468 l 12.58205,0 c 1.08935,0 1.90637,-0.16341 2.28764,-0.38128 0.81702,-0.49021 1.30723,-1.41616 1.30723,-2.34211 0,-0.87148 -0.43574,-1.6885 -1.14382,-2.23318 -0.54468,-0.38127 -0.98042,-0.49021 -2.45105,-0.49021 l -3.59487,0 0,-20.86115"
         style="font-family:'Nimbus Mono L';-inkscape-font-specification:'Nimbus Mono L Bold';fill:#ffffff"
         id="path5520" />
      <path
         inkscape:connector-curvature="0"
         d="m 644.83638,893.4286 4.62976,0 0,0.38128 c 0,1.30722 0.10893,1.79743 0.38127,2.28764 0.49021,0.81702 1.41616,1.30723 2.34211,1.30723 0.81702,0 1.63404,-0.43574 2.17871,-1.14382 0.38128,-0.49021 0.49021,-1.03489 0.49021,-2.45105 l 0,-6.15486 c 0,-0.49021 0,-0.65361 -0.0545,-1.14382 -0.21787,-1.5251 -1.1983,-2.50552 -2.66892,-2.50552 -0.81702,0 -1.63404,0.43575 -2.17871,1.14383 -0.38128,0.54467 -0.49021,1.03488 -0.49021,2.50551 l 0,0.38128 -4.62976,0 0,-7.67996 12.74545,0 0,2.72339 c 0,1.30723 0.10894,1.8519 0.38128,2.34211 0.54467,0.81702 1.41616,1.30723 2.34211,1.30723 0.87148,0 1.6885,-0.43574 2.23318,-1.14382 0.38127,-0.54468 0.49021,-0.98042 0.49021,-2.50552 l 0,-8.17016 -24.45602,0 c -1.41616,0 -1.79744,0.0545 -2.28765,0.38127 -0.81701,0.49021 -1.30723,1.41616 -1.30723,2.34212 0,0.87148 0.43575,1.6885 1.14383,2.23317 0.49021,0.38128 1.08935,0.49021 2.45105,0.49021 l 0.81701,0 0,20.86115 -0.81701,0 c -1.30723,0 -1.79744,0.0545 -2.28765,0.38128 -0.81701,0.54467 -1.30723,1.41616 -1.30723,2.34211 0,0.87148 0.43575,1.6885 1.14383,2.17871 0.43574,0.38127 1.19829,0.54468 2.45105,0.54468 l 25.65431,0 0,-8.2791 c 0,-1.36169 -0.10894,-1.85191 -0.38128,-2.34211 -0.54467,-0.81702 -1.41616,-1.30723 -2.34211,-1.30723 -0.87148,0 -1.6885,0.38127 -2.23318,1.14382 -0.38127,0.54468 -0.49021,0.98042 -0.49021,2.50552 l 0,2.83232 -13.94374,0 0,-7.78889"
         style="font-family:'Nimbus Mono L';-inkscape-font-specification:'Nimbus Mono L Bold';fill:#ffffff"
         id="path5522" />
      <path
         inkscape:connector-curvature="0"
         d="m 677.49574,894.57243 5.2289,0 c 2.28765,0.81701 7.29869,6.80847 10.02207,12.09184 l 4.30295,0 c 1.08936,0 1.90637,-0.16341 2.28765,-0.38128 0.81701,-0.49021 1.30722,-1.41616 1.30722,-2.34211 0,-0.87148 -0.43574,-1.74297 -1.08935,-2.23318 -0.54468,-0.38127 -1.14382,-0.49021 -2.50552,-0.49021 l -0.70808,0 c -2.28764,-3.64933 -4.30295,-6.15486 -6.86293,-8.38803 3.97614,-2.17871 5.88251,-4.79317 5.88251,-8.22463 0,-5.71911 -4.9021,-9.69526 -11.9829,-9.69526 l -12.14631,0 c -1.41616,0 -1.79744,0.0545 -2.28765,0.38127 -0.81701,0.49021 -1.30722,1.41616 -1.30722,2.34212 0,0.87148 0.43574,1.6885 1.14382,2.23317 0.49021,0.38128 1.08936,0.49021 2.45105,0.49021 l 0.81702,0 0,20.86115 -0.81702,0 c -1.30723,0 -1.79744,0.0545 -2.28765,0.38128 -0.81701,0.49021 -1.30722,1.41616 -1.30722,2.34211 0,0.81701 0.43574,1.6885 1.14382,2.17871 0.43574,0.38127 1.19829,0.54468 2.45105,0.54468 l 8.17016,0 c 1.08936,0 1.90637,-0.16341 2.28765,-0.38128 0.81701,-0.49021 1.30722,-1.41616 1.30722,-2.34211 0,-0.87148 -0.43574,-1.6885 -1.08935,-2.23318 -0.54468,-0.38127 -1.03489,-0.49021 -2.50552,-0.49021 l -1.90637,0 0,-6.64506 m 0,-5.44678 0,-8.76931 6.10039,0 c 3.48593,0 5.99145,1.74297 5.99145,4.08508 0,2.72339 -3.377,4.68423 -7.95229,4.68423 l -4.13955,0"
         style="font-family:'Nimbus Mono L';-inkscape-font-specification:'Nimbus Mono L Bold';fill:#ffffff"
         id="path5524" />
      <path
         inkscape:connector-curvature="0"
         d="m 727.74825,877.74189 c 0,-1.41616 -0.0545,-1.8519 -0.38128,-2.34211 -0.43574,-0.76255 -1.36169,-1.25276 -2.28764,-1.25276 -1.08936,0 -1.57957,0.43574 -2.12424,1.79744 -1.90637,-1.19829 -4.30296,-1.79744 -7.08081,-1.79744 -6.754,0 -11.8195,4.13955 -11.8195,9.64079 0,3.10466 1.6885,5.99146 4.46635,7.57102 1.74297,0.98042 3.48594,1.5251 7.02634,2.12424 3.70381,0.65361 4.57529,0.87149 5.71912,1.47063 1.19828,0.65361 1.96083,1.74297 1.96083,2.88679 0,2.34211 -3.15913,4.13955 -7.18974,4.13955 -3.59487,0 -7.02634,-1.57957 -7.57102,-3.5404 -0.43574,-1.47063 -0.43574,-1.47063 -0.81701,-1.85191 -0.49021,-0.49021 -1.19829,-0.76255 -1.96084,-0.76255 -0.87148,0 -1.6885,0.38128 -2.23318,1.08936 -0.38127,0.54468 -0.49021,1.14382 -0.49021,2.50552 l 0,3.59487 c 0,2.45104 0.87149,3.59487 2.77786,3.59487 0.87148,0 1.25276,-0.21787 2.17871,-1.30723 2.66891,1.41616 5.55571,2.12425 8.49697,2.12425 7.46207,0 12.47311,-3.81275 12.47311,-9.47739 0,-2.83232 -1.03489,-5.06551 -3.2136,-6.80847 -1.6885,-1.36169 -3.75828,-2.12425 -8.49697,-2.99573 -4.08507,-0.76255 -4.35742,-0.87148 -5.44677,-1.41616 -1.19829,-0.59914 -2.01531,-1.8519 -2.01531,-2.99573 0,-2.34211 2.72339,-4.13955 6.15486,-4.13955 3.377,0 5.99145,1.47064 6.48166,3.64934 0.38127,1.74297 0.38128,1.74297 0.76255,2.17871 0.43574,0.43575 1.19829,0.76255 1.96084,0.76255 0.81701,0 1.63403,-0.43574 2.17871,-1.14382 0.38127,-0.54468 0.49021,-0.98042 0.49021,-2.50552 l 0,-4.79316"
         style="font-family:'Nimbus Mono L';-inkscape-font-specification:'Nimbus Mono L Bold';fill:#ffffff"
         id="path5526" />
    </g>
    <g
       id="g5450"
       transform="matrix(-1.9954177,0,0,1.9954177,1764.8707,-1171.3884)"
       style="fill:#fc0000;fill-opacity:1">
      <path
         style="color:#000000;font-style:normal;font-variant:normal;font-weight:normal;font-stretch:normal;font-size:medium;line-height:normal;font-family:Sans;-inkscape-font-specification:Sans;text-indent:0;text-align:start;text-decoration:none;text-decoration-line:none;letter-spacing:normal;word-spacing:normal;text-transform:none;direction:ltr;block-progression:tb;writing-mode:lr-tb;baseline-shift:baseline;text-anchor:start;display:inline;overflow:visible;visibility:visible;fill:#fc0000;fill-opacity:1;fill-rule:nonzero;stroke:none;stroke-width:22;marker:none;enable-background:accumulate"
         d="m 205.87109,957.92474 0,22 397.125,0 0,-22 -397.125,0 z"
         id="path4009"
         inkscape:connector-curvature="0" />
      <path
         inkscape:connector-curvature="0"
         style="fill:#fc0000;fill-opacity:1;fill-rule:evenodd;stroke:none;stroke-width:8.8pt;marker-start:none"
         d="m 155.08616,968.93367 76.12,-44 0,88.00003 -76.12,-44.00003 z"
         id="path5443" />
      <path
         style="fill:#fc0000;fill-opacity:1;fill-rule:evenodd;stroke:none;stroke-width:4.4pt;marker-start:none;marker-end:none"
         d="m 624.56502,968.93367 c 0,12.144 -9.856,22 -22,22 -12.144,0 -22,-9.856 -22,-22 0,-12.144 9.856,-22 22,-22 12.144,0 22,9.856 22,22 z"
         id="path5445"
         inkscape:connector-curvature="0" />
    </g>
  </g>
  <g
     inkscape:groupmode="layer"
     id="layer3"
     inkscape:label="Layer"
     transform="translate(0,312)" />
</svg>
