<?xml version="1.0" encoding="UTF-8" standalone="no"?>
<!-- Created with Inkscape (http://www.inkscape.org/) -->

<svg
   width="1920"
   height="1080"
   id="svg2"
   version="1.1"
   inkscape:version="1.2.2 (b0a8486541, 2022-12-01)"
   sodipodi:docname="takeaways_dem.svg"
   xmlns:inkscape="http://www.inkscape.org/namespaces/inkscape"
   xmlns:sodipodi="http://sodipodi.sourceforge.net/DTD/sodipodi-0.dtd"
   xmlns="http://www.w3.org/2000/svg"
   xmlns:svg="http://www.w3.org/2000/svg"
   xmlns:rdf="http://www.w3.org/1999/02/22-rdf-syntax-ns#"
   xmlns:cc="http://creativecommons.org/ns#"
   xmlns:dc="http://purl.org/dc/elements/1.1/">
  <defs
     id="defs4">
    <marker
       inkscape:stockid="TriangleOutM"
       orient="auto"
       refY="0.0"
       refX="0.0"
       id="marker4844"
       style="overflow:visible"
       inkscape:isstock="true">
      <path
         id="path4471"
         d="M 5.77,0.0 L -2.88,5.0 L -2.88,-5.0 L 5.77,0.0 z "
         style="fill-rule:evenodd;stroke:#000000;stroke-width:1pt;stroke-opacity:1;fill:#000000;fill-opacity:1"
         transform="scale(0.4)" />
    </marker>
    <marker
       inkscape:stockid="Arrow2Mend"
       orient="auto"
       refY="0.0"
       refX="0.0"
       id="Arrow2Mend"
       style="overflow:visible;"
       inkscape:isstock="true">
      <path
         id="path4353"
         style="fill-rule:evenodd;stroke-width:0.625;stroke-linejoin:round;stroke:#000000;stroke-opacity:1;fill:#000000;fill-opacity:1"
         d="M 8.7185878,4.0337352 L -2.2072895,0.016013256 L 8.7185884,-4.0017078 C 6.9730900,-1.6296469 6.9831476,1.6157441 8.7185878,4.0337352 z "
         transform="scale(0.6) rotate(180) translate(0,0)" />
    </marker>
    <marker
       inkscape:stockid="TriangleOutM"
       orient="auto"
       refY="0.0"
       refX="0.0"
       id="TriangleOutM"
       style="overflow:visible"
       inkscape:isstock="true">
      <path
         id="path4953"
         d="M 5.77,0.0 L -2.88,5.0 L -2.88,-5.0 L 5.77,0.0 z "
         style="fill-rule:evenodd;stroke:#885818;stroke-width:1pt;stroke-opacity:1;fill:#885818;fill-opacity:1"
         transform="scale(0.4)" />
    </marker>
    <marker
       inkscape:stockid="TriangleOutL"
       orient="auto"
       refY="0.0"
       refX="0.0"
       id="TriangleOutL"
       style="overflow:visible"
       inkscape:isstock="true">
      <path
         id="path4950"
         d="M 5.77,0.0 L -2.88,5.0 L -2.88,-5.0 L 5.77,0.0 z "
         style="fill-rule:evenodd;stroke:#ffffff;stroke-width:1pt;stroke-opacity:1;fill:#ffffff;fill-opacity:1"
         transform="scale(0.8)" />
    </marker>
    <linearGradient
       id="linearGradient7793-2">
      <stop
         style="stop-color:#ffffff;stop-opacity:1"
         offset="0"
         id="stop4640" />
      <stop
         id="stop4646"
         offset="0.5"
         style="stop-color:#f8d821;stop-opacity:1" />
      <stop
         id="stop4642"
         offset="1"
         style="stop-color:#885818;stop-opacity:1" />
    </linearGradient>
    <linearGradient
       id="linearGradient7793">
      <stop
         id="stop4630"
         offset="0"
         style="stop-color:#ffffff;stop-opacity:1;" />
      <stop
         style="stop-color:#ffffff;stop-opacity:0.28858522;"
         offset="0.5"
         id="stop4632" />
      <stop
         id="stop4634"
         offset="1"
         style="stop-color:#ffffff;stop-opacity:0;" />
    </linearGradient>
    <linearGradient
       id="linearGradient4636">
      <stop
         style="stop-color:#ffffff;stop-opacity:1;"
         offset="0"
         id="stop7795" />
      <stop
         id="stop7803"
         offset="0.5"
         style="stop-color:#ffffff;stop-opacity:0.28858522;" />
      <stop
         style="stop-color:#ffffff;stop-opacity:0;"
         offset="1"
         id="stop7797" />
    </linearGradient>
    <clipPath
       clipPathUnits="userSpaceOnUse"
       id="clipPath4051-9">
      <path
         inkscape:connector-curvature="0"
         d="m 0,62.522 210.473,0 L 210.473,0 0,0 0,62.522 Z"
         id="path4053-4" />
    </clipPath>
    <clipPath
       clipPathUnits="userSpaceOnUse"
       id="clipPath4051-9-4">
      <path
         inkscape:connector-curvature="0"
         d="m 0,62.522 210.473,0 L 210.473,0 0,0 0,62.522 Z"
         id="path4053-4-2" />
    </clipPath>
    <clipPath
       clipPathUnits="userSpaceOnUse"
       id="clipPath4051-9-4-7">
      <path
         inkscape:connector-curvature="0"
         d="M 0,62.522 H 210.473 V 0 H 0 Z"
         id="path4053-4-2-6" />
    </clipPath>
  </defs>
  <sodipodi:namedview
     id="base"
     pagecolor="#ffffff"
     bordercolor="#666666"
     borderopacity="1.0"
     inkscape:pageopacity="0.0"
     inkscape:pageshadow="2"
     inkscape:zoom="0.35355339"
     inkscape:cx="832.97179"
     inkscape:cy="550.12908"
     inkscape:document-units="px"
     inkscape:current-layer="layer1"
     showgrid="false"
     inkscape:window-width="1918"
     inkscape:window-height="1182"
     inkscape:window-x="1"
     inkscape:window-y="17"
     inkscape:window-maximized="0"
     inkscape:showpageshadow="2"
     inkscape:pagecheckerboard="0"
     inkscape:deskcolor="#d1d1d1" />
  <metadata
     id="metadata7">
    <rdf:RDF>
      <cc:Work
         rdf:about="">
        <dc:format>image/svg+xml</dc:format>
        <dc:type
           rdf:resource="http://purl.org/dc/dcmitype/StillImage" />
      </cc:Work>
    </rdf:RDF>
  </metadata>
  <g
     inkscape:groupmode="layer"
     id="layer2"
     inkscape:label="back"
     transform="translate(0,312)"
     sodipodi:insensitive="true">
    <rect
       style="fill:#ffffff;fill-opacity:1;stroke:none"
       id="rect5418"
       width="1920"
       height="1080"
       x="0"
       y="-312" />
  </g>
  <g
     inkscape:groupmode="layer"
     id="layer16"
     inkscape:label="base"
     sodipodi:insensitive="true">
    <text
       id="text4231"
       y="150.00005"
       x="176.43066"
       style="font-style:normal;font-variant:normal;font-weight:bold;font-stretch:normal;line-height:0%;font-family:'DejaVu Sans';-inkscape-font-specification:'DejaVu Sans, Bold';text-align:start;letter-spacing:0px;word-spacing:0px;writing-mode:lr-tb;text-anchor:start;fill:#000000;fill-opacity:1;stroke:none"
       xml:space="preserve"><tspan
         id="tspan4233"
         sodipodi:role="line"
         x="176.43066"
         y="150.00005"
         style="font-size:60px;line-height:1.25"> </tspan><tspan
         id="tspan4235"
         sodipodi:role="line"
         x="176.43066"
         y="225.00005"
         style="font-style:normal;font-variant:normal;font-weight:normal;font-stretch:normal;font-size:60px;line-height:1.25;font-family:'DejaVu Sans';-inkscape-font-specification:'DejaVu Sans'"> </tspan><tspan
         id="tspan4239"
         sodipodi:role="line"
         x="176.43066"
         y="300.00006"
         style="font-style:normal;font-variant:normal;font-weight:normal;font-stretch:normal;font-size:60px;line-height:1.25;font-family:'DejaVu Sans';-inkscape-font-specification:'DejaVu Sans'">- <tspan
   style="font-style:normal;font-variant:normal;font-weight:bold;font-stretch:normal;font-family:'DejaVu Sans';-inkscape-font-specification:'DejaVu Sans Bold'"
   id="tspan3442">Dedup Est Machina</tspan>: Memory deduplication is a</tspan><tspan
         id="tspan4241"
         sodipodi:role="line"
         x="176.43066"
         y="375.00006"
         style="font-style:normal;font-variant:normal;font-weight:normal;font-stretch:normal;font-size:60px;line-height:1.25;font-family:'DejaVu Sans';-inkscape-font-specification:'DejaVu Sans'">  weird machine, and a more powerful side-channel</tspan><tspan
         sodipodi:role="line"
         x="176.43066"
         y="450.00006"
         style="font-style:normal;font-variant:normal;font-weight:normal;font-stretch:normal;font-size:60px;line-height:1.25;font-family:'DejaVu Sans';-inkscape-font-specification:'DejaVu Sans'"
         id="tspan3446">  than previously thought.</tspan><tspan
         sodipodi:role="line"
         x="176.43066"
         y="525.00006"
         style="font-style:normal;font-variant:normal;font-weight:normal;font-stretch:normal;font-size:60px;line-height:1.25;font-family:'DejaVu Sans';-inkscape-font-specification:'DejaVu Sans'"
         id="tspan3441"> </tspan><tspan
         sodipodi:role="line"
         x="176.43066"
         y="600.00006"
         style="font-style:normal;font-variant:normal;font-weight:normal;font-stretch:normal;font-size:60px;line-height:1.25;font-family:'DejaVu Sans';-inkscape-font-specification:'DejaVu Sans'"
         id="tspan3443">- Memory saving optimisations, both in hardware and</tspan><tspan
         sodipodi:role="line"
         x="176.43066"
         y="675.00006"
         style="font-style:normal;font-variant:normal;font-weight:normal;font-stretch:normal;font-size:60px;line-height:1.25;font-family:'DejaVu Sans';-inkscape-font-specification:'DejaVu Sans'"
         id="tspan3445">  in software come at a price.</tspan><tspan
         sodipodi:role="line"
         x="176.43066"
         y="750.00006"
         style="font-style:normal;font-variant:normal;font-weight:normal;font-stretch:normal;font-size:60px;line-height:1.25;font-family:'DejaVu Sans';-inkscape-font-specification:'DejaVu Sans'"
         id="tspan3508"> </tspan><tspan
         sodipodi:role="line"
         x="176.43066"
         y="825.00006"
         style="font-style:normal;font-variant:normal;font-weight:normal;font-stretch:normal;font-size:60px;line-height:1.25;font-family:'DejaVu Sans';-inkscape-font-specification:'DejaVu Sans'"
         id="tspan3517">- Even without bugs, reliable browser exploitation</tspan><tspan
         sodipodi:role="line"
         x="176.43066"
         y="900.00006"
         style="font-style:normal;font-variant:normal;font-weight:normal;font-stretch:normal;font-size:60px;line-height:1.25;font-family:'DejaVu Sans';-inkscape-font-specification:'DejaVu Sans'"
         id="tspan3463">  in JavaScript <tspan
   dy="0 0 0 0 0 0 0 0 0 0 0 0 0 0 0 0 0 0 0 0 0 0 0 0 0 0 0 0 0 0 0 0 0 0 0"
   style="font-style:normal;font-variant:normal;font-weight:normal;font-stretch:normal;font-size:60px;font-family:'DejaVu Sans';-inkscape-font-specification:'DejaVu Sans'"
   id="tspan3465">is possible, using dedup+rowhammer.</tspan></tspan></text>
    <g
       transform="matrix(2.2420222,0,0,-2.2420222,1443.2377,154.78511)"
       id="g4167">
      <g
         transform="translate(193.2002,26.7959)"
         id="g4039">
        <path
           inkscape:connector-curvature="0"
           id="path4041"
           style="fill:#0e88d3;fill-opacity:1;fill-rule:nonzero;stroke:none"
           d="M 0,0 V 6.154 H -2.558 V 7.138 H 4.044 V 6.154 H 1.489 V 0 Z" />
      </g>
      <g
         transform="translate(25.8418,13.7285)"
         id="g4043">
        <path
           inkscape:connector-curvature="0"
           id="path4045"
           style="fill:#231f20;fill-opacity:1;fill-rule:nonzero;stroke:none"
           d="M 0,0 -12.339,33.351 H -4.93 L 4.643,7.545 13.918,33.351 h 4.979 L 6.939,0 Z" />
      </g>
      <g
         id="g4047">
        <g
           clip-path="url(#clipPath4051-9-4-7)"
           id="g4049">
          <g
             transform="translate(48.7734,47.0791)"
             id="g4055">
            <path
               inkscape:connector-curvature="0"
               id="path4057"
               style="fill:#231f20;fill-opacity:1;fill-rule:nonzero;stroke:none"
               d="m 0,0 h 6.942 v -20.454 c 0,-3.7 0.627,-6.15 1.883,-7.351 1.253,-1.206 2.881,-1.804 4.879,-1.804 1.967,0 3.533,0.591 4.698,1.78 1.164,1.189 1.747,3.479 1.747,6.878 V 0 h 6.039 v -20.484 c 0,-3.863 -0.484,-6.629 -1.453,-8.304 -0.968,-1.675 -2.37,-2.993 -4.202,-3.956 -1.835,-0.961 -4.155,-1.442 -6.964,-1.442 -2.764,0 -5.138,0.448 -7.122,1.34 -1.983,0.893 -3.553,2.226 -4.71,3.991 C 0.579,-27.091 0,-24.276 0,-20.416 Z" />
          </g>
          <g
             transform="translate(84.4697,21.8857)"
             id="g4059">
            <path
               inkscape:connector-curvature="0"
               id="path4061"
               style="fill:#ffffff;fill-opacity:1;fill-rule:nonzero;stroke:none"
               d="m 0,0 v -0.885 l 0.26,0.234 C 0.197,-0.402 0.146,-0.156 0.102,0.094 Z" />
          </g>
          <g
             transform="translate(88.9219,31.7129)"
             id="g4063">
            <path
               inkscape:connector-curvature="0"
               id="path4065"
               style="fill:#0e88d3;fill-opacity:1;fill-rule:nonzero;stroke:none"
               d="M 0,0 C 0,0.145 0.11,0.292 0.256,0.292 0.405,0.292 0.515,0.145 0.515,0 0.515,-0.147 0.405,-0.257 0.256,-0.257 0.11,-0.257 0,-0.147 0,0" />
          </g>
          <g
             transform="translate(105.3721,23.6152)"
             id="g4067">
            <path
               inkscape:connector-curvature="0"
               id="path4069"
               style="fill:#0e88d3;fill-opacity:1;fill-rule:nonzero;stroke:none"
               d="M 0,0 C -0.401,1.103 -1.47,1.84 -2.942,1.729 -3.75,3.274 -5.04,2.544 -5.408,2.095 -5.005,1.729 -4.675,1.58 -4.195,1.508 v -0.33 c -0.918,0.035 -1.213,0.402 -1.837,1.07 -0.26,-2.21 2.317,-2.988 3.126,-1.183 1.215,0.038 1.952,-0.512 2.21,-1.286 0.253,-0.771 0,-1.622 -0.406,-2.023 -0.736,-0.884 -1.916,-0.884 -2.981,-0.331 -0.659,0.331 -1.363,1.031 -1.987,1.691 -0.917,1.031 -1.437,1.475 -2.139,1.841 -0.384,0.183 -0.767,0.274 -1.143,0.331 -0.219,0.04 -0.439,0.067 -0.658,0.073 -0.212,0 -0.406,-0.022 -0.586,-0.057 -1.574,-0.174 -3.172,-0.949 -5.082,-1.12 h -1.03 c -0.64,-0.557 -1.203,-1.054 -1.696,-1.493 l -1.21,-1.047 c 0.002,-0.009 0.01,-0.016 0.01,-0.025 -0.518,-0.473 -0.819,-0.747 -0.819,-0.747 0.145,-1.142 0.18,-1.693 0.18,-2.722 0,-0.85 -0.035,-1.257 -0.035,-1.625 -0.037,-0.365 -0.112,-0.66 -0.22,-0.952 -0.074,-0.261 -0.296,-0.479 -0.664,-0.518 -0.33,-0.071 -1.107,0.518 -1.361,0.148 -0.22,-0.295 0.037,-0.993 0.254,-1.176 h 2.174 c 0.26,0.549 0.369,0.881 0.516,1.21 0.186,0.259 0.335,0.667 0.477,0.923 0.151,0.255 0.296,0.626 0.372,0.881 0.035,0.259 0.146,0.52 0.182,0.698 0.151,0.411 0.366,0.781 0.515,0.994 0.035,0.07 0.08,0.125 0.118,0.183 0.098,-0.144 0.189,-0.285 0.25,-0.396 0.518,-0.812 0.957,-1.441 1.694,-1.734 0.293,-0.146 0.478,-0.261 0.588,-0.371 0.11,-0.106 0.11,-0.441 0.075,-0.658 0,-0.297 -0.113,-0.554 -0.405,-0.663 -0.481,-0.186 -1.25,0.512 -1.548,0.143 -0.257,-0.293 0.039,-0.845 0.298,-1.21 h 1.983 c 0.482,0.772 0.666,1.838 0.666,2.723 0,0.919 0,1.142 -0.554,1.361 -0.185,0.113 -0.368,0.554 -0.515,1.031 0,0.054 0.003,0.147 0.005,0.254 0.946,0.314 1.993,0.867 3.139,1.709 0.006,-0.15 0.012,-0.302 0.025,-0.456 0.183,-1.253 0.327,-2.392 1.287,-3.311 0.254,-0.259 0.474,-0.518 0.511,-0.666 0,-0.11 -0.147,-0.512 -0.257,-0.698 -0.218,-0.478 -0.697,-0.88 -1.064,-0.919 -0.477,-0.071 -1.032,0.551 -1.403,0.182 -0.329,-0.329 0.113,-1.027 0.333,-1.21 h 2.023 c 0.664,1.21 1.583,2.243 1.917,2.906 0.181,0.479 0.181,0.664 -0.187,0.806 -0.662,0.372 -0.587,1.181 -0.403,2.1 0.048,0.153 0.125,0.306 0.205,0.455 0.5,-1.393 1.153,-2.697 2.667,-3.103 0.255,-0.034 0.624,-0.222 0.663,-0.298 0,-0.073 0,-0.368 -0.039,-0.584 -0.071,-0.444 -0.331,-0.96 -0.664,-1.215 -0.362,-0.295 -1.284,0.663 -1.584,0.109 -0.217,-0.443 0.151,-1.032 0.336,-1.176 h 1.951 c 0.548,1.21 1.03,2.282 1.18,3.052 0.144,0.923 0.144,1.253 -0.556,1.399 -0.368,0.042 -0.663,0.187 -0.772,0.701 -0.26,0.92 -0.222,2.465 -0.917,3.531 0.77,-0.917 1.613,-1.58 2.35,-1.951 1.695,-0.92 3.461,-0.584 4.304,0.627 C 0.22,-1.692 0.22,-0.662 0,0" />
          </g>
          <g
             transform="translate(96.54,33.8486)"
             id="g4071">
            <path
               inkscape:connector-curvature="0"
               id="path4073"
               style="fill:#0e88d3;fill-opacity:1;fill-rule:nonzero;stroke:none"
               d="M 0,0 C 4.382,4.156 10.38,8.572 17.963,10.449 11.56,8.17 2.762,2.167 0,0 m -12.514,2.131 c 0.7,7.512 4.124,13.029 6.445,15.568 C -9.42,12.766 -11.333,5.921 -12.514,2.131 M -9.313,1.104 C -9.35,1.397 -9.495,1.578 -9.752,1.728 -9.236,2.979 -8.727,3.975 -7.728,5.299 -8.648,3.455 -9.09,1.912 -9.313,1.104 m 35.042,11.995 c -1.51,0.184 -4.936,-0.184 -7.878,-0.844 1.841,0.92 2.357,1.063 3.018,1.473 0.182,0.108 0.294,0.366 0.294,0.772 0,0.441 -0.402,0.513 -0.88,0.441 C 19.8,14.903 18.771,14.537 17.518,14.094 15.015,13.063 11.412,11.372 7.141,8.496 3.386,5.921 0.886,3.715 -1.84,0.954 -2.55,0.228 -3.368,-0.677 -4.22,-1.68 c -0.19,0.332 -0.305,0.409 -0.637,0.316 0.956,2.172 1.064,2.284 1.584,3.531 0.218,0.593 0.109,1.036 -0.11,1.288 -0.298,0.52 -0.703,0.15 -0.958,-0.037 -0.403,-0.477 -0.516,-0.589 -1.399,-1.69 1.103,3.681 1.693,3.974 2.722,6.074 0.113,0.256 0.113,0.694 -0.037,1.029 -0.109,0.258 -0.257,0.406 -0.476,0.293 -0.407,-0.184 -0.516,-0.401 -1.291,-1.322 1.102,2.097 2.614,4.562 2.763,4.964 0.183,0.443 0.438,0.517 -0.036,1.179 -0.37,0.555 -0.699,0.149 -0.96,-0.109 -0.218,-0.108 -0.665,-0.627 -1.433,-1.547 1.617,3.02 3.13,4.416 3.422,4.933 0.367,0.589 0.405,0.736 0.112,1.398 -0.261,0.589 -0.776,0.332 -1.03,0 -1.144,-1.103 -1.071,-0.848 -2.984,-3.055 0.993,2.616 2.727,4.603 3.347,5.631 0.263,0.404 0.297,0.552 0.037,1.548 -0.146,0.44 -0.511,0.591 -0.881,0.553 -0.553,-0.113 -1.066,-0.408 -2.098,-1.287 -2.098,-1.88 -4.893,-4.606 -7.177,-9.499 -2.21,-4.599 -2.686,-8.945 -2.686,-11.924 0,-4.631 1.212,-8.639 2.331,-11.161 -0.002,0.094 -0.01,0.17 -0.015,0.268 -0.072,1.25 0.148,2.685 0.37,3.384 0.467,1.843 1.075,2.831 1.587,3.632 l -0.892,1.225 1.182,-0.366 -0.698,1.546 c 0,0 0.887,-0.103 1.574,-1.017 0.429,0.388 1.299,0.729 2.141,0.057 0.554,0.038 0.886,-0.074 1.18,-0.22 0.625,-0.366 0.55,-1.029 0.514,-1.177 -0.33,0.295 -1.252,0.886 -2.245,0.112 l 1.841,-0.629 -2.32,-0.179 v -2.398 l -2.763,-2.459 v -0.943 l 1.89,1.664 v -0.871 l -3.328,-2.99 v -0.911 l 4.201,3.777 v -0.009 l 1.058,0.948 0.009,-0.009 c 0.626,0.518 0.884,0.775 1.253,0.959 0.44,0.297 0.515,-0.033 0.588,-0.513 0.111,-0.403 0.587,-0.813 1.585,0.108 2.944,2.653 6.035,4.087 9.308,5.666 -1.768,-1.211 -5.039,-3.013 -6.147,-4.23 -0.477,-0.551 0,-1.913 0.773,-1.326 1.4,0.922 3.24,1.067 4.16,1.033 0.44,0 0.922,0.293 1.179,0.663 0.256,0.331 0.256,0.7 -0.33,0.737 3.018,0.915 3.792,1.175 6.294,1.396 0.662,0.037 1.067,0.404 1.175,0.959 0.113,0.512 -0.147,0.663 -0.77,0.734 -0.738,0.108 -2.028,-0.112 -3.316,-0.33 2.911,1.249 6.441,1.913 9.24,2.721 0.883,0.256 0.997,0.516 1.032,1.032 0.106,0.551 -0.334,0.551 -1.328,0.551 C 15.865,1.912 12.847,1.728 8.246,0.4 c 4.343,2.174 6.769,3.205 10.712,4.196 1.066,0.298 1.25,0.553 1.325,1.106 0.184,0.627 -0.335,0.627 -0.7,0.553 -0.554,-0.038 -1.876,0 -4.568,-0.809 2.62,1.138 5.483,2.466 7.545,3.126 0.445,0.151 0.702,0.442 0.702,0.923 0,0.365 -0.11,0.404 -0.55,0.404 -0.886,0 -2.321,-0.294 -4.05,-0.81 3.531,1.508 4.6,2.025 6.953,2.43 0.776,0.183 0.922,0.439 0.957,0.918 0.113,0.662 -0.329,0.626 -0.843,0.662" />
          </g>
          <g
             transform="translate(131.9443,39.8359)"
             id="g4075">
            <path
               inkscape:connector-curvature="0"
               id="path4077"
               style="fill:#0e88d3;fill-opacity:1;fill-rule:nonzero;stroke:none"
               d="m 0,0 -2.641,7.14 h 1.584 L 0.991,1.616 2.98,7.14 H 4.043 L 1.483,0 Z" />
          </g>
          <g
             transform="translate(136.9395,39.8359)"
             id="g4079">
            <path
               inkscape:connector-curvature="0"
               id="path4081"
               style="fill:#0e88d3;fill-opacity:1;fill-rule:nonzero;stroke:none"
               d="M 0,0 V 7.14 H 2.672 C 3.218,7.14 3.636,7.072 3.92,6.936 4.208,6.798 4.435,6.592 4.6,6.313 4.764,6.034 4.848,5.721 4.848,5.37 4.848,4.951 4.728,4.557 4.485,4.186 4.244,3.813 3.901,3.531 3.463,3.334 L 5.8,0 H 3.99 L 2.216,2.92 H 1.399 V 0 Z m 1.399,3.899 h 0.34 c 0.616,0 1.036,0.132 1.27,0.399 0.234,0.268 0.352,0.57 0.352,0.908 0,0.293 -0.094,0.524 -0.284,0.697 C 2.886,6.075 2.498,6.162 1.917,6.162 H 1.399 Z" />
          </g>
          <path
             inkscape:connector-curvature="0"
             id="path4083"
             style="fill:#0e88d3;fill-opacity:1;fill-rule:nonzero;stroke:none"
             d="m 143.7,46.976 h 1.486 v -7.14 H 143.7 Z" />
          <g
             transform="translate(145.7559,38.582)"
             id="g4085">
            <path
               inkscape:connector-curvature="0"
               id="path4087"
               style="fill:#0e88d3;fill-opacity:1;fill-rule:nonzero;stroke:none"
               d="m 0,0 -0.013,1.062 c 0.385,-0.152 0.787,-0.228 1.2,-0.228 0.172,0 0.325,0.033 0.459,0.097 0.132,0.065 0.236,0.17 0.316,0.312 0.078,0.146 0.117,0.444 0.117,0.901 V 8.395 H 3.565 V 2.301 C 3.565,1.632 3.49,1.145 3.339,0.84 3.183,0.533 2.941,0.288 2.609,0.104 2.279,-0.082 1.84,-0.173 1.288,-0.173 0.88,-0.173 0.453,-0.117 0,0" />
          </g>
          <g
             transform="translate(151.126,39.8359)"
             id="g4089">
            <path
               inkscape:connector-curvature="0"
               id="path4091"
               style="fill:#0e88d3;fill-opacity:1;fill-rule:nonzero;stroke:none"
               d="M 0,0 V 7.14 H 4.575 V 6.157 H 1.486 V 4.168 H 4.04 V 3.185 H 1.486 V 1.013 H 4.801 V 0 Z" />
          </g>
          <g
             transform="translate(130.0166,33.9336)"
             id="g4093">
            <path
               inkscape:connector-curvature="0"
               id="path4095"
               style="fill:#0e88d3;fill-opacity:1;fill-rule:nonzero;stroke:none"
               d="m 0,0 h 1.487 v -4.379 c 0,-0.791 0.132,-1.314 0.403,-1.574 0.267,-0.258 0.613,-0.385 1.044,-0.385 0.42,0 0.755,0.126 1.004,0.382 0.249,0.253 0.375,0.744 0.375,1.473 V 0 h 1.292 v -4.385 c 0,-0.826 -0.104,-1.42 -0.312,-1.776 C 5.085,-6.521 4.788,-6.804 4.396,-7.01 4.002,-7.214 3.503,-7.317 2.903,-7.317 c -0.592,0 -1.1,0.094 -1.523,0.289 -0.424,0.19 -0.76,0.474 -1.009,0.852 C 0.124,-5.798 0,-5.197 0,-4.37 Z" />
          </g>
          <g
             transform="translate(137.3916,26.7959)"
             id="g4097">
            <path
               inkscape:connector-curvature="0"
               id="path4099"
               style="fill:#0e88d3;fill-opacity:1;fill-rule:nonzero;stroke:none"
               d="M 0,0 V 7.138 H 1.312 L 4.61,2.263 V 7.138 H 5.804 V 0 H 4.47 L 1.192,4.876 V 0 Z" />
          </g>
          <path
             inkscape:connector-curvature="0"
             id="path4101"
             style="fill:#0e88d3;fill-opacity:1;fill-rule:nonzero;stroke:none"
             d="m 145.143,33.934 h 1.482 v -7.138 h -1.482 z" />
          <g
             transform="translate(150.2295,26.7959)"
             id="g4103">
            <path
               inkscape:connector-curvature="0"
               id="path4105"
               style="fill:#0e88d3;fill-opacity:1;fill-rule:nonzero;stroke:none"
               d="m 0,0 -2.64,7.138 h 1.586 L 0.995,1.615 2.981,7.138 H 4.043 L 1.484,0 Z" />
          </g>
          <g
             transform="translate(155.0645,26.7959)"
             id="g4107">
            <path
               inkscape:connector-curvature="0"
               id="path4109-1"
               style="fill:#0e88d3;fill-opacity:1;fill-rule:nonzero;stroke:none"
               d="M 0,0 V 7.138 H 4.575 V 6.154 H 1.487 V 4.167 H 4.039 V 3.183 H 1.487 V 1.013 H 4.801 V 0 Z" />
          </g>
          <g
             transform="translate(161.1016,26.7959)"
             id="g4111">
            <path
               inkscape:connector-curvature="0"
               id="path4113"
               style="fill:#0e88d3;fill-opacity:1;fill-rule:nonzero;stroke:none"
               d="M 0,0 V 7.138 H 2.67 C 3.215,7.138 3.634,7.07 3.92,6.934 4.207,6.797 4.431,6.589 4.597,6.312 4.763,6.032 4.847,5.718 4.847,5.368 4.847,4.948 4.726,4.555 4.484,4.183 4.242,3.812 3.901,3.527 3.461,3.333 L 5.798,0 H 3.988 L 2.215,2.916 H 1.396 V 0 Z m 1.396,3.896 h 0.342 c 0.612,0 1.035,0.134 1.27,0.401 C 3.243,4.563 3.361,4.866 3.361,5.203 3.361,5.496 3.266,5.728 3.075,5.9 2.885,6.073 2.497,6.158 1.914,6.158 H 1.396 Z" />
          </g>
          <g
             transform="translate(167.3457,26.8564)"
             id="g4115">
            <path
               inkscape:connector-curvature="0"
               id="path4117"
               style="fill:#0e88d3;fill-opacity:1;fill-rule:nonzero;stroke:none"
               d="M 0,0 V 1.227 C 0.559,0.992 0.974,0.854 1.252,0.81 1.527,0.761 1.778,0.739 2.011,0.739 c 0.418,0 0.73,0.092 0.93,0.281 C 3.148,1.206 3.25,1.43 3.25,1.69 3.25,1.89 3.195,2.07 3.078,2.23 2.965,2.388 2.683,2.594 2.235,2.845 L 1.753,3.11 C 1.065,3.494 0.602,3.847 0.357,4.172 0.11,4.496 -0.015,4.874 -0.015,5.302 c 0,0.536 0.207,0.996 0.617,1.381 0.414,0.382 1.002,0.572 1.775,0.572 0.572,0 1.22,-0.079 1.941,-0.245 V 5.866 C 3.581,6.142 2.995,6.275 2.56,6.275 2.2,6.275 1.926,6.199 1.74,6.043 1.551,5.887 1.46,5.698 1.46,5.48 1.46,5.313 1.518,5.158 1.63,5.013 1.742,4.866 2.02,4.668 2.469,4.419 L 2.986,4.132 C 3.774,3.692 4.277,3.31 4.496,2.984 4.709,2.657 4.816,2.289 4.816,1.88 4.816,1.296 4.593,0.795 4.146,0.382 3.701,-0.033 2.991,-0.24 2.017,-0.24 1.44,-0.24 0.767,-0.16 0,0" />
          </g>
          <path
             inkscape:connector-curvature="0"
             id="path4119"
             style="fill:#0e88d3;fill-opacity:1;fill-rule:nonzero;stroke:none"
             d="m 173.391,33.934 h 1.485 v -7.138 h -1.485 z" />
          <g
             transform="translate(177.9648,26.7959)"
             id="g4121">
            <path
               inkscape:connector-curvature="0"
               id="path4123"
               style="fill:#0e88d3;fill-opacity:1;fill-rule:nonzero;stroke:none"
               d="m 0,0 v 6.154 h -2.556 v 0.984 h 6.6 V 6.154 H 1.484 V 0 Z" />
          </g>
          <g
             transform="translate(182.5547,26.7959)"
             id="g4125">
            <path
               inkscape:connector-curvature="0"
               id="path4127"
               style="fill:#0e88d3;fill-opacity:1;fill-rule:nonzero;stroke:none"
               d="M 0,0 V 7.138 H 4.574 V 6.154 H 1.484 V 4.167 H 4.039 V 3.183 H 1.484 V 1.013 H 4.8 V 0 Z" />
          </g>
          <path
             inkscape:connector-curvature="0"
             id="path4129"
             style="fill:#0e88d3;fill-opacity:1;fill-rule:nonzero;stroke:none"
             d="m 188.558,33.934 h 1.487 v -7.138 h -1.487 z" />
          <g
             transform="translate(129.293,13.752)"
             id="g4131">
            <path
               inkscape:connector-curvature="0"
               id="path4133"
               style="fill:#0e88d3;fill-opacity:1;fill-rule:nonzero;stroke:none"
               d="M 0,0 2.778,7.142 H 4.269 L 7.049,0 H 5.521 L 4.779,1.907 H 1.822 L 1.082,0 Z M 2.191,2.858 H 4.41 L 3.303,5.702 Z" />
          </g>
          <g
             transform="translate(137.2656,13.752)"
             id="g4135">
            <path
               inkscape:connector-curvature="0"
               id="path4137"
               style="fill:#0e88d3;fill-opacity:1;fill-rule:nonzero;stroke:none"
               d="M 0,0 V 7.142 H 1.966 L 3.691,2.119 5.463,7.142 H 7.189 V 0 H 5.82 V 5.39 L 4.076,0.479 H 2.878 L 1.169,5.464 V 0 Z" />
          </g>
          <g
             transform="translate(145.9219,13.8164)"
             id="g4139">
            <path
               inkscape:connector-curvature="0"
               id="path4141"
               style="fill:#0e88d3;fill-opacity:1;fill-rule:nonzero;stroke:none"
               d="M 0,0 V 1.226 C 0.558,0.991 0.975,0.851 1.248,0.804 1.525,0.761 1.778,0.737 2.011,0.737 c 0.414,0 0.727,0.095 0.932,0.281 0.209,0.184 0.309,0.41 0.309,0.67 0,0.201 -0.056,0.38 -0.173,0.541 C 2.964,2.387 2.685,2.591 2.236,2.844 L 1.754,3.107 C 1.064,3.491 0.6,3.845 0.356,4.17 0.11,4.494 -0.015,4.87 -0.015,5.3 c 0,0.537 0.203,0.996 0.617,1.38 0.412,0.383 1.003,0.575 1.77,0.575 0.577,0 1.227,-0.082 1.945,-0.245 V 5.864 C 3.582,6.139 2.993,6.277 2.558,6.277 2.202,6.277 1.929,6.196 1.74,6.042 1.552,5.883 1.459,5.698 1.459,5.479 1.459,5.311 1.517,5.154 1.629,5.011 1.742,4.866 2.021,4.668 2.469,4.416 L 2.985,4.133 C 3.774,3.69 4.276,3.308 4.493,2.98 4.707,2.654 4.817,2.288 4.817,1.877 4.817,1.294 4.593,0.793 4.146,0.38 3.699,-0.032 2.991,-0.242 2.017,-0.242 1.438,-0.242 0.767,-0.162 0,0" />
          </g>
          <g
             transform="translate(153.2354,13.752)"
             id="g4143">
            <path
               inkscape:connector-curvature="0"
               id="path4145"
               style="fill:#0e88d3;fill-opacity:1;fill-rule:nonzero;stroke:none"
               d="m 0,0 v 6.157 h -2.557 v 0.985 h 6.6 V 6.157 H 1.485 V 0 Z" />
          </g>
          <g
             transform="translate(157.8662,13.752)"
             id="g4147">
            <path
               inkscape:connector-curvature="0"
               id="path4149"
               style="fill:#0e88d3;fill-opacity:1;fill-rule:nonzero;stroke:none"
               d="M 0,0 V 7.142 H 4.574 V 6.157 H 1.485 V 4.169 H 4.039 V 3.185 H 1.485 V 1.013 H 4.801 V 0 Z" />
          </g>
          <g
             transform="translate(163.8027,13.752)"
             id="g4151">
            <path
               inkscape:connector-curvature="0"
               id="path4153"
               style="fill:#0e88d3;fill-opacity:1;fill-rule:nonzero;stroke:none"
               d="m 0,0 v 7.142 h 2.67 c 0.549,0 0.966,-0.07 1.253,-0.204 C 4.208,6.799 4.434,6.593 4.599,6.313 4.766,6.036 4.85,5.72 4.85,5.37 4.85,4.952 4.728,4.559 4.487,4.185 4.246,3.813 3.907,3.531 3.463,3.333 L 5.801,0 H 3.99 L 2.215,2.918 H 1.399 V 0 Z M 1.399,3.897 H 1.74 c 0.615,0 1.038,0.135 1.274,0.402 C 3.246,4.567 3.36,4.869 3.36,5.208 3.36,5.499 3.267,5.731 3.079,5.904 2.887,6.075 2.499,6.161 1.916,6.161 H 1.399 Z" />
          </g>
          <g
             transform="translate(170.3652,13.752)"
             id="g4155">
            <path
               inkscape:connector-curvature="0"
               id="path4157"
               style="fill:#0e88d3;fill-opacity:1;fill-rule:nonzero;stroke:none"
               d="M 0,0 V 7.142 H 3.076 C 3.896,7.142 4.539,7.01 4.998,6.745 5.454,6.48 5.82,6.093 6.091,5.581 6.361,5.067 6.498,4.446 6.498,3.722 6.498,3.012 6.368,2.375 6.108,1.813 5.852,1.256 5.475,0.813 4.98,0.488 4.481,0.163 3.804,0 2.943,0 Z m 1.487,1.013 h 1.108 c 0.579,0 1.022,0.092 1.331,0.27 C 4.229,1.463 4.475,1.77 4.653,2.198 4.831,2.627 4.92,3.107 4.92,3.633 4.92,4.138 4.835,4.586 4.659,4.976 4.486,5.364 4.246,5.657 3.941,5.859 3.634,6.063 3.112,6.161 2.382,6.161 H 1.487 Z" />
          </g>
          <g
             transform="translate(177.041,13.752)"
             id="g4159">
            <path
               inkscape:connector-curvature="0"
               id="path4161"
               style="fill:#0e88d3;fill-opacity:1;fill-rule:nonzero;stroke:none"
               d="m 0,0 2.777,7.142 h 1.49 L 7.045,0 H 5.521 L 4.775,1.907 H 1.821 L 1.076,0 Z M 2.192,2.858 H 4.407 L 3.3,5.702 Z" />
          </g>
          <g
             transform="translate(184.8125,13.752)"
             id="g4163">
            <path
               inkscape:connector-curvature="0"
               id="path4165"
               style="fill:#0e88d3;fill-opacity:1;fill-rule:nonzero;stroke:none"
               d="M 0,0 V 7.142 H 1.966 L 3.688,2.119 5.462,7.142 H 7.189 V 0 H 5.819 V 5.39 L 4.075,0.479 H 2.881 L 1.17,5.464 V 0 Z" />
          </g>
        </g>
      </g>
    </g>
    <text
       xml:space="preserve"
       style="font-style:normal;font-variant:normal;font-weight:bold;font-stretch:normal;line-height:0%;font-family:'DejaVu Sans Mono';-inkscape-font-specification:'DejaVu Sans Mono Bold';text-align:start;letter-spacing:0px;word-spacing:0px;writing-mode:lr-tb;text-anchor:start;fill:#000000;fill-opacity:1;stroke:none"
       x="91.376839"
       y="1017.0782"
       id="text3440"><tspan
         style="font-style:normal;font-variant:normal;font-weight:bold;font-stretch:normal;font-size:60px;line-height:1.25;font-family:'DejaVu Sans Mono';-inkscape-font-specification:'DejaVu Sans Mono Bold'"
         y="1017.0782"
         x="91.376839"
         sodipodi:role="line"
         id="tspan3458">https://www.vusec.net/projects/dedup-est-machina</tspan></text>
  </g>
  <g
     inkscape:groupmode="layer"
     id="layer1"
     inkscape:label="title"
     sodipodi:insensitive="true">
    <text
       xml:space="preserve"
       style="font-style:normal;font-variant:normal;font-weight:bold;font-stretch:normal;line-height:0%;font-family:'DejaVu Sans';-inkscape-font-specification:'DejaVu Sans, Bold';text-align:center;letter-spacing:0px;word-spacing:0px;writing-mode:lr-tb;text-anchor:middle;fill:#000000;fill-opacity:1;stroke:none"
       x="958.63281"
       y="110"
       id="text6208"><tspan
         sodipodi:role="line"
         id="tspan4213"
         x="958.63281"
         y="110"
         style="font-size:70px;line-height:1.25">takeaways:</tspan><tspan
         sodipodi:role="line"
         id="tspan4229"
         x="970.81787"
         y="197.5"
         style="font-size:70px;line-height:1.25"> </tspan></text>
  </g>
</svg>
